<svg width="1681" height="271" viewBox="0 0 1681 271" fill="none" xmlns="http://www.w3.org/2000/svg">
<path d="M317.22 256.999V14.9399H394.761C414.477 14.9399 431.551 18.0565 445.948 24.3066C459.413 29.7944 470.948 39.178 479.095 51.2378C486.802 62.9588 490.647 76.7632 490.664 92.6679C490.681 101.831 488.97 110.927 485.565 119.43C482.178 127.933 477.334 135.775 471.27 142.618C465.003 149.664 457.533 155.49 449.166 159.827L503.926 256.999H448.15L404.958 173.123C400.656 173.36 395.998 173.462 391.018 173.462C383.057 173.411 375.097 172.716 367.22 171.429V256.999H317.22ZM367.22 57.8944V129.135C371.523 129.813 375.825 130.321 380.144 130.66C384.446 130.998 388.969 131.168 393.745 131.168C408.244 131.168 419.474 127.949 427.401 121.462C435.345 114.975 439.308 105.947 439.308 94.3617C439.308 82.7592 435.345 73.7821 427.401 67.4304C419.474 61.0618 408.261 57.8775 393.745 57.8775H367.22V57.8944ZM574.303 256.999L670.171 14.9399H723.915L820.156 256.999H768.123L748.408 203.814H644.002L624.287 256.999H574.286H574.303ZM659.992 160.86H732.418L696.036 64.3647L659.992 160.86ZM978.339 262.114C964.637 262.284 951.052 259.658 938.366 254.442C926.577 249.564 916.008 242.111 907.437 232.626C898.816 222.988 892.786 211.318 889.924 198.699L937.18 188.469C939.772 197.276 945.209 204.966 952.661 210.301C966.246 219.109 983.336 220.583 998.224 214.214C1003.44 211.894 1007.91 208.167 1011.15 203.476C1014.25 198.835 1015.84 193.364 1015.74 187.791C1015.94 180.711 1012.79 173.953 1007.24 169.549C1001.58 164.891 992.398 161.08 979.694 158.133L968.82 155.745C943.871 150.291 925.51 141.483 913.721 129.321C902.068 117.499 895.682 101.442 896.038 84.8256C895.92 74.4596 898.121 64.2122 902.508 54.8286C906.76 45.7838 912.841 37.7214 920.361 31.1156C928.203 24.2727 937.248 18.9542 947.055 15.4481C957.607 11.6201 968.786 9.72305 980.033 9.82468C992.889 9.70612 1005.61 12.2637 1017.45 17.3112C1028.71 22.1046 1038.74 29.4557 1046.68 38.7885C1054.71 48.2906 1060.22 59.6729 1062.67 71.8682L1016.09 82.0986C1011.72 65.0761 996.209 53.3212 978.661 53.8124C972.97 53.7107 967.33 54.9303 962.181 57.3693C957.523 59.5712 953.525 62.9927 950.612 67.2611C947.8 71.4278 946.31 76.3736 946.378 81.4211C946.039 88.7044 949.511 95.6151 955.558 99.6632C961.655 103.864 970.734 107.336 982.76 110.063L993.634 112.434C1018.35 117.888 1036.66 126.527 1048.56 138.349C1060.45 150.172 1066.42 165.281 1066.42 183.692C1066.55 194.617 1064.28 205.457 1059.78 215.4C1055.41 224.902 1049.09 233.371 1041.25 240.298C1033.1 247.463 1023.63 252.968 1013.37 256.491C1002.09 260.336 990.247 262.25 978.339 262.114ZM1226.7 262.114C1213 262.284 1199.41 259.658 1186.73 254.442C1174.94 249.564 1164.37 242.111 1155.8 232.626C1147.18 222.988 1141.15 211.318 1138.28 198.699L1185.54 188.469C1188.13 197.276 1193.57 204.966 1201.02 210.301C1214.62 219.109 1231.7 220.583 1246.58 214.214C1251.8 211.894 1256.27 208.167 1259.51 203.476C1262.61 198.835 1264.2 193.364 1264.1 187.791C1264.3 180.711 1261.15 173.953 1255.6 169.549C1249.94 164.891 1240.76 161.08 1228.05 158.133L1217.18 155.745C1192.23 150.291 1173.87 141.483 1162.08 129.321C1150.43 117.499 1144.04 101.442 1144.4 84.8256C1144.28 74.4596 1146.48 64.2122 1150.87 54.8286C1155.12 45.7838 1161.2 37.7214 1168.72 31.1156C1176.56 24.2727 1185.61 18.9542 1195.42 15.4481C1205.98 11.6201 1217.16 9.72305 1228.39 9.82468C1241.25 9.70612 1253.97 12.2637 1265.81 17.3112C1277.07 22.1046 1287.1 29.4557 1295.06 38.7885C1303.07 48.2906 1308.58 59.6729 1311.03 71.8682L1264.45 82.0986C1260.08 65.0761 1244.57 53.3212 1227.04 53.8124C1221.35 53.7107 1215.69 54.9303 1210.54 57.3693C1205.88 59.5712 1201.9 62.9927 1198.99 67.2611C1196.16 71.4278 1194.67 76.3736 1194.74 81.4211C1194.4 88.7044 1197.87 95.6151 1203.92 99.6632C1210.03 103.864 1219.09 107.336 1231.12 110.063L1241.99 112.434C1266.72 117.888 1285.02 126.527 1296.92 138.349C1308.83 150.172 1314.78 165.281 1314.78 183.692C1314.91 194.617 1312.66 205.457 1308.14 215.4C1303.77 224.902 1297.45 233.371 1289.61 240.298C1281.46 247.463 1271.99 252.968 1261.73 256.491C1250.45 260.336 1238.61 262.25 1226.7 262.114ZM205.684 151.493C198.807 141.076 188.797 133.132 177.11 128.796C185.934 124.054 193.234 116.906 198.197 108.183C203.329 98.8502 205.921 88.3148 205.684 77.6609C205.955 65.8552 202.567 54.2358 195.995 44.4288C189.085 34.6387 179.532 27.0674 168.437 22.5958C156.547 17.4806 142.421 14.923 126.093 14.9399H38.3544V111.587H0.278076V150.799H38.3714V256.999H127.803C145.707 256.999 161.239 254.154 174.383 248.479C186.612 243.534 197.215 235.268 205.006 224.597C212.391 213.926 216.219 201.138 215.88 188.13C216.219 175.172 212.662 162.401 205.684 151.476V151.493ZM87.3388 56.8442H120.656C131.767 56.8442 140.321 59.2325 146.333 64.009C152.346 68.7855 155.344 75.7131 155.344 84.8087C155.344 93.9043 152.346 100.781 146.333 105.439C140.321 110.097 131.767 112.434 120.656 112.417H87.3388V56.8612V56.8442ZM154.836 206.863C147.926 212.317 138.119 215.044 125.432 215.044H87.3219V151.646H125.432C138.119 151.646 147.926 154.373 154.836 159.827C161.747 165.281 165.202 173.123 165.219 183.353C165.219 193.584 161.764 201.426 154.836 206.88V206.863Z" fill="#333D47"/>
<path d="M1680.52 135.978C1680.48 199.224 1636.65 253.967 1575.08 267.687C1513.49 281.406 1450.65 250.41 1423.92 193.126C1397.16 135.842 1413.69 67.6163 1463.66 28.998C1513.63 -9.62042 1583.63 -8.28233 1632.09 32.2162L1510.48 154.118L1537.85 181.557L1657.94 61.163C1672.73 83.3008 1680.58 109.317 1680.52 135.978Z" fill="#4E7FFF"/>
</svg>
