<svg width="1362" height="301" viewBox="0 0 1362 301" fill="none" xmlns="http://www.w3.org/2000/svg">
<path d="M536.969 142.273H552.391C560.505 142.273 568.286 145.496 574.023 151.234C579.761 156.971 582.984 164.752 582.984 172.866V214.41C583.003 220.049 581.454 225.582 578.508 230.39C575.563 235.198 571.338 239.092 566.306 241.637C541.959 253.778 515.239 260.415 488.041 261.078C418.567 261.078 366.273 211.094 366.273 144.885C366.273 78.6765 419.873 29.3463 491.859 29.3463C513.252 29.4953 534.374 34.151 553.848 43.0101C557.977 44.932 561.612 47.7738 564.473 51.3177C567.335 54.8616 569.347 59.0135 570.355 63.4553C571.364 67.8971 571.342 72.5108 570.292 76.9429C569.242 81.375 567.191 85.5079 564.297 89.0248C561.072 92.9766 556.513 95.6126 551.48 96.4361C546.446 97.2596 541.285 96.2138 536.969 93.4956C523.429 84.8794 507.802 80.1044 491.758 79.6812C483.196 79.5622 474.698 81.1777 466.777 84.4303C458.856 87.683 451.675 92.5054 445.667 98.6071C439.659 104.709 434.949 111.964 431.819 119.934C428.69 127.905 427.207 136.427 427.458 144.986C427.233 153.603 428.755 162.176 431.932 170.189C435.11 178.202 439.877 185.488 445.946 191.609C452.015 197.73 459.261 202.559 467.247 205.804C475.233 209.049 483.793 210.644 492.411 210.492C497.834 210.428 503.231 209.72 508.486 208.382C515.122 206.749 521.017 202.935 525.225 197.552C529.434 192.168 531.712 185.527 531.695 178.693V147.548C531.658 146.846 531.77 146.144 532.022 145.487C532.275 144.831 532.662 144.235 533.159 143.738C533.656 143.241 534.252 142.854 534.909 142.601C535.565 142.349 536.267 142.237 536.969 142.273Z" fill="#4F3783"/>
<path d="M785.579 171.51C785.579 225.059 753.781 260.425 705.204 260.425C689.999 260.814 675.121 255.973 663.057 246.71C662.092 245.93 660.928 245.436 659.696 245.284C658.465 245.133 657.215 245.33 656.09 245.853C654.965 246.376 654.009 247.205 653.331 248.245C652.654 249.284 652.281 250.493 652.257 251.734C652.257 253.497 651.56 255.189 650.318 256.441C649.076 257.692 647.389 258.402 645.626 258.415H601.118C599.355 258.402 597.668 257.692 596.426 256.441C595.184 255.189 594.487 253.497 594.487 251.734V52.856C594.487 43.5299 598.192 34.5858 604.787 27.9912C611.381 21.3967 620.325 17.6919 629.651 17.6919H645.576C647.334 17.6919 649.021 18.3905 650.264 19.634C651.508 20.8776 652.207 22.5642 652.207 24.3228V89.6275C652.224 90.8773 652.594 92.0967 653.274 93.1453C653.954 94.1938 654.917 95.0287 656.051 95.5538C657.185 96.0789 658.445 96.2728 659.684 96.113C660.924 95.9533 662.093 95.4465 663.057 94.651C674.698 85.4236 689.198 80.5548 704.049 80.8868C752.826 80.8868 785.579 116.955 785.579 171.51ZM727.458 170.304C727.458 144.333 712.387 126.449 689.481 126.449C666.574 126.449 652.156 144.333 652.156 170.304C652.156 196.275 667.227 213.807 689.481 213.807C711.734 213.807 727.458 196.175 727.458 170.304Z" fill="#4F3783"/>
<path d="M942.963 186.078H861.433C860.331 186.08 859.248 186.362 858.285 186.896C857.321 187.429 856.508 188.198 855.921 189.131C855.335 190.063 854.994 191.129 854.93 192.229C854.866 193.329 855.081 194.427 855.556 195.421C858.874 202.136 864.075 207.74 870.524 211.549C876.974 215.358 884.392 217.208 891.875 216.871C900.138 216.853 908.292 214.982 915.736 211.396C921.652 208.588 928.293 207.683 934.744 208.808C941.195 209.933 947.138 213.031 951.755 217.675L958.737 224.708C959.36 225.316 959.855 226.043 960.193 226.845C960.53 227.647 960.704 228.509 960.704 229.38C960.704 230.25 960.53 231.112 960.193 231.914C959.855 232.717 959.36 233.443 958.737 234.052C941.105 251.131 916.54 260.374 886.751 260.374C829.283 260.374 793.918 225.21 793.918 171.459C793.918 116.905 830.589 81.0375 885.445 81.0375C934.775 81.0375 964.564 107.662 972.351 151.366C973.075 155.637 972.858 160.014 971.714 164.192C970.57 168.37 968.527 172.248 965.728 175.554C962.929 178.861 959.441 181.515 955.509 183.333C951.577 185.151 947.295 186.087 942.963 186.078ZM911.065 155.234C912.021 155.228 912.965 155.012 913.829 154.602C914.693 154.191 915.456 153.596 916.064 152.858C916.673 152.12 917.112 151.258 917.35 150.331C917.589 149.405 917.621 148.438 917.444 147.498C916.309 140.001 912.435 133.191 906.571 128.385C900.707 123.579 893.27 121.117 885.696 121.476C869.722 121.476 858.469 131.272 852.994 146.593C852.659 147.572 852.563 148.617 852.711 149.64C852.859 150.664 853.249 151.638 853.847 152.482C854.446 153.325 855.236 154.015 856.153 154.493C857.07 154.972 858.088 155.226 859.122 155.234H911.065Z" fill="#4F3783"/>
<path d="M1173.74 24.122V251.985C1173.74 253.709 1173.06 255.362 1171.85 256.585C1170.63 257.809 1168.98 258.502 1167.26 258.516H1122.5C1120.77 258.516 1119.11 257.828 1117.88 256.603C1116.66 255.378 1115.97 253.717 1115.97 251.985C1115.98 250.746 1115.64 249.529 1114.98 248.479C1114.32 247.429 1113.38 246.59 1112.26 246.061C1111.13 245.533 1109.89 245.336 1108.66 245.496C1107.43 245.656 1106.27 246.164 1105.32 246.962C1093.59 256.245 1078.98 261.116 1064.03 260.726C1014.7 260.726 982.197 224.356 982.197 169.802C982.197 116.252 1014.35 80.8366 1062.57 80.8366C1078.04 80.4304 1093.18 85.421 1105.37 94.9525C1106.32 95.7345 1107.47 96.23 1108.69 96.3811C1109.92 96.5322 1111.15 96.3327 1112.27 95.8058C1113.38 95.2789 1114.32 94.4465 1114.97 93.4058C1115.63 92.3652 1115.97 91.1592 1115.97 89.929V56.071C1115.97 45.8656 1120.02 36.0782 1127.24 28.8619C1134.46 21.6456 1144.24 17.5915 1154.45 17.5915H1167.26C1168.98 17.6047 1170.63 18.2986 1171.85 19.5219C1173.06 20.7452 1173.74 22.3986 1173.74 24.122ZM1115.97 171.51C1115.97 145.187 1100.9 127.655 1078.29 127.655C1055.69 127.655 1040.32 145.488 1040.32 171.51C1040.32 197.531 1055.69 215.515 1078.29 215.515C1100.9 215.515 1115.97 197.481 1115.97 171.51Z" fill="#4F3783"/>
<path d="M1361.47 89.3764V251.985C1361.47 253.717 1360.78 255.378 1359.55 256.603C1358.33 257.828 1356.67 258.516 1354.94 258.516H1310.18C1309.32 258.516 1308.47 258.347 1307.68 258.019C1306.89 257.69 1306.17 257.209 1305.56 256.603C1304.95 255.997 1304.47 255.277 1304.14 254.484C1303.82 253.692 1303.65 252.843 1303.65 251.985V248.72C1303.7 247.433 1303.38 246.158 1302.71 245.058C1302.04 243.958 1301.06 243.082 1299.89 242.543C1298.72 242.004 1297.41 241.826 1296.14 242.031C1294.87 242.237 1293.69 242.817 1292.75 243.697C1280.5 255.112 1264.27 261.264 1247.53 260.826C1209.56 260.826 1184.89 234.554 1184.89 193.663V89.3764C1184.89 87.6531 1185.57 85.9996 1186.79 84.7764C1188 83.5531 1189.65 82.8592 1191.37 82.846H1194.79C1207.49 82.846 1219.66 87.8897 1228.64 96.8677C1237.62 105.846 1242.66 118.023 1242.66 130.719V177.337C1242.66 197.129 1253.71 209.135 1270.94 209.135C1291.39 208.834 1303.7 192.608 1303.7 169.551V89.1755C1303.7 88.3179 1303.87 87.4687 1304.19 86.6764C1304.52 85.8841 1305 85.1642 1305.61 84.5577C1306.22 83.9513 1306.94 83.4703 1307.73 83.1421C1308.52 82.8139 1309.37 82.645 1310.23 82.645H1354.99C1355.86 82.6513 1356.72 82.8316 1357.52 83.1752C1358.32 83.5189 1359.04 84.019 1359.64 84.6462C1360.25 85.2734 1360.72 86.0149 1361.03 86.8272C1361.35 87.6396 1361.49 88.5063 1361.47 89.3764Z" fill="#4F3783"/>
<path fill-rule="evenodd" clip-rule="evenodd" d="M74.0986 36.6513C96.6859 21.5485 123.244 13.4822 150.415 13.4722C168.462 13.4656 186.333 17.0145 203.008 23.9161C219.683 30.8177 234.835 40.9368 247.598 53.6954C260.361 66.454 270.486 81.6021 277.394 98.2744C284.301 114.947 287.857 132.817 287.857 150.863C287.857 178.035 279.8 204.596 264.706 227.189C249.611 249.781 228.156 267.391 203.054 277.791C177.952 288.192 150.33 290.915 123.68 285.618C97.0306 280.321 72.5497 267.241 53.3332 248.031C34.1168 228.822 21.0275 204.346 15.7206 177.698C13.8835 168.473 13.0074 159.131 13.0785 149.817C23.4733 149.387 33.8857 149.518 44.2699 150.21C45.2291 150.283 46.5737 150.332 48.1721 150.391C52.8505 150.562 59.7032 150.813 65.432 151.961C63.6766 166.424 62.2153 180.928 61.0482 195.471C60.7468 198.938 65.0167 199.792 67.1769 198.033C81.2424 186.932 97.016 159.906 75.9679 148.804C75.1783 148.396 74.3721 148.009 73.5502 147.642C75.7055 132.468 78.3209 117.36 81.3931 102.337C81.8616 100.085 82.0652 98.0586 82.1916 96.8011C82.275 95.97 82.3247 95.4747 82.395 95.4718C82.4985 95.4674 82.6463 96.5315 83.0117 99.1645L83.0123 99.1672L83.2017 100.528C83.5152 102.78 83.8561 105.024 84.1966 107.266L84.1994 107.291C84.785 111.146 85.3699 114.995 85.8139 118.864C87.4176 133.256 88.454 147.718 89.4891 162.162C89.6861 164.911 89.883 167.658 90.0838 170.405C90.1757 171.701 90.1869 174.435 90.2016 178.059V178.061C90.2677 194.236 90.4063 228.133 98.1212 231.088C108.182 234.974 108.964 208.094 109.272 197.498C109.323 195.767 109.361 194.47 109.424 193.814C109.836 189.138 110.226 184.457 110.616 179.777L110.624 179.682C111.564 168.404 112.504 157.122 113.744 145.89C113.861 144.818 113.996 143.385 114.153 141.732C115.344 129.137 117.749 103.722 122.234 126.902C122.457 128.064 122.665 130.789 122.942 134.423C124.161 150.416 126.723 184.018 137.857 179.597C146.988 175.809 147.668 140.529 148.038 121.364V121.35C148.134 116.378 148.209 112.492 148.406 110.525C148.628 108.32 149.374 103.443 150.216 97.9394C151.848 87.2727 153.84 74.2506 153.078 73.7535C158.113 77.0413 158.253 102.291 158.324 115.142C158.339 117.803 158.351 119.932 158.403 121.225C158.57 123.472 158.601 127.292 158.641 132.061C158.814 153.085 159.14 192.547 171.916 196.928C181.042 200.02 184.079 187.566 185.597 181.34L185.63 181.205C186.868 176.09 187.049 171.058 187.213 166.52C187.542 157.406 187.799 150.288 196.405 148.502H204.317V151.215H211.752L220.04 153.978H247.971V148.954H259.675L259.575 142.675H247.87V136.948H219.94L211.752 139.912H204.116V140.961C183.901 139.4 182.959 148.28 181.49 162.134L181.489 162.137C180.946 167.254 180.332 173.048 178.647 179.246C175.08 192.407 173.624 189.293 171.212 178.894C169.571 169.64 168.481 160.297 167.947 150.914C167.209 142.648 166.622 134.373 166.034 126.101V126.097C165.261 115.216 164.489 104.34 163.376 93.4956C163.318 92.9488 163.253 92.2502 163.177 91.4334C162.272 81.67 159.802 55.0203 148.305 68.8808C143.849 74.1506 143.279 85.4279 142.836 94.1827C142.705 96.7779 142.585 99.1514 142.378 101.081C141.451 109.266 140.737 117.481 140.024 125.694L140.021 125.732C139.112 136.207 138.203 146.681 136.852 157.092C136.649 158.654 136.364 160.274 136.077 161.908C135.859 163.15 135.639 164.4 135.452 165.64C134.223 158.566 133.125 151.496 132.18 144.333C131.991 142.815 131.848 140.656 131.683 138.133L131.682 138.119C131.013 127.949 129.956 111.876 123.841 108.013C109.881 99.2056 107.928 128.697 107.083 141.453C106.964 143.247 106.867 144.71 106.762 145.689C105.542 156.791 104.61 167.934 103.677 179.091L103.676 179.101L103.675 179.111C103.147 185.416 102.62 191.724 102.04 198.033C101.886 198.793 101.738 199.554 101.597 200.316C101.247 181.188 98.646 161.085 96.1428 141.742C95.126 133.885 94.1255 126.153 93.2987 118.663C93.2143 117.88 93.1239 116.897 93.02 115.768C91.9505 104.143 89.4532 76.996 77.2739 92.7924C69.9883 102.209 68.4428 120.596 67.2173 135.173L67.2168 135.18L67.2162 135.19C66.9165 138.754 66.6359 142.09 66.295 145.011C50.1407 140.321 30.1 141.282 13.3372 142.371C14.2703 127.306 17.6843 112.417 23.5184 98.3208C33.9095 73.215 51.5115 51.754 74.0986 36.6513ZM260.429 142.675V148.954H269.119V142.675H260.429ZM270.074 148.954V142.675H271.531V148.954H270.074ZM280.121 145.79L277.307 142.273L272.837 143.78V147.849L277.307 149.356L280.121 145.79Z" fill="#4F3783"/>
<path d="M69.0968 185.973C70.0522 175.414 71.2285 164.878 72.625 154.372C73.781 155.038 74.6907 155.82 75.2646 156.741C80.938 165.495 75.8204 177.481 69.0968 185.973Z" fill="#4F3783"/>
<path d="M103.848 300.914H18.7511C13.8741 300.834 9.22352 298.841 5.80276 295.364C2.38199 291.887 0.465179 287.205 0.46582 282.327V215.515C0.46582 215.515 52.358 289.36 103.848 300.914Z" fill="#4F3783"/>
<path d="M18.7511 0.913696H103.848C79.6022 8.50839 57.5587 21.8674 39.606 39.8464C21.6533 57.8254 8.32643 79.8884 0.767164 104.145V19.199C0.753481 14.3973 2.6343 9.78394 6.00132 6.36049C9.36834 2.93704 13.9498 0.979817 18.7511 0.913696Z" fill="#4F3783"/>
<path d="M300.365 19.199V92.0891C298.768 91.1739 297.086 90.4168 295.342 89.8285C286.444 68.7704 273.061 49.9059 256.125 34.5497C239.19 19.1934 219.11 7.71474 197.284 0.913644H282.08C284.483 0.907014 286.864 1.37545 289.085 2.29202C291.307 3.2086 293.325 4.55524 295.024 6.25451C296.723 7.95378 298.07 9.97217 298.987 12.1936C299.903 14.4151 300.372 16.7958 300.365 19.199Z" fill="#4F3783"/>
<path d="M300.415 197.531V282.528C300.429 284.942 299.964 287.334 299.048 289.568C298.132 291.801 296.782 293.831 295.078 295.54C293.373 297.25 291.347 298.604 289.116 299.527C286.885 300.449 284.494 300.92 282.08 300.914H197.083C221.384 293.324 243.481 279.952 261.479 261.946C279.477 243.94 292.838 221.836 300.415 197.531Z" fill="#4F3783"/>
</svg>
