<svg width="1443" height="301" viewBox="0 0 1443 301" fill="none" xmlns="http://www.w3.org/2000/svg">
<path d="M220.327 249.169C220.275 248.851 220.313 248.525 220.435 248.227C220.558 247.928 220.76 247.67 221.021 247.48C221.281 247.29 221.589 247.176 221.91 247.15C222.232 247.125 222.554 247.189 222.841 247.335C232.825 252.414 243.312 256.437 254.132 259.337C254.424 259.415 254.731 259.417 255.024 259.343C255.317 259.268 255.586 259.119 255.804 258.91C260.506 254.395 264.911 249.581 268.993 244.498C269.185 244.258 269.31 243.972 269.357 243.669C269.404 243.365 269.371 243.055 269.261 242.768C265.208 232.25 260.061 222.187 253.904 212.744C253.727 212.475 253.629 212.161 253.619 211.839C253.61 211.516 253.69 211.198 253.85 210.918C254.011 210.639 254.246 210.409 254.53 210.255C254.813 210.101 255.133 210.028 255.455 210.045C266.895 210.649 278.367 210.022 289.673 208.177C289.969 208.128 290.248 208.005 290.483 207.818C290.719 207.631 290.902 207.388 291.017 207.11C293.393 201.294 295.399 195.333 297.023 189.264C297.103 188.967 297.103 188.654 297.024 188.357C296.945 188.06 296.79 187.789 296.573 187.571C288.444 179.381 279.458 172.09 269.769 165.823C269.497 165.649 269.28 165.402 269.14 165.111C269.001 164.82 268.945 164.497 268.978 164.176C269.012 163.855 269.133 163.549 269.33 163.294C269.527 163.038 269.79 162.841 270.092 162.727C281.041 158.522 291.497 153.133 301.273 146.654C301.523 146.487 301.726 146.261 301.863 145.994C302.001 145.728 302.069 145.431 302.06 145.131C301.859 139.104 301.298 133.095 300.382 127.135C300.335 126.832 300.21 126.546 300.019 126.307C299.828 126.067 299.577 125.881 299.292 125.768C288.301 121.434 276.865 118.325 265.193 116.498C264.874 116.448 264.576 116.311 264.33 116.102C264.085 115.893 263.902 115.62 263.802 115.313C263.702 115.006 263.689 114.678 263.764 114.365C263.839 114.051 263.999 113.764 264.227 113.536C272.728 105.041 280.251 95.6206 286.654 85.4504C286.813 85.1964 286.904 84.906 286.919 84.6067C286.935 84.3075 286.873 84.0093 286.741 83.7405C284.016 78.2057 280.954 72.8438 277.571 67.6849L277.493 67.8291C265.146 68.2395 252.888 70.0721 240.961 73.2906L240.47 73.4261C240.16 73.512 239.831 73.5098 239.522 73.4199C239.212 73.33 238.934 73.1558 238.718 72.9168C238.501 72.6779 238.356 72.3835 238.297 72.0666C238.239 71.7496 238.269 71.4227 238.386 71.1221C238.443 70.9635 238.507 70.8049 238.567 70.6492C242.903 59.2498 245.927 47.3944 247.584 35.3114C247.901 35.1788 248.221 35.0548 248.538 34.9279C243.333 30.5349 237.837 26.4984 232.088 22.8459L232.051 22.8689C232.064 23.1999 231.981 23.5276 231.811 23.8122C231.642 24.0968 231.394 24.3261 231.096 24.4722C220.472 29.7505 210.464 36.1882 201.256 43.6679L200.861 43.988C200.612 44.1915 200.312 44.3221 199.993 44.3652C199.675 44.4084 199.351 44.3625 199.057 44.2325C198.763 44.1026 198.511 43.8937 198.328 43.6291C198.146 43.3646 198.04 43.0546 198.024 42.7337L197.995 42.2233C197.341 30.4162 195.387 18.7172 192.17 7.33817C192.086 7.04207 192.083 6.72897 192.162 6.43133C192.24 6.1337 192.396 5.86238 192.614 5.64553C192.741 5.51577 192.874 5.38889 192.995 5.25913C186.261 3.33274 179.401 1.88068 172.465 0.913635L172.399 1.03474C172.625 1.34198 172.742 1.7165 172.731 2.09821C172.719 2.47992 172.58 2.84671 172.335 3.13973C164.8 12.262 158.294 22.1876 152.936 32.7364L152.705 33.1891C152.56 33.4754 152.339 33.7161 152.065 33.8844C151.792 34.0527 151.478 34.1421 151.157 34.1427C150.836 34.1433 150.521 34.055 150.247 33.8878C149.973 33.7205 149.751 33.4807 149.605 33.1949L149.374 32.7422C143.963 22.1893 137.4 12.2673 129.808 3.15703C129.611 2.9237 129.48 2.64267 129.428 2.3424C129.375 2.04212 129.403 1.73326 129.508 1.44709C129.563 1.30291 129.62 1.15874 129.669 1.01456C122.807 2.005 116.021 3.47047 109.361 5.40043L109.353 5.4927C109.66 5.69034 109.895 5.98153 110.024 6.32321C110.152 6.66489 110.168 7.03894 110.068 7.39007C106.878 18.8133 104.961 30.5544 104.353 42.3992L104.324 42.9067C104.309 43.2278 104.205 43.5384 104.024 43.8041C103.843 44.0697 103.592 44.2799 103.298 44.4114C103.005 44.5428 102.681 44.5904 102.362 44.5487C102.043 44.5071 101.742 44.3778 101.492 44.1754L101.097 43.8553C91.8892 36.4338 81.8905 30.0504 71.2828 24.8211C71.0088 24.6876 70.775 24.4839 70.6053 24.2306C70.4356 23.9773 70.3361 23.6836 70.3169 23.3793C70.3082 23.2892 70.3024 23.1988 70.2996 23.1083C64.5379 26.7964 59.0333 30.8716 53.8237 35.3056C54.1294 35.4296 54.435 35.545 54.7378 35.669C56.4393 47.7446 59.5087 59.5875 63.8869 70.9693L64.0714 71.4451C64.1888 71.745 64.2205 72.0716 64.1629 72.3884C64.1053 72.7053 63.9607 72.9999 63.7453 73.2393C63.5299 73.4786 63.2521 73.6534 62.9431 73.7439C62.634 73.8344 62.3059 73.8372 61.9954 73.7519L61.5052 73.6222C49.7531 70.4994 37.6848 68.7195 25.5316 68.3164L25.2202 67.7282C21.5905 73.2668 18.33 79.0387 15.4599 85.0064C15.581 85.0064 15.7021 84.9949 15.8232 84.992C22.2882 95.3339 29.9081 104.907 38.5359 113.527L38.8963 113.888C39.1247 114.114 39.2858 114.4 39.3616 114.713C39.4375 115.025 39.4251 115.353 39.3259 115.659C39.2267 115.965 39.0445 116.237 38.7997 116.446C38.5548 116.655 38.2569 116.791 37.939 116.841L37.4373 116.921C25.796 118.789 14.3956 121.932 3.44176 126.293C3.15617 126.406 2.90542 126.593 2.71463 126.834C2.52384 127.075 2.39972 127.362 2.35471 127.666C1.45842 133.653 0.921144 139.688 0.745762 145.74C0.737646 146.039 0.806217 146.336 0.944981 146.602C1.08375 146.868 1.28811 147.094 1.5387 147.259C11.3198 153.68 21.7726 159.015 32.7114 163.168C33.0136 163.281 33.2783 163.477 33.4761 163.732C33.6738 163.987 33.7969 164.292 33.8316 164.613C33.8663 164.934 33.8112 165.259 33.6724 165.55C33.5337 165.842 33.3168 166.089 33.0458 166.265C23.4025 172.555 14.4626 179.864 6.37996 188.064C6.16468 188.283 6.01042 188.554 5.93252 188.851C5.85462 189.148 5.85579 189.46 5.93592 189.757C7.5849 195.841 9.61696 201.815 12.0199 207.643C12.1353 207.922 12.3203 208.166 12.5571 208.352C12.7939 208.538 13.0746 208.661 13.3723 208.707C24.6634 210.503 36.1145 211.083 47.5292 210.438C47.8509 210.419 48.1714 210.491 48.4551 210.643C48.7387 210.796 48.9746 211.024 49.1364 211.303C49.2983 211.582 49.3798 211.9 49.372 212.222C49.3641 212.544 49.2673 212.858 49.0921 213.128C42.9805 222.574 37.8777 232.636 33.8676 243.148C33.7585 243.436 33.7267 243.747 33.7753 244.05C33.8238 244.354 33.9511 244.64 34.1444 244.879C38.253 249.963 42.6864 254.776 47.4168 259.288C47.6357 259.496 47.9045 259.645 48.1974 259.719C48.4904 259.793 48.7975 259.791 49.0892 259.712C59.8793 256.769 70.3334 252.711 80.282 247.601C80.5688 247.454 80.8907 247.389 81.2121 247.414C81.5334 247.438 81.8417 247.551 82.1028 247.74C82.3639 247.929 82.5677 248.187 82.6916 248.484C82.8156 248.782 82.8548 249.108 82.805 249.426C81.0887 260.376 80.5089 271.474 81.0749 282.543C81.1038 283.166 81.4642 283.726 82.0149 284.011C87.933 287.087 94.0499 289.764 100.325 292.025C100.611 292.128 100.919 292.155 101.219 292.104C101.518 292.052 101.8 291.924 102.035 291.73C110.58 284.721 118.381 276.85 125.312 268.241C125.515 267.991 125.782 267.801 126.085 267.693C126.389 267.586 126.716 267.564 127.031 267.63C127.346 267.696 127.636 267.848 127.87 268.069C128.104 268.289 128.273 268.571 128.357 268.881C131.219 279.508 135.164 289.813 140.13 299.634C140.267 299.906 140.473 300.137 140.727 300.305C140.981 300.473 141.274 300.572 141.578 300.592C148.291 301.03 155.026 301.021 161.739 300.563C162.043 300.542 162.336 300.442 162.59 300.273C162.844 300.104 163.049 299.872 163.186 299.6C168.116 289.757 172.022 279.435 174.844 268.795C174.926 268.483 175.094 268.2 175.327 267.978C175.56 267.755 175.85 267.602 176.166 267.534C176.481 267.466 176.808 267.487 177.113 267.594C177.417 267.701 177.685 267.89 177.889 268.14C184.858 276.73 192.695 284.577 201.276 291.557C201.512 291.749 201.793 291.876 202.093 291.927C202.393 291.977 202.7 291.949 202.986 291.846C209.244 289.568 215.344 286.874 221.244 283.783C221.514 283.641 221.743 283.43 221.907 283.172C222.072 282.914 222.166 282.618 222.181 282.313C222.708 271.231 222.086 260.124 220.327 249.169ZM274.728 190.146C274.996 190.37 275.19 190.668 275.287 191.003C275.384 191.339 275.378 191.695 275.271 192.027C275.163 192.358 274.96 192.651 274.685 192.866C274.411 193.081 274.078 193.209 273.731 193.234C270.455 193.457 267.173 193.57 263.889 193.575C255.047 193.576 246.222 192.768 237.526 191.161C237.161 191.094 236.828 190.911 236.575 190.639C231.756 185.487 226.598 180.664 221.134 176.201C220.864 175.981 220.666 175.684 220.568 175.349C220.47 175.014 220.475 174.657 220.582 174.326C220.69 173.994 220.896 173.702 221.173 173.49C221.449 173.277 221.783 173.153 222.132 173.133C229.173 172.714 236.178 171.824 243.1 170.472C243.464 170.401 243.841 170.448 244.176 170.607C255.138 175.817 265.403 182.381 274.731 190.146H274.728ZM262.601 132.977C268.339 133.877 274.019 135.119 279.613 136.7C279.949 136.795 280.248 136.989 280.473 137.256C280.698 137.523 280.838 137.851 280.875 138.199C280.912 138.546 280.844 138.896 280.681 139.205C280.517 139.513 280.264 139.765 279.956 139.929C269.234 145.604 257.843 149.914 246.05 152.758C245.689 152.843 245.31 152.811 244.968 152.666C238.467 149.915 231.788 147.603 224.978 145.745C224.642 145.653 224.343 145.462 224.118 145.196C223.893 144.931 223.753 144.604 223.717 144.259C223.68 143.913 223.749 143.564 223.914 143.258C224.079 142.951 224.332 142.702 224.64 142.542C230.904 139.298 236.944 135.639 242.719 131.59C243.024 131.376 243.388 131.265 243.76 131.273C250.071 131.43 256.364 132 262.601 132.977ZM263.789 88.8011C256.317 98.3134 247.677 106.848 238.074 114.202C237.778 114.426 237.419 114.551 237.048 114.557C229.912 114.695 222.794 115.315 215.742 116.414C215.398 116.467 215.046 116.415 214.731 116.265C214.417 116.115 214.156 115.874 213.981 115.572C213.806 115.271 213.726 114.924 213.752 114.577C213.777 114.229 213.907 113.898 214.125 113.626C218.452 108.194 222.418 102.484 225.996 96.5319C226.185 96.2155 226.47 95.9671 226.809 95.8225C238.128 91.0511 250.011 87.7467 262.168 85.9897C263.719 85.7647 264.763 87.5641 263.789 88.8011ZM197.049 70.8626C197.092 70.4955 197.252 70.1519 197.505 69.8822C205.794 61.064 215.154 53.3181 225.367 46.8254C225.662 46.6389 226.007 46.5451 226.356 46.5561C226.705 46.5671 227.043 46.6823 227.327 46.887C227.61 47.0917 227.825 47.3765 227.945 47.7047C228.065 48.0329 228.084 48.3895 228 48.7285C225.035 60.4624 220.613 71.7789 214.837 82.4141C214.66 82.7385 214.384 82.998 214.05 83.1551C207.732 86.1348 201.618 89.5294 195.749 93.3167C195.456 93.5066 195.113 93.6035 194.764 93.5947C194.415 93.586 194.077 93.472 193.794 93.2678C193.511 93.0635 193.297 92.7785 193.179 92.4502C193.061 92.1219 193.045 91.7656 193.133 91.428C194.89 84.6667 196.198 77.7965 197.049 70.8626ZM90.6306 56.8486C95.6921 60.9252 100.474 65.3374 104.944 70.0552C105.198 70.3246 105.36 70.6681 105.405 71.0356C106.28 77.9665 107.614 84.8319 109.396 91.5866C109.486 91.9242 109.472 92.2811 109.355 92.6104C109.239 92.9398 109.025 93.2261 108.743 93.4318C108.46 93.6374 108.122 93.7528 107.773 93.7626C107.424 93.7724 107.08 93.6763 106.786 93.4869C100.939 89.7459 94.8511 86.3937 88.5632 83.4521C88.229 83.296 87.9533 83.0374 87.776 82.714C81.9446 72.1082 77.4727 60.81 74.4661 49.0861C74.3797 48.747 74.3969 48.3899 74.5154 48.0606C74.634 47.7314 74.8485 47.4453 75.1312 47.2392C75.414 47.0331 75.752 46.9165 76.1017 46.9044C76.4514 46.8923 76.7966 46.9853 77.0929 47.1714C81.7871 50.1352 86.3071 53.3663 90.6306 56.8486ZM39.3028 89.2308C39.0859 88.956 38.9563 88.6225 38.9308 88.2733C38.9053 87.9242 38.9851 87.5754 39.1599 87.272C39.3347 86.9687 39.5964 86.7247 39.9113 86.5717C40.2262 86.4187 40.5797 86.3636 40.9262 86.4135C52.8636 88.1552 64.5356 91.3732 75.6772 96.0042C76.0176 96.1467 76.3035 96.3942 76.4932 96.7107C80.1118 102.686 84.1218 108.416 88.4969 113.862C88.7162 114.134 88.8482 114.465 88.8756 114.813C88.903 115.161 88.8246 115.509 88.6505 115.812C88.4765 116.114 88.215 116.357 87.9004 116.508C87.5859 116.66 87.2329 116.712 86.8879 116.659C80.0243 115.619 73.0997 115.031 66.159 114.9C65.7898 114.893 65.4323 114.769 65.1383 114.545C55.4977 107.226 46.8176 98.7204 39.3028 89.2308ZM23.3056 137.207C35.1148 133.827 47.3077 131.97 59.5877 131.682C59.9561 131.674 60.3177 131.783 60.62 131.994C66.3213 135.954 72.2769 139.536 78.4481 142.715C78.7588 142.874 79.0141 143.123 79.1804 143.43C79.3468 143.737 79.4164 144.087 79.3803 144.434C79.3441 144.781 79.2038 145.109 78.9777 145.375C78.7516 145.641 78.4505 145.832 78.1137 145.924C71.2319 147.813 64.4856 150.164 57.9211 152.963C57.5799 153.109 57.2012 153.142 56.8398 153.058C45.0653 150.289 33.6862 146.049 22.9712 140.437C22.6638 140.273 22.4124 140.021 22.2488 139.713C22.0853 139.405 22.0171 139.056 22.053 138.71C22.0889 138.363 22.2272 138.035 22.4503 137.767C22.6734 137.5 22.9712 137.305 23.3056 137.207ZM46.6037 193.774C40.8426 194.097 35.07 194.073 29.3089 193.71C28.9613 193.686 28.6289 193.558 28.354 193.344C28.0791 193.13 27.8743 192.839 27.7657 192.508C27.6571 192.177 27.6496 191.821 27.7442 191.485C27.8388 191.15 28.0312 190.85 28.2968 190.625C37.5933 182.82 47.8385 176.221 58.789 170.985C59.1244 170.825 59.5024 170.776 59.8674 170.847C66.7501 172.159 73.7078 173.015 80.7059 173.404C81.054 173.423 81.3883 173.547 81.665 173.759C81.9417 173.971 82.1477 174.262 82.2562 174.594C82.3647 174.925 82.3705 175.281 82.2729 175.616C82.1753 175.951 81.9789 176.248 81.7093 176.469C76.2643 180.951 71.1252 185.792 66.3262 190.959C66.0742 191.231 65.7417 191.415 65.3776 191.484C59.1752 192.655 52.9029 193.42 46.6008 193.774H46.6037ZM72.6582 232.759C67.4911 235.412 62.1693 237.752 56.7216 239.766C56.394 239.885 56.0383 239.904 55.6999 239.821C55.3614 239.737 55.0557 239.554 54.8217 239.296C54.5877 239.037 54.4361 238.715 54.3862 238.37C54.3363 238.025 54.3905 237.672 54.5417 237.358C59.8636 226.454 66.5353 216.263 74.3998 207.023C74.6408 206.741 74.9663 206.542 75.3283 206.458C82.1971 204.851 88.9508 202.785 95.5439 200.276C95.8698 200.152 96.2256 200.129 96.5648 200.21C96.9039 200.292 97.2105 200.474 97.4443 200.732C97.6781 200.991 97.8283 201.315 97.8751 201.66C97.9219 202.006 97.8631 202.358 97.7065 202.669C94.5536 208.979 91.8265 215.493 89.5435 222.168C89.423 222.519 89.1937 222.822 88.889 223.033C83.6963 226.624 78.2745 229.872 72.6582 232.756V232.759ZM112.314 257.78C108.696 262.275 104.813 266.55 100.685 270.582C100.435 270.826 100.117 270.989 99.7735 271.051C99.4296 271.113 99.0752 271.07 98.7558 270.929C98.4364 270.787 98.1666 270.554 97.9812 270.258C97.7957 269.961 97.7031 269.617 97.7152 269.268C98.1436 257.142 100.102 245.118 103.543 233.483C103.65 233.129 103.867 232.817 104.162 232.595C109.745 228.356 115.04 223.75 120.013 218.809C120.26 218.562 120.575 218.397 120.918 218.333C121.26 218.269 121.614 218.31 121.933 218.451C122.252 218.592 122.521 218.826 122.705 219.122C122.888 219.419 122.978 219.764 122.962 220.112C122.645 227.16 122.8 234.221 123.427 241.248C123.461 241.618 123.376 241.989 123.184 242.306C119.901 247.695 116.27 252.864 112.314 257.78ZM121.743 63.7287C121.5 63.4493 121.352 63.0999 121.322 62.731C120.322 50.6689 120.835 38.5291 122.85 26.5945C122.909 26.2498 123.07 25.9308 123.312 25.6785C123.554 25.4262 123.867 25.2522 124.208 25.179C124.55 25.1058 124.906 25.1366 125.231 25.2676C125.555 25.3986 125.832 25.6237 126.027 25.9139C132.754 35.974 138.198 46.8348 142.232 58.2442C142.355 58.593 142.363 58.9719 142.255 59.3256C140.239 66.0127 138.666 72.826 137.55 79.7208C137.495 80.0655 137.337 80.3855 137.097 80.6388C136.857 80.892 136.546 81.0668 136.204 81.1401C135.863 81.2134 135.508 81.1818 135.185 81.0494C134.862 80.9171 134.587 80.6902 134.395 80.3985C130.55 74.5695 126.324 69.0017 121.743 63.7316V63.7287ZM158.714 264.521C157.225 270.137 155.401 275.659 153.25 281.056C153.12 281.38 152.897 281.659 152.607 281.856C152.318 282.052 151.977 282.157 151.627 282.158C151.277 282.159 150.935 282.055 150.645 281.859C150.356 281.664 150.131 281.386 150 281.061C145.465 269.806 142.361 258.026 140.762 245.997C140.713 245.629 140.784 245.255 140.964 244.931C144.369 238.753 147.357 232.355 149.908 225.778C150.034 225.453 150.255 225.174 150.542 224.977C150.829 224.78 151.169 224.674 151.518 224.674C151.866 224.673 152.207 224.777 152.494 224.974C152.782 225.17 153.004 225.448 153.132 225.772C155.708 232.339 158.721 238.726 162.151 244.89C162.331 245.215 162.403 245.589 162.356 245.957C161.547 252.218 160.331 258.419 158.714 264.521ZM164.936 79.6776C163.8 72.8285 162.215 66.0616 160.19 59.4207C160.083 59.0681 160.09 58.6906 160.21 58.3423C164.17 46.9439 169.546 36.088 176.21 26.0293C176.404 25.7383 176.68 25.5119 177.004 25.3793C177.327 25.2468 177.683 25.214 178.025 25.2854C178.367 25.3567 178.68 25.5289 178.923 25.7797C179.167 26.0304 179.33 26.3484 179.391 26.6925C181.438 38.5842 181.986 50.6865 181.014 62.7137C180.985 63.0819 180.84 63.4313 180.599 63.7114C176.069 68.9732 171.891 74.5274 168.091 80.3379C167.9 80.6294 167.626 80.8565 167.304 80.9897C166.982 81.1228 166.628 81.1557 166.287 81.084C165.946 81.0123 165.635 80.8395 165.394 80.588C165.153 80.3366 164.993 80.0183 164.936 79.6747V79.6776ZM179.679 241.009C180.267 234.022 180.394 227.004 180.054 219.999C180.038 219.652 180.127 219.308 180.309 219.011C180.491 218.715 180.759 218.481 181.076 218.339C181.394 218.197 181.747 218.154 182.089 218.215C182.431 218.277 182.747 218.441 182.995 218.685C188.019 223.637 193.368 228.247 199.007 232.485C199.304 232.707 199.522 233.018 199.63 233.373C203.089 244.962 205.085 256.938 205.569 269.022C205.581 269.371 205.489 269.715 205.305 270.011C205.12 270.306 204.852 270.54 204.533 270.683C204.215 270.825 203.862 270.869 203.518 270.81C203.175 270.75 202.857 270.59 202.605 270.349C193.886 261.912 186.267 252.408 179.93 242.061C179.737 241.746 179.651 241.377 179.682 241.009H179.679ZM207.4 200.065C214.003 202.545 220.765 204.584 227.642 206.161C228.004 206.245 228.329 206.442 228.57 206.724C236.469 215.934 243.178 226.1 248.541 236.983C248.695 237.297 248.751 237.649 248.704 237.995C248.656 238.34 248.506 238.664 248.272 238.924C248.039 239.183 247.734 239.367 247.395 239.452C247.057 239.537 246.701 239.519 246.373 239.4C234.976 235.235 224.148 229.655 214.142 222.791C213.836 222.58 213.605 222.277 213.484 221.926C211.178 215.262 208.427 208.761 205.252 202.465C205.096 202.154 205.036 201.803 205.082 201.458C205.128 201.113 205.277 200.79 205.509 200.531C205.741 200.272 206.046 200.089 206.384 200.006C206.722 199.923 207.077 199.944 207.403 200.065H207.4Z" fill="#182CD1"/>
<path d="M443.238 258.486V128.196C443.238 120.186 444.792 113.193 447.903 107.21C451.011 101.226 455.227 96.5635 460.55 93.2186C465.873 89.8737 471.876 88.2013 478.565 88.2013C488.458 88.2013 496.44 91.3587 502.518 97.6708C508.593 103.983 511.633 112.463 511.633 123.107V258.489H569.993V125.932C569.993 114.629 573.052 105.514 579.177 98.5878C585.301 91.6673 593.827 88.2041 604.753 88.2041C614.363 88.2041 622.37 91.2174 628.777 97.2469C635.181 103.274 638.385 112.319 638.385 124.381V258.486H698.441V112.51C698.441 88.9567 692.106 70.7501 679.436 57.8895C666.763 45.0289 650.302 38.6014 630.049 38.6014C614.127 38.6014 600.35 42.3472 588.715 49.8357C577.08 57.3243 569.05 67.2869 564.621 79.7236H562.361C558.874 67.0995 551.905 57.0878 541.447 49.6944C530.992 42.2981 518.319 38.6014 503.435 38.6014C488.741 38.6014 476.117 42.2751 465.564 49.6223C455.014 56.9725 447.476 67.0043 442.955 79.7265H440.412V41.4273H383.041V258.486H443.238ZM843.987 262.725C865.938 262.725 884.897 258.039 900.865 248.665C916.831 239.293 929.149 226.196 937.816 209.379C946.484 192.562 950.818 173.038 950.818 150.806C950.818 128.383 946.484 108.764 937.816 91.947C929.149 75.1302 916.831 62.036 900.865 52.6616C884.897 43.2901 865.938 38.6014 843.987 38.6014C822.038 38.6014 803.08 43.2872 787.112 52.6616C771.143 62.036 758.825 75.1302 750.158 91.947C741.493 108.764 737.159 128.383 737.159 150.806C737.159 173.038 741.493 192.562 750.158 209.379C758.825 226.196 771.143 239.29 787.112 248.665C803.08 258.036 822.038 262.725 843.987 262.725ZM844.27 216.092C834.189 216.092 825.735 213.243 818.904 207.542C812.076 201.842 806.941 194.047 803.504 184.157C800.064 174.263 798.345 163.006 798.345 150.382C798.345 137.758 800.064 126.498 803.504 116.607C806.941 106.716 812.076 98.8963 818.904 93.1494C825.735 87.4025 834.189 84.5276 844.27 84.5276C854.255 84.5276 862.594 87.4025 869.28 93.1494C875.97 98.8963 881.033 106.714 884.473 116.607C887.91 126.498 889.632 137.758 889.632 150.382C889.632 163.006 887.91 174.263 884.473 184.154C881.033 194.045 875.97 201.842 869.28 207.542C862.594 213.243 854.255 216.092 844.27 216.092ZM1050.3 258.486V133C1050.39 123.672 1052.16 115.687 1055.6 109.046C1059.04 102.406 1063.84 97.3392 1070.01 93.8559C1076.18 90.3668 1083.32 88.628 1091.42 88.628C1103.48 88.628 1112.94 92.3709 1119.82 99.8623C1126.7 107.351 1130.09 117.737 1130 131.022V258.486H1190.19V120.281C1190.19 103.418 1187.08 88.8847 1180.87 76.6844C1174.65 64.487 1165.94 55.0867 1154.72 48.492C1143.51 41.8973 1130.37 38.6014 1115.3 38.6014C1099.19 38.6014 1085.48 42.2981 1074.18 49.6944C1062.87 57.0907 1054.82 67.0995 1050.01 79.7236H1047.47V41.4302H990.099V258.486H1050.3ZM1335.63 262.725C1357.58 262.725 1376.53 258.039 1392.5 248.665C1408.47 239.293 1420.79 226.196 1429.45 209.379C1438.12 192.562 1442.46 173.038 1442.46 150.806C1442.46 128.383 1438.12 108.764 1429.45 91.947C1420.79 75.1302 1408.47 62.036 1392.5 52.6616C1376.53 43.2901 1357.58 38.6014 1335.63 38.6014C1313.68 38.6014 1294.72 43.2872 1278.75 52.6616C1262.78 62.036 1250.46 75.1302 1241.8 91.947C1233.13 108.764 1228.8 128.383 1228.8 150.806C1228.8 173.038 1233.13 192.562 1241.8 209.379C1250.46 226.196 1262.78 239.29 1278.75 248.665C1294.72 258.036 1313.68 262.725 1335.63 262.725ZM1335.91 216.092C1325.83 216.092 1317.37 213.243 1310.54 207.542C1303.71 201.842 1298.58 194.047 1295.14 184.157C1291.7 174.263 1289.98 163.006 1289.98 150.382C1289.98 137.758 1291.7 126.498 1295.14 116.607C1298.58 106.716 1303.71 98.8963 1310.54 93.1494C1317.37 87.4025 1325.83 84.5276 1335.91 84.5276C1345.9 84.5276 1354.23 87.4025 1360.92 93.1494C1367.61 98.8963 1372.67 106.714 1376.11 116.607C1379.55 126.498 1381.27 137.758 1381.27 150.382C1381.27 163.006 1379.55 174.263 1376.11 184.154C1372.67 194.045 1367.61 201.842 1360.92 207.542C1354.23 213.243 1345.9 216.092 1335.91 216.092Z" fill="#0E1337"/>
</svg>
