<svg width="1580" height="301" viewBox="0 0 1580 301" fill="none" xmlns="http://www.w3.org/2000/svg">
<path d="M422.719 244.201V300.914H387.15V116.292H422.719V125.125C433.312 118.237 445.653 114.521 458.288 114.414C498.678 114.414 528.378 146.525 528.378 184.781C528.378 223.038 498.955 255.148 458.288 255.148C445.599 255.169 433.2 251.353 422.719 244.201ZM422.719 167.946V200.59C425.525 206.564 429.885 211.674 435.344 215.384C440.802 219.095 447.157 221.27 453.745 221.681C460.332 222.093 466.909 220.726 472.787 217.724C478.664 214.721 483.627 210.194 487.154 204.616C490.682 199.037 492.645 192.613 492.838 186.016C493.031 179.419 491.447 172.891 488.252 167.116C485.056 161.341 480.367 156.531 474.675 153.19C468.983 149.849 462.497 148.1 455.897 148.126C449.073 148.03 442.357 149.832 436.498 153.332C430.639 156.832 425.869 161.891 422.719 167.946Z" fill="#083E9E"/>
<path d="M547.644 79.0826C547.528 76.3902 547.964 73.7024 548.925 71.1846C549.885 68.6668 551.351 66.3722 553.232 64.4417C555.112 62.5113 557.368 60.9859 559.859 59.9594C562.351 58.9328 565.026 58.4268 567.721 58.4724C570.453 58.425 573.166 58.9238 575.703 59.9396C578.239 60.9553 580.547 62.4676 582.491 64.3875C584.434 66.3073 585.975 68.5962 587.022 71.1198C588.069 73.6433 588.602 76.3505 588.588 79.0826C588.531 84.5773 586.306 89.8272 582.399 93.6905C578.491 97.5538 573.216 99.718 567.721 99.7125C565.041 99.7001 562.391 99.1539 559.924 98.1058C557.458 97.0577 555.225 95.5288 553.356 93.6083C551.487 91.6878 550.019 89.4141 549.039 86.9201C548.058 84.4262 547.584 81.7618 547.644 79.0826ZM549.798 116.292H585.92V253.014H549.798V116.292Z" fill="#083E9E"/>
<path d="M607.301 184.268C607.229 175.065 608.997 165.942 612.502 157.433C616.006 148.924 621.176 141.201 627.708 134.719C634.24 128.237 642.002 123.126 650.538 119.686C659.073 116.247 668.21 114.549 677.412 114.691C689.992 114.697 702.375 117.82 713.455 123.781V116.292H748.786V245.248C748.786 280.817 718 300.103 679.486 300.103C654.331 300.103 630.243 292.614 614.455 280.343L629.176 254.931C644.181 264.544 661.667 269.564 679.486 269.376C704.365 269.376 712.131 259.496 713.198 243.43C702.481 250.285 690.053 253.99 677.333 254.121C636.389 254.081 607.301 223.591 607.301 184.268ZM713.455 199.503V169.013C710.466 162.651 705.739 157.264 699.819 153.473C693.9 149.683 687.029 147.644 680 147.592C675.147 147.545 670.331 148.458 665.832 150.278C661.332 152.098 657.237 154.79 653.781 158.198C650.325 161.606 647.576 165.664 645.694 170.138C643.811 174.612 642.832 179.414 642.811 184.268C642.811 205.392 658.856 220.113 679.743 220.113C686.752 220.296 693.663 218.447 699.645 214.79C705.626 211.133 710.422 205.824 713.455 199.503Z" fill="#083E9E"/>
<path d="M770.226 184.268C770.154 175.065 771.922 165.942 775.427 157.433C778.931 148.924 784.101 141.201 790.633 134.719C797.165 128.237 804.927 123.126 813.462 119.686C821.998 116.247 831.135 114.549 840.336 114.691C852.943 114.687 865.355 117.81 876.458 123.781V116.292H911.77V245.248C911.77 280.817 881.003 300.103 842.49 300.103C817.335 300.103 793.247 292.614 777.459 280.343L792.18 254.931C807.184 264.547 824.671 269.568 842.49 269.376C867.369 269.376 875.134 259.496 876.202 243.43C865.484 250.282 853.057 253.986 840.336 254.121C799.393 254.081 770.226 223.591 770.226 184.268ZM876.458 199.503V169.013C873.468 162.652 868.74 157.266 862.821 153.476C856.902 149.687 850.032 147.647 843.004 147.592C838.15 147.545 833.335 148.458 828.836 150.278C824.336 152.098 820.241 154.79 816.785 158.198C813.329 161.606 810.58 165.664 808.698 170.138C806.815 174.612 805.835 179.414 805.815 184.268C805.815 205.392 821.86 220.113 842.747 220.113C849.755 220.293 856.666 218.444 862.647 214.787C868.628 211.13 873.424 205.823 876.458 199.503Z" fill="#083E9E"/>
<path d="M963.661 116.292L999.526 207.526L1036.44 116.292H1073.98L995.238 300.914H961.804L981.564 251.69L924.081 116.292H963.661Z" fill="#083E9E"/>
<path d="M1067.17 116.292H1105.42L1140.28 208.612L1174.8 116.292H1212.35L1157.49 253.014H1121.51L1067.17 116.292Z" fill="#083E9E"/>
<path d="M1214.88 183.714C1214.88 145.201 1242.42 113.347 1285.5 113.347C1325.38 113.347 1355.67 143.324 1356.4 182.707C1356.68 186.093 1356.68 189.497 1356.4 192.883H1248.59C1249.65 212.15 1268.11 224.717 1287.91 224.717C1304.23 224.717 1313.86 220.172 1325.1 210.885L1344.64 231.495C1328.83 248.074 1313.03 255.84 1287.91 255.84C1241.63 255.702 1214.88 221.18 1214.88 183.714ZM1250.44 167.392H1319.49C1316.01 154.568 1303.68 143.324 1284.97 143.324C1263.29 143.324 1254.2 154.291 1250.44 167.392Z" fill="#083E9E"/>
<path d="M1363.87 238.312L1381.36 209.936C1397.05 220.398 1415.45 226.07 1434.32 226.259C1452.26 226.259 1461.35 221.714 1461.35 213.968C1461.35 208.869 1457.06 205.135 1447.97 203.257L1410.43 195.235C1382.88 189.307 1370.29 176.245 1370.29 154.844C1370.29 132.1 1389.56 113.09 1429.44 113.09C1453.5 113.09 1474.88 120.066 1489.63 129.156L1473.3 156.445C1461.27 150.023 1445.22 143.067 1428.35 143.067C1413.11 143.067 1404.28 146.822 1404.28 153.757C1404.28 158.322 1407.5 161.266 1416.31 162.867L1447.93 168.795C1482.18 175.474 1495.36 190.729 1495.36 211.339C1495.36 240.98 1465.72 256.551 1433.27 256.551C1408.89 257.022 1384.87 250.708 1363.87 238.312Z" fill="#083E9E"/>
<path d="M1502.47 116.292H1522.8V78.5689L1558.37 55.5677V116.292H1579.24V147.335H1558.39V253.034H1522.82V147.335H1502.45V116.292H1502.47Z" fill="#083E9E"/>
<path d="M298.09 138.285C297.496 129.606 296.074 121.004 293.841 112.596C283.665 75.0516 262.224 45.5097 229.541 24.4253C208.954 11.0366 185.308 3.08874 160.814 1.32528C150.523 0.573652 140.183 0.851678 129.948 2.15522C119.165 3.58243 108.566 6.15937 98.3313 9.84204C71.0779 19.6728 47.2921 37.255 29.8998 60.4261C12.5075 83.5972 2.26698 111.347 0.437979 140.261C0.102051 145.577 0.102051 150.932 0.102051 156.267V285.975C0.102051 289.344 1.44071 292.576 3.82354 294.959C6.20638 297.342 9.43819 298.681 12.808 298.681H62.9205C66.0566 298.661 69.0766 297.492 71.4077 295.394C73.7387 293.296 75.2188 290.415 75.5672 287.299C75.897 286.081 76.0696 284.826 76.081 283.564V280.56C76.0514 280.331 76.0514 280.098 76.081 279.869V279.533C76.4228 279.624 76.7446 279.778 77.0295 279.987C95.7738 290.353 116.533 296.553 137.892 298.167C146.447 298.8 155.04 298.714 163.58 297.91C183.686 296.058 203.199 290.11 220.919 280.431C238.638 270.753 254.188 257.548 266.611 241.632C284.319 219.357 295.154 192.406 297.793 164.072C298.687 155.504 298.786 146.872 298.09 138.285ZM175.97 221.16C175.882 221.617 175.635 222.028 175.274 222.321C174.912 222.614 174.459 222.769 173.994 222.761H124.593C124.128 222.769 123.675 222.614 123.313 222.321C122.952 222.028 122.705 221.617 122.617 221.16V220.844V219.006C122.606 216.739 122.858 214.478 123.368 212.268C123.684 211.517 123.882 210.628 124.198 209.798C124.514 208.968 124.83 208.197 125.146 207.387C125.462 206.577 125.976 205.846 126.411 205.154L127.122 204.087C127.587 203.397 128.095 202.737 128.644 202.111C129.217 201.4 129.79 200.787 130.363 200.135C133.336 197.211 136.949 195.019 140.915 193.733C137.498 191.872 134.797 188.928 133.238 185.363C131.679 181.799 131.35 177.817 132.303 174.045C133.257 170.273 135.438 166.925 138.503 164.53C141.568 162.134 145.344 160.826 149.234 160.812C153.879 160.847 158.326 162.698 161.624 165.969C163.533 167.891 164.971 170.229 165.823 172.8C166.675 175.371 166.92 178.104 166.537 180.786C166.154 183.467 165.154 186.023 163.615 188.253C162.077 190.482 160.043 192.324 157.672 193.634C163.008 195.393 167.651 198.794 170.938 203.351C174.224 207.908 175.986 213.388 175.97 219.006C175.97 219.718 175.97 220.489 175.97 221.16ZM261.138 113.545H37.5284C37.1092 113.542 36.6967 113.44 36.3249 113.246C35.953 113.053 35.6323 112.774 35.3892 112.433C35.1461 112.091 34.9876 111.697 34.9266 111.282C34.8657 110.868 34.904 110.444 35.0385 110.047C43.3821 86.4019 58.8546 65.9267 79.3232 51.4437C99.7918 36.9608 124.249 29.1833 149.323 29.1833C174.397 29.1833 198.854 36.9608 219.323 51.4437C239.792 65.9267 255.264 86.4019 263.608 110.047C263.742 110.443 263.78 110.864 263.72 111.277C263.66 111.691 263.504 112.084 263.263 112.425C263.022 112.766 262.704 113.045 262.335 113.24C261.965 113.434 261.555 113.539 261.138 113.545Z" fill="#083E9E"/>
</svg>
