<svg width="1611" height="301" viewBox="0 0 1611 301" fill="none" xmlns="http://www.w3.org/2000/svg">
<path d="M135.204 203.23H96.355V194.807C89.4485 199.558 82.3262 202.798 74.5564 204.526C66.7866 206.254 59.0168 207.334 50.8153 207.334C43.2613 207.334 36.3548 206.254 30.3116 203.878C24.2684 201.718 18.8727 198.479 14.3404 194.159C9.80796 189.839 6.35472 184.872 3.98061 179.04C1.6065 173.209 0.0957031 166.945 0.0957031 159.818C0.0957031 150.962 2.03816 143.187 5.92306 136.707C9.80796 130.012 14.9878 124.612 21.6785 120.077C28.3692 115.757 36.139 112.301 45.2038 110.142C54.0527 107.982 63.765 106.902 74.1247 106.902H96.5708C96.5708 97.6146 93.5492 90.2712 87.7219 84.8717C81.6787 79.4721 73.2614 76.6643 62.0384 76.6643C56.6427 76.6643 51.0311 77.7442 45.2038 79.6881C39.3764 81.6319 33.549 85.3036 27.9375 90.4872L4.62809 67.3771C12.8296 59.3857 22.5418 53.3382 33.549 49.0185C44.5563 44.6989 55.7793 42.5391 67.2182 42.5391C78.0096 42.5391 87.7219 44.2669 96.1392 47.7226C104.556 51.1784 111.463 55.498 116.643 61.1136C123.549 68.025 128.298 75.5844 131.103 84.2237C133.909 92.647 135.204 103.662 135.204 116.837V203.23ZM96.355 164.137V135.196H78.4413C73.0456 135.196 67.8657 135.628 63.1175 136.276C58.3693 136.923 54.2685 138.219 50.5995 139.947C47.1462 141.675 44.3405 143.835 42.1822 146.643C40.0239 149.45 39.1606 152.69 39.1606 156.362C39.1606 161.761 41.3189 166.297 45.6354 169.753C49.952 173.209 55.3477 174.936 62.0384 174.936C67.8657 174.936 73.4772 174.072 79.3046 172.129C84.7003 170.185 90.5276 167.593 96.355 164.137Z" fill="white"/>
<path d="M306.572 179.688C298.586 188.759 289.09 195.671 277.867 200.206C266.643 204.958 254.989 207.334 242.687 207.334C231.248 207.334 220.456 205.174 210.528 201.07C200.384 196.967 191.535 191.135 184.197 183.792C176.859 176.448 170.816 167.809 166.499 157.658C162.183 147.507 160.024 136.707 160.024 124.828C160.024 113.165 162.183 102.366 166.499 92.431C170.816 82.4958 176.643 73.6405 183.981 66.2971C191.319 58.9537 200.168 53.1221 210.097 48.8025C220.24 44.4828 231.032 42.323 242.687 42.323C254.557 42.323 265.996 44.4828 276.787 48.8025C287.579 53.1221 296.859 59.8176 304.845 68.6729L278.514 95.4547C274.629 90.2711 269.665 85.9515 264.054 82.4958C258.442 79.04 251.536 77.3122 243.334 77.3122C237.291 77.3122 231.679 78.6081 226.499 81.1999C221.104 83.7917 216.571 87.0314 212.471 91.3511C208.37 95.6707 205.132 100.638 202.758 106.47C200.384 112.301 199.305 118.349 199.305 124.828C199.305 131.308 200.384 137.571 202.758 143.187C205.132 149.018 208.37 153.986 212.255 158.306C216.14 162.625 220.888 165.865 226.284 168.457C231.679 171.049 237.291 172.345 243.334 172.345C251.104 172.345 258.226 170.401 264.485 166.729C270.744 163.057 275.924 158.306 279.593 152.474L306.572 179.688Z" fill="white"/>
<path d="M466.932 179.688C458.946 188.759 449.45 195.671 438.227 200.206C427.004 204.958 415.349 207.334 403.047 207.334C391.608 207.334 380.817 205.174 370.889 201.07C360.745 196.967 351.896 191.135 344.558 183.792C337.219 176.448 331.176 167.809 326.86 157.658C322.543 147.507 320.385 136.707 320.385 124.828C320.385 113.165 322.543 102.366 326.86 92.431C331.176 82.4958 337.004 73.6405 344.342 66.2971C351.68 58.9537 360.529 53.1221 370.457 48.8025C380.601 44.4828 391.392 42.323 403.047 42.323C414.917 42.323 426.356 44.4828 437.148 48.8025C447.939 53.1221 457.22 59.8176 465.205 68.6729L438.874 95.4547C434.99 90.2711 430.025 85.9515 424.414 82.4958C418.802 79.04 411.896 77.3122 403.694 77.3122C397.651 77.3122 392.04 78.6081 386.86 81.1999C381.464 83.7917 376.932 87.0314 372.831 91.3511C368.73 95.6707 365.493 100.638 363.119 106.47C360.745 112.301 359.666 118.349 359.666 124.828C359.666 131.308 360.745 137.571 363.119 143.187C365.493 148.802 368.73 153.986 372.615 158.306C376.5 162.625 381.248 165.865 386.644 168.457C392.04 171.049 397.651 172.345 403.694 172.345C411.464 172.345 418.587 170.401 424.846 166.729C431.105 163.057 436.284 158.306 439.954 152.474L466.932 179.688Z" fill="white"/>
<path d="M810.962 203.23H771.897V191.351C769.307 193.943 766.502 196.103 763.048 198.047C759.595 199.99 756.142 201.502 752.473 203.014C748.804 204.31 744.919 205.39 741.034 206.038C737.149 206.686 733.48 207.118 730.027 207.118C722.041 207.118 714.487 205.822 707.149 203.23C699.811 200.638 693.336 196.751 687.724 191.567C682.113 186.383 677.58 179.472 674.343 171.265C671.106 163.057 669.379 153.122 669.379 141.675V46.4268H708.444V139.731C708.444 145.347 709.307 150.314 711.034 154.418C712.76 158.738 714.919 162.193 717.724 165.001C720.53 167.809 723.768 169.969 727.437 171.265C731.106 172.561 734.991 173.209 738.876 173.209C751.609 173.209 762.401 168.889 771.681 160.25V46.4268H810.746V203.23H810.962Z" fill="white"/>
<path d="M985.998 203.23H946.933V109.71C946.933 104.094 946.07 99.1265 944.343 95.0228C942.617 90.7032 940.243 87.2475 937.437 84.4397C934.631 81.6319 931.178 79.4721 927.509 78.1762C923.84 76.8803 919.955 76.2323 915.854 76.2323C909.811 76.2323 903.984 77.3123 898.156 79.2561C892.329 81.4159 887.149 84.6557 882.401 89.1913V203.23H843.336V46.4267H882.401L882.617 58.0898C884.991 55.714 887.796 53.5542 891.25 51.6103C894.703 49.6665 898.156 47.9386 902.041 46.6427C905.71 45.3468 909.595 44.2669 913.48 43.619C917.365 42.971 921.034 42.5391 924.703 42.5391C932.689 42.5391 940.243 43.835 947.581 46.4267C954.919 49.0185 961.394 52.9062 967.005 58.0898C972.617 63.2734 977.149 70.1848 980.603 78.3922C984.056 86.8155 985.782 96.5347 985.782 107.982V203.23H985.998Z" fill="white"/>
<path d="M1103.19 199.774C1099.31 202.366 1094.56 204.094 1089.38 205.39C1084.2 206.686 1078.8 207.334 1073.62 207.334C1064.34 207.334 1056.57 206.254 1050.32 203.878C1044.06 201.718 1038.88 198.046 1035.21 193.511C1031.32 188.759 1028.73 182.928 1027.01 175.584C1025.28 168.457 1024.42 159.817 1024.42 150.098V81.4158H1003.7V63.7052C1016.43 58.5216 1026.57 50.7462 1034.34 40.3791C1042.11 30.0119 1047.51 16.621 1050.53 0.206299H1063.26V45.9946H1102.76V81.1998H1063.26V152.474C1063.26 156.362 1063.7 159.601 1064.78 162.193C1065.85 164.785 1067.15 166.729 1068.66 168.241C1070.39 169.753 1072.11 170.617 1074.27 171.265C1076.43 171.912 1078.59 172.128 1080.96 172.128C1083.98 172.128 1087.65 171.481 1091.97 170.401C1096.29 169.321 1099.96 167.593 1102.98 165.001V199.774H1103.19Z" fill="white"/>
<path d="M1287.94 124.612C1287.94 127.204 1287.73 129.796 1287.51 132.388C1287.29 135.196 1286.86 138.003 1286.65 140.811H1161.47C1162.98 145.347 1164.92 149.666 1167.51 153.77C1170.1 157.874 1173.34 161.329 1177.22 164.353C1181.11 167.377 1185.21 169.753 1190.17 171.481C1194.92 173.208 1200.32 174.072 1205.93 174.072C1213.05 174.072 1219.96 172.776 1227.08 170.401C1234.2 168.025 1240.03 164.569 1244.78 160.465L1269.17 185.088C1258.37 193.295 1247.8 198.91 1237.22 202.366C1226.86 205.606 1215.86 207.334 1204.2 207.334C1192.55 207.334 1181.54 205.174 1171.18 200.854C1161.04 196.535 1152.19 190.703 1144.63 183.144C1137.08 175.8 1131.25 166.945 1126.93 157.01C1122.62 147.075 1120.46 136.275 1120.46 124.828C1120.46 113.381 1122.62 102.798 1126.93 92.647C1131.25 82.7118 1137.29 73.8565 1144.85 66.5131C1152.4 59.1696 1161.25 53.1221 1171.39 48.8025C1181.54 44.4828 1192.33 42.323 1203.98 42.323C1214.99 42.323 1225.57 44.2668 1235.71 48.3705C1245.86 52.4742 1254.7 58.0897 1262.47 65.2172C1270.24 72.5606 1276.29 80.9839 1280.82 91.1351C1285.57 101.502 1287.94 112.517 1287.94 124.612ZM1246.93 109.494C1243.91 99.5584 1238.3 91.567 1230.53 85.5195C1222.76 79.472 1213.7 76.4483 1203.77 76.4483C1194.06 76.4483 1185.21 79.472 1177.44 85.5195C1169.67 91.567 1164.27 99.5584 1161.25 109.494H1246.93Z" fill="white"/>
<path d="M1473.99 124.612C1473.99 127.204 1473.77 129.796 1473.55 132.388C1473.34 135.196 1472.91 138.003 1472.69 140.811H1347.51C1349.02 145.347 1350.96 149.666 1353.55 153.77C1356.14 157.874 1359.38 161.329 1363.27 164.353C1367.15 167.377 1371.25 169.753 1376.22 171.481C1380.96 173.208 1386.36 174.072 1391.97 174.072C1399.09 174.072 1406 172.776 1413.12 170.401C1420.24 168.025 1426.07 164.569 1430.82 160.465L1455.42 185.088C1444.63 193.295 1434.06 198.91 1423.48 202.366C1412.91 205.822 1402.11 207.334 1390.46 207.334C1378.81 207.334 1367.8 205.174 1357.44 200.854C1347.29 196.535 1338.45 190.703 1330.89 183.144C1323.34 175.8 1317.51 166.945 1313.19 157.01C1308.88 147.075 1306.72 136.275 1306.72 124.828C1306.72 113.381 1308.88 102.798 1313.19 92.647C1317.51 82.7118 1323.55 73.8565 1331.11 66.5131C1338.66 59.1696 1347.51 53.1221 1357.65 48.8025C1367.8 44.4828 1378.59 42.323 1390.24 42.323C1401.25 42.323 1411.83 44.2668 1421.97 48.3705C1432.11 52.4742 1440.96 58.0897 1448.73 65.2172C1456.5 72.5606 1462.55 80.9839 1467.08 91.1351C1471.83 101.502 1473.99 112.517 1473.99 124.612ZM1433.19 109.494C1430.17 99.5584 1424.56 91.567 1416.79 85.5195C1409.02 79.472 1399.96 76.4483 1390.03 76.4483C1380.32 76.4483 1371.47 79.472 1363.7 85.5195C1355.93 91.567 1350.53 99.5584 1347.51 109.494H1433.19Z" fill="white"/>
<path d="M1610.82 62.8413L1589.88 95.8867C1586 91.783 1581.9 88.1113 1577.37 84.8716C1572.83 81.6318 1568.09 80.12 1563.34 80.12C1560.75 80.12 1558.16 80.7679 1555.14 81.8478C1552.12 82.9277 1549.31 84.8716 1546.72 87.6794C1544.13 90.4871 1541.97 93.9429 1540.03 98.4785C1538.3 103.014 1537.22 108.414 1537.22 114.893V203.23H1498.16V46.4267H1537.22V63.2733C1541.97 56.5779 1547.15 51.3943 1552.76 47.7226C1558.37 44.0509 1564.85 42.323 1571.76 42.323C1578.66 42.323 1585.35 44.2668 1592.04 47.9385C1598.95 51.6103 1605.21 56.5779 1610.82 62.8413Z" fill="white"/>
<path d="M480.745 124.828C480.745 79.256 517.652 42.323 563.191 42.323C608.731 42.323 645.638 79.256 645.638 124.828C645.638 170.401 608.731 207.334 563.191 207.334C517.652 207.334 480.745 170.401 480.745 124.828ZM533.839 134.116V88.1113C533.839 83.3597 529.954 79.472 525.206 79.472C520.457 79.472 516.573 83.3597 516.573 88.1113V134.116C516.573 138.867 520.457 142.755 525.206 142.755C529.954 142.755 533.839 138.867 533.839 134.116ZM582.4 140.595V88.1113C582.4 83.3597 578.515 79.472 573.767 79.472C569.019 79.472 565.134 83.3597 565.134 88.1113V140.595C565.134 145.347 569.019 149.234 573.767 149.234C578.515 149.234 582.4 145.347 582.4 140.595ZM606.573 157.874V103.23C606.573 98.4785 602.688 94.5908 597.94 94.5908C593.191 94.5908 589.307 98.4785 589.307 103.23V157.874C589.307 162.625 593.191 166.513 597.94 166.513C602.688 166.513 606.573 162.625 606.573 157.874ZM558.012 180.552V110.789C558.012 106.038 554.127 102.15 549.378 102.15C544.63 102.15 540.745 106.038 540.745 110.789V180.552C540.745 185.303 544.63 189.191 549.378 189.191C554.127 189.191 558.012 185.303 558.012 180.552Z" fill="white"/>
<path d="M704.127 265.865C704.127 268.025 703.696 270.185 702.616 271.913C701.537 273.64 700.242 275.152 698.516 276.232C696.789 277.312 695.062 278.176 692.904 278.824C690.746 279.472 688.803 279.688 686.645 279.688C683.192 279.688 679.955 279.04 677.149 277.744C674.343 276.448 671.753 274.504 669.595 271.697L676.285 264.785C677.58 266.513 679.091 267.809 681.034 268.889C682.76 269.753 684.703 270.401 686.645 270.401C688.372 270.401 689.883 269.969 690.962 269.321C692.041 268.673 692.688 267.593 692.688 266.297C692.688 265.001 691.825 263.921 690.098 262.841C688.372 261.977 686.214 261.113 683.192 260.249C681.465 259.818 679.739 259.17 678.012 258.306C676.285 257.442 674.775 256.578 673.48 255.282C672.185 254.202 671.106 252.69 670.458 251.178C669.595 249.666 669.379 247.938 669.379 245.995C669.379 243.835 669.811 241.891 670.89 240.163C671.969 238.435 673.264 236.923 674.775 235.843C676.501 234.764 678.228 233.684 680.386 233.252C682.544 232.604 684.487 232.388 686.645 232.388C693.552 232.388 699.163 234.979 703.48 240.163L696.789 246.859C695.494 245.347 693.983 244.051 692.257 242.971C690.53 242.107 688.803 241.675 686.861 241.675C686.214 241.675 685.566 241.675 684.703 241.891C684.055 242.107 683.192 242.323 682.544 242.755C681.897 243.187 681.465 243.619 681.034 244.051C680.602 244.699 680.386 245.131 680.386 245.779C680.386 247.075 681.249 247.938 682.76 248.802C684.271 249.666 686.645 250.53 689.667 251.394C691.609 252.042 693.336 252.69 695.062 253.554C696.789 254.418 698.3 255.498 699.595 256.578C700.89 257.658 701.969 259.17 702.616 260.465C703.696 262.409 704.127 263.921 704.127 265.865Z" fill="white"/>
<path d="M777.725 278.392H766.502V251.61C766.502 248.37 765.639 245.995 764.128 244.483C762.617 242.755 760.675 242.107 758.516 242.107C756.79 242.107 755.279 242.323 753.552 242.971C752.041 243.619 750.531 244.483 749.02 245.563C749.452 247.291 749.667 249.45 749.667 251.61V278.392H738.444V251.61C738.444 248.37 737.581 245.995 736.07 244.483C734.559 242.755 732.617 242.107 730.459 242.107C728.732 242.107 727.221 242.323 725.926 242.971C724.631 243.619 723.336 244.483 721.826 245.779V278.608H710.603V233.684H721.826V237.139C723.121 235.843 724.847 234.764 726.79 233.9C728.732 233.036 730.674 232.604 732.617 232.604C734.775 232.604 736.934 233.036 739.308 234.116C741.466 235.196 743.408 236.491 745.135 238.435C747.509 236.275 749.883 234.98 752.257 233.9C754.631 233.036 757.221 232.604 760.027 232.604C762.401 232.604 764.56 233.036 766.718 233.684C768.876 234.332 770.603 235.412 772.113 237.139C773.624 238.651 774.919 240.595 775.783 242.971C776.646 245.347 777.293 248.154 777.293 251.394V278.392H777.725Z" fill="white"/>
<path d="M822.617 278.392H811.394V276.016C809.451 277.312 807.293 278.392 805.135 278.824C802.976 279.256 800.602 279.688 798.228 279.688C796.07 279.688 794.127 279.256 792.401 278.608C790.674 277.96 789.163 277.096 787.868 275.8C786.573 274.504 785.494 273.208 784.847 271.48C784.199 269.753 783.768 268.025 783.768 265.865C783.768 263.273 784.415 261.113 785.494 259.169C786.573 257.226 788.084 255.714 790.027 254.418C791.969 253.122 794.127 252.258 796.717 251.61C799.307 250.962 802.113 250.746 804.919 250.746H811.394C811.394 248.154 810.53 245.994 808.804 244.483C807.077 242.971 804.703 242.107 801.465 242.107C799.955 242.107 798.228 242.323 796.717 242.971C794.991 243.619 793.48 244.483 791.753 245.994L785.063 239.299C787.437 236.923 790.242 235.195 793.264 233.899C796.501 232.604 799.739 231.956 802.976 231.956C805.998 231.956 808.804 232.388 811.394 233.467C813.768 234.547 815.71 235.627 817.221 237.355C819.163 239.299 820.458 241.459 821.322 244.051C822.185 246.426 822.617 249.666 822.617 253.338V278.392ZM811.394 267.377V258.953H806.214C804.703 258.953 803.192 258.953 801.897 259.169C800.602 259.385 799.307 259.817 798.228 260.249C797.149 260.681 796.501 261.329 795.854 262.193C795.206 263.057 794.991 263.921 794.991 265.001C794.991 266.513 795.638 267.809 796.717 268.889C798.012 269.969 799.523 270.4 801.465 270.4C803.192 270.4 804.703 270.184 806.43 269.537C808.156 269.105 809.883 268.241 811.394 267.377Z" fill="white"/>
<path d="M863.624 238.219L857.581 247.722C856.502 246.427 855.207 245.563 853.912 244.483C852.617 243.619 851.322 243.187 849.811 243.187C849.164 243.187 848.3 243.403 847.437 243.619C846.574 244.051 845.71 244.483 845.063 245.347C844.416 246.211 843.768 247.075 843.121 248.37C842.689 249.666 842.257 251.178 842.257 253.122V278.608H831.034V233.684H842.257V238.435C843.552 236.491 845.063 234.979 846.79 233.9C848.516 232.82 850.243 232.388 852.185 232.388C854.128 232.388 856.07 232.82 858.013 233.9C860.171 234.979 861.898 236.491 863.624 238.219Z" fill="white"/>
<path d="M892.545 277.528C891.466 278.176 890.171 278.824 888.66 279.256C887.149 279.688 885.638 279.904 884.128 279.904C881.538 279.904 879.164 279.472 877.437 278.824C875.71 278.176 874.2 277.096 873.12 275.8C872.041 274.504 871.178 272.777 870.746 270.617C870.315 268.457 870.099 266.081 870.099 263.273V243.619H864.271V238.651C867.941 237.139 870.746 234.98 873.12 231.956C875.279 228.932 877.005 225.26 877.653 220.509H881.322V233.684H892.761V243.835H881.322V264.353C881.322 265.433 881.538 266.513 881.754 267.161C881.969 267.809 882.401 268.457 882.833 268.889C883.264 269.321 883.912 269.537 884.344 269.753C884.991 269.969 885.638 269.969 886.286 269.969C887.149 269.969 888.228 269.753 889.523 269.537C890.818 269.321 891.897 268.673 892.761 268.025V277.528H892.545Z" fill="white"/>
<path d="M964.416 271.697C962.041 274.288 959.452 276.232 956.214 277.528C952.977 278.824 949.523 279.472 946.07 279.472C942.833 279.472 939.811 278.824 936.79 277.744C933.984 276.448 931.394 274.936 929.236 272.777C927.077 270.617 925.351 268.241 924.272 265.217C922.977 262.409 922.329 259.17 922.329 255.714C922.329 252.474 922.977 249.235 924.272 246.427C925.567 243.619 927.077 241.027 929.236 238.867C931.394 236.708 933.768 234.98 936.79 233.9C939.595 232.604 942.833 232.172 946.07 232.172C949.523 232.172 952.761 232.82 955.782 234.116C958.804 235.412 961.61 237.355 963.768 239.731L956.214 247.507C955.135 245.995 953.624 244.699 952.113 243.835C950.387 242.755 948.444 242.323 946.07 242.323C944.344 242.323 942.833 242.755 941.106 243.403C939.595 244.051 938.3 245.131 937.005 246.427C935.926 247.723 934.847 249.019 934.2 250.746C933.552 252.474 933.12 254.202 933.12 256.146C933.12 258.09 933.552 259.818 934.2 261.546C934.847 263.273 935.71 264.569 937.005 265.865C938.085 267.161 939.595 268.025 941.106 268.889C942.617 269.537 944.344 269.969 946.07 269.969C948.228 269.969 950.387 269.537 952.113 268.457C953.84 267.377 955.351 266.081 956.43 264.353L964.416 271.697Z" fill="white"/>
<path d="M988.804 278.176C987.941 278.608 986.862 278.824 985.783 279.256C984.704 279.472 983.409 279.688 982.33 279.688C980.603 279.688 979.092 279.472 977.581 279.04C976.07 278.608 974.776 277.96 973.481 276.88C972.401 275.8 971.538 274.504 970.675 272.992C970.027 271.481 969.596 269.537 969.596 267.377V213.813H981.035V265.217C981.035 267.161 981.466 268.457 982.114 269.105C982.761 269.753 983.84 270.185 984.704 270.185C985.999 270.185 987.294 269.753 988.373 269.105V278.176H988.804Z" fill="white"/>
<path d="M1040.82 255.93C1040.82 259.386 1040.17 262.409 1038.88 265.217C1037.58 268.025 1035.86 270.617 1033.7 272.776C1031.54 274.936 1028.95 276.448 1025.93 277.744C1022.91 279.04 1019.88 279.472 1016.65 279.472C1013.41 279.472 1010.17 278.824 1007.37 277.744C1004.56 276.448 1001.97 274.936 999.812 272.776C997.654 270.617 995.927 268.241 994.632 265.217C993.337 262.409 992.689 259.17 992.689 255.93C992.689 252.69 993.337 249.666 994.632 246.643C995.927 243.835 997.654 241.243 999.812 239.083C1001.97 236.923 1004.56 235.195 1007.37 234.116C1010.17 232.82 1013.41 232.388 1016.65 232.388C1019.88 232.388 1023.12 233.036 1025.93 234.116C1028.95 235.411 1031.32 236.923 1033.7 239.083C1035.86 241.243 1037.58 243.619 1038.88 246.643C1040.17 249.45 1040.82 252.69 1040.82 255.93ZM1029.6 255.93C1029.6 253.986 1029.16 252.258 1028.52 250.53C1027.87 248.802 1027.01 247.506 1025.71 246.211C1024.63 244.915 1023.12 244.051 1021.61 243.187C1020.1 242.539 1018.37 242.107 1016.65 242.107C1014.92 242.107 1013.19 242.539 1011.68 243.187C1010.17 243.835 1008.88 244.915 1007.58 246.211C1006.5 247.506 1005.42 248.802 1004.78 250.53C1004.13 252.258 1003.7 253.986 1003.7 255.93C1003.7 257.874 1004.13 259.601 1004.78 261.329C1005.42 263.057 1006.29 264.353 1007.58 265.649C1008.66 266.945 1010.17 267.809 1011.68 268.673C1013.19 269.321 1014.92 269.753 1016.65 269.753C1018.37 269.753 1020.1 269.321 1021.61 268.673C1023.12 268.025 1024.42 266.945 1025.71 265.649C1026.79 264.353 1027.87 263.057 1028.52 261.329C1029.16 259.601 1029.6 257.874 1029.6 255.93Z" fill="white"/>
<path d="M1087.65 278.392H1076.43V274.936C1075.78 275.584 1074.92 276.232 1073.84 276.88C1072.98 277.528 1071.9 277.96 1070.82 278.176C1069.74 278.608 1068.66 278.824 1067.58 279.04C1066.5 279.256 1065.42 279.256 1064.34 279.256C1061.97 279.256 1059.81 278.824 1057.87 278.176C1055.71 277.528 1053.98 276.232 1052.26 274.72C1050.75 273.208 1049.45 271.264 1048.37 268.889C1047.51 266.513 1046.86 263.705 1046.86 260.465V233.035H1058.09V259.817C1058.09 261.329 1058.3 262.841 1058.73 264.137C1059.16 265.433 1059.81 266.297 1060.68 267.161C1061.54 268.025 1062.4 268.457 1063.48 268.889C1064.56 269.32 1065.64 269.536 1066.72 269.536C1070.39 269.536 1073.41 268.241 1076.21 265.865V233.251H1087.44V278.392H1087.65Z" fill="white"/>
<path d="M1138.59 278.392H1127.15V276.016C1125.64 277.312 1124.13 278.176 1122.4 278.608C1120.68 279.256 1118.95 279.472 1117.01 279.472C1113.77 279.472 1110.96 278.824 1108.37 277.528C1105.78 276.232 1103.41 274.504 1101.47 272.345C1099.52 270.185 1098.01 267.593 1096.93 264.785C1095.86 261.977 1095.42 258.954 1095.42 255.714C1095.42 252.258 1096.07 249.234 1097.15 246.427C1098.44 243.619 1099.96 241.027 1102.11 238.867C1104.06 236.707 1106.43 234.98 1109.02 233.9C1111.61 232.604 1114.2 232.172 1117.01 232.172C1118.95 232.172 1120.89 232.388 1122.62 233.036C1124.34 233.468 1126.07 234.332 1127.37 235.196V213.813H1138.8V278.392H1138.59ZM1127.37 266.513V244.915C1126.93 244.483 1126.29 244.267 1125.64 243.835C1124.99 243.403 1124.34 243.187 1123.48 242.971C1122.83 242.755 1121.97 242.539 1121.32 242.323C1120.68 242.107 1120.03 242.107 1119.38 242.107C1117.44 242.107 1115.71 242.539 1114.2 243.187C1112.69 243.835 1111.39 244.699 1110.1 245.995C1109.02 247.291 1108.16 248.586 1107.51 250.314C1106.86 252.042 1106.65 253.986 1106.65 255.93C1106.65 257.874 1106.86 259.818 1107.51 261.545C1108.16 263.273 1109.02 264.785 1110.1 265.865C1111.18 267.161 1112.47 268.025 1113.98 268.673C1115.5 269.321 1117.22 269.753 1118.95 269.753C1121.97 269.753 1124.78 268.673 1127.37 266.513Z" fill="white"/>
<path d="M1208.95 278.392H1197.73V276.016C1195.78 277.312 1193.63 278.392 1191.47 278.824C1189.31 279.256 1186.93 279.688 1184.56 279.688C1182.4 279.688 1180.46 279.256 1178.73 278.608C1177.01 277.96 1175.5 277.096 1174.2 275.8C1172.91 274.504 1171.83 273.208 1171.18 271.48C1170.53 269.753 1170.1 268.025 1170.1 265.865C1170.1 263.273 1170.75 261.113 1171.83 259.169C1172.91 257.226 1174.42 255.714 1176.36 254.418C1178.3 253.122 1180.46 252.258 1183.05 251.61C1185.64 250.962 1188.45 250.746 1191.25 250.746H1197.73C1197.73 248.154 1196.86 245.994 1195.14 244.483C1193.41 242.971 1191.04 242.107 1187.8 242.107C1186.29 242.107 1184.56 242.323 1183.05 242.971C1181.32 243.619 1179.81 244.483 1178.09 245.994L1171.4 239.299C1173.77 236.923 1176.58 235.195 1179.6 233.899C1182.83 232.604 1186.07 231.956 1189.31 231.956C1192.33 231.956 1195.14 232.388 1197.73 233.467C1200.1 234.547 1202.04 235.627 1203.55 237.355C1205.5 239.299 1206.79 241.459 1207.65 244.051C1208.52 246.642 1208.95 249.666 1208.95 253.338V278.392ZM1197.73 267.377V258.953H1192.55C1191.04 258.953 1189.52 258.953 1188.23 259.169C1186.93 259.385 1185.64 259.817 1184.56 260.249C1183.48 260.681 1182.83 261.329 1182.19 262.193C1181.54 263.057 1181.32 263.921 1181.32 265.001C1181.32 266.513 1181.97 267.809 1183.05 268.889C1184.34 269.969 1185.86 270.4 1187.8 270.4C1189.52 270.4 1191.04 270.184 1192.76 269.537C1194.49 269.105 1196 268.241 1197.73 267.377Z" fill="white"/>
<path d="M1258.16 271.697C1255.78 274.288 1253.19 276.232 1249.96 277.528C1246.72 278.824 1243.27 279.472 1239.81 279.472C1236.58 279.472 1233.55 278.824 1230.53 277.744C1227.73 276.448 1225.14 274.936 1222.98 272.777C1220.82 270.617 1219.09 268.241 1218.01 265.217C1216.72 262.409 1216.07 259.17 1216.07 255.714C1216.07 252.474 1216.72 249.235 1218.01 246.427C1219.31 243.619 1220.82 241.027 1222.98 238.867C1225.14 236.708 1227.51 234.98 1230.53 233.9C1233.34 232.604 1236.58 232.172 1239.81 232.172C1243.27 232.172 1246.5 232.82 1249.53 234.116C1252.55 235.412 1255.35 237.355 1257.51 239.731L1249.96 247.507C1248.88 245.995 1247.37 244.699 1245.86 243.835C1244.13 242.755 1242.19 242.323 1239.81 242.323C1238.09 242.323 1236.58 242.755 1234.85 243.403C1233.34 244.051 1232.04 245.131 1230.75 246.427C1229.67 247.723 1228.59 249.019 1227.94 250.746C1227.29 252.474 1226.86 254.202 1226.86 256.146C1226.86 258.09 1227.29 259.818 1227.94 261.546C1228.59 263.273 1229.45 264.569 1230.75 265.865C1231.83 267.161 1233.34 268.025 1234.85 268.889C1236.36 269.537 1238.09 269.969 1239.81 269.969C1241.97 269.969 1244.13 269.537 1245.86 268.457C1247.58 267.377 1249.09 266.081 1250.17 264.353L1258.16 271.697Z" fill="white"/>
<path d="M1304.13 271.697C1301.76 274.288 1299.17 276.232 1295.93 277.528C1292.69 278.824 1289.24 279.472 1285.78 279.472C1282.55 279.472 1279.52 278.824 1276.5 277.744C1273.7 276.448 1271.11 274.936 1268.95 272.777C1266.79 270.617 1265.06 268.241 1263.99 265.217C1262.69 262.409 1262.04 259.17 1262.04 255.714C1262.04 252.474 1262.69 249.235 1263.99 246.427C1265.28 243.619 1266.79 241.027 1268.95 238.867C1271.11 236.708 1273.48 234.98 1276.5 233.9C1279.31 232.604 1282.55 232.172 1285.78 232.172C1289.24 232.172 1292.47 232.82 1295.5 234.116C1298.52 235.412 1301.32 237.355 1303.48 239.731L1295.93 247.507C1294.85 245.995 1293.34 244.699 1291.83 243.835C1290.1 242.755 1288.16 242.323 1285.78 242.323C1284.06 242.323 1282.55 242.755 1280.82 243.403C1279.31 244.051 1278.01 245.131 1276.72 246.427C1275.64 247.723 1274.56 249.019 1273.91 250.746C1273.27 252.474 1272.83 254.202 1272.83 256.146C1272.83 258.09 1273.27 259.818 1273.91 261.546C1274.56 263.273 1275.42 264.569 1276.72 265.865C1277.8 267.161 1279.31 268.025 1280.82 268.889C1282.33 269.537 1284.06 269.969 1285.78 269.969C1287.94 269.969 1290.1 269.537 1291.83 268.457C1293.55 267.377 1295.06 266.081 1296.14 264.353L1304.13 271.697Z" fill="white"/>
<path d="M1356.14 255.93C1356.14 259.386 1355.5 262.409 1354.2 265.217C1352.91 268.025 1351.18 270.617 1349.02 272.776C1346.86 274.936 1344.27 276.448 1341.25 277.744C1338.23 279.04 1335.21 279.472 1331.97 279.472C1328.73 279.472 1325.5 278.824 1322.69 277.744C1319.88 276.448 1317.29 274.936 1315.14 272.776C1312.98 270.617 1311.25 268.241 1309.96 265.217C1308.66 262.409 1308.01 259.17 1308.01 255.93C1308.01 252.69 1308.66 249.666 1309.96 246.643C1311.25 243.835 1312.98 241.243 1315.14 239.083C1317.29 236.923 1319.88 235.195 1322.69 234.116C1325.5 232.82 1328.73 232.388 1331.97 232.388C1335.21 232.388 1338.45 233.036 1341.25 234.116C1344.27 235.411 1346.65 236.923 1349.02 239.083C1351.18 241.243 1352.91 243.619 1354.2 246.643C1355.5 249.45 1356.14 252.69 1356.14 255.93ZM1344.92 255.93C1344.92 253.986 1344.49 252.258 1343.84 250.53C1343.19 248.802 1342.33 247.506 1341.04 246.211C1339.96 244.915 1338.45 244.051 1336.94 243.187C1335.42 242.539 1333.7 242.107 1331.97 242.107C1330.24 242.107 1328.52 242.539 1327.01 243.187C1325.5 243.835 1324.2 244.915 1322.91 246.211C1321.83 247.506 1320.75 248.802 1320.1 250.53C1319.45 252.258 1319.02 253.986 1319.02 255.93C1319.02 257.874 1319.45 259.601 1320.1 261.329C1320.75 263.057 1321.61 264.353 1322.91 265.649C1323.99 266.945 1325.5 267.809 1327.01 268.673C1328.52 269.321 1330.24 269.753 1331.97 269.753C1333.7 269.753 1335.42 269.321 1336.94 268.673C1338.45 268.025 1339.74 266.945 1341.04 265.649C1342.11 264.353 1343.19 263.057 1343.84 261.329C1344.7 259.601 1344.92 257.874 1344.92 255.93Z" fill="white"/>
<path d="M1402.98 278.392H1391.76V274.936C1391.11 275.584 1390.24 276.232 1389.17 276.88C1388.3 277.528 1387.22 277.96 1386.14 278.176C1385.06 278.608 1383.99 278.824 1382.91 279.04C1381.83 279.256 1380.75 279.256 1379.67 279.256C1377.3 279.256 1375.14 278.824 1373.19 278.176C1371.04 277.528 1369.31 276.232 1367.58 274.72C1366.07 273.208 1364.78 271.264 1363.7 268.889C1362.83 266.513 1362.19 263.705 1362.19 260.465V233.035H1373.41V259.817C1373.41 261.329 1373.63 262.841 1374.06 264.137C1374.49 265.433 1375.14 266.297 1376 267.161C1376.86 268.025 1377.73 268.457 1378.81 268.889C1379.88 269.32 1380.96 269.536 1382.04 269.536C1385.71 269.536 1388.73 268.241 1391.54 265.865V233.251H1402.76V278.392H1402.98Z" fill="white"/>
<path d="M1453.27 278.392H1442.04V251.61C1442.04 250.098 1441.83 248.586 1441.4 247.29C1440.96 245.995 1440.32 245.131 1439.45 244.267C1438.59 243.403 1437.73 242.971 1436.65 242.539C1435.57 242.107 1434.49 241.891 1433.41 241.891C1431.68 241.891 1429.96 242.107 1428.23 242.755C1426.5 243.403 1424.99 244.267 1423.7 245.563V278.392H1412.48V233.468H1423.7V236.923C1424.35 236.275 1425.21 235.627 1426.29 234.979C1427.37 234.332 1428.23 233.9 1429.31 233.468C1430.39 233.036 1431.47 232.82 1432.55 232.604C1433.63 232.388 1434.71 232.388 1435.78 232.388C1438.16 232.388 1440.32 232.82 1442.26 233.468C1444.42 234.116 1446.14 235.411 1447.87 236.923C1449.6 238.435 1450.89 240.379 1451.76 242.755C1452.83 245.131 1453.27 247.938 1453.27 251.178V278.392Z" fill="white"/>
<path d="M1486.94 277.528C1485.86 278.176 1484.56 278.824 1483.05 279.256C1481.54 279.688 1480.03 279.904 1478.52 279.904C1475.93 279.904 1473.55 279.472 1471.83 278.824C1470.1 278.176 1468.59 277.096 1467.51 275.8C1466.43 274.504 1465.57 272.777 1465.14 270.617C1464.71 268.457 1464.49 266.081 1464.49 263.273V243.619H1458.66V238.651C1462.33 237.139 1465.14 234.98 1467.51 231.956C1469.67 228.932 1471.4 225.26 1472.04 220.509H1475.71V233.684H1487.15V243.835H1475.71V264.353C1475.71 265.433 1475.93 266.513 1476.14 267.161C1476.36 267.809 1476.79 268.457 1477.22 268.889C1477.66 269.321 1478.3 269.537 1478.73 269.753C1479.38 269.969 1480.03 269.969 1480.68 269.969C1481.54 269.969 1482.62 269.753 1483.91 269.537C1485.21 269.321 1486.29 268.673 1487.15 268.025V277.528H1486.94Z" fill="white"/>
<path d="M1505.28 225.692H1493.63V214.029H1505.28V225.692ZM1505.07 278.392H1493.63V233.252H1505.07V278.392Z" fill="white"/>
<path d="M1556.22 278.392H1544.99V251.61C1544.99 250.098 1544.78 248.586 1544.35 247.29C1543.91 245.995 1543.27 245.131 1542.4 244.267C1541.54 243.403 1540.68 242.971 1539.6 242.539C1538.52 242.107 1537.44 241.891 1536.36 241.891C1534.63 241.891 1532.91 242.107 1531.18 242.755C1529.45 243.403 1527.94 244.267 1526.65 245.563V278.392H1515.43V233.468H1526.65V236.923C1527.3 236.275 1528.16 235.627 1529.24 234.979C1530.32 234.332 1531.18 233.9 1532.26 233.468C1533.34 233.036 1534.42 232.82 1535.5 232.604C1536.58 232.388 1537.66 232.388 1538.73 232.388C1541.11 232.388 1543.27 232.82 1545.21 233.468C1547.37 234.116 1549.09 235.411 1550.82 236.923C1552.55 238.435 1553.84 240.379 1554.71 242.755C1555.79 245.131 1556.22 247.938 1556.22 251.178V278.392Z" fill="white"/>
<path d="M1606.07 242.323H1601.32C1602.62 244.699 1603.05 247.075 1603.05 249.882C1603.05 251.826 1602.62 253.77 1601.97 255.714C1601.32 257.658 1600.25 259.386 1598.73 260.897C1597.44 262.409 1595.71 263.705 1593.55 264.785C1591.61 265.865 1589.24 266.513 1586.86 266.945C1585.14 267.161 1583.84 267.593 1582.98 268.241C1582.12 268.889 1581.68 269.321 1581.68 269.969C1581.68 270.617 1582.12 271.049 1582.98 271.481C1583.84 271.913 1585.14 272.345 1586.86 272.345C1592.69 272.777 1597.22 274.288 1600.46 276.664C1603.7 279.04 1605.21 282.28 1605.21 286.167C1605.21 288.111 1604.78 290.055 1603.7 291.783C1602.62 293.511 1601.32 295.023 1599.38 296.319C1597.66 297.615 1595.28 298.478 1592.69 299.126C1590.1 299.774 1587.3 300.206 1584.06 300.206C1580.82 300.206 1577.8 299.774 1575.21 299.126C1572.62 298.478 1570.46 297.399 1568.52 296.319C1566.58 295.023 1565.28 293.727 1564.2 291.999C1563.12 290.271 1562.69 288.327 1562.69 286.383C1562.69 283.36 1563.55 280.768 1565.28 278.608C1567.01 276.448 1570.03 274.936 1573.91 273.856C1572.62 273.424 1571.76 272.777 1571.32 271.913C1570.89 271.049 1570.46 270.185 1570.68 269.537C1570.68 268.673 1571.11 267.809 1571.76 267.161C1572.4 266.513 1573.27 265.865 1574.56 265.433C1573.27 264.785 1571.97 263.921 1570.68 263.057C1569.38 261.977 1568.3 260.897 1567.44 259.602C1566.36 258.306 1565.71 256.794 1565.07 255.282C1564.42 253.77 1564.2 252.042 1564.2 250.098C1564.2 247.723 1564.63 245.347 1565.71 243.187C1566.79 241.027 1568.09 239.299 1569.81 237.571C1571.54 236.059 1573.7 234.764 1575.86 233.9C1578.23 233.036 1580.61 232.604 1583.2 232.604C1585.79 232.604 1588.16 233.036 1590.32 233.684H1605.64V242.323H1606.07ZM1593.99 286.167C1593.99 284.44 1593.12 282.928 1591.18 282.28C1589.45 281.416 1587.08 280.984 1584.06 280.984C1581.04 280.984 1578.45 281.416 1576.72 282.28C1574.99 283.144 1574.13 284.44 1574.13 286.167C1574.13 287.895 1574.99 289.191 1576.94 290.055C1578.88 290.919 1581.25 291.351 1584.06 291.351C1587.08 291.351 1589.45 290.919 1591.18 290.055C1593.12 289.407 1593.99 288.111 1593.99 286.167ZM1592.04 249.882C1592.04 248.802 1591.83 247.723 1591.4 246.643C1590.96 245.563 1590.32 244.699 1589.67 244.051C1589.02 243.403 1587.94 242.755 1587.08 242.323C1586 241.891 1584.92 241.675 1583.84 241.675C1582.76 241.675 1581.68 241.891 1580.61 242.323C1579.53 242.755 1578.66 243.403 1578.02 244.051C1577.37 244.699 1576.72 245.779 1576.29 246.643C1575.86 247.723 1575.64 248.802 1575.64 249.882C1575.64 250.962 1575.86 252.042 1576.29 253.122C1576.72 254.202 1577.37 255.066 1578.02 255.714C1578.66 256.362 1579.53 257.01 1580.61 257.442C1581.68 257.874 1582.55 258.09 1583.84 258.09C1584.92 258.09 1586 257.874 1587.08 257.442C1588.16 257.01 1589.02 256.362 1589.67 255.714C1590.32 255.066 1590.96 253.986 1591.4 253.122C1591.83 252.042 1592.04 250.962 1592.04 249.882Z" fill="white"/>
</svg>
