<svg width="1705" height="301" viewBox="0 0 1705 301" fill="none" xmlns="http://www.w3.org/2000/svg">
<path d="M442.61 238.484L473.35 193.965C499.291 193.965 525.232 193.858 551.174 193.858L503.608 131.977L421.64 238.714L357.638 238.484L480.75 73.6772C483.681 69.824 492.574 66.1672 503.783 66.1672C514.993 66.1672 523.273 69.7155 526.344 73.6786C568.965 128.684 644.479 238.484 644.479 238.484C577.188 238.613 509.9 238.484 442.61 238.484Z" fill="white"/>
<path d="M674.083 237.522C673.931 237.408 673.818 209.854 673.818 176.305V115.315L667.859 115.088C664.557 114.936 646.188 114.822 627.06 114.822H592.22L625.049 66.1672L718.981 66.2431C770.634 66.2431 812.951 66.357 813.026 66.4329L780.463 114.822H751.809H723.156V176.039V237.294L717.197 237.522C709.341 237.863 674.387 237.863 674.083 237.522Z" fill="white"/>
<path d="M833.521 237.518L829.422 237.366V155.807V66.0891L886.35 66.0875V96.715C886.35 109.087 886.464 121.878 886.616 125.179L886.844 131.138H935.764H984.647V98.7265V66.3153L1009.05 66.1635C1022.45 66.0497 1033.49 66.0497 1033.61 66.1635C1033.72 66.2394 1033.79 104.837 1033.79 151.936V237.594H1009.32H984.836L984.723 204.841L984.647 172.126L935.574 172.202L886.54 172.316L886.426 204.803L886.35 237.29L880.354 237.518C874.585 237.784 841.832 237.746 833.521 237.518Z" fill="white"/>
<path d="M1070.72 237.522L1066.62 237.37V155.621L1066.62 66.0914H1123.55V135.506V196.799H1185.03H1246.55L1221.83 237.522H1215.89C1210.04 237.787 1078.88 237.749 1070.72 237.522Z" fill="white"/>
<path d="M1287.13 196.798H1356.77H1426.41C1432.29 196.798 1434.5 190.235 1434.51 184.477C1434.51 178.71 1432.44 172.129 1426.41 172.129H1373.09H1311.8C1296.94 172.129 1262.84 151.685 1262.84 119.186C1262.84 91.1402 1290.92 66.2422 1319.77 66.2422L1393.39 66.1662C1433.89 66.0903 1468.84 66.0524 1471.12 66.0524H1475.18L1450.7 114.821L1385.35 114.897H1328.11C1317.57 114.897 1311.8 119.72 1311.8 127.118C1311.8 136.137 1316.43 139.49 1328.11 139.49H1397.57H1450.7C1468.4 139.49 1491.74 148.391 1491.74 182.073C1491.74 215.754 1468.08 237.293 1450.7 237.293L1438.48 237.521C1431.72 237.672 1389.45 237.786 1344.55 237.786H1262.84L1287.13 196.798Z" fill="white"/>
<path d="M1561.25 237.522L1556.97 237.37V176.115V114.822H1520.15H1483.34L1516.17 66.2053H1606.04C1655.45 66.2053 1697.77 66.2432 1700.05 66.2432H1704.22L1671.58 114.822H1642.93H1614.27V176.039V237.294L1607.94 237.522C1601.86 237.787 1570.06 237.749 1561.25 237.522Z" fill="white"/>
<path d="M283.829 218.368C294.28 197.916 300.174 174.75 300.174 150.206C300.174 67.3636 233.017 0.206299 150.174 0.206299C67.3316 0.206299 0.174316 67.3636 0.174316 150.206C0.174316 176.311 6.84279 200.858 18.5693 222.238L23.7023 215.698C23.7603 215.612 26.8654 211.195 127.081 69.9341C130.25 65.4677 139.864 61.229 151.983 61.229C164.103 61.229 173.054 65.342 176.374 69.9358C255.107 178.88 277.481 209.679 283.829 218.368Z" fill="white"/>
<path d="M251.033 261.237H174.072C130.654 261.237 90.5766 260.972 90.5766 260.972H85.8458L119.08 209.366H121.316C121.316 209.366 143.292 209.243 164.583 209.243H203.219L151.794 137.513L63.1751 261.237L57.7102 268.326C83.1884 288.299 115.291 300.206 150.174 300.206C189.008 300.206 224.394 285.449 251.033 261.237Z" fill="white"/>
</svg>
