<svg width="948" height="301" viewBox="0 0 948 301" fill="none" xmlns="http://www.w3.org/2000/svg">
<path d="M345.926 0.550077C345.996 0.550077 346.057 0.566913 346.11 0.600585C346.164 0.634257 346.205 0.682052 346.234 0.743971C346.263 0.805878 346.278 0.877576 346.278 0.959043C346.278 1.04159 346.263 1.11436 346.234 1.17737C346.205 1.23928 346.164 1.28761 346.11 1.32238C346.057 1.35714 345.996 1.37447 345.926 1.37447C345.865 1.37447 345.81 1.36093 345.763 1.33378C345.718 1.30663 345.683 1.26807 345.659 1.2181V1.30608C345.659 1.32563 345.654 1.34138 345.641 1.35333C345.63 1.36532 345.615 1.37121 345.594 1.37121C345.574 1.37121 345.557 1.36532 345.545 1.35333C345.533 1.34138 345.527 1.32563 345.527 1.30608V0.269836C345.527 0.25137 345.533 0.236165 345.545 0.224218C345.557 0.212272 345.574 0.206299 345.594 0.206299C345.615 0.206299 345.63 0.212272 345.641 0.224218C345.654 0.235081 345.659 0.250287 345.659 0.269836V0.706492C345.683 0.65653 345.718 0.617968 345.763 0.590815C345.81 0.563653 345.865 0.550077 345.926 0.550077ZM345.901 1.26535C345.977 1.26535 346.037 1.23874 346.079 1.18551C346.122 1.1312 346.143 1.05572 346.143 0.959043C346.143 0.864536 346.122 0.791218 346.079 0.73908C346.037 0.686942 345.977 0.660873 345.901 0.660873C345.823 0.660873 345.763 0.686942 345.721 0.73908C345.68 0.791218 345.659 0.865619 345.659 0.962292C345.659 1.05897 345.68 1.13391 345.721 1.18715C345.763 1.23928 345.823 1.26535 345.901 1.26535ZM347.09 1.179C347.102 1.179 347.112 1.18389 347.121 1.19367C347.129 1.20343 347.134 1.21593 347.134 1.23113C347.134 1.25829 347.114 1.28327 347.076 1.30608C347.037 1.32889 346.996 1.34627 346.953 1.35822C346.909 1.3691 346.867 1.37447 346.826 1.37447C346.703 1.37447 346.606 1.33812 346.534 1.26535C346.463 1.19257 346.429 1.0921 346.429 0.963923C346.429 0.882466 346.444 0.810768 346.476 0.74886C346.507 0.685859 346.551 0.636981 346.607 0.602215C346.665 0.56746 346.73 0.550077 346.803 0.550077C346.906 0.550077 346.988 0.583749 347.049 0.651093C347.11 0.718437 347.141 0.809685 347.141 0.924824C347.141 0.94655 347.136 0.962292 347.127 0.972072C347.118 0.981852 347.105 0.986732 347.085 0.986732H346.56C346.57 1.17357 346.659 1.26698 346.826 1.26698C346.868 1.26698 346.905 1.26155 346.935 1.25068C346.965 1.23874 346.998 1.22298 347.032 1.20343C347.061 1.18715 347.08 1.179 347.09 1.179ZM346.805 0.652723C346.735 0.652723 346.679 0.674449 346.637 0.717901C346.596 0.761353 346.571 0.822714 346.563 0.902015H347.025C347.023 0.82163 347.003 0.76026 346.964 0.717901C346.926 0.674449 346.873 0.652723 346.805 0.652723ZM347.734 0.550077C347.924 0.550077 348.019 0.6549 348.019 0.864536V1.30608C348.019 1.32672 348.013 1.34301 348.001 1.35496C347.99 1.36584 347.974 1.37121 347.953 1.37121C347.933 1.37121 347.917 1.36584 347.905 1.35496C347.893 1.34301 347.887 1.32672 347.887 1.30608V0.872686C347.887 0.798822 347.872 0.745053 347.843 0.711381C347.815 0.677709 347.769 0.660873 347.706 0.660873C347.634 0.660873 347.575 0.683146 347.532 0.727671C347.489 0.772206 347.467 0.832494 347.467 0.908535V1.30608C347.467 1.32672 347.46 1.34301 347.449 1.35496C347.438 1.36584 347.422 1.37121 347.401 1.37121C347.381 1.37121 347.365 1.36584 347.353 1.35496C347.34 1.34301 347.335 1.32672 347.335 1.30608V0.618514C347.335 0.598955 347.34 0.583213 347.353 0.571256C347.365 0.55931 347.381 0.553337 347.401 0.553337C347.421 0.553337 347.436 0.55931 347.448 0.571256C347.459 0.583213 347.465 0.598419 347.465 0.616885V0.699982C347.491 0.651093 347.528 0.614172 347.574 0.589186C347.621 0.563117 347.674 0.550077 347.734 0.550077ZM348.627 1.26698C348.665 1.27024 348.684 1.28761 348.684 1.31912C348.684 1.33759 348.677 1.3517 348.663 1.36148C348.651 1.37015 348.63 1.37341 348.603 1.37121L348.559 1.36795C348.472 1.36148 348.408 1.33541 348.367 1.28979C348.326 1.24417 348.305 1.1752 348.305 1.08287V0.673913H348.195C348.177 0.673913 348.163 0.669559 348.151 0.660873C348.142 0.651093 348.136 0.638611 348.136 0.623394C348.136 0.607105 348.142 0.594075 348.151 0.584296C348.163 0.574516 348.177 0.569636 348.195 0.569636H348.305V0.385523C348.305 0.36488 348.311 0.349127 348.323 0.338264C348.334 0.326318 348.351 0.320345 348.372 0.320345C348.391 0.320345 348.407 0.326318 348.419 0.338264C348.431 0.349127 348.437 0.36488 348.437 0.385523V0.569636H348.618C348.635 0.569636 348.649 0.574516 348.658 0.584296C348.67 0.594075 348.675 0.607105 348.675 0.623394C348.675 0.638611 348.67 0.651093 348.658 0.660873C348.649 0.669559 348.635 0.673913 348.618 0.673913H348.437V1.08939C348.437 1.14913 348.449 1.19257 348.473 1.21973C348.497 1.2458 348.535 1.26046 348.583 1.26372L348.627 1.26698ZM349.144 1.37447C349.068 1.37447 349.002 1.35768 348.945 1.32401C348.888 1.29033 348.844 1.24254 348.813 1.18063C348.782 1.11762 348.767 1.04485 348.767 0.962292C348.767 0.879742 348.782 0.807508 348.813 0.7456C348.844 0.682599 348.888 0.634257 348.945 0.600585C349.002 0.566913 349.068 0.550077 349.144 0.550077C349.218 0.550077 349.285 0.566913 349.343 0.600585C349.4 0.634257 349.444 0.682599 349.474 0.7456C349.506 0.807508 349.521 0.879742 349.521 0.962292C349.521 1.04485 349.506 1.11762 349.474 1.18063C349.444 1.24254 349.4 1.29033 349.343 1.32401C349.285 1.35768 349.218 1.37447 349.144 1.37447ZM349.144 1.26535C349.222 1.26535 349.282 1.23982 349.323 1.18877C349.365 1.13664 349.387 1.06114 349.387 0.962292C349.387 0.865619 349.365 0.791218 349.323 0.73908C349.281 0.685859 349.221 0.659243 349.144 0.659243C349.066 0.659243 349.007 0.685859 348.964 0.73908C348.922 0.791218 348.901 0.865619 348.901 0.962292C348.901 1.06006 348.922 1.13501 348.963 1.18715C349.005 1.23928 349.065 1.26535 349.144 1.26535Z" fill="white"/>
<path d="M426.877 100.046C436.798 100.046 445.553 102.469 453.147 107.322C460.742 112.172 466.669 119.061 470.933 127.981C475.192 136.9 477.326 147.31 477.326 159.201C477.326 170.935 475.192 181.345 470.933 190.422C466.669 199.498 460.702 206.539 453.029 211.546C445.357 216.553 436.638 219.059 426.877 219.059C418.355 219.059 410.837 217.221 404.327 213.54C397.818 209.862 392.857 204.579 389.448 197.694V207.084C389.448 210.527 388.401 213.304 386.309 215.418C384.216 217.531 381.387 218.588 377.822 218.588C374.259 218.588 371.393 217.531 369.222 215.418C367.052 213.304 365.969 210.527 365.969 207.084V62.0109C365.969 58.5685 367.093 55.828 369.341 53.793C371.59 51.7582 374.495 50.7429 378.06 50.7429C381.469 50.7429 384.22 51.7211 386.313 53.6774C388.406 55.6339 389.452 58.2549 389.452 61.5403V121.637C392.861 114.752 397.818 109.427 404.33 105.675C410.837 101.92 418.358 100.042 426.882 100.042L426.877 100.046ZM421.298 200.282C431.37 200.282 439.238 196.683 444.895 189.485C450.552 182.286 453.381 172.19 453.381 159.201C453.381 146.369 450.589 136.471 445.013 129.504C439.434 122.541 431.529 119.057 421.302 119.057C411.071 119.057 403.207 122.578 397.705 129.619C392.203 136.661 389.452 146.678 389.452 159.668C389.452 172.657 392.203 182.674 397.705 189.716C403.207 196.757 411.071 200.278 421.302 200.278L421.298 200.282ZM592.169 188.548C594.339 188.548 596.121 189.41 597.515 191.131C598.908 192.853 599.607 195.044 599.607 197.703C599.607 202.243 596.815 206.077 591.241 209.206C585.817 212.339 579.889 214.762 573.455 216.482C567.026 218.204 560.862 219.066 554.972 219.066C536.995 219.066 522.816 213.787 512.429 203.221C502.042 192.658 496.852 178.221 496.852 159.912C496.852 148.173 499.137 137.767 503.71 128.691C508.28 119.614 514.714 112.573 523.004 107.566C531.297 102.559 540.711 100.055 551.249 100.055C566.434 100.055 578.446 104.982 587.28 114.843C596.113 124.703 600.532 138.007 600.532 154.751C600.532 161.009 597.74 164.142 592.164 164.142H520.331C521.88 188.399 533.426 200.525 554.968 200.525C560.703 200.525 565.661 199.742 569.846 198.177C574.032 196.612 578.45 194.577 583.098 192.073C583.564 191.759 584.843 191.095 586.937 190.079C589.029 189.064 590.774 188.552 592.169 188.552V188.548ZM551.719 117.419C542.73 117.419 535.523 120.312 530.099 126.103C524.675 131.894 521.421 140.033 520.334 150.517H580.315C579.849 139.876 577.176 131.699 572.294 125.987C567.414 120.275 560.555 117.419 551.722 117.419H551.719ZM687.485 100.046C714.606 100.046 728.168 115.462 728.168 146.29V207.324C728.168 210.922 727.122 213.701 725.029 215.657C722.937 217.614 720.03 218.592 716.311 218.592C712.746 218.592 709.918 217.576 707.824 215.541C705.732 213.506 704.685 210.77 704.685 207.328V147.467C704.685 137.763 702.785 130.643 698.988 126.103C695.19 121.563 689.264 119.297 681.203 119.297C671.748 119.297 664.154 122.269 658.419 128.216C652.684 134.164 649.819 142.146 649.819 152.159V207.324C649.819 210.766 648.773 213.506 646.679 215.537C644.586 217.573 641.759 218.588 638.194 218.588C634.63 218.588 631.764 217.573 629.594 215.537C627.423 213.502 626.34 210.766 626.34 207.324V111.78C626.34 108.495 627.464 105.795 629.713 103.683C631.96 101.569 634.789 100.512 638.198 100.512C641.607 100.512 644.321 101.528 646.336 103.567C648.351 105.602 649.357 108.259 649.357 111.55V121.175C653.077 114.29 658.268 109.048 664.935 105.445C671.597 101.845 679.114 100.046 687.485 100.046ZM815.809 200.517C819.218 200.831 821.659 201.73 823.134 203.216C824.605 204.702 825.346 206.779 825.346 209.436C825.346 212.566 824.144 214.955 821.74 216.594C819.337 218.236 815.813 218.901 811.162 218.588L804.883 218.117C792.331 217.18 782.954 213.304 776.752 206.498C770.552 199.692 767.453 189.637 767.453 176.334V121.171H753.503C746.685 121.171 743.276 118.12 743.276 112.015C743.276 109.196 744.166 106.968 745.949 105.325C747.731 103.683 750.249 102.86 753.503 102.86H767.453V78.6819C767.453 75.0827 768.5 72.2678 770.593 70.2329C772.686 68.198 775.515 67.1827 779.078 67.1827C782.642 67.1827 785.512 68.198 787.683 70.2329C789.853 72.2678 790.936 75.0827 790.936 78.6819V102.86H813.949C817.203 102.86 819.721 103.683 821.507 105.325C823.289 106.968 824.18 109.2 824.18 112.015C824.18 114.987 823.289 117.258 821.507 118.821C819.725 120.386 817.207 121.171 813.949 121.171H790.936V177.981C790.936 185.336 792.448 190.735 795.47 194.178C798.49 197.62 803.101 199.577 809.301 200.047L815.809 200.517ZM891.595 219.062C880.437 219.062 870.635 216.636 862.19 211.786C853.741 206.936 847.234 200.01 842.66 191.011C838.09 182.014 835.801 171.567 835.801 159.672C835.801 147.619 838.086 137.094 842.66 128.096C847.229 119.098 853.741 112.172 862.19 107.322C870.635 102.473 880.441 100.046 891.595 100.046C902.755 100.046 912.557 102.469 921.005 107.322C929.451 112.172 935.962 119.098 940.536 128.096C945.106 137.094 947.394 147.619 947.394 159.672C947.394 171.567 945.11 182.014 940.536 191.011C935.965 200.01 929.454 206.936 921.005 211.786C912.561 216.636 902.755 219.062 891.595 219.062ZM891.595 200.282C901.982 200.282 909.925 196.839 915.425 189.955C920.927 183.071 923.678 172.974 923.678 159.672C923.678 146.526 920.886 136.471 915.312 129.508C909.732 122.545 901.827 119.061 891.599 119.061C881.373 119.061 873.468 122.545 867.888 129.508C862.308 136.471 859.52 146.526 859.52 159.672C859.52 172.974 862.271 183.067 867.773 189.955C873.275 196.839 881.217 200.282 891.599 200.282H891.595Z" fill="white"/>
<path fill-rule="evenodd" clip-rule="evenodd" d="M143.841 300.202C64.9309 300.202 0.957031 235.602 0.957031 155.922V140.728H100.962L100.705 194.938C100.693 198.24 103.337 200.931 106.603 200.944L167.058 200.969V298.3C159.5 299.55 151.741 300.206 143.832 300.206L143.841 300.202ZM0.957031 128.721V11.6404H101.571L101.019 128.721H0.957031ZM113.417 11.6404H138.739V11.7436C140.436 11.6817 142.136 11.6404 143.841 11.6404C222.749 11.6404 286.723 76.2399 286.723 155.922C286.723 167.289 285.416 178.346 282.956 188.958H112.583L113.417 11.6404ZM279.611 200.965C264.459 247.564 226.441 283.688 178.957 295.806V200.965H279.611Z" fill="white"/>
</svg>
