<svg width="1946" height="301" viewBox="0 0 1946 301" fill="none" xmlns="http://www.w3.org/2000/svg">
<path d="M0.823242 300.194V19.1874H26.3863V130.24C36.0991 117.915 48.3619 107.839 62.3622 100.727C81.3876 91.6641 102.788 88.8015 123.526 92.5391C144.277 96.2892 163.327 106.414 178.002 121.54C187.703 131.29 195.34 142.903 200.453 155.666C205.578 168.428 208.078 182.091 207.803 195.842C208.028 209.517 205.466 223.092 200.303 235.755C195.115 248.405 187.428 259.881 177.677 269.481C168.352 279.256 157.102 287.006 144.639 292.231C132.176 297.481 118.763 300.081 105.263 299.894C89.9628 300.119 74.85 296.531 61.2621 289.469C47.3868 281.894 35.4491 271.206 26.3863 258.243V300.194H0.823242ZM103.138 275.218C117.051 275.318 130.714 271.656 142.702 264.606C154.702 257.568 164.552 247.405 171.227 235.23C178.24 222.942 181.927 209.054 181.927 194.916C181.927 180.791 178.24 166.891 171.24 154.616C164.44 142.278 154.464 131.99 142.339 124.827C130.639 117.752 117.238 114.015 103.588 113.99C89.5878 114.04 75.85 117.777 63.7622 124.827C51.5619 131.515 41.4867 141.503 34.674 153.641C27.8489 166.078 24.3613 180.079 24.5738 194.266C24.5738 217.292 32.1365 236.542 47.2743 252.018C54.462 259.556 63.1497 265.518 72.7624 269.506C82.3876 273.506 92.7254 275.443 103.138 275.218ZM403.12 228.792L424.783 240.143C418.671 252.718 410.37 264.093 400.283 273.756C391.195 282.181 380.57 288.794 368.994 293.231C356.369 297.856 342.994 300.106 329.568 299.894C297.068 299.894 271.692 289.269 253.479 268.018C235.791 248.18 226.054 222.492 226.154 195.917C225.904 171.428 234.116 147.615 249.404 128.477C269.005 103.402 295.28 90.8515 328.206 90.8265C362.119 90.8265 389.207 103.689 409.458 129.402C423.908 147.453 431.208 170.116 431.396 197.379H252.642C253.142 220.455 260.517 239.418 274.767 254.255C281.542 261.443 289.755 267.131 298.855 270.931C307.968 274.756 317.768 276.618 327.643 276.406C337.731 276.381 347.744 274.531 357.194 270.993C366.094 267.843 374.357 263.081 381.57 256.968C388.095 251.193 395.282 241.793 403.12 228.792ZM403.12 175.254C400.545 163.416 395.457 152.265 388.195 142.565C381.232 134.053 372.357 127.29 362.307 122.815C351.719 117.852 340.181 115.29 328.481 115.315C309.905 114.99 291.905 121.777 278.155 134.278C267.917 143.428 260.179 157.128 254.917 175.391L403.12 175.254ZM482.534 22.1H508.135V90.514H548.761V112.64H508.135V300.169H482.534V112.64H447.659V90.514H482.534V22.1ZM590.65 22.1H616.163V90.514H656.789V112.64H616.163V300.169H590.6V112.64H555.736V90.514H590.65V22.1ZM851.968 228.792L873.631 240.143C867.556 252.705 859.306 264.081 849.256 273.756C840.155 282.181 829.543 288.781 817.967 293.231C805.317 297.869 791.904 300.131 778.429 299.894C745.928 299.894 720.565 289.269 702.352 268.018C684.602 248.205 674.826 222.517 674.914 195.917C674.664 171.441 682.852 147.615 698.127 128.477C717.777 103.402 744.053 90.8515 776.966 90.8265C810.842 90.8265 837.93 103.689 858.218 129.402C872.669 147.453 879.981 170.116 880.181 197.379H701.215C701.702 220.455 709.09 239.418 723.365 254.255C730.14 261.443 738.34 267.131 747.453 270.943C756.553 274.756 766.366 276.618 776.241 276.406C786.329 276.368 796.342 274.531 805.78 270.993C814.692 267.831 822.955 263.081 830.155 256.968C836.905 251.193 844.155 241.793 851.968 228.792ZM851.968 175.254C849.393 163.416 844.305 152.265 837.068 142.565C830.093 134.065 821.23 127.29 811.18 122.815C800.579 117.852 789.017 115.29 777.316 115.315C758.753 114.99 740.766 121.777 727.028 134.278C716.752 143.428 709.002 157.128 703.777 175.391L851.968 175.254ZM987.534 92.3266C987.209 105.214 987.209 118.765 987.209 118.765C982.746 116.815 977.921 115.765 973.046 115.702C964.533 115.702 956.296 119.202 948.37 126.202C940.445 133.203 934.42 144.04 930.282 158.703C927.12 170.041 925.532 192.954 925.532 227.417V300.081H899.407V90.5391H925.532V125.015C932.02 114.977 940.408 106.289 950.22 99.4768C958.208 94.0141 967.633 91.0516 977.296 90.9766C980.784 91.0016 984.246 91.5016 987.596 92.4641L987.534 92.3266ZM1005.66 19.1999H1031.26V131.603C1040.32 119.077 1051.97 108.639 1065.41 100.989C1077.79 94.2392 1091.69 90.7391 1105.79 90.8391C1119.81 90.5891 1133.6 94.5391 1145.36 102.189C1156.71 109.539 1165.59 120.14 1170.85 132.603C1176.26 145.228 1178.98 165.191 1178.98 192.454V300.206H1153.38V199.967C1153.38 177.079 1152.47 161.791 1150.68 154.116C1147.51 140.953 1141.75 131.027 1133.39 124.327C1125.02 117.627 1114.1 114.315 1100.59 114.39C1085.34 114.315 1070.57 119.765 1059.02 129.715C1047.1 139.44 1038.61 152.728 1034.81 167.628C1032.38 177.379 1031.17 195.441 1031.17 221.805V300.131H1005.58L1005.66 19.1874V19.1999ZM1402.44 90.5391V300.194H1377.23V260.593C1367.44 272.893 1355.13 282.931 1341.13 290.044C1322.08 299.144 1300.65 302.044 1279.87 298.319C1259.08 294.594 1239.99 284.444 1225.29 269.293C1215.58 259.518 1207.93 247.88 1202.81 235.08C1197.69 222.292 1195.2 208.579 1195.5 194.816C1195.28 181.166 1197.83 167.628 1202.99 155.003C1208.15 142.378 1215.84 130.927 1225.56 121.365C1234.89 111.552 1246.15 103.777 1258.64 98.5267C1271.12 93.2766 1284.55 90.6516 1298.09 90.8391C1313.5 90.6141 1328.73 94.2016 1342.43 101.264C1356.32 108.802 1368.24 119.515 1377.23 132.515V90.5391H1402.44ZM1300.2 115.515C1286.29 115.415 1272.62 119.077 1260.62 126.115C1248.61 133.14 1238.74 143.303 1232.03 155.491C1225.01 167.703 1221.31 181.541 1221.31 195.641C1221.31 209.729 1225.01 223.567 1232.03 235.792C1238.81 248.143 1248.81 258.43 1260.95 265.581C1272.73 272.668 1286.19 276.418 1299.93 276.418C1313.89 276.418 1327.6 272.768 1339.72 265.831C1351.84 259.156 1361.87 249.23 1368.67 237.167C1375.51 224.73 1378.99 210.742 1378.81 196.542C1378.81 173.566 1371.22 154.328 1356.04 138.853C1348.87 131.315 1340.19 125.34 1330.58 121.327C1320.97 117.302 1310.62 115.327 1300.2 115.515ZM1436.81 19.1999H1462.41V300.206H1436.81V19.1999ZM1576.02 19.1749V44.2255C1568.46 40.6379 1560.26 38.5878 1551.9 38.1878C1547.55 38.0253 1543.25 39.0754 1539.46 41.2254C1536.62 42.7129 1534.42 45.1755 1533.26 48.1631C1532.4 50.8631 1531.98 57.7383 1531.98 69.0636V90.514H1573.47V112.64H1531.93V300.169H1506.33V112.64H1480.15V90.514H1506.26V64.8634C1506.26 50.6131 1507.56 40.4504 1510.18 34.3502C1512.92 28.1376 1517.58 22.975 1523.48 19.6374C1530.43 15.8123 1538.3 13.9373 1546.23 14.2248C1556.35 14.4748 1566.37 16.1498 1576.02 19.1749ZM1615.56 254.593C1618.52 254.58 1621.46 255.168 1624.2 256.305C1626.95 257.43 1629.42 259.105 1631.51 261.218C1633.6 263.318 1635.25 265.818 1636.37 268.568C1637.49 271.318 1638.05 274.256 1638.01 277.218C1638.06 280.193 1637.51 283.144 1636.39 285.906C1635.26 288.656 1633.59 291.156 1631.46 293.231C1629.39 295.344 1626.91 297.019 1624.19 298.169C1621.45 299.306 1618.52 299.894 1615.56 299.894C1612.6 299.894 1609.67 299.306 1606.95 298.169C1604.21 297.019 1601.74 295.344 1599.66 293.231C1595.45 288.956 1593.09 283.194 1593.09 277.193C1593.09 271.193 1595.45 265.443 1599.66 261.168C1601.72 259.043 1604.2 257.355 1606.94 256.23C1609.67 255.105 1612.61 254.53 1615.56 254.58V254.593ZM1862.38 90.5391V300.194H1837.17V260.593C1827.38 272.893 1815.07 282.931 1801.07 290.044C1782.01 299.144 1760.59 302.044 1739.8 298.319C1719.01 294.594 1699.93 284.444 1685.22 269.293C1675.51 259.518 1667.86 247.88 1662.74 235.08C1657.62 222.292 1655.14 208.579 1655.42 194.816C1655.21 181.166 1657.77 167.616 1662.96 154.991C1668.15 142.365 1675.84 130.927 1685.57 121.365C1694.9 111.565 1706.15 103.789 1718.61 98.5392C1731.08 93.2891 1744.5 90.6641 1758.03 90.8391C1773.46 90.6016 1788.71 94.1891 1802.44 101.264C1816.33 108.802 1828.25 119.515 1837.24 132.515V90.5391H1862.38ZM1760.14 115.515C1746.23 115.415 1732.55 119.077 1720.55 126.115C1708.55 133.14 1698.68 143.303 1691.96 155.491C1684.95 167.703 1681.25 181.541 1681.25 195.641C1681.25 209.729 1684.95 223.567 1691.96 235.792C1698.75 248.143 1708.75 258.43 1720.89 265.581C1732.66 272.668 1746.13 276.418 1759.86 276.418C1773.86 276.418 1787.6 272.731 1799.73 265.743C1811.87 259.068 1821.89 249.155 1828.69 237.092C1835.53 224.655 1839.02 210.654 1838.82 196.467C1838.82 173.478 1831.24 154.253 1816.09 138.778C1808.88 131.24 1800.19 125.277 1790.55 121.277C1780.93 117.277 1770.56 115.302 1760.14 115.515ZM1897.23 90.5391H1922.83V300.194H1897.23V90.5391Z" fill="white"/>
<path d="M1909.76 8.9012C1884.48 -19.837 1844.37 29.1267 1909.76 61.9524C1975.16 29.0517 1935.16 -19.6995 1909.76 8.9012Z" fill="white"/>
</svg>
