<svg width="1629" height="301" viewBox="0 0 1629 301" fill="none" xmlns="http://www.w3.org/2000/svg">
<path fill-rule="evenodd" clip-rule="evenodd" d="M574.502 44.1531C565.411 45.3582 557.97 51.9906 555.243 61.319C554.295 64.5623 554.298 70.2585 555.25 73.5905C556.844 79.1696 561.512 85.0446 566.435 87.6684C569.134 89.1069 574.05 90.2621 577.471 90.2621C580.678 90.2621 585.9 89.1073 588.455 87.8329C593.733 85.2007 599.091 78.1412 600.326 72.1909C601.024 68.8284 600.632 62.7601 599.514 59.6221C595.86 49.3723 585.141 42.7424 574.502 44.1531ZM384.405 48.1312C384.283 48.4484 384.255 78.1801 384.344 114.201C384.519 185.673 384.399 182.071 386.998 193.649C388.39 199.849 389.642 203.414 392.277 208.677C402.331 228.756 420.529 241.296 444.095 244.386C449.737 245.125 461.89 245.228 467.119 244.581C478.888 243.124 489.569 239.293 499.033 233.135C505.594 228.866 513.243 220.2 518.133 211.495C527.003 195.708 530.157 173.561 526.269 154.374C522.854 137.52 513.291 122.517 500.523 113.983C488.838 106.172 477.876 102.904 463.091 102.824C455.105 102.781 451.259 103.34 444.605 105.515C437.229 107.925 429.606 112.837 424.233 118.639L421.44 121.656V84.6053V47.5545H403.033C387.877 47.5545 384.587 47.6564 384.405 48.1312ZM1244.83 144.7L1244.94 241.853H1263.54H1282.15V144.81V47.7659L1263.44 47.6559L1244.72 47.5456L1244.83 144.7ZM691.879 103.011C663.279 105.53 642.443 122.359 636.329 147.879L635.19 152.632V197.243V241.853L653.69 241.964L672.189 242.074L672.196 200.102C672.202 153.998 672.127 155.459 674.781 150.197C678.75 142.325 684.642 137.654 693.389 135.442C696.326 134.699 697.68 134.591 701.569 134.791C710.002 135.224 715.952 137.999 721.437 144.059C724.314 147.236 726.938 152.347 727.794 156.438C728.313 158.919 728.415 166.084 728.421 200.731L728.428 242.065H746.822H765.216L765.222 200.097C765.229 154 765.153 155.46 767.807 150.197C770.748 144.362 775.524 139.672 780.897 137.344C797.365 130.207 814.888 137.822 820.457 154.535C821.184 156.718 821.239 159.48 821.357 199.463L821.482 242.065H839.862H858.243L858.24 199.251C858.238 152.919 858.223 152.581 855.919 144.598C854.561 139.893 850.538 131.448 847.695 127.336C842.171 119.344 831.726 111.491 821.243 107.447C812.792 104.186 804.966 102.858 793.97 102.818C785.582 102.788 781.843 103.21 775.153 104.943C765.309 107.494 755.651 112.705 748.848 119.137L746.646 121.219L743.416 118.402C729.699 106.439 712.222 101.219 691.879 103.011ZM954.018 102.984C941.765 103.97 931.312 107.23 921.607 113.093C910.914 119.552 904.146 126.655 898.464 137.382C895.164 143.612 893.598 147.554 892.069 153.485C888.047 169.084 888.785 187.292 894.057 202.484C895.803 207.519 899.878 215.77 902.634 219.852C908.253 228.178 916.748 235.344 926.504 239.989C934.029 243.571 941.163 245.018 951.32 245.022C958.211 245.025 963.23 244.325 968.395 242.642C979.201 239.12 988.558 231.595 994.58 221.582L996.091 219.069V230.571V242.074L1014.38 241.964L1032.67 241.853L1032.78 205.911C1032.91 166.31 1032.78 163.469 1030.4 154.059C1028.3 145.758 1024.97 138.253 1020 130.644C1012.88 119.755 1000.69 110.721 987.206 106.351C977.568 103.227 965.812 102.034 954.018 102.984ZM1134.19 102.958C1112.13 104.933 1093.94 114.996 1083.03 131.262C1077.18 139.973 1073.75 148.71 1071.66 160.151L1070.72 165.318V232.762V300.206H1089.12H1107.51L1107.62 263.273L1107.73 226.339L1110.73 229.554C1117.48 236.779 1125.99 241.527 1136.69 244.023C1141.95 245.252 1157 245.135 1163.12 243.817C1176.39 240.955 1186.03 235.817 1194.84 226.906C1200.28 221.397 1203.07 217.581 1206.42 211.047C1209.86 204.335 1212.09 197.106 1213.25 188.902C1214.12 182.759 1214.1 169.775 1213.21 163.443C1211.2 149.083 1205.96 136.704 1197.42 126.113C1187.73 114.1 1172.95 106.167 1155.51 103.619C1149.85 102.792 1139.59 102.474 1134.19 102.958ZM1380.04 102.806C1360.36 104.182 1345.27 110.607 1333.08 122.8C1327.86 128.028 1324.19 133.062 1321.05 139.318C1315.44 150.477 1313.5 159.453 1313.52 174.198C1313.53 189.947 1315.52 199.311 1321.33 210.943C1330.04 228.4 1343.78 239.66 1361.43 243.809C1366.18 244.926 1378.05 245.357 1383.54 244.612C1397.7 242.689 1409.2 235.357 1417.3 223.088L1419.36 219.968V231.017V242.065H1437.97H1456.57L1456.57 204.326C1456.56 163.081 1456.53 162.439 1454.06 153.001C1448.23 130.729 1432.32 113.338 1411.52 106.527C1402.34 103.518 1390.26 102.09 1380.04 102.806ZM1553.93 103C1537.73 104.332 1521.97 111.335 1512.3 121.501C1504.09 130.122 1498.7 140.739 1496.48 152.632C1495.74 156.582 1495.69 159.661 1495.69 199.357V241.853L1514.17 241.963L1532.65 242.074L1532.78 199.89L1532.9 157.706L1534.03 154.605C1535.73 149.944 1537.59 147.094 1541.57 143.072C1545.67 138.916 1549.15 136.959 1555.15 135.442C1564.26 133.14 1575.59 135.974 1581.88 142.129C1585.51 145.672 1588.91 151.5 1590.48 156.861C1591.16 159.19 1591.23 162.79 1591.36 200.736L1591.5 242.074L1609.98 241.963L1628.46 241.853V199.146C1628.46 151.561 1628.55 153.274 1625.5 144.111C1617.56 120.258 1596.99 105.196 1569.31 102.965C1563.21 102.472 1560.25 102.479 1553.93 103ZM558.97 173.88L559.077 241.853L577.577 241.964L596.077 242.074V173.991V105.908H577.47H558.863L558.97 173.88ZM467.249 136.364C472.303 138.05 475.569 140.099 479.296 143.92C483.65 148.385 486.515 153.883 488.786 162.133C489.535 164.855 489.664 166.546 489.674 173.775C489.684 181.593 489.601 182.541 488.578 186.321C486.273 194.833 483.117 200.367 477.711 205.371C471.846 210.802 465.398 213.064 455.902 213.023C443.698 212.971 435.699 208.786 429.082 198.992C419.982 185.525 419.584 164.478 428.159 150.272C430.183 146.92 434.952 141.589 437.543 139.782C439.887 138.148 444.697 136.233 448.714 135.335C450.848 134.858 453.267 134.716 457.382 134.825C462.476 134.96 463.539 135.126 467.249 136.364ZM968.518 135.331C980.24 137.74 988.734 145.926 993.085 159.009C994.881 164.409 995.406 168.799 995.125 176.065C994.791 184.658 992.945 191.084 988.831 197.965C986.705 201.522 981.634 206.697 978.188 208.827C971.152 213.177 961.384 214.341 951.692 211.983C942.906 209.847 935.79 203.536 931.238 193.842C925.63 181.899 925.532 165.864 930.997 154.178C936.038 143.397 944.975 136.448 955.709 134.964C958.889 134.523 965.514 134.714 968.518 135.331ZM1149.41 135.317C1156.54 136.789 1162.5 140.148 1166.63 145.021C1170.18 149.205 1173.8 157.067 1175.29 163.819C1176.17 167.796 1176.27 179.715 1175.45 183.5C1173.64 191.881 1169.37 200.324 1164.75 204.663C1158.26 210.767 1152.13 213.041 1142.19 213.043C1128.15 213.045 1119.03 207.296 1112.77 194.494C1104.52 177.636 1107.65 155.281 1119.95 143.118C1124.17 138.946 1129.19 136.391 1135.66 135.121C1138.77 134.511 1146.01 134.613 1149.41 135.317ZM1392.1 135.31C1399.22 136.783 1403.64 139.229 1408.58 144.438C1415.43 151.667 1419.56 164.719 1418.78 176.665C1417.95 189.329 1413 200.304 1405.31 206.527C1399.49 211.238 1393.71 213.078 1384.9 213.029C1370.54 212.951 1361.27 206.948 1355.06 193.691C1349.6 182.043 1349.5 165.886 1354.8 154.404C1359.87 143.434 1367.6 137.168 1378.56 135.146C1381.93 134.523 1388.68 134.605 1392.1 135.31Z" fill="white"/>
<path fill-rule="evenodd" clip-rule="evenodd" d="M8.15502 0.857557C6.73932 1.31381 5.38493 2.22759 3.84873 3.76337C-0.072769 7.68529 0.236756 0.409342 0.40209 84.8141C0.531904 151.013 0.622816 159.524 1.24863 164.087C2.86307 175.86 5.63738 187.192 9.41637 197.454C12.619 206.151 20.3677 221.272 25.6677 229.168C32.0612 238.692 45.8092 253.52 55.0426 260.85C60.7265 265.362 71.2702 272.424 77.1926 275.687C88.4577 281.892 104.96 287.712 119.055 290.452C136.424 293.828 156.461 293.899 173.652 290.645C196.294 286.359 219.687 275.888 235.998 262.737C237.841 261.251 240.407 259.191 241.702 258.159C245.173 255.391 253.61 247.058 257.355 242.699C264.334 234.576 271.206 224.439 276.317 214.726C283.152 201.735 286.857 191.492 289.484 178.321C292.88 161.299 292.621 168.618 292.78 85.0712C292.877 33.978 292.782 9.80249 292.48 8.68067C291.747 5.95922 289.538 3.14771 287.035 1.75019C284.225 0.181003 280.819 -0.117105 273.669 0.581017C262.151 1.70579 250.864 5.07378 241.307 10.2376C227.083 17.9237 217.146 27.1849 208.301 41.0002C204.059 47.6246 202.932 48.8229 200.94 48.8229C198.944 48.8229 197.075 47.8352 196.326 46.3844C195.997 45.7488 195.412 43.5162 195.024 41.4231C193.579 33.6215 190.374 25.7316 186.523 20.4921C177.38 8.05613 162.061 0.23259 146.801 0.206373C136.511 0.188191 126.41 3.51051 118.048 9.66211C108.835 16.4404 101.993 26.3253 99.2403 36.8343C98.3985 40.0488 98.3845 41.1935 98.3845 106.777C98.3845 164.866 98.4682 173.932 99.0344 177.18C101.347 190.443 109.42 203.146 120.061 210.266C128.661 216.021 135.607 218.463 145.109 219.071C163.094 220.224 181.59 209.659 189.615 193.648C191.124 190.638 193.242 184.174 193.979 180.329C194.66 176.775 194.674 167.341 194.003 163.923C193.311 160.397 191.206 153.607 189.962 150.889C186.182 142.633 177.503 134.217 167.961 129.557C162.517 126.897 156.837 125.454 149.878 124.96C143.66 124.519 141.646 123.794 139.235 121.125C136.639 118.251 135.827 116.245 135.816 112.673C135.808 109.938 135.979 109.19 137.061 107.237C139.49 102.851 143.534 100.41 148.374 100.41C157.512 100.41 170.067 103.492 178.937 107.91C187.257 112.056 192.319 115.732 198.428 122.067C209.075 133.108 215.081 144.476 217.704 158.552C218.487 162.755 218.647 165.079 218.635 172.083C218.613 185.256 216.787 193.363 211.476 203.874C204.647 217.39 192.04 230.026 179.657 235.766C167.34 241.476 156.764 243.709 144.475 243.193C117.634 242.065 93.6786 225.951 81.679 200.952C78.6464 194.635 76.1795 187.113 75.1338 180.997C74.3096 176.178 74.2817 174.191 74.2724 119.714C74.2631 63.8412 74.1029 56.2951 72.7891 49.8259C71.943 45.6575 69.5657 38.5667 67.673 34.5658C61.3794 21.2587 47.2554 8.9107 32.2882 3.62975C24.2342 0.787786 12.5433 -0.55518 8.15502 0.857557Z" fill="white"/>
</svg>
