<svg width="867" height="301" viewBox="0 0 867 301" fill="none" xmlns="http://www.w3.org/2000/svg">
<path d="M48.8932 104.582C42.163 104.129 37.5254 102.998 31.3042 100.114C16.7692 93.4399 6.64562 81.5631 2.12111 65.8404C0.989982 61.9946 0.820312 60.0717 0.820312 52.3235C0.820312 44.5752 0.989982 42.5958 2.12111 38.7499C7.26774 20.8216 21.3503 6.68246 39.2786 1.59238C45.2736 -0.104307 59.8086 -0.273976 65.4642 1.25305C85.5418 6.79557 99.5112 21.1043 104.432 41.1818C105.676 46.3285 105.676 58.3184 104.432 63.4651C101.095 77.0951 93.1769 88.5761 82.2049 95.9284C71.9117 102.772 61.9012 105.373 48.8932 104.582Z" fill="white"/>
<path d="M48.8932 209.013C42.163 208.561 37.5254 207.43 31.3042 204.545C16.7692 197.872 6.64562 185.995 2.12111 170.272C0.989982 166.426 0.820312 164.504 0.820312 156.755C0.820312 149.007 0.989982 147.028 2.12111 143.182C7.26774 125.253 21.3503 111.114 39.2786 106.024C45.2736 104.328 59.8086 104.158 65.4642 105.685C85.5418 111.227 99.5112 125.536 104.432 145.614C105.676 150.76 105.676 162.75 104.432 167.897C101.095 181.527 93.1769 193.008 82.2049 200.36C71.9117 207.204 61.9012 209.805 48.8932 209.013Z" fill="white"/>
<path d="M50.59 297.807C43.8598 297.354 39.2222 296.223 33.001 293.339C18.466 286.665 8.3424 274.788 3.81789 259.066C2.68676 255.22 2.51709 253.297 2.51709 245.549C2.51709 237.801 2.68676 235.821 3.81789 231.975C8.96452 214.047 23.0471 199.908 40.9754 194.818C46.9704 193.121 61.5054 192.951 67.161 194.478C87.2385 200.021 101.208 214.33 106.128 234.407C107.373 239.554 107.373 251.544 106.128 256.69C102.792 270.32 94.8736 281.801 83.9017 289.154C73.6084 295.997 63.598 298.599 50.59 297.807Z" fill="white"/>
<path d="M139.383 300.069C132.653 299.617 128.016 298.486 121.794 295.601C107.259 288.927 97.1359 277.051 92.6113 261.328C91.4802 257.482 91.3105 255.559 91.3105 247.811C91.3105 240.063 91.4802 238.083 92.6113 234.237C97.758 216.309 111.841 202.17 129.769 197.08C135.764 195.383 150.299 195.214 155.954 196.741C176.032 202.283 190.001 216.592 194.922 236.669C196.166 241.816 196.166 253.806 194.922 258.953C191.585 272.583 183.667 284.064 172.695 291.416C162.402 298.259 152.391 300.861 139.383 300.069Z" fill="white"/>
<path d="M139.383 209.013C132.653 208.561 128.016 207.43 121.794 204.545C107.259 197.872 97.1359 185.995 92.6113 170.272C91.4802 166.426 91.3105 164.504 91.3105 156.755C91.3105 149.007 91.4802 147.028 92.6113 143.182C97.758 125.253 111.841 111.114 129.769 106.024C135.764 104.328 150.299 104.158 155.954 105.685C176.032 111.227 190.001 125.536 194.922 145.614C196.166 150.76 196.166 162.75 194.922 167.897C191.585 181.527 183.667 193.008 172.695 200.36C162.402 207.204 152.391 209.805 139.383 209.013Z" fill="white"/>
<path d="M33.001 204.545C39.2222 207.43 43.8598 208.561 50.59 209.013C63.0582 209.772 72.7725 207.414 82.6215 201.19C77.9976 198.301 72.8221 196.041 67.161 194.478C61.5054 192.951 46.9704 193.121 40.9754 194.818C35.8952 196.26 31.1237 198.429 26.7769 201.205C28.7502 202.432 30.8262 203.547 33.001 204.545Z" fill="white"/>
<path d="M121.794 204.545C128.016 207.43 132.653 208.561 139.383 209.013C151.059 209.724 160.319 207.701 169.537 202.331C165.403 199.973 160.861 198.095 155.954 196.741C150.299 195.214 135.764 195.383 129.769 197.08C125.41 198.317 121.279 200.09 117.448 202.321C118.849 203.117 120.298 203.859 121.794 204.545Z" fill="white"/>
<path d="M99.8329 218.798C102.613 223.492 104.734 228.718 106.128 234.407C107.373 239.554 107.373 251.544 106.128 256.69C104.524 263.246 101.859 269.304 98.305 274.644C95.9053 270.592 93.9961 266.14 92.6113 261.328C91.4802 257.482 91.3105 255.559 91.3105 247.811C91.3105 240.063 91.4802 238.083 92.6113 234.237C94.2086 228.673 96.6665 223.474 99.8329 218.798Z" fill="white"/>
<path d="M99.1159 128.829C102.251 133.821 104.617 139.445 106.128 145.614C107.373 150.76 107.373 162.75 106.128 167.897C104.632 174.008 102.216 179.686 99.0157 184.755C96.28 180.395 94.1302 175.55 92.6113 170.272C91.4802 166.426 91.3105 164.503 91.3105 156.755C91.3105 149.007 91.4802 147.028 92.6113 143.182C94.0859 138.045 96.294 133.219 99.1159 128.829Z" fill="white"/>
<path d="M467.524 248.8C465.884 247.952 464.639 246.764 463.565 244.954L462.038 242.353L461.868 200.671L461.698 158.932H450.048C439.302 158.932 438.171 158.819 435.852 157.745C432.233 155.935 430.366 152.881 430.366 148.469C430.366 144.454 431.724 141.965 435.06 139.647C436.983 138.346 437.436 138.289 449.143 138.119L461.189 137.95V113.744V89.5941L462.83 87.0491C464.752 83.995 467.637 82.468 471.37 82.468C475.894 82.468 479.74 85.4089 480.984 89.8203C481.324 91.1211 481.55 100.849 481.55 114.931V137.95L493.313 138.119C505.077 138.289 505.134 138.289 507.453 139.873C511.751 142.701 513.334 148.582 511.016 153.163C508.414 158.254 506.321 158.932 492.861 158.932H482.115V200.897V242.805L480.701 245.237C478.1 249.649 472.388 251.176 467.524 248.8Z" fill="white"/>
<path d="M515.201 249.083C512.769 247.839 511.581 246.594 510.337 244.219C509.319 242.24 509.262 240.486 509.262 214.244C509.262 189.303 509.375 185.853 510.337 181.272C512.486 170.922 517.01 162.212 524.419 154.351C536.522 141.513 552.867 135.292 570.287 136.932C583.351 138.176 593.757 142.983 603.542 152.315C611.233 159.667 616.38 168.264 619.151 178.331C620.339 182.855 620.395 183.647 620.395 213.339V243.654L618.642 245.859C616.323 248.744 613.722 249.988 609.989 249.988C606.2 249.988 602.693 248.121 600.77 245.067L599.47 242.918L599.187 214.075C598.904 186.645 598.791 185.061 597.66 182.12C593.192 170.243 584.143 161.816 573.058 159.215C568.477 158.14 561.407 158.14 556.826 159.215C545.911 161.816 536.07 170.979 532.337 182.12C531.15 185.627 531.093 186.927 530.754 214.414L530.471 243.031L528.887 245.35C528.039 246.651 526.342 248.235 525.098 248.857C522.383 250.214 517.633 250.327 515.201 249.083Z" fill="white"/>
<path d="M406.669 248.631C404.011 247.613 401.353 245.181 400.335 242.805C399.204 240.147 399.147 147.904 400.335 145.189C401.353 142.701 404.69 139.873 407.518 139.137C412.777 137.724 419.055 141.287 420.469 146.433C420.865 147.96 421.035 163.344 420.922 195.241L420.752 241.787L419.394 243.936C416.68 248.291 411.25 250.327 406.669 248.631Z" fill="white"/>
<path d="M678.366 248.63C656.422 243.993 639.455 227.705 633.912 205.874C632.329 199.54 632.442 184.722 634.139 178.501C635.609 173.241 640.02 163.796 642.961 159.78C648.334 152.372 657.836 144.567 666.093 140.834C687.811 130.993 714.279 136.366 730.737 153.955C755.056 179.971 749.853 221.257 719.878 240.543C714.958 243.71 710.659 245.69 704.381 247.556C700.366 248.744 698.16 249.026 690.808 249.196C684.813 249.309 680.854 249.139 678.366 248.63ZM697.821 226.8C717.672 221.766 729.153 200.953 722.706 181.781C720.953 176.465 718.294 172.279 713.996 167.981C707.096 161.025 699.235 157.801 689.394 157.801C679.101 157.801 671.918 160.855 664.453 168.264C659.25 173.41 656.309 178.67 654.895 185.344C651.105 203.103 661.681 220.918 679.214 226.404C685.039 228.27 691.656 228.383 697.821 226.8Z" fill="white"/>
<path d="M319.798 246.934C308.148 244.276 300.23 239.977 291.973 232.003C285.016 225.273 280.605 218.26 277.777 209.55C274.723 200.105 274.836 202.141 274.836 143.945V89.6505L276.137 87.5014C279.021 82.8638 284.394 80.8843 289.428 82.5244C291.973 83.3728 295.196 86.9358 295.988 89.7636C296.384 91.121 296.61 101.98 296.61 120.078V148.243L299.89 146.037C306.338 141.626 313.803 138.685 321.665 137.441C327.773 136.423 339.197 136.988 344.966 138.572C364.478 143.888 379.465 159.215 384.668 179.236C386.704 187.097 386.648 197.617 384.612 205.591C380.483 221.54 369.624 234.944 355.146 242.07C346.323 246.368 342.591 247.273 331.958 247.499C325.963 247.612 321.834 247.443 319.798 246.934ZM339.31 225.273C355.542 221.257 366.74 204.63 364.421 187.889C362.555 174.202 352.431 162.665 339.254 159.215C334.955 158.084 326.302 158.14 321.834 159.271C312.672 161.647 304.189 168.603 300.117 177.087C297.402 182.742 296.61 186.249 296.61 192.47C296.61 201.971 299.834 209.663 306.508 216.337C315.387 225.216 326.868 228.327 339.31 225.273Z" fill="white"/>
<path d="M800.245 246.877C783.108 243.145 769.082 232.286 761.503 216.902C758.223 210.229 756.64 204.799 755.848 197.39C755.113 189.982 755.113 93.1571 755.848 90.3858C756.64 87.558 758.958 84.8998 761.786 83.6556C767.951 80.8278 774.907 84.1646 776.717 90.7817C777.113 92.2522 777.339 102.432 777.339 120.587V148.13L780.337 146.094C784.635 143.153 791.648 139.986 797.134 138.459C801.263 137.328 803.242 137.158 811.273 137.158C819.191 137.158 821.34 137.328 825.242 138.402C834.857 141.06 843.51 146.094 850.523 153.163C861.325 164.079 866.698 177.03 866.698 192.187C866.698 204.46 863.531 214.47 856.631 224.255C848.374 236.018 836.271 243.88 821.906 246.877C817.042 247.895 804.939 247.895 800.245 246.877ZM820.039 225.273C831.294 222.501 841.361 212.434 844.302 201.01C845.433 196.599 845.433 188.624 844.359 183.873C841.644 172.449 831.52 162.269 819.983 159.271C815.458 158.084 807.088 158.084 802.563 159.271C791.139 162.212 781.185 172.11 778.188 183.591C777.056 188.002 777 196.768 778.188 201.01C779.658 206.609 782.825 211.982 787.237 216.337C796.059 225.216 807.597 228.327 820.039 225.273Z" fill="white"/>
<path d="M406.612 116.006C401.409 112.782 399.43 107.126 401.749 102.093C405.538 93.8922 416.566 93.4398 421.034 101.358C422.901 104.694 422.505 110.011 420.129 112.895C419.224 114.026 417.584 115.44 416.51 116.006C413.908 117.42 408.875 117.42 406.612 116.006Z" fill="white"/>
</svg>
