<svg width="1410" height="301" viewBox="0 0 1410 301" fill="none" xmlns="http://www.w3.org/2000/svg">
<path d="M158.712 160.024C170.863 163.408 181.572 170.677 189.201 180.721C196.83 190.765 200.96 203.031 200.959 215.643C200.959 243.805 183.356 299.425 81.9633 299.425C50.2782 300.129 20.7054 295.2 0.990234 285.344L46.7576 47.3771C73.192 36.9663 101.44 31.9397 129.843 32.5922C189.693 32.5922 217.153 58.6418 217.153 92.4358C217.153 126.23 192.509 150.871 158.712 160.024ZM94.6374 176.217H79.851L63.6564 260.702C70.9197 263.117 78.5342 264.307 86.188 264.222C106.607 264.222 122.802 257.886 132.66 243.101C138.235 232.711 141.138 221.098 141.109 209.307C141.109 187.482 126.322 176.217 94.6374 176.217ZM124.21 67.0903C116.387 67.2042 108.598 68.1482 100.974 69.9065L86.188 146.647H100.27C126.322 146.647 142.517 139.607 150.966 124.822C155.98 115.514 158.64 105.12 158.712 94.548C158.712 77.6509 148.15 67.0903 124.21 67.0903Z" fill="white"/>
<path d="M274.891 295.905H215.745L273.482 0.206299H331.924L274.891 295.905Z" fill="white"/>
<path d="M497.39 162.84L473.451 285.344C447.984 295.699 420.667 300.731 393.182 300.129C344.598 300.129 314.321 281.824 314.321 245.213C314.318 235.028 316.743 224.988 321.397 215.928C326.05 206.867 332.797 199.046 341.077 193.114C365.017 174.809 402.335 167.065 442.47 163.544L444.582 153.688C444.582 151.576 445.286 148.759 445.286 145.943C445.286 131.862 434.724 125.526 415.009 125.526C395.327 126.368 375.979 130.906 357.976 138.903L351.639 103.701C376.13 93.3097 402.488 88.0387 429.091 88.2116C472.042 88.2116 498.799 106.517 498.799 144.535C499.007 150.67 498.535 156.809 497.39 162.84ZM381.212 212.827C373.783 220.35 369.502 230.421 369.242 240.989C369.242 260.702 383.324 267.743 400.927 267.743C408.649 267.914 416.323 266.476 423.458 263.518L436.837 191.002C410.08 193.818 391.773 200.859 381.212 212.827Z" fill="white"/>
<path d="M657.224 135.383C650.112 130.107 641.431 127.379 632.58 127.638C617.089 127.638 601.599 138.903 591.741 158.616C583.112 176.682 578.317 196.338 577.659 216.347C577.659 242.397 588.925 257.886 607.231 257.886C616.487 257.916 625.548 255.223 633.284 250.142L640.325 285.344C624.211 295.748 605.273 300.912 586.108 300.129C544.565 300.129 517.809 269.855 517.809 221.98C517.809 156.504 556.535 88.9156 625.538 88.9156C643.404 87.9778 661.05 93.1966 675.531 103.701L657.224 135.383Z" fill="white"/>
<path d="M794.526 190.298L848.743 296.609H783.964L741.014 196.634H740.309L721.298 295.904H662.857L719.89 0.206299H778.332L742.422 186.074H743.126L818.466 93.14H881.836L794.526 190.298Z" fill="white"/>
<path d="M938.165 300.129C909.296 300.129 883.244 295.2 865.641 285.344L921.266 0.206299H979.708L960.696 96.6602C972.181 92.2962 984.324 89.9155 996.606 89.6198C1040.97 89.6198 1064.2 120.598 1064.2 163.544C1064.2 206.491 1038.85 300.129 938.165 300.129ZM977.595 123.414C969.876 123.891 962.277 125.553 955.064 128.342L929.011 261.406C934.572 263.786 940.566 264.985 946.614 264.927C967.033 264.927 982.524 252.254 992.382 229.02C1001.44 208.089 1006.45 185.635 1007.17 162.84C1006.46 139.607 998.014 123.414 977.595 123.414Z" fill="white"/>
<path d="M1262.06 197.338L1136.73 214.94V219.164C1136.73 245.213 1151.51 259.294 1178.97 259.294C1197.23 259.155 1215.25 255.072 1231.78 247.326L1238.12 285.344C1214.59 295.568 1189.13 300.61 1163.48 300.129C1109.97 300.129 1081.1 269.855 1081.1 217.052C1081.1 164.248 1112.79 88.9158 1194.46 88.9158C1241.64 88.9158 1266.99 116.373 1266.99 161.432C1266.24 173.507 1264.6 185.51 1262.06 197.338ZM1187.42 122.71C1161.37 122.71 1143.77 148.759 1138.13 186.074L1210.66 174.809C1211.96 167.841 1212.66 160.775 1212.77 153.688C1212.77 133.975 1205.02 122.71 1187.42 122.71Z" fill="white"/>
<path d="M1401.47 130.454H1370.49L1350.07 235.357C1349.35 238.602 1348.88 241.897 1348.66 245.213C1348.65 247.187 1349.06 249.141 1349.85 250.948C1350.65 252.755 1351.81 254.375 1353.27 255.703C1354.73 257.031 1356.46 258.037 1358.33 258.655C1360.21 259.274 1362.19 259.492 1364.15 259.294C1368.74 259.114 1373.26 258.162 1377.53 256.478L1369.79 293.792C1360.46 297.823 1350.37 299.747 1340.21 299.425C1307.83 299.425 1289.52 281.12 1289.52 251.55C1289.57 245.855 1290.28 240.185 1291.63 234.653L1311.35 130.454H1289.52L1296.56 93.1401H1318.39L1326.84 49.4894L1388.8 34.0005L1377.53 93.1401H1409.22L1401.47 130.454Z" fill="white"/>
</svg>
