<svg width="839" height="300" viewBox="0 0 839 300" fill="none" xmlns="http://www.w3.org/2000/svg">
<path fill-rule="evenodd" clip-rule="evenodd" d="M266.985 184.976C266.985 195.807 268.728 205.807 272.219 214.983C275.71 224.158 280.629 231.977 286.975 238.445C293.322 244.912 301.097 250.025 310.298 253.786C319.499 257.543 329.812 259.426 341.233 259.426C352.655 259.426 362.971 257.547 372.172 253.786C381.377 250.025 389.148 244.91 395.495 238.445C401.841 231.977 406.76 224.158 410.252 214.983C413.742 205.807 415.485 195.807 415.485 184.976C415.485 174.146 413.742 164.146 410.252 154.972C406.76 145.795 401.841 137.975 395.495 131.507C389.148 125.039 381.377 119.927 372.172 116.166C362.971 112.406 352.658 110.527 341.233 110.527C329.812 110.527 319.499 112.406 310.298 116.166C301.097 119.927 293.322 125.039 286.975 131.507C280.629 137.975 275.712 145.795 272.219 154.972C268.728 164.146 266.985 174.146 266.985 184.976ZM193.635 140.202C184.569 131.276 178.012 124.909 165.761 119.205C157.036 115.143 146.644 113.111 134.587 113.111C122.848 113.111 112.614 115.143 103.887 119.205C95.1615 123.267 87.8627 128.831 81.9932 135.901C76.1236 142.967 71.6803 151.091 68.6661 160.269C65.6519 169.443 64.1433 178.994 64.1433 188.918C64.1433 198.845 65.8901 208.245 69.3777 217.121C72.8684 225.992 77.7881 233.739 84.131 240.357C90.477 246.975 98.0933 252.164 106.977 255.924C115.864 259.685 125.856 261.563 136.963 261.563C149.02 261.563 159.333 259.534 167.898 255.472C175.936 251.664 183.416 246.201 190.333 239.084C190.357 239.056 190.386 238.977 190.413 239.002L219.854 268.89C219.887 268.92 219.787 268.954 219.755 268.988C209.197 279.442 197.07 287.046 183.367 291.797C168.613 296.909 152.986 299.465 136.484 299.465C119.031 299.465 103.087 296.759 88.6479 291.345C74.2122 285.928 61.7584 278.334 51.2868 268.56C40.8179 258.784 32.7253 247.05 27.0145 233.366C21.3007 219.678 18.4453 204.566 18.4453 188.018C18.4453 171.475 21.3007 156.283 27.0145 142.447C32.7253 128.608 40.7385 116.727 51.0515 106.802C61.3644 96.8752 73.7388 89.128 88.1745 83.5637C102.613 77.9993 118.716 75.2172 136.484 75.2172C152.984 75.2172 168.772 77.9993 183.844 83.5637C198.914 89.128 212.477 98.7318 223.58 110.159L193.63 140.205L193.635 140.202ZM134.958 0.210257C184.034 0.508545 229.12 17.7229 264.9 46.3669L235.699 75.6855C207.457 54.4179 172.553 41.7476 134.713 41.5162C95.1703 41.2765 58.6767 54.6632 29.5346 77.3331L0.774902 47.7635C37.4685 17.7535 84.1811 -0.0991826 134.958 0.210257ZM699.663 78.766C713.74 74.6736 727.811 72.6246 741.885 72.6246C758.574 72.6246 772.935 74.6012 784.971 78.5597C797.005 82.5128 806.873 87.8373 814.578 94.5306C822.283 101.224 827.979 108.907 831.672 117.577C835.362 126.253 837.206 135.302 837.206 144.733V255.179C837.206 262.785 837.365 269.784 837.686 276.174C837.959 281.644 838.351 286.89 838.862 291.914H800.404C799.584 281.8 799.172 271.683 799.172 261.569H798.211C788.582 275.564 777.188 285.452 764.031 291.231C750.872 297.015 735.627 299.903 718.298 299.903C707.706 299.903 697.595 298.538 687.965 295.797C678.34 293.06 669.915 288.951 662.693 283.475C655.47 278 649.774 271.229 645.604 263.164C641.432 255.101 639.346 245.744 639.346 235.097C639.346 221.099 642.634 209.386 649.213 199.954C655.794 190.521 664.78 182.841 676.173 176.908C687.568 170.977 700.886 166.717 716.13 164.129C731.377 161.542 747.666 160.249 764.996 160.249H796.769V151.121C796.769 145.643 795.646 140.169 793.4 134.693C791.153 129.215 787.782 124.27 783.293 119.86C778.799 115.45 773.183 111.951 766.44 109.364C759.703 106.777 751.677 105.484 742.367 105.484C734.025 105.484 726.72 106.242 720.465 107.764C714.205 109.286 708.508 111.187 703.374 113.468C698.239 115.751 693.588 118.413 689.414 121.457C685.989 123.956 682.669 126.353 679.457 128.647L699.665 78.766H699.663ZM773.662 190.371C763.39 190.371 752.881 190.902 742.127 191.968C731.375 193.03 721.585 195.087 712.761 198.125C703.932 201.17 696.714 205.43 691.094 210.905C685.477 216.38 682.669 223.377 682.669 231.899C682.669 244.374 687.083 253.348 695.91 258.828C704.736 264.304 716.693 267.041 731.775 267.041C743.65 267.041 753.762 265.14 762.104 261.338C770.451 257.535 777.188 252.59 782.325 246.504C787.463 240.419 791.153 233.65 793.396 226.193C795.644 218.741 796.767 211.363 796.767 204.061V190.367H773.659L773.662 190.371ZM444.392 78.0384H493.892L561.478 241.829L626.208 78.0384H671.903L583.375 291.911H536.253L444.39 78.0384H444.392ZM221.292 184.973C221.292 169.331 224.386 154.743 230.574 141.206C236.764 127.671 245.25 115.79 256.036 105.562C266.826 95.3336 279.521 87.2882 294.116 81.4227C308.71 75.5573 324.416 72.6246 341.233 72.6246C358.051 72.6246 373.757 75.5573 388.352 81.4227C402.949 87.2853 415.642 95.3336 426.43 105.562C437.22 115.79 445.707 127.671 451.894 141.206C458.081 154.743 461.174 169.331 461.174 184.973C461.174 200.615 458.081 215.282 451.894 228.964C445.707 242.651 437.22 254.532 426.43 264.611C415.642 274.689 402.949 282.658 388.352 288.524C373.757 294.392 358.051 297.322 341.233 297.322C324.416 297.322 308.71 294.392 294.116 288.524C279.518 282.658 266.822 274.685 256.036 264.611C245.247 254.532 236.761 242.651 230.574 228.964C224.386 215.279 221.292 200.615 221.292 184.973Z" fill="white"/>
</svg>
