<svg width="1096" height="301" viewBox="0 0 1096 301" fill="none" xmlns="http://www.w3.org/2000/svg">
<path d="M133.925 266.879C207.54 266.879 267.216 207.182 267.216 133.543C267.216 59.903 207.54 0.206299 133.925 0.206299C60.3103 0.206299 0.633789 59.903 0.633789 133.543C0.633789 207.182 60.3103 266.879 133.925 266.879Z" fill="url(#paint0_linear)"/>
<path d="M133.93 300.206C170.737 300.206 200.576 270.358 200.576 233.538C200.576 196.718 170.737 166.87 133.93 166.87C97.1225 166.87 67.2842 196.718 67.2842 233.538C67.2842 270.358 97.1225 300.206 133.93 300.206Z" fill="url(#paint1_linear)"/>
<path d="M375.657 103.806V138.808H422.642V161.008H375.657V198.008H428.641V220.809H347.666V81.0059H428.641V103.806H375.657Z" fill="white"/>
<path d="M515.459 108.406C528.654 108.406 539.318 112.606 547.449 121.007C555.58 129.273 559.645 140.874 559.645 155.808V220.809H531.654V159.607C531.654 150.807 529.454 144.074 525.055 139.407C520.657 134.607 514.659 132.207 507.062 132.207C499.331 132.207 493.199 134.607 488.667 139.407C484.268 144.074 482.07 150.807 482.07 159.607V220.809H454.078V110.006H482.07V123.807C485.801 119.007 490.533 115.273 496.265 112.606C502.13 109.806 508.527 108.406 515.459 108.406Z" fill="white"/>
<path d="M629.652 108.206C637.915 108.206 645.179 109.873 651.445 113.207C657.709 116.407 662.641 120.607 666.24 125.807V110.007H694.431V221.609C694.431 231.876 692.364 241.01 688.233 249.01C684.101 257.143 677.902 263.543 669.639 268.211C661.374 273.011 651.378 275.411 639.648 275.411C623.92 275.411 610.991 271.744 600.86 264.41C590.864 257.077 585.199 247.077 583.866 234.409H611.657C613.124 239.477 616.256 243.477 621.054 246.409C625.986 249.477 631.917 251.01 638.848 251.01C646.979 251.01 653.577 248.543 658.642 243.609C663.707 238.809 666.24 231.476 666.24 221.609V204.408C662.641 209.608 657.642 213.942 651.244 217.409C644.98 220.876 637.782 222.609 629.652 222.609C620.321 222.609 611.79 220.209 604.059 215.409C596.328 210.609 590.197 203.876 585.666 195.208C581.266 186.408 579.067 176.342 579.067 165.008C579.067 153.808 581.266 143.874 585.666 135.207C590.197 126.54 596.262 119.873 603.86 115.207C611.59 110.54 620.188 108.206 629.652 108.206ZM666.24 165.408C666.24 158.608 664.906 152.807 662.241 148.007C659.576 143.074 655.977 139.34 651.445 136.807C646.913 134.14 642.047 132.807 636.849 132.807C631.651 132.807 626.853 134.073 622.453 136.607C618.055 139.141 614.456 142.874 611.657 147.807C608.991 152.607 607.658 158.341 607.658 165.008C607.658 171.674 608.991 177.542 611.657 182.608C614.456 187.542 618.055 191.342 622.453 194.008C626.985 196.675 631.784 198.008 636.849 198.008C642.047 198.008 646.913 196.742 651.445 194.209C655.977 191.542 659.576 187.808 662.241 183.008C664.906 178.074 666.24 172.208 666.24 165.408Z" fill="white"/>
<path d="M714.568 165.008C714.568 153.808 716.767 143.874 721.167 135.207C725.698 126.54 731.763 119.873 739.361 115.207C747.091 110.54 755.689 108.206 765.153 108.206C773.416 108.206 780.614 109.873 786.745 113.207C793.01 116.54 798.008 120.74 801.741 125.807V110.007H829.932V220.809H801.741V204.609C798.142 209.809 793.143 214.142 786.745 217.609C780.481 220.942 773.217 222.609 764.952 222.609C755.622 222.609 747.091 220.209 739.361 215.409C731.763 210.609 725.698 203.876 721.167 195.208C716.767 186.408 714.568 176.342 714.568 165.008ZM801.741 165.408C801.741 158.608 800.408 152.807 797.742 148.007C795.077 143.074 791.478 139.34 786.946 136.807C782.414 134.14 777.548 132.807 772.35 132.807C767.152 132.807 762.354 134.073 757.955 136.607C753.556 139.141 749.957 142.874 747.158 147.807C744.492 152.607 743.159 158.341 743.159 165.008C743.159 171.674 744.492 177.542 747.158 182.608C749.957 187.542 753.556 191.342 757.955 194.008C762.486 196.675 767.285 198.008 772.35 198.008C777.548 198.008 782.414 196.742 786.946 194.209C791.478 191.542 795.077 187.808 797.742 183.008C800.408 178.074 801.741 172.208 801.741 165.408Z" fill="white"/>
<path d="M900.657 108.206C908.921 108.206 916.185 109.873 922.451 113.207C928.715 116.407 933.647 120.607 937.246 125.807V110.007H965.437V221.609C965.437 231.876 963.368 241.01 959.237 249.01C955.107 257.143 948.906 263.543 940.646 268.211C932.38 273.011 922.384 275.411 910.654 275.411C894.926 275.411 881.997 271.744 871.866 264.41C861.87 257.077 856.205 247.077 854.872 234.409H882.663C884.129 239.477 887.262 243.477 892.06 246.409C896.992 249.477 902.923 251.01 909.854 251.01C917.985 251.01 924.583 248.543 929.648 243.609C934.714 238.809 937.246 231.476 937.246 221.609V204.408C933.647 209.608 928.649 213.942 922.25 217.409C915.986 220.876 908.788 222.609 900.657 222.609C891.327 222.609 882.796 220.209 875.065 215.409C867.334 210.609 861.203 203.876 856.671 195.208C852.273 186.408 850.073 176.342 850.073 165.008C850.073 153.808 852.273 143.874 856.671 135.207C861.203 126.54 867.267 119.873 874.866 115.207C882.597 110.54 891.193 108.206 900.657 108.206ZM937.246 165.408C937.246 158.608 935.913 152.807 933.247 148.007C930.581 143.074 926.983 139.34 922.451 136.807C917.918 134.14 913.053 132.807 907.855 132.807C902.657 132.807 897.858 134.073 893.46 136.607C889.061 139.141 885.462 142.874 882.663 147.807C879.997 152.607 878.664 158.341 878.664 165.008C878.664 171.674 879.997 177.542 882.663 182.608C885.462 187.542 889.061 191.342 893.46 194.008C897.991 196.675 902.79 198.008 907.855 198.008C913.053 198.008 917.918 196.742 922.451 194.209C926.983 191.542 930.581 187.808 933.247 183.008C935.913 178.074 937.246 172.208 937.246 165.408Z" fill="white"/>
<path d="M1095.74 163.008C1095.74 167.008 1095.47 170.608 1094.94 173.808H1013.96C1014.63 181.808 1017.44 188.075 1022.37 192.609C1027.3 197.142 1033.36 199.409 1040.56 199.409C1050.96 199.409 1058.35 194.942 1062.75 186.008H1092.94C1089.74 196.675 1083.61 205.476 1074.55 212.409C1065.49 219.209 1054.36 222.609 1041.16 222.609C1030.5 222.609 1020.9 220.276 1012.37 215.609C1003.97 210.809 997.368 204.075 992.57 195.409C987.912 186.742 985.579 176.742 985.579 165.408C985.579 153.941 987.912 143.874 992.57 135.207C997.236 126.54 1003.77 119.873 1012.17 115.207C1020.56 110.54 1030.23 108.206 1041.16 108.206C1051.68 108.206 1061.08 110.473 1069.35 115.006C1077.75 119.54 1084.21 126.007 1088.74 134.407C1093.41 142.674 1095.74 152.207 1095.74 163.008ZM1066.75 155.008C1066.62 147.807 1064.02 142.074 1058.96 137.807C1053.89 133.407 1047.69 131.207 1040.36 131.207C1033.43 131.207 1027.56 133.34 1022.76 137.607C1018.1 141.74 1015.23 147.541 1014.16 155.008H1066.75Z" fill="white"/>
<defs>
<linearGradient id="paint0_linear" x1="133.925" y1="0.206299" x2="133.925" y2="266.879" gradientUnits="userSpaceOnUse">
<stop stop-color="white"/>
<stop offset="1" stop-color="white" stop-opacity="0.7"/>
</linearGradient>
<linearGradient id="paint1_linear" x1="133.93" y1="166.87" x2="133.93" y2="300.206" gradientUnits="userSpaceOnUse">
<stop stop-color="white" stop-opacity="0.3"/>
<stop offset="1" stop-color="white"/>
</linearGradient>
</defs>
</svg>
