<svg width="1601" height="301" viewBox="0 0 1601 301" fill="none" xmlns="http://www.w3.org/2000/svg">
<path d="M147.526 222.581C164.026 179.456 189.526 111.956 204.526 72.5813L231.526 0.206299H428.402L404.776 63.9563L231.526 64.7063L270.901 86.0813L255.901 127.706H306.526C334.276 127.706 357.152 127.706 357.152 127.706L336.526 187.331L182.776 189.581L204.151 199.706L225.151 209.831L207.901 254.831L190.651 300.206H154.276H117.901L147.526 222.581Z" fill="white"/>
<path d="M354.151 242.2C354.901 239.2 375.526 198.7 400.276 152.2L445.276 67.0747H474.151H503.026L511.276 103.825C515.776 123.7 524.776 163.825 531.526 192.7L543.526 245.2H495.902L490.749 216.7H417.152L405.902 242.2H354.151ZM484.651 179.575C484.651 179.575 481.276 160.075 477.526 139.825L470.776 102.7L451.651 140.575C441.151 161.575 434.026 179.575 434.026 179.575H484.651Z" fill="white"/>
<path d="M867.151 245.95C867.901 242.95 888.526 202.45 913.276 155.95L958.276 70.8247H987.151H1016.03L1024.28 107.575C1028.78 127.45 1037.78 167.575 1044.53 196.45L1056.53 248.95H1008.9L1003.75 220.45H930.152L918.902 245.95H867.151ZM997.651 183.325C997.651 183.325 994.276 163.825 990.526 143.575L983.776 106.45L964.651 144.325C954.151 165.325 947.026 183.325 947.026 183.325H997.651Z" fill="white"/>
<path d="M585.901 70.4483H634.651C642.721 86.3388 694.651 168.323 694.651 168.323L709.651 70.8246L754.651 70.4486L732.151 247.073H683.776L619.651 134.573L600.901 247.073H558.901L585.901 70.4483Z" fill="white"/>
<path d="M34.6514 183.324L0.901367 123.325H117.151L94.6514 183.324H34.6514Z" fill="white"/>
<path d="M12.5244 1.45065H165.149L141.524 61.4507H45.9009L12.5244 1.45065Z" fill="white"/>
<path d="M1099.65 241.075C1073.4 233.95 1050.9 213.325 1050.9 213.325L1074.15 183.7L1090.65 192.7C1090.28 192.7 1122.15 207.7 1139.03 205.825C1146.53 204.991 1152.15 202.075 1152.15 194.575C1152.15 186.7 1146.53 184.075 1122.15 175.075C1073.78 156.325 1055.03 127.075 1073.03 97.8247C1094.78 62.4772 1152.9 57.6997 1191.53 84.3247L1208.45 94.9184L1212.15 70.8247H1354.65L1347.15 110.2H1298.4L1277.45 241.45H1234.65L1253.4 110.2H1204.65L1206.53 102.7L1182.53 127.825L1171.28 119.2C1155.9 107.95 1120.28 102.7 1116.53 112.075C1112.11 123.128 1119.9 127.825 1151.03 139.825C1186.28 153.325 1200.9 168.7 1200.9 193.45C1200.9 245.101 1141.32 252.384 1099.65 241.075Z" fill="white"/>
<path d="M794.027 247.074C794.027 247.074 812.996 152.712 821.026 112.074H773.026L780.902 70.8237L923.402 70.8244L915.902 112.074H867.152L840.902 247.074H794.027Z" fill="white"/>
<path d="M1345.28 239.573L1371.15 70.8233L1418.4 70.8227L1392.15 239.573H1345.28Z" fill="white"/>
<path d="M1469.03 80.5751C1402.96 117.843 1411.51 215.252 1481.03 240.325C1515.9 252.7 1553.4 247.075 1581.15 219.325C1586.4 214.075 1588.65 208.45 1588.65 208.45L1553.63 190.939C1544.46 200.134 1531.78 205.825 1517.78 205.825C1511.15 205.825 1504.81 204.55 1499.01 202.232C1490.7 199.304 1483.96 194.223 1479.06 187.814C1471.63 179.004 1467.15 167.625 1467.15 155.2C1467.15 127.24 1489.82 104.575 1517.78 104.575C1538.44 104.575 1556.22 116.958 1564.08 134.71L1600.28 117.7C1600.28 117.7 1585.28 91.4497 1561.28 77.1995C1549.59 70.2626 1535.44 67.0747 1517.78 67.0747C1495.28 67.0747 1486.65 70.8247 1469.03 80.5751Z" fill="white"/>
</svg>
