<svg width="1247" height="301" viewBox="0 0 1247 301" fill="none" xmlns="http://www.w3.org/2000/svg">
<path d="M74.5167 107.618C82.7823 88.7738 96.3586 72.7447 113.587 61.4895C130.815 50.2343 150.949 44.2405 171.528 44.2405C192.107 44.2405 212.241 50.2343 229.469 61.4895C246.698 72.7447 260.274 88.7738 268.539 107.618L306.823 85.4527C295.131 60.9978 277.027 40.1705 254.436 25.1877C231.846 10.2049 205.615 1.62739 178.536 0.368168C151.456 -0.891056 124.543 5.21519 100.659 18.0369C76.7751 30.8585 56.8154 49.9158 42.9042 73.18V22.3656H0.198242V150.17H128.129V107.618H74.5167Z" fill="url(#paint0_linear)"/>
<path d="M268.559 192.871C260.262 211.683 246.675 227.676 229.451 238.904C212.226 250.132 192.109 256.11 171.547 256.11C150.986 256.11 130.868 250.132 113.644 238.904C96.4196 227.676 82.8321 211.683 74.5359 192.871L36.3086 214.887C47.9875 239.349 66.0819 260.187 88.6656 275.182C111.249 290.177 137.477 298.768 164.557 300.041C191.636 301.314 218.554 295.22 242.445 282.409C266.336 269.599 286.305 250.55 300.227 227.291V278.124H342.783V150.17H214.909V192.871H268.559Z" fill="url(#paint1_linear)"/>
<path d="M777.339 170.706C777.324 183.198 773.605 195.405 766.651 205.784C759.698 216.163 749.823 224.247 738.274 229.013C726.726 233.78 714.023 235.016 701.773 232.564C689.522 230.113 678.274 224.084 669.45 215.24C660.626 206.396 654.623 195.135 652.2 182.88C649.777 170.624 651.043 157.926 655.838 146.39C660.633 134.855 668.741 125 679.137 118.072C689.534 111.144 701.751 107.454 714.245 107.469C722.544 107.466 730.762 109.101 738.427 112.28C746.093 115.459 753.056 120.119 758.917 125.994C764.779 131.869 769.423 138.842 772.584 146.514C775.745 154.187 777.361 162.408 777.339 170.706ZM616.184 62.6876H637.022V231.601H616.128L616.184 62.6876ZM1061.72 109.08H1083.01V123.414C1094.52 113.137 1109.4 107.454 1124.83 107.45H1130V128.061H1124.83C1114.9 128.054 1105.29 131.522 1097.65 137.864C1090.01 144.206 1084.83 153.02 1083.01 162.78V231.601H1061.66V109.099L1061.72 109.08ZM925.32 109.53H946.607V124.519C954.188 117.59 963.344 112.613 973.283 110.02C983.222 107.428 993.643 107.298 1003.64 109.641C1013.64 111.984 1022.92 116.731 1030.67 123.469C1038.42 130.207 1044.42 138.733 1048.13 148.309C1051.84 157.885 1053.16 168.222 1051.98 178.424C1050.79 188.625 1047.14 198.384 1041.33 206.854C1035.52 215.325 1027.73 222.251 1018.64 227.033C1009.55 231.816 999.435 234.309 989.163 234.299C973.399 234.348 958.198 228.438 946.607 217.754V278.63H925.264L925.32 109.53ZM601.943 138.497V203.814L600.612 205.294L599.731 206.175L599 206.905V207.055C598.693 207.226 598.44 207.479 598.27 207.786H598.12C597.97 208.086 597.67 208.236 597.389 208.517C597.089 208.817 596.939 209.116 596.658 209.247L596.508 209.397L595.909 209.997L595.759 210.147L595.028 210.878H594.878L594.278 211.477L593.978 211.777C593.829 211.927 593.529 212.077 593.379 212.227L593.229 212.377C593.024 212.619 592.776 212.822 592.498 212.976L592.348 213.126L591.749 213.726L591.449 213.875L590.849 214.475L590.549 214.625L589.95 215.075L589.5 215.374L589.05 215.824L588.6 216.124L588.301 216.424L587.851 216.723L587.551 216.873L587.401 217.023C587.33 217.115 587.24 217.19 587.136 217.242C587.032 217.294 586.918 217.322 586.801 217.323L586.502 217.623L585.902 218.073L585.602 218.222L585.452 218.372C585.382 218.464 585.291 218.539 585.187 218.591C585.083 218.643 584.969 218.671 584.853 218.672L584.553 218.972C584.403 219.122 584.103 219.272 583.953 219.422L583.503 219.571C583.333 219.757 583.13 219.91 582.904 220.021C571.588 227.169 558.765 231.588 545.448 232.928C532.131 234.268 518.685 232.493 506.172 227.744C493.659 222.994 482.422 215.399 473.349 205.56C464.276 195.721 457.616 183.907 453.896 171.052C450.175 158.197 449.495 144.652 451.91 131.489C454.324 118.325 459.768 105.904 467.81 95.2062C475.852 84.5083 486.272 75.827 498.246 69.8483C510.221 63.8697 523.422 60.7575 536.806 60.7577C548.147 60.7183 559.382 62.9324 569.859 67.2716C580.337 71.6107 589.847 77.9882 597.839 86.0338L601.586 89.7811L586.951 104.265L583.485 100.442C574.404 91.3161 562.844 85.0553 550.237 82.4365C537.631 79.8176 524.534 80.9558 512.568 85.71C500.603 90.4641 490.297 98.6251 482.926 109.181C475.556 119.737 471.446 132.224 471.107 145.093C470.767 157.963 474.213 170.649 481.016 181.579C487.819 192.509 497.681 201.202 509.379 206.58C521.077 211.958 534.096 213.786 546.823 211.835C559.55 209.884 571.424 204.242 580.974 195.607V159.257H524.757V138.497H601.905H601.943ZM1183.88 107.937C1196.35 107.967 1208.54 111.692 1218.89 118.642C1229.25 125.592 1237.31 135.455 1242.06 146.986C1246.82 158.516 1248.04 171.196 1245.59 183.424C1243.14 195.651 1237.12 206.878 1228.29 215.686C1219.46 224.494 1208.22 230.488 1195.98 232.91C1183.75 235.332 1171.07 234.074 1159.55 229.295C1148.03 224.515 1138.18 216.429 1131.26 206.058C1124.33 195.687 1120.64 183.495 1120.64 171.024C1120.63 162.726 1122.27 154.509 1125.45 146.844C1128.63 139.179 1133.29 132.217 1139.16 126.356C1145.04 120.496 1152.01 115.852 1159.69 112.691C1167.36 109.531 1175.58 107.915 1183.88 107.937ZM1226.23 171.006C1226.21 162.604 1223.71 154.396 1219.03 147.42C1214.35 140.443 1207.7 135.01 1199.94 131.809C1192.17 128.607 1183.62 127.781 1175.39 129.435C1167.15 131.088 1159.59 135.147 1153.66 141.098C1147.73 147.049 1143.69 154.625 1142.07 162.867C1140.44 171.11 1141.3 179.649 1144.53 187.405C1147.76 195.161 1153.21 201.785 1160.21 206.44C1167.2 211.095 1175.42 213.572 1183.82 213.557C1189.4 213.552 1194.93 212.447 1200.08 210.305C1205.23 208.163 1209.91 205.026 1213.85 201.074C1217.79 197.122 1220.91 192.432 1223.03 187.272C1225.16 182.113 1226.24 176.585 1226.23 171.006ZM1031.61 171.155C1031.64 162.733 1029.17 154.492 1024.51 147.474C1019.85 140.457 1013.21 134.98 1005.44 131.736C997.667 128.493 989.106 127.629 980.841 129.253C972.576 130.878 964.979 134.919 959.013 140.864C953.046 146.809 948.978 154.391 947.324 162.649C945.67 170.907 946.503 179.47 949.72 187.254C952.937 195.038 958.391 201.693 965.392 206.375C972.394 211.057 980.628 213.557 989.051 213.557C1000.32 213.567 1011.13 209.109 1019.12 201.161C1027.11 193.213 1031.62 182.423 1031.66 171.155H1031.61ZM788.657 171.006C788.657 158.528 792.357 146.331 799.29 135.956C806.223 125.582 816.077 117.496 827.606 112.721C839.135 107.946 851.821 106.696 864.06 109.131C876.299 111.565 887.541 117.573 896.365 126.396C905.189 135.219 911.198 146.46 913.632 158.698C916.067 170.936 914.817 183.62 910.042 195.148C905.267 206.676 897.18 216.528 886.804 223.46C876.428 230.393 864.23 234.093 851.751 234.093C835.029 234.078 818.997 227.424 807.18 215.594C795.362 203.764 788.727 187.726 788.732 171.006H788.657ZM894.326 171.006C894.326 162.59 891.83 154.363 887.154 147.365C882.478 140.368 875.831 134.914 868.055 131.693C860.279 128.472 851.722 127.63 843.467 129.272C835.212 130.914 827.629 134.966 821.678 140.917C815.726 146.868 811.673 154.45 810.031 162.704C808.389 170.958 809.232 179.514 812.453 187.289C815.674 195.064 821.128 201.71 828.127 206.386C835.125 211.061 843.353 213.557 851.77 213.557C857.362 213.562 862.901 212.465 868.069 210.329C873.238 208.193 877.935 205.06 881.892 201.108C885.849 197.157 888.989 192.464 891.132 187.299C893.275 182.134 894.379 176.597 894.382 171.006H894.326ZM671.633 170.706C671.647 179.1 674.15 187.302 678.823 194.276C683.497 201.25 690.132 206.683 697.891 209.888C705.651 213.094 714.186 213.929 722.42 212.287C730.653 210.646 738.216 206.602 744.152 200.666C750.089 194.73 754.133 187.168 755.775 178.936C757.416 170.703 756.581 162.169 753.375 154.41C750.169 146.652 744.736 140.017 737.762 135.344C730.787 130.671 722.584 128.169 714.189 128.154C708.601 128.147 703.066 129.243 697.903 131.379C692.739 133.516 688.049 136.651 684.1 140.604C680.152 144.558 677.022 149.252 674.893 154.417C672.763 159.583 671.674 165.118 671.689 170.706H671.633Z" fill="white"/>
<defs>
<linearGradient id="paint0_linear" x1="63.3547" y1="71.8355" x2="145.32" y2="168.824" gradientUnits="userSpaceOnUse">
<stop stop-color="white"/>
<stop offset="1" stop-color="white"/>
</linearGradient>
<linearGradient id="paint1_linear" x1="128.221" y1="196.962" x2="210.209" y2="294.014" gradientUnits="userSpaceOnUse">
<stop stop-color="white"/>
<stop offset="1" stop-color="white"/>
</linearGradient>
</defs>
</svg>
