<svg width="1243" height="301" viewBox="0 0 1243 301" fill="none" xmlns="http://www.w3.org/2000/svg">
<path d="M1242.17 0.206299H923.424L818.424 300.206H1137.17L1242.17 0.206299Z" fill="white"/>
<path fill-rule="evenodd" clip-rule="evenodd" d="M59.9676 60.2064L59.0489 230.664H86.2364V129.279L186.016 237.851L187.486 67.5395H159.17C159.17 67.5395 160.101 166.902 158.424 166.763L59.9676 60.2064ZM0.923828 230.664H28.1113V67.5395H0.923828V230.664ZM209.049 91.9145H253.111L254.049 230.664H279.361V91.9145H324.361V67.5395L209.049 67.5376V91.9145ZM345.924 230.55L444.363 231.602L444.361 206.289H374.049V158.477H431.24L431.236 133.164H374.049V91.9145H444.361V67.5395H346.938L345.924 230.55ZM472.486 230.664H566.236V206.289H499.674V67.5376L472.486 67.5395V230.664ZM583.111 230.664H676.861V206.289H610.299V67.5376L583.111 67.5395V230.664ZM693.736 230.664H720.924V67.5414L693.736 67.5395V230.664Z" fill="white"/>
<path d="M852.174 198.789L841.861 201.84C823.275 207.384 804.768 202.448 790.16 188.048C778.505 176.558 773.844 165.711 773.698 149.741C773.432 120.729 798.796 95.3522 828.009 95.0776C837.718 94.9857 841.88 96.0151 851.167 100.804L862.486 106.643V90.7951V75.0395C862.486 75.0395 853.397 71.4957 842.023 69.1464C827.653 66.1782 807.399 68.762 792.914 75.4089C778.284 82.1214 762.982 96.9095 756.035 111.047C728.409 167.269 766.034 230.664 827.028 230.664C827.028 230.664 835.171 230.664 840.388 230.664C841.861 230.831 865.877 226.611 876.549 215.664V146.289L821.236 146.289V170.664H852.174V198.789Z" fill="white"/>
<path fill-rule="evenodd" clip-rule="evenodd" d="M990.581 160.929C1014.14 136.584 1007.88 90.1575 978.969 74.7375C972.033 71.0381 968.424 69.9914 938.893 69.9914L906.549 69.3469V230.831H930.924V175.519H948.736L988.272 230.714H1015.46L974.049 172.237L979.428 169.132C982.387 167.908 987.405 164.212 990.581 160.929ZM929.975 92.4328C929.975 92.4328 961.528 90.4603 969.873 94.7766C979.134 99.5634 983.988 110.752 983.066 125.245C981.712 146.521 973.19 153.075 946.861 153.077H929.986C929.986 153.019 929.975 92.4328 929.975 92.4328Z" fill="black"/>
<path fill-rule="evenodd" clip-rule="evenodd" d="M1102.49 62.0812L1172.8 230.831H1144.67L1131.55 195.206H1073.71L1060.3 230.831H1033.64L1102.49 62.0812ZM1103.48 124.484L1122.17 173.527H1082.8L1103.48 124.484Z" fill="black"/>
</svg>
