<svg width="704" height="301" viewBox="0 0 704 301" fill="none" xmlns="http://www.w3.org/2000/svg">
<path d="M341.981 198.094C340.475 197.376 339.162 196.308 338.15 194.978C337.137 193.649 336.454 192.097 336.158 190.45C335.862 188.804 335.961 187.11 336.447 185.509C336.933 183.908 337.792 182.447 338.952 181.246C340.113 180.044 341.542 179.138 343.12 178.601C344.7 178.065 346.383 177.913 348.032 178.16C349.681 178.407 351.247 179.044 352.602 180.019C353.956 180.995 355.06 182.28 355.821 183.768C356.503 185.066 357.529 186.151 358.786 186.901C360.043 187.651 361.482 188.037 362.944 188.018H376.961C377.805 188.018 378.637 187.828 379.399 187.463C380.159 187.098 380.83 186.567 381.359 185.908C381.889 185.25 382.266 184.48 382.461 183.656C382.656 182.832 382.665 181.975 382.487 181.148C381.146 174.582 378.05 168.506 373.53 163.571C369.011 158.638 363.239 155.032 356.833 153.141C350.428 151.25 343.629 151.146 337.169 152.838C330.708 154.531 324.829 157.957 320.16 162.749C315.492 167.541 312.212 173.518 310.67 180.039C309.129 186.562 309.385 193.381 311.412 199.768C313.438 206.155 317.158 211.867 322.173 216.292C327.188 220.717 333.308 223.688 339.877 224.888C340.69 225.025 341.522 224.982 342.317 224.763C343.112 224.543 343.848 224.151 344.476 223.616C345.104 223.08 345.608 222.413 345.952 221.661C346.296 220.91 346.472 220.092 346.468 219.265V205.371C346.475 203.858 346.058 202.373 345.265 201.086C344.472 199.799 343.334 198.762 341.981 198.094Z" fill="white"/>
<path d="M299.803 195.523C301.084 204.211 304.74 212.371 310.365 219.098C315.99 225.824 323.363 230.852 331.665 233.624C339.966 236.396 348.87 236.802 357.388 234.798C365.905 232.794 373.703 228.457 379.912 222.271C386.122 216.084 390.5 208.29 392.561 199.755C394.622 191.22 394.284 182.278 391.585 173.924C388.887 165.571 383.933 158.132 377.275 152.435C370.617 146.738 362.514 143.007 353.871 141.655C351.96 141.363 350.217 140.395 348.957 138.924C347.698 137.454 347.003 135.58 347.001 133.64V123.462C347.002 122.3 347.249 121.153 347.728 120.095C348.207 119.038 348.906 118.096 349.777 117.331C350.649 116.567 351.673 116 352.781 115.665C353.889 115.332 355.056 115.24 356.202 115.396C369.816 117.207 382.653 122.81 393.257 131.57C403.861 140.33 411.808 151.897 416.198 164.96C420.588 178.022 421.245 192.058 418.094 205.476C414.944 218.895 408.112 231.158 398.372 240.878C388.633 250.597 376.376 257.384 362.991 260.468C349.606 263.552 335.628 262.811 322.642 258.328C309.655 253.845 298.179 245.8 289.515 235.104C280.85 224.408 275.343 211.49 273.619 197.813C273.458 196.67 273.54 195.504 273.859 194.395C274.179 193.286 274.73 192.257 275.475 191.377C276.22 190.497 277.142 189.785 278.181 189.289C279.22 188.794 280.352 188.525 281.502 188.5H291.642C293.622 188.468 295.544 189.166 297.048 190.46C298.551 191.753 299.532 193.554 299.803 195.523Z" fill="white"/>
<path d="M339.042 272.623C323.137 271.184 307.968 265.227 295.311 255.45C282.655 245.673 273.035 232.479 267.575 217.413C262.117 202.347 261.044 186.032 264.485 170.377C267.926 154.722 275.738 140.374 287.005 129.013C298.272 117.652 312.531 109.747 328.11 106.224C343.69 102.701 359.947 103.704 374.98 109.117C390.012 114.53 403.198 124.129 412.993 136.791C422.789 149.452 428.79 164.653 430.295 180.613C430.472 182.635 431.398 184.518 432.89 185.888C434.382 187.259 436.332 188.019 438.355 188.018H448.494C449.616 188.037 450.729 187.818 451.762 187.377C452.793 186.935 453.721 186.279 454.484 185.454C455.248 184.628 455.829 183.649 456.19 182.583C456.551 181.517 456.683 180.386 456.58 179.264C454.811 158.205 447.076 138.094 434.291 121.305C421.504 104.515 404.2 91.7477 384.42 84.5096C364.641 77.2722 343.212 75.8658 322.661 80.4565C302.112 85.0479 283.299 95.4448 268.444 110.42C253.589 125.396 243.312 144.325 238.826 164.973C234.341 185.621 235.833 207.127 243.127 226.952C250.421 246.776 263.214 264.092 279.993 276.856C296.772 289.62 316.84 297.297 337.825 298.984C338.94 299.08 340.062 298.941 341.119 298.575C342.177 298.209 343.147 297.625 343.965 296.861C344.785 296.096 345.435 295.168 345.875 294.135C346.315 293.104 346.535 291.99 346.52 290.867V280.689C346.513 278.647 345.739 276.683 344.354 275.187C342.967 273.692 341.071 272.776 339.042 272.623Z" fill="white"/>
<path d="M0.69873 289.569V9.9518C0.705422 7.36918 1.7304 4.89429 3.54959 3.06811C5.3688 1.24193 7.83423 0.213018 10.407 0.206299H58.0102C60.5874 0.206291 63.0593 1.23224 64.884 3.05915C66.7086 4.88603 67.7371 7.36478 67.7438 9.9518V160.079L132.685 76.5422C133.587 75.3791 134.74 74.4361 136.057 73.7842C137.374 73.1316 138.821 72.7872 140.289 72.7764H200.795C202.652 72.7547 204.476 73.2675 206.052 74.2538C207.628 75.2393 208.89 76.6572 209.69 78.3401C210.489 80.023 210.793 81.8997 210.564 83.7502C210.336 85.5999 209.584 87.3453 208.399 88.781L128.731 184.989L208.551 283.386C209.713 284.823 210.444 286.561 210.66 288.399C210.876 290.236 210.568 292.098 209.772 293.767C208.975 295.436 207.722 296.843 206.161 297.824C204.598 298.807 202.79 299.324 200.947 299.315H140.518C138.995 299.322 137.492 298.968 136.131 298.283C134.77 297.597 133.59 296.6 132.685 295.371L67.7438 206.541V289.569C67.7371 292.156 66.7086 294.635 64.884 296.462C63.0593 298.289 60.5874 299.315 58.0102 299.315H10.407C7.83423 299.308 5.3688 298.279 3.54959 296.453C1.7304 294.627 0.705422 292.152 0.69873 289.569Z" fill="white"/>
<path fill-rule="evenodd" clip-rule="evenodd" d="M703.671 80.9188V290.435C703.671 293.026 702.646 295.511 700.82 297.344C698.995 299.177 696.52 300.206 693.938 300.206H648.92C647.643 300.206 646.379 299.953 645.199 299.462C644.019 298.971 642.948 298.25 642.046 297.342C641.144 296.435 640.43 295.358 639.944 294.172C639.457 292.987 639.209 291.717 639.212 290.435V266.949C631.074 276.912 620.867 284.969 609.304 290.56C597.741 296.151 585.101 299.139 572.268 299.315C529.177 299.315 472.246 268.45 472.246 180.664C472.246 92.8781 541.065 69.7485 572.268 69.7485C600.429 69.7485 632.646 87.8657 639.212 101.86V80.9188C639.209 79.6367 639.457 78.367 639.944 77.1815C640.43 75.996 641.144 74.9194 642.046 74.0112C642.948 73.1037 644.019 72.3836 645.199 71.8923C646.379 71.4009 647.643 71.1481 648.92 71.1481H693.938C696.52 71.1481 698.995 72.1775 700.82 74.0096C702.646 75.8423 703.671 78.3276 703.671 80.9188ZM590.569 128.883C577.393 128.883 564.756 134.137 555.439 143.49C546.122 152.844 540.888 165.529 540.888 178.756V187.967C540.888 201.194 546.122 213.879 555.439 223.233C564.756 232.585 577.393 237.839 590.569 237.839C603.746 237.839 616.383 232.585 625.699 223.233C635.017 213.879 640.251 201.194 640.251 187.967V178.756C640.251 165.529 635.017 152.844 625.699 143.49C616.383 134.137 603.746 128.883 590.569 128.883Z" fill="white"/>
</svg>
