<svg width="1257" height="293" viewBox="0 0 1257 293" fill="none" xmlns="http://www.w3.org/2000/svg">
<path d="M475.145 228.721C479.611 228.721 483.613 229.707 487.151 231.679C490.689 233.651 493.444 236.406 495.416 239.944C497.446 243.482 498.461 247.571 498.461 252.211C498.461 256.851 497.446 260.969 495.416 264.565C493.444 268.103 490.689 270.858 487.151 272.83C483.613 274.802 479.611 275.788 475.145 275.788C471.723 275.788 468.591 275.121 465.749 273.787C462.907 272.453 460.558 270.51 458.702 267.958V275.266H450.698V210.712H459.05V236.116C460.906 233.68 463.226 231.853 466.01 230.635C468.794 229.359 471.839 228.721 475.145 228.721ZM474.449 268.48C477.407 268.48 480.046 267.813 482.366 266.479C484.744 265.087 486.6 263.173 487.934 260.737C489.326 258.243 490.022 255.401 490.022 252.211C490.022 249.021 489.326 246.208 487.934 243.772C486.6 241.278 484.744 239.364 482.366 238.03C480.046 236.696 477.407 236.029 474.449 236.029C471.549 236.029 468.91 236.696 466.532 238.03C464.154 239.364 462.298 241.278 460.964 243.772C459.63 246.208 458.963 249.021 458.963 252.211C458.963 255.401 459.63 258.243 460.964 260.737C462.298 263.173 464.154 265.087 466.532 266.479C468.91 267.813 471.549 268.48 474.449 268.48Z" fill="white"/>
<path d="M543.874 229.156L521.515 279.877C519.543 284.575 517.223 287.881 514.555 289.795C511.945 291.709 508.784 292.666 505.072 292.666C502.81 292.666 500.606 292.289 498.46 291.535C496.372 290.839 494.632 289.795 493.24 288.403L496.807 282.139C499.185 284.401 501.94 285.532 505.072 285.532C507.102 285.532 508.784 284.981 510.118 283.879C511.51 282.835 512.757 281.008 513.859 278.398L515.338 275.179L494.98 229.156H503.68L519.775 266.044L535.696 229.156H543.874Z" fill="white"/>
<path d="M588.692 214.366C596.58 214.366 602.786 216.251 607.31 220.021C611.834 223.791 614.096 228.982 614.096 235.594C614.096 242.206 611.834 247.397 607.31 251.167C602.786 254.937 596.58 256.822 588.692 256.822H573.641V275.266H564.941V214.366H588.692ZM588.431 249.253C593.941 249.253 598.146 248.093 601.046 245.773C603.946 243.395 605.396 240.002 605.396 235.594C605.396 231.186 603.946 227.822 601.046 225.502C598.146 223.124 593.941 221.935 588.431 221.935H573.641V249.253H588.431Z" fill="white"/>
<path d="M636.371 228.721C642.751 228.721 647.623 230.287 650.987 233.419C654.409 236.551 656.12 241.22 656.12 247.426V275.266H648.203V269.176C646.811 271.322 644.81 272.975 642.2 274.135C639.648 275.237 636.603 275.788 633.065 275.788C627.903 275.788 623.756 274.541 620.624 272.047C617.55 269.553 616.013 266.276 616.013 262.216C616.013 258.156 617.492 254.908 620.45 252.472C623.408 249.978 628.106 248.731 634.544 248.731H647.768V247.078C647.768 243.482 646.724 240.727 644.636 238.813C642.548 236.899 639.474 235.942 635.414 235.942C632.688 235.942 630.02 236.406 627.41 237.334C624.8 238.204 622.596 239.393 620.798 240.901L617.318 234.637C619.696 232.723 622.538 231.273 625.844 230.287C629.15 229.243 632.659 228.721 636.371 228.721ZM634.457 269.35C637.647 269.35 640.402 268.654 642.722 267.262C645.042 265.812 646.724 263.782 647.768 261.172V254.734H634.892C627.816 254.734 624.278 257.112 624.278 261.868C624.278 264.188 625.177 266.015 626.975 267.349C628.773 268.683 631.267 269.35 634.457 269.35Z" fill="white"/>
<path d="M679.145 275.788C675.375 275.788 671.75 275.295 668.27 274.309C664.79 273.265 662.064 271.96 660.092 270.394L663.572 263.782C665.602 265.232 668.067 266.392 670.967 267.262C673.867 268.132 676.796 268.567 679.754 268.567C687.062 268.567 690.716 266.479 690.716 262.303C690.716 260.911 690.223 259.809 689.237 258.997C688.251 258.185 687.004 257.605 685.496 257.257C684.046 256.851 681.958 256.416 679.232 255.952C675.52 255.372 672.475 254.705 670.097 253.951C667.777 253.197 665.776 251.921 664.094 250.123C662.412 248.325 661.571 245.802 661.571 242.554C661.571 238.378 663.311 235.043 666.791 232.549C670.271 229.997 674.94 228.721 680.798 228.721C683.872 228.721 686.946 229.098 690.02 229.852C693.094 230.606 695.617 231.621 697.589 232.897L694.022 239.509C690.252 237.073 685.815 235.855 680.711 235.855C677.173 235.855 674.476 236.435 672.62 237.595C670.764 238.755 669.836 240.292 669.836 242.206C669.836 243.714 670.358 244.903 671.402 245.773C672.446 246.643 673.722 247.281 675.23 247.687C676.796 248.093 678.971 248.557 681.755 249.079C685.467 249.717 688.454 250.413 690.716 251.167C693.036 251.863 695.008 253.081 696.632 254.821C698.256 256.561 699.068 258.997 699.068 262.129C699.068 266.305 697.27 269.64 693.674 272.134C690.136 274.57 685.293 275.788 679.145 275.788Z" fill="white"/>
<path d="M717.075 275.788C713.305 275.788 709.68 275.295 706.2 274.309C702.72 273.265 699.994 271.96 698.022 270.394L701.502 263.782C703.532 265.232 705.997 266.392 708.897 267.262C711.797 268.132 714.726 268.567 717.684 268.567C724.992 268.567 728.646 266.479 728.646 262.303C728.646 260.911 728.153 259.809 727.167 258.997C726.181 258.185 724.934 257.605 723.426 257.257C721.976 256.851 719.888 256.416 717.162 255.952C713.45 255.372 710.405 254.705 708.027 253.951C705.707 253.197 703.706 251.921 702.024 250.123C700.342 248.325 699.501 245.802 699.501 242.554C699.501 238.378 701.241 235.043 704.721 232.549C708.201 229.997 712.87 228.721 718.728 228.721C721.802 228.721 724.876 229.098 727.95 229.852C731.024 230.606 733.547 231.621 735.519 232.897L731.952 239.509C728.182 237.073 723.745 235.855 718.641 235.855C715.103 235.855 712.406 236.435 710.55 237.595C708.694 238.755 707.766 240.292 707.766 242.206C707.766 243.714 708.288 244.903 709.332 245.773C710.376 246.643 711.652 247.281 713.16 247.687C714.726 248.093 716.901 248.557 719.685 249.079C723.397 249.717 726.384 250.413 728.646 251.167C730.966 251.863 732.938 253.081 734.562 254.821C736.186 256.561 736.998 258.997 736.998 262.129C736.998 266.305 735.2 269.64 731.604 272.134C728.066 274.57 723.223 275.788 717.075 275.788Z" fill="white"/>
<path d="M741.781 229.156H750.133V275.266H741.781V229.156ZM745.957 220.282C744.333 220.282 742.97 219.76 741.868 218.716C740.824 217.672 740.302 216.396 740.302 214.888C740.302 213.38 740.824 212.104 741.868 211.06C742.97 209.958 744.333 209.407 745.957 209.407C747.581 209.407 748.915 209.929 749.959 210.973C751.061 211.959 751.612 213.206 751.612 214.714C751.612 216.28 751.061 217.614 749.959 218.716C748.915 219.76 747.581 220.282 745.957 220.282Z" fill="white"/>
<path d="M780.174 275.788C775.592 275.788 771.474 274.773 767.82 272.743C764.166 270.713 761.295 267.929 759.207 264.391C757.177 260.795 756.162 256.735 756.162 252.211C756.162 247.687 757.177 243.656 759.207 240.118C761.295 236.522 764.166 233.738 767.82 231.766C771.474 229.736 775.592 228.721 780.174 228.721C784.756 228.721 788.845 229.736 792.441 231.766C796.095 233.738 798.937 236.522 800.967 240.118C803.055 243.656 804.099 247.687 804.099 252.211C804.099 256.735 803.055 260.795 800.967 264.391C798.937 267.929 796.095 270.713 792.441 272.743C788.845 274.773 784.756 275.788 780.174 275.788ZM780.174 268.48C783.132 268.48 785.771 267.813 788.091 266.479C790.469 265.087 792.325 263.173 793.659 260.737C794.993 258.243 795.66 255.401 795.66 252.211C795.66 249.021 794.993 246.208 793.659 243.772C792.325 241.278 790.469 239.364 788.091 238.03C785.771 236.696 783.132 236.029 780.174 236.029C777.216 236.029 774.548 236.696 772.17 238.03C769.85 239.364 767.994 241.278 766.602 243.772C765.268 246.208 764.601 249.021 764.601 252.211C764.601 255.401 765.268 258.243 766.602 260.737C767.994 263.173 769.85 265.087 772.17 266.479C774.548 267.813 777.216 268.48 780.174 268.48Z" fill="white"/>
<path d="M834.615 228.721C840.473 228.721 845.113 230.432 848.535 233.854C852.015 237.218 853.755 242.177 853.755 248.731V275.266H845.403V249.688C845.403 245.222 844.33 241.858 842.184 239.596C840.038 237.334 836.964 236.203 832.962 236.203C828.438 236.203 824.871 237.537 822.261 240.205C819.651 242.815 818.346 246.585 818.346 251.515V275.266H809.994V229.156H817.998V236.116C819.68 233.738 821.942 231.911 824.784 230.635C827.684 229.359 830.961 228.721 834.615 228.721Z" fill="white"/>
<path d="M882.484 214.366H891.184V275.266H882.484V214.366Z" fill="white"/>
<path d="M927.165 228.721C933.023 228.721 937.663 230.432 941.085 233.854C944.565 237.218 946.305 242.177 946.305 248.731V275.266H937.953V249.688C937.953 245.222 936.88 241.858 934.734 239.596C932.588 237.334 929.514 236.203 925.512 236.203C920.988 236.203 917.421 237.537 914.811 240.205C912.201 242.815 910.896 246.585 910.896 251.515V275.266H902.544V229.156H910.548V236.116C912.23 233.738 914.492 231.911 917.334 230.635C920.234 229.359 923.511 228.721 927.165 228.721Z" fill="white"/>
<path d="M976.458 275.788C971.76 275.788 967.555 274.773 963.844 272.743C960.19 270.713 957.318 267.929 955.23 264.391C953.142 260.795 952.098 256.735 952.098 252.211C952.098 247.687 953.142 243.656 955.23 240.118C957.318 236.522 960.19 233.738 963.844 231.766C967.555 229.736 971.76 228.721 976.458 228.721C980.635 228.721 984.346 229.562 987.594 231.244C990.901 232.926 993.453 235.362 995.25 238.552L988.899 242.641C987.449 240.437 985.651 238.784 983.505 237.682C981.359 236.58 978.981 236.029 976.371 236.029C973.355 236.029 970.629 236.696 968.193 238.03C965.815 239.364 963.93 241.278 962.538 243.772C961.204 246.208 960.537 249.021 960.537 252.211C960.537 255.459 961.204 258.33 962.538 260.824C963.93 263.26 965.815 265.145 968.193 266.479C970.629 267.813 973.355 268.48 976.371 268.48C978.981 268.48 981.359 267.929 983.505 266.827C985.651 265.725 987.449 264.072 988.899 261.868L995.25 265.87C993.453 269.06 990.901 271.525 987.594 273.265C984.346 274.947 980.635 275.788 976.458 275.788Z" fill="white"/>
<path d="M1043.39 229.156V275.266H1035.47V268.306C1033.79 270.684 1031.55 272.54 1028.77 273.874C1026.04 275.15 1023.06 275.788 1019.81 275.788C1013.66 275.788 1008.82 274.106 1005.28 270.742C1001.74 267.32 999.974 262.303 999.974 255.691V229.156H1008.33V254.734C1008.33 259.2 1009.4 262.593 1011.54 264.913C1013.69 267.175 1016.76 268.306 1020.77 268.306C1025.17 268.306 1028.65 266.972 1031.21 264.304C1033.76 261.636 1035.03 257.866 1035.03 252.994V229.156H1043.39Z" fill="white"/>
<path d="M1078.08 228.721C1082.54 228.721 1086.55 229.707 1090.08 231.679C1093.62 233.651 1096.38 236.406 1098.35 239.944C1100.38 243.482 1101.39 247.571 1101.39 252.211C1101.39 256.851 1100.38 260.969 1098.35 264.565C1096.38 268.103 1093.62 270.858 1090.08 272.83C1086.55 274.802 1082.54 275.788 1078.08 275.788C1074.66 275.788 1071.52 275.121 1068.68 273.787C1065.84 272.453 1063.49 270.51 1061.64 267.958V275.266H1053.63V210.712H1061.98V236.116C1063.84 233.68 1066.16 231.853 1068.94 230.635C1071.73 229.359 1074.77 228.721 1078.08 228.721ZM1077.38 268.48C1080.34 268.48 1082.98 267.813 1085.3 266.479C1087.68 265.087 1089.53 263.173 1090.87 260.737C1092.26 258.243 1092.96 255.401 1092.96 252.211C1092.96 249.021 1092.26 246.208 1090.87 243.772C1089.53 241.278 1087.68 239.364 1085.3 238.03C1082.98 236.696 1080.34 236.029 1077.38 236.029C1074.48 236.029 1071.84 236.696 1069.47 238.03C1067.09 239.364 1065.23 241.278 1063.9 243.772C1062.56 246.208 1061.9 249.021 1061.9 252.211C1061.9 255.401 1062.56 258.243 1063.9 260.737C1065.23 263.173 1067.09 265.087 1069.47 266.479C1071.84 267.813 1074.48 268.48 1077.38 268.48Z" fill="white"/>
<path d="M1123.65 228.721C1130.03 228.721 1134.9 230.287 1138.26 233.419C1141.68 236.551 1143.39 241.22 1143.39 247.426V275.266H1135.48V269.176C1134.09 271.322 1132.08 272.975 1129.47 274.135C1126.92 275.237 1123.88 275.788 1120.34 275.788C1115.18 275.788 1111.03 274.541 1107.9 272.047C1104.82 269.553 1103.29 266.276 1103.29 262.216C1103.29 258.156 1104.77 254.908 1107.72 252.472C1110.68 249.978 1115.38 248.731 1121.82 248.731H1135.04V247.078C1135.04 243.482 1134 240.727 1131.91 238.813C1129.82 236.899 1126.75 235.942 1122.69 235.942C1119.96 235.942 1117.29 236.406 1114.68 237.334C1112.07 238.204 1109.87 239.393 1108.07 240.901L1104.59 234.637C1106.97 232.723 1109.81 231.273 1113.12 230.287C1116.42 229.243 1119.93 228.721 1123.65 228.721ZM1121.73 269.35C1124.92 269.35 1127.68 268.654 1130 267.262C1132.32 265.812 1134 263.782 1135.04 261.172V254.734H1122.17C1115.09 254.734 1111.55 257.112 1111.55 261.868C1111.55 264.188 1112.45 266.015 1114.25 267.349C1116.05 268.683 1118.54 269.35 1121.73 269.35Z" fill="white"/>
<path d="M1179.12 272.569C1177.9 273.613 1176.4 274.425 1174.6 275.005C1172.8 275.527 1170.94 275.788 1169.03 275.788C1164.39 275.788 1160.79 274.541 1158.24 272.047C1155.69 269.553 1154.41 265.986 1154.41 261.346V236.029H1146.58V229.156H1154.41V219.064H1162.77V229.156H1175.99V236.029H1162.77V260.998C1162.77 263.492 1163.37 265.406 1164.59 266.74C1165.87 268.074 1167.67 268.741 1169.99 268.741C1172.54 268.741 1174.71 268.016 1176.51 266.566L1179.12 272.569Z" fill="white"/>
<path d="M1201.78 275.788C1197.2 275.788 1193.08 274.773 1189.43 272.743C1185.78 270.713 1182.9 267.929 1180.82 264.391C1178.79 260.795 1177.77 256.735 1177.77 252.211C1177.77 247.687 1178.79 243.656 1180.82 240.118C1182.9 236.522 1185.78 233.738 1189.43 231.766C1193.08 229.736 1197.2 228.721 1201.78 228.721C1206.37 228.721 1210.45 229.736 1214.05 231.766C1217.7 233.738 1220.55 236.522 1222.58 240.118C1224.66 243.656 1225.71 247.687 1225.71 252.211C1225.71 256.735 1224.66 260.795 1222.58 264.391C1220.55 267.929 1217.7 270.713 1214.05 272.743C1210.45 274.773 1206.37 275.788 1201.78 275.788ZM1201.78 268.48C1204.74 268.48 1207.38 267.813 1209.7 266.479C1212.08 265.087 1213.93 263.173 1215.27 260.737C1216.6 258.243 1217.27 255.401 1217.27 252.211C1217.27 249.021 1216.6 246.208 1215.27 243.772C1213.93 241.278 1212.08 239.364 1209.7 238.03C1207.38 236.696 1204.74 236.029 1201.78 236.029C1198.83 236.029 1196.16 236.696 1193.78 238.03C1191.46 239.364 1189.6 241.278 1188.21 243.772C1186.88 246.208 1186.21 249.021 1186.21 252.211C1186.21 255.401 1186.88 258.243 1188.21 260.737C1189.6 263.173 1191.46 265.087 1193.78 266.479C1196.16 267.813 1198.83 268.48 1201.78 268.48Z" fill="white"/>
<path d="M1239.61 236.899C1241.06 234.231 1243.2 232.201 1246.05 230.809C1248.89 229.417 1252.34 228.721 1256.4 228.721V236.812C1255.94 236.754 1255.3 236.725 1254.49 236.725C1249.96 236.725 1246.39 238.088 1243.78 240.814C1241.23 243.482 1239.96 247.31 1239.96 252.298V275.266H1231.6V229.156H1239.61V236.899Z" fill="white"/>
<path d="M242.801 14.7521H263.921V177.992H242.801V14.7521Z" fill="white"/>
<path d="M398.626 120.352C398.626 121.965 398.479 124.092 398.186 126.732H303.586C304.906 136.999 309.379 145.285 317.006 151.592C324.779 157.752 334.386 160.832 345.826 160.832C359.759 160.832 370.979 156.139 379.486 146.752L391.146 160.392C385.866 166.552 379.266 171.245 371.346 174.472C363.573 177.699 354.846 179.312 345.166 179.312C332.846 179.312 321.919 176.819 312.386 171.832C302.853 166.699 295.446 159.585 290.166 150.492C285.033 141.399 282.466 131.132 282.466 119.692C282.466 108.399 284.959 98.2055 289.946 89.1121C295.079 80.0188 302.046 72.9788 310.846 67.9921C319.793 62.8588 329.839 60.2921 340.986 60.2921C352.133 60.2921 362.033 62.8588 370.686 67.9921C379.486 72.9788 386.306 80.0188 391.146 89.1121C396.133 98.2055 398.626 108.619 398.626 120.352ZM340.986 78.1121C330.866 78.1121 322.359 81.1921 315.466 87.3521C308.719 93.5121 304.759 101.579 303.586 111.552H378.386C377.213 101.725 373.179 93.7321 366.286 87.5721C359.539 81.2655 351.106 78.1121 340.986 78.1121Z" fill="white"/>
<path d="M456.19 60.2921C472.324 60.2921 484.644 64.2521 493.15 72.1721C501.804 80.0921 506.13 91.8988 506.13 107.592V177.992H486.11V162.592C482.59 168.019 477.53 172.199 470.93 175.132C464.477 177.919 456.777 179.312 447.83 179.312C434.777 179.312 424.29 176.159 416.37 169.852C408.597 163.545 404.71 155.259 404.71 144.992C404.71 134.725 408.45 126.512 415.93 120.352C423.41 114.045 435.29 110.892 451.57 110.892H485.01V106.712C485.01 97.6188 482.37 90.6521 477.09 85.8121C471.81 80.9721 464.037 78.5521 453.77 78.5521C446.877 78.5521 440.13 79.7255 433.53 82.0721C426.93 84.2721 421.357 87.2788 416.81 91.0921L408.01 75.2521C414.024 70.4121 421.21 66.7455 429.57 64.2521C437.93 61.6121 446.804 60.2921 456.19 60.2921ZM451.35 163.032C459.417 163.032 466.384 161.272 472.25 157.752C478.117 154.085 482.37 148.952 485.01 142.352V126.072H452.45C434.557 126.072 425.61 132.085 425.61 144.112C425.61 149.979 427.884 154.599 432.43 157.972C436.977 161.345 443.284 163.032 451.35 163.032Z" fill="white"/>
<path d="M644.859 14.7521V177.992H624.619V159.512C619.926 165.965 613.986 170.879 606.799 174.252C599.613 177.625 591.693 179.312 583.039 179.312C571.746 179.312 561.626 176.819 552.679 171.832C543.733 166.845 536.693 159.879 531.559 150.932C526.573 141.839 524.079 131.425 524.079 119.692C524.079 107.959 526.573 97.6188 531.559 88.6721C536.693 79.7255 543.733 72.7588 552.679 67.7721C561.626 62.7855 571.746 60.2921 583.039 60.2921C591.399 60.2921 599.099 61.9055 606.139 65.1321C613.179 68.2121 619.046 72.8321 623.739 78.9921V14.7521H644.859ZM584.799 160.832C592.133 160.832 598.806 159.145 604.819 155.772C610.833 152.252 615.526 147.412 618.899 141.252C622.273 134.945 623.959 127.759 623.959 119.692C623.959 111.625 622.273 104.512 618.899 98.3521C615.526 92.0455 610.833 87.2055 604.819 83.8321C598.806 80.4588 592.133 78.7721 584.799 78.7721C577.319 78.7721 570.573 80.4588 564.559 83.8321C558.693 87.2055 553.999 92.0455 550.479 98.3521C547.106 104.512 545.419 111.625 545.419 119.692C545.419 127.759 547.106 134.945 550.479 141.252C553.999 147.412 558.693 152.252 564.559 155.772C570.573 159.145 577.319 160.832 584.799 160.832Z" fill="white"/>
<path d="M707.26 179.312C697.727 179.312 688.56 178.065 679.76 175.572C670.96 172.932 664.067 169.632 659.08 165.672L667.88 148.952C673.014 152.619 679.247 155.552 686.58 157.752C693.914 159.952 701.32 161.052 708.8 161.052C727.28 161.052 736.52 155.772 736.52 145.212C736.52 141.692 735.274 138.905 732.78 136.852C730.287 134.799 727.134 133.332 723.32 132.452C719.654 131.425 714.374 130.325 707.48 129.152C698.094 127.685 690.394 125.999 684.38 124.092C678.514 122.185 673.454 118.959 669.2 114.412C664.947 109.865 662.82 103.485 662.82 95.2721C662.82 84.7121 667.22 76.2788 676.02 69.9721C684.82 63.5188 696.627 60.2921 711.44 60.2921C719.214 60.2921 726.987 61.2455 734.76 63.1521C742.534 65.0588 748.914 67.6255 753.9 70.8521L744.88 87.5721C735.347 81.4121 724.127 78.3321 711.22 78.3321C702.274 78.3321 695.454 79.7988 690.76 82.7321C686.067 85.6655 683.72 89.5521 683.72 94.3921C683.72 98.2055 685.04 101.212 687.68 103.412C690.32 105.612 693.547 107.225 697.36 108.252C701.32 109.279 706.82 110.452 713.86 111.772C723.247 113.385 730.8 115.145 736.52 117.052C742.387 118.812 747.374 121.892 751.48 126.292C755.587 130.692 757.64 136.852 757.64 144.772C757.64 155.332 753.094 163.765 744 170.072C735.054 176.232 722.807 179.312 707.26 179.312Z" fill="white"/>
<path d="M834.855 60.2921C846.148 60.2921 856.268 62.7855 865.215 67.7721C874.162 72.7588 881.129 79.7255 886.115 88.6721C891.249 97.6188 893.815 107.959 893.815 119.692C893.815 131.425 891.249 141.839 886.115 150.932C881.129 159.879 874.162 166.845 865.215 171.832C856.268 176.819 846.148 179.312 834.855 179.312C826.495 179.312 818.795 177.699 811.755 174.472C804.862 171.245 798.995 166.552 794.155 160.392V220.672H773.035V61.3921H793.275V79.8721C797.969 73.4188 803.909 68.5788 811.095 65.3521C818.282 61.9788 826.202 60.2921 834.855 60.2921ZM833.095 160.832C840.575 160.832 847.249 159.145 853.115 155.772C859.128 152.252 863.822 147.412 867.195 141.252C870.715 134.945 872.475 127.759 872.475 119.692C872.475 111.625 870.715 104.512 867.195 98.3521C863.822 92.0455 859.128 87.2055 853.115 83.8321C847.249 80.4588 840.575 78.7721 833.095 78.7721C825.762 78.7721 819.088 80.5321 813.075 84.0521C807.208 87.4255 802.515 92.1921 798.995 98.3521C795.622 104.512 793.935 111.625 793.935 119.692C793.935 127.759 795.622 134.945 798.995 141.252C802.369 147.412 807.062 152.252 813.075 155.772C819.088 159.145 825.762 160.832 833.095 160.832Z" fill="white"/>
<path d="M953.382 60.2921C969.515 60.2921 981.835 64.2521 990.342 72.1721C998.995 80.0921 1003.32 91.8988 1003.32 107.592V177.992H983.302V162.592C979.782 168.019 974.722 172.199 968.122 175.132C961.669 177.919 953.969 179.312 945.022 179.312C931.969 179.312 921.482 176.159 913.562 169.852C905.789 163.545 901.902 155.259 901.902 144.992C901.902 134.725 905.642 126.512 913.122 120.352C920.602 114.045 932.482 110.892 948.762 110.892H982.202V106.712C982.202 97.6188 979.562 90.6521 974.282 85.8121C969.002 80.9721 961.229 78.5521 950.962 78.5521C944.069 78.5521 937.322 79.7255 930.722 82.0721C924.122 84.2721 918.549 87.2788 914.002 91.0921L905.202 75.2521C911.215 70.4121 918.402 66.7455 926.762 64.2521C935.122 61.6121 943.995 60.2921 953.382 60.2921ZM948.542 163.032C956.609 163.032 963.575 161.272 969.442 157.752C975.309 154.085 979.562 148.952 982.202 142.352V126.072H949.642C931.749 126.072 922.802 132.085 922.802 144.112C922.802 149.979 925.075 154.599 929.622 157.972C934.169 161.345 940.475 163.032 948.542 163.032Z" fill="white"/>
<path d="M1082.87 179.312C1070.99 179.312 1060.36 176.745 1050.97 171.612C1041.73 166.479 1034.47 159.439 1029.19 150.492C1023.91 141.399 1021.27 131.132 1021.27 119.692C1021.27 108.252 1023.91 98.0588 1029.19 89.1121C1034.47 80.0188 1041.73 72.9788 1050.97 67.9921C1060.36 62.8588 1070.99 60.2921 1082.87 60.2921C1093.43 60.2921 1102.82 62.4188 1111.03 66.6721C1119.39 70.9255 1125.84 77.0855 1130.39 85.1521L1114.33 95.4921C1110.66 89.9188 1106.12 85.7388 1100.69 82.9521C1095.26 80.1655 1089.25 78.7721 1082.65 78.7721C1075.02 78.7721 1068.13 80.4588 1061.97 83.8321C1055.96 87.2055 1051.19 92.0455 1047.67 98.3521C1044.3 104.512 1042.61 111.625 1042.61 119.692C1042.61 127.905 1044.3 135.165 1047.67 141.472C1051.19 147.632 1055.96 152.399 1061.97 155.772C1068.13 159.145 1075.02 160.832 1082.65 160.832C1089.25 160.832 1095.26 159.439 1100.69 156.652C1106.12 153.865 1110.66 149.685 1114.33 144.112L1130.39 154.232C1125.84 162.299 1119.39 168.532 1111.03 172.932C1102.82 177.185 1093.43 179.312 1082.87 179.312Z" fill="white"/>
<path d="M1250.4 120.352C1250.4 121.965 1250.25 124.092 1249.96 126.732H1155.36C1156.68 136.999 1161.15 145.285 1168.78 151.592C1176.55 157.752 1186.16 160.832 1197.6 160.832C1211.53 160.832 1222.75 156.139 1231.26 146.752L1242.92 160.392C1237.64 166.552 1231.04 171.245 1223.12 174.472C1215.34 177.699 1206.62 179.312 1196.94 179.312C1184.62 179.312 1173.69 176.819 1164.16 171.832C1154.62 166.699 1147.22 159.585 1141.94 150.492C1136.8 141.399 1134.24 131.132 1134.24 119.692C1134.24 108.399 1136.73 98.2055 1141.72 89.1121C1146.85 80.0188 1153.82 72.9788 1162.62 67.9921C1171.56 62.8588 1181.61 60.2921 1192.76 60.2921C1203.9 60.2921 1213.8 62.8588 1222.46 67.9921C1231.26 72.9788 1238.08 80.0188 1242.92 89.1121C1247.9 98.2055 1250.4 108.619 1250.4 120.352ZM1192.76 78.1121C1182.64 78.1121 1174.13 81.1921 1167.24 87.3521C1160.49 93.5121 1156.53 101.579 1155.36 111.552H1230.16C1228.98 101.725 1224.95 93.7321 1218.06 87.5721C1211.31 81.2655 1202.88 78.1121 1192.76 78.1121Z" fill="white"/>
<path d="M7.65137 112.901V7.84033H161.602V29.6846M125.195 67.1319H161.602V172.192H7.65137V150.348M33.6568 36.966H72.1441V102.499H137.677V144.107H33.6568V36.966Z" stroke="white" stroke-width="15"/>
</svg>
