<svg width="1140" height="302" viewBox="0 0 1140 302" fill="none" xmlns="http://www.w3.org/2000/svg">
<path d="M280.543 71.5613L227.849 18.8785C219.247 10.2632 207.58 5.42087 195.413 5.41637H99.5528C93.5249 5.39726 87.5537 6.57749 81.9851 8.88853C76.4172 11.1996 71.3632 14.5954 67.1171 18.8785L14.422 71.5613C10.1436 75.8115 6.75158 80.8711 4.4431 86.4459C2.13462 92.02 0.955699 97.9984 0.974839 104.033V199.999C0.95766 206.033 2.13748 212.011 4.44583 217.585C6.75425 223.159 10.1452 228.219 14.422 232.47L67.1171 285.224C71.3632 289.507 76.4172 292.903 81.9851 295.214C87.5537 297.525 93.5249 298.705 99.5528 298.686H195.413C207.58 298.682 219.247 293.839 227.849 285.224L280.543 232.47C284.808 228.213 288.186 223.15 290.481 217.577C292.778 212.003 293.946 206.028 293.92 199.999V104.033C293.934 91.8622 289.123 80.1837 280.543 71.5613ZM215.672 33.33L216.66 34.284L265.367 83.08L266.32 84.0694C266.775 84.5722 267.105 85.1761 267.283 85.8309C267.461 86.4856 267.483 87.1737 267.345 87.8383C267.207 88.5028 266.914 89.1256 266.491 89.6552C266.068 90.1854 265.526 90.608 264.908 90.8885L196.754 122.229C195.849 122.604 194.844 122.662 193.902 122.392C192.96 122.123 192.136 121.542 191.566 120.746C188.192 115.919 183.999 111.721 179.177 108.343C178.292 107.806 177.631 106.967 177.313 105.981C176.995 104.994 177.043 103.927 177.448 102.973L208.825 34.7434C209.109 34.1247 209.535 33.5816 210.068 33.1579C210.6 32.7342 211.225 32.4418 211.892 32.3042C212.558 32.1667 213.247 32.1879 213.904 32.3661C214.561 32.5442 215.166 32.8744 215.672 33.33ZM188.036 155.337C187.402 163.052 184.579 170.424 179.899 176.585C175.218 182.747 168.876 187.44 161.619 190.112C154.363 192.784 146.494 193.324 138.941 191.668C131.389 190.011 124.466 186.228 118.989 180.764C113.513 175.298 109.712 168.381 108.033 160.825C106.355 153.269 106.868 145.39 109.514 138.117C112.16 130.844 116.827 124.479 122.967 119.774C129.106 115.068 136.461 112.218 144.165 111.559C150.032 111.093 155.931 111.905 161.456 113.938C166.98 115.971 171.999 119.178 176.167 123.338C180.336 127.497 183.555 132.511 185.604 138.035C187.653 143.559 188.483 149.462 188.036 155.337ZM103.329 25.3446H191.884C192.609 25.3564 193.319 25.5485 193.952 25.9035C194.585 26.2585 195.119 26.7655 195.508 27.3786C195.897 27.9918 196.126 28.6919 196.178 29.4162C196.229 30.1405 196.1 30.8662 195.801 31.528L165.024 98.6617C164.583 99.5852 163.834 100.326 162.907 100.758C161.98 101.19 160.932 101.285 159.942 101.029C151.841 98.9213 143.336 98.9213 135.235 101.029C134.25 101.283 133.208 101.186 132.287 100.754C131.366 100.322 130.624 99.5826 130.189 98.6617L99.3763 31.528C99.0766 30.8635 98.9476 30.1347 99.0004 29.4076C99.0531 28.6805 99.2864 27.9781 99.6792 27.364C100.072 26.75 100.611 26.2437 101.249 25.891C101.886 25.5384 102.601 25.3506 103.329 25.3446ZM28.8223 84.0694C29.1096 83.7224 29.416 83.3924 29.7399 83.08L78.623 34.284L79.6112 33.33C80.1168 32.8744 80.7226 32.5442 81.3793 32.3661C82.0359 32.1879 82.7252 32.1667 83.3916 32.3042C84.058 32.4418 84.6828 32.7342 85.2157 33.1579C85.7479 33.5816 86.174 34.1247 86.4586 34.7434L117.447 102.973C117.868 103.9 117.95 104.945 117.679 105.927C117.408 106.909 116.801 107.764 115.965 108.343C111.143 111.721 106.95 115.919 103.576 120.746C102.998 121.583 102.143 122.19 101.163 122.461C100.182 122.733 99.1378 122.651 98.2115 122.229L30.234 90.8885C29.611 90.6139 29.0626 90.1945 28.6344 89.665C28.2063 89.1348 27.9108 88.5106 27.7727 87.8428C27.6346 87.1756 27.6577 86.485 27.8403 85.8289C28.0229 85.1722 28.3596 84.5689 28.8223 84.0694ZM20.8457 195.724V107.001C20.8457 105.855 21.2982 104.754 22.1047 103.94C22.9112 103.126 24.0064 102.664 25.1516 102.655C25.7874 102.656 26.4147 102.801 26.987 103.079L94.0467 133.889C94.9874 134.322 95.7444 135.074 96.1835 136.012C96.6232 136.949 96.7164 138.013 96.4467 139.013C94.394 147.13 94.394 155.63 96.4467 163.746C96.7079 164.733 96.6134 165.779 96.1815 166.703C95.749 167.627 95.0057 168.369 94.0819 168.8L27.0223 199.646C26.362 199.954 25.6347 200.091 24.9076 200.044C24.1805 199.997 23.4769 199.768 22.8616 199.377C22.2463 198.987 21.7392 198.447 21.3869 197.809C21.0346 197.17 20.8485 196.453 20.8457 195.724ZM78.623 270.313L77.6347 269.359L28.9281 220.598L27.9752 219.574C27.5284 219.065 27.2065 218.459 27.0352 217.804C26.8639 217.149 26.8479 216.463 26.9884 215.8C27.129 215.138 27.4223 214.517 27.8448 213.989C28.2674 213.46 28.8076 213.037 29.4223 212.755L97.5763 181.413C98.5033 181 99.5456 180.921 100.525 181.191C101.503 181.463 102.357 182.065 102.941 182.898C106.296 187.74 110.492 191.941 115.33 195.3C116.16 195.884 116.76 196.742 117.023 197.723C117.288 198.704 117.201 199.747 116.776 200.671L85.6821 268.899C85.4078 269.556 84.9766 270.135 84.4268 270.586C83.8769 271.037 83.2248 271.346 82.5278 271.485C81.8307 271.625 81.1102 271.591 80.4295 271.387C79.7487 271.182 79.1285 270.814 78.623 270.313ZM191.319 279.111H102.694C101.97 279.106 101.259 278.919 100.625 278.569C99.9919 278.218 99.4557 277.714 99.0668 277.102C98.6773 276.491 98.4466 275.793 98.3958 275.07C98.345 274.347 98.4759 273.622 98.7763 272.963L129.589 205.829C130.013 204.898 130.751 204.146 131.675 203.706C132.598 203.267 133.646 203.168 134.635 203.427C142.736 205.535 151.241 205.535 159.342 203.427C160.327 203.165 161.372 203.259 162.295 203.692C163.218 204.125 163.959 204.869 164.389 205.794L195.201 272.928C195.507 273.583 195.644 274.305 195.601 275.027C195.557 275.75 195.334 276.45 194.952 277.063C194.57 277.678 194.041 278.187 193.413 278.544C192.784 278.902 192.076 279.097 191.354 279.111H191.319ZM266.32 220.281L265.367 221.27L216.66 270.03L215.672 270.949C215.181 271.412 214.588 271.754 213.942 271.947C213.296 272.141 212.613 272.181 211.948 272.064C211.283 271.948 210.655 271.678 210.113 271.275C209.571 270.874 209.129 270.351 208.825 269.748L177.448 201.483C177.01 200.562 176.915 199.515 177.18 198.53C177.445 197.545 178.053 196.688 178.895 196.113C183.834 192.78 188.127 188.578 191.566 183.71C192.149 182.878 193.003 182.275 193.982 182.005C194.961 181.733 196.003 181.812 196.93 182.226L265.085 213.532C265.666 213.842 266.169 214.28 266.558 214.813C266.947 215.345 267.21 215.959 267.329 216.608C267.448 217.257 267.419 217.924 267.244 218.56C267.07 219.195 266.754 219.784 266.32 220.281ZM274.296 195.547C274.291 196.272 274.105 196.984 273.754 197.618C273.404 198.252 272.901 198.788 272.29 199.178C271.68 199.568 270.982 199.799 270.26 199.849C269.537 199.9 268.814 199.769 268.155 199.469L201.095 168.623C200.188 168.216 199.448 167.51 198.998 166.623C198.549 165.735 198.416 164.72 198.625 163.746C200.731 155.637 200.731 147.123 198.625 139.013C198.364 138.027 198.458 136.98 198.89 136.057C199.323 135.133 200.066 134.391 200.99 133.96L268.049 103.114C268.708 102.813 269.431 102.683 270.154 102.733C270.876 102.784 271.574 103.015 272.184 103.405C272.794 103.795 273.298 104.331 273.648 104.965C273.998 105.6 274.185 106.311 274.191 107.036L274.296 195.547Z" fill="white" stroke="white" stroke-width="0.887006"/>
<path d="M365.849 110.392H423.767C424.266 110.401 424.742 110.607 425.092 110.964C425.441 111.32 425.638 111.8 425.638 112.301V126.646C425.638 127.146 425.441 127.626 425.092 127.983C424.742 128.339 424.266 128.545 423.767 128.554H343.86C343.361 128.545 342.885 128.339 342.535 127.983C342.185 127.626 341.989 127.146 341.989 126.646V9.72684C341.989 9.22689 342.185 8.74682 342.535 8.39002C342.885 8.03315 343.361 7.82811 343.86 7.81885H362.072C362.578 7.81885 363.062 8.01985 363.419 8.37769C363.777 8.73548 363.978 9.22082 363.978 9.72684V108.661C364.021 109.13 364.236 109.566 364.582 109.886C364.927 110.205 365.378 110.386 365.849 110.392Z" fill="white" stroke="white" stroke-width="0.620904"/>
<path d="M457.69 94.3427C457.398 94.344 457.11 94.4119 456.849 94.5416C456.587 94.6714 456.359 94.8599 456.181 95.0921C456.004 95.3242 455.882 95.5942 455.825 95.8806C455.768 96.1675 455.779 96.4636 455.854 96.7453C459.137 109.254 467.89 115.508 481.796 115.508C486.007 115.437 490.138 114.338 493.828 112.305C497.519 110.273 500.657 107.37 502.973 103.847C503.191 103.521 503.504 103.268 503.87 103.123C504.236 102.977 504.636 102.947 505.019 103.035L519.138 106.568C519.415 106.634 519.674 106.761 519.895 106.941C520.116 107.121 520.292 107.35 520.411 107.609C520.531 107.867 520.589 108.151 520.582 108.436C520.575 108.721 520.504 109 520.373 109.254C513.314 123.387 498.949 131.514 481.549 131.514C457.408 131.514 439.689 119.324 436.513 94.3075C434.995 78.7252 438.207 66.0404 446.113 56.2886C454.019 46.5364 465.314 41.5544 479.608 41.5544C509.149 41.5544 523.691 61.1296 521.573 92.576C521.537 93.0482 521.325 93.489 520.977 93.8099C520.63 94.1314 520.175 94.3088 519.703 94.3075L457.69 94.3427ZM456.878 80.9158H501.561C501.825 80.9119 502.086 80.8539 502.327 80.7456C502.568 80.6367 502.784 80.4802 502.963 80.2852C503.141 80.0902 503.278 79.8606 503.365 79.6102C503.451 79.3604 503.486 79.0956 503.467 78.8315C503.07 72.6861 500.334 66.9274 495.824 62.7404C491.313 58.5532 485.37 56.2568 479.219 56.3239C466.867 56.3239 457.408 65.3341 455.008 78.6547C454.962 78.9293 454.976 79.2104 455.048 79.4797C455.12 79.7484 455.25 79.9982 455.427 80.2128C455.604 80.4273 455.826 80.6008 456.076 80.7221C456.327 80.8434 456.6 80.91 456.878 80.9158Z" fill="white" stroke="white" stroke-width="0.620904"/>
<path d="M658.726 77.4966V126.646C658.726 127.152 658.524 127.637 658.166 127.995C657.807 128.352 657.325 128.554 656.817 128.554H641.396C640.89 128.554 640.406 128.352 640.048 127.995C639.691 127.637 639.49 127.152 639.49 126.646V77.9205C639.278 66.5786 632.678 59.9708 621.561 59.9708C611.537 59.9708 605.784 66.7906 605.784 78.1325V126.646C605.784 127.152 605.583 127.637 605.225 127.995C604.868 128.352 604.383 128.554 603.878 128.554H588.454C587.955 128.544 587.479 128.339 587.129 127.983C586.779 127.626 586.583 127.146 586.583 126.646V77.8501C585.912 65.9421 580.371 59.9708 570.348 59.9708C558.595 59.9708 552.701 66.1541 552.701 78.3444V126.646C552.701 127.146 552.505 127.626 552.155 127.983C551.805 128.339 551.33 128.544 550.83 128.554H535.406C534.901 128.554 534.416 128.352 534.058 127.995C533.701 127.637 533.5 127.152 533.5 126.646V47.3215C533.51 46.8217 533.714 46.3454 534.071 45.9952C534.427 45.6449 534.906 45.4488 535.406 45.4488H550.83C551.326 45.4488 551.802 45.6461 552.152 45.9973C552.503 46.3485 552.701 46.8249 552.701 47.3215V50.2896C552.709 50.676 552.834 51.0509 553.059 51.3645C553.285 51.6782 553.6 51.9158 553.964 52.0461C554.328 52.1763 554.722 52.193 555.095 52.0938C555.468 51.9947 555.802 51.7844 556.053 51.4909C558.475 48.4262 561.568 45.9594 565.093 44.2808C568.617 42.6022 572.48 41.7567 576.383 41.8095C581.212 41.5933 586.009 42.6996 590.256 45.0094C594.504 47.3193 598.042 50.7451 600.489 54.9182C600.659 55.1808 600.892 55.3966 601.166 55.546C601.44 55.6955 601.748 55.7738 602.06 55.7738C602.372 55.7738 602.68 55.6955 602.954 55.546C603.229 55.3966 603.461 55.1808 603.631 54.9182C606.164 50.7951 609.733 47.4086 613.981 45.0962C618.229 42.7838 623.009 41.6262 627.842 41.7388C647.397 41.8095 658.726 55.0596 658.726 77.4966Z" fill="white" stroke="white" stroke-width="0.620904"/>
<path d="M713.115 131.557C686.888 131.557 670.445 114.244 670.445 86.6831C670.445 59.123 686.888 41.5975 713.115 41.5975C739.336 41.5975 755.825 59.2644 755.466 86.6831C755.114 114.102 739.375 131.557 713.115 131.557ZM737.467 86.6831C737.76 79.0409 735.499 71.5181 731.043 65.3062C728.861 62.721 726.099 60.6888 722.985 59.3746C719.871 58.0606 716.49 57.5022 713.115 57.745C709.702 57.5496 706.295 58.1427 703.148 59.4784C700.002 60.814 697.207 62.8566 694.972 65.4477C690.36 71.5801 688.093 79.1636 688.588 86.8246C688.588 105.41 697.129 115.657 713.291 115.657C729.454 115.657 737.467 105.269 737.467 86.6831Z" fill="white" stroke="white" stroke-width="0.620904"/>
<path d="M842.258 52.9037C849.085 60.4279 852.752 70.3004 852.492 80.4639V126.645C852.492 127.145 852.296 127.625 851.945 127.982C851.599 128.339 851.124 128.544 850.622 128.553H835.163C834.662 128.544 834.186 128.339 833.834 127.982C833.489 127.625 833.294 127.145 833.294 126.645V90.5341C833.294 69.7931 826.447 60.1827 811.301 60.1827C796.799 60.1827 788.682 71.0654 788.682 90.5341V126.645C788.682 127.151 788.48 127.636 788.122 127.994C787.764 128.352 787.282 128.553 786.774 128.553H771.347C770.852 128.544 770.377 128.339 770.025 127.982C769.673 127.625 769.478 127.145 769.478 126.645V47.321C769.478 46.8243 769.679 46.348 770.025 45.9968C770.377 45.6456 770.852 45.4483 771.347 45.4483H786.774C787.275 45.4482 787.751 45.6444 788.109 45.9946C788.467 46.3448 788.669 46.8211 788.682 47.321V53.4337C788.617 53.875 788.708 54.3246 788.949 54.7016C789.184 55.0786 789.549 55.3582 789.979 55.4903C790.402 55.6223 790.858 55.598 791.269 55.4218C791.679 55.2456 792.011 54.929 792.207 54.529C794.91 50.5276 798.571 47.2674 802.858 45.0455C807.144 42.8237 811.913 41.7111 816.74 41.8089C821.541 41.7058 826.304 42.6439 830.714 44.5591C835.118 46.4742 839.052 49.3209 842.258 52.9037Z" fill="white" stroke="white" stroke-width="0.620904"/>
<path d="M947.467 83.2541V126.644C947.467 126.894 947.422 127.143 947.324 127.374C947.226 127.606 947.09 127.816 946.914 127.993C946.738 128.17 946.523 128.311 946.295 128.407C946.06 128.502 945.813 128.552 945.565 128.552H930.139C929.644 128.543 929.168 128.337 928.816 127.981C928.465 127.624 928.269 127.144 928.269 126.644V117.811C928.276 117.425 928.171 117.046 927.956 116.726C927.741 116.406 927.435 116.159 927.077 116.02C926.719 115.881 926.321 115.856 925.95 115.949C925.579 116.041 925.24 116.247 924.986 116.538C920.536 121.164 915.208 124.86 909.318 127.413C903.436 129.967 897.097 131.326 890.68 131.414C887.052 131.537 883.436 130.875 880.088 129.473C876.739 128.07 873.73 125.96 871.267 123.287C866.746 118.404 864.225 111.996 864.212 105.338C864.212 88.8719 877.234 78.8376 892.798 78.8376H926.152C926.419 78.8395 926.686 78.7847 926.927 78.6752C927.175 78.5663 927.39 78.4058 927.572 78.2043C927.748 78.0034 927.878 77.7667 927.956 77.5104C928.035 77.2534 928.061 76.9834 928.022 76.7173C926.79 66.4 920.647 56.8245 906.459 56.8245C892.27 56.8245 885.527 65.7993 884.042 69.4385C883.86 69.8519 883.534 70.1878 883.13 70.388C882.726 70.5876 882.264 70.6398 881.821 70.5341L869.717 67.3541C869.463 67.2902 869.228 67.1741 869.02 67.0143C868.818 66.8539 868.648 66.653 868.525 66.4235C868.401 66.1939 868.329 65.9415 868.31 65.6819C868.29 65.4224 868.323 65.1615 868.407 64.9156C873.176 50.4644 888.068 41.4543 906.244 41.4543C931.696 41.5957 947.467 57.3898 947.467 83.2541ZM917.572 107.988C920.139 106.454 922.36 104.407 924.093 101.975C925.833 99.5427 927.051 96.7782 927.67 93.8545C927.709 93.5838 927.689 93.308 927.618 93.0458C927.539 92.783 927.409 92.5397 927.233 92.3317C927.057 92.1243 926.836 91.9567 926.588 91.8412C926.341 91.7264 926.074 91.6658 925.8 91.6638H910.765C894.635 91.6638 886.518 92.7236 883.482 103.677C883.482 103.677 883.482 103.889 883.482 104.03C882.707 110.532 885.951 115.16 895.905 115.372C903.703 115.208 911.266 112.655 917.572 108.058V107.988Z" fill="white" stroke="white" stroke-width="0.620904"/>
<path d="M1026.64 1.2063H1042.16C1042.66 1.21556 1043.14 1.42067 1043.49 1.77747C1043.84 2.13434 1044.04 2.61434 1044.04 3.11429V126.782C1043.97 127.232 1043.75 127.643 1043.4 127.94C1043.06 128.238 1042.62 128.404 1042.16 128.407H1026.64C1026.38 128.407 1026.14 128.358 1025.91 128.262C1025.67 128.167 1025.47 128.026 1025.29 127.849C1025.11 127.672 1024.97 127.461 1024.87 127.229C1024.78 126.998 1024.73 126.75 1024.73 126.5V121.73C1024.72 121.353 1024.6 120.987 1024.38 120.679C1024.17 120.371 1023.86 120.133 1023.51 119.998C1023.16 119.861 1022.78 119.833 1022.41 119.914C1022.05 119.996 1021.71 120.185 1021.45 120.457C1018.42 123.926 1014.7 126.71 1010.52 128.624C1006.34 130.537 1001.8 131.535 997.2 131.552C974.79 131.552 959.227 117.419 959.227 86.6787C959.227 55.9382 974.79 41.5927 997.2 41.5927C1001.79 41.6031 1006.33 42.5951 1010.52 44.5022C1014.7 46.4094 1018.42 49.1879 1021.45 52.6522C1021.7 52.9431 1022.03 53.149 1022.41 53.2417C1022.78 53.3345 1023.18 53.3097 1023.54 53.1706C1023.9 53.0315 1024.2 52.7849 1024.42 52.4645C1024.63 52.144 1024.74 51.7654 1024.73 51.3801V3.11429C1024.73 2.86373 1024.78 2.61564 1024.87 2.38412C1024.97 2.15267 1025.11 1.94234 1025.29 1.76515C1025.47 1.58795 1025.67 1.44741 1025.91 1.35154C1026.14 1.25567 1026.38 1.2063 1026.64 1.2063ZM1000.63 58.2702C997.506 58.2022 994.411 58.7969 991.539 60.0153C988.666 61.2329 986.086 63.0472 983.962 65.337C979.48 70.0365 977.363 77.1028 977.363 86.7139C977.363 96.3243 979.48 103.356 983.754 107.914C985.949 110.143 988.581 111.897 991.486 113.069C994.385 114.242 997.499 114.809 1000.63 114.733C1014.28 114.733 1023.46 105.547 1023.46 86.4667C1023.46 67.3861 1014.28 58.2702 1000.63 58.2702Z" fill="white" stroke="white" stroke-width="0.620904"/>
<path d="M1074.92 94.3427C1074.63 94.344 1074.34 94.4119 1074.08 94.5416C1073.82 94.6714 1073.59 94.8599 1073.41 95.0921C1073.23 95.3242 1073.11 95.5942 1073.05 95.8806C1073 96.1675 1073.01 96.4636 1073.08 96.7453C1076.36 109.254 1085.12 115.508 1098.99 115.508C1103.2 115.431 1107.33 114.329 1111.02 112.298C1114.71 110.266 1117.85 107.366 1120.17 103.847C1120.38 103.521 1120.7 103.268 1121.07 103.123C1121.43 102.977 1121.83 102.947 1122.21 103.035L1136.33 106.568C1136.6 106.639 1136.86 106.77 1137.08 106.952C1137.29 107.133 1137.47 107.361 1137.59 107.618C1137.71 107.875 1137.76 108.155 1137.76 108.438C1137.76 108.721 1137.69 109 1137.57 109.254C1130.51 123.387 1116.14 131.514 1098.74 131.514C1074.64 131.514 1056.92 119.324 1053.71 94.3075C1052.22 78.7252 1055.44 66.0404 1063.31 56.2886C1071.18 46.5364 1082.54 41.5544 1096.84 41.5544C1126.38 41.5544 1140.92 61.1296 1138.8 92.576C1138.76 93.0508 1138.54 93.4923 1138.19 93.8125C1137.84 94.1334 1137.37 94.3095 1136.9 94.3075L1074.92 94.3427ZM1074.11 80.9158H1118.79C1119.05 80.9126 1119.31 80.8545 1119.55 80.7456C1119.79 80.6367 1120.01 80.4789 1120.18 80.2832C1120.36 80.0876 1120.49 79.8573 1120.57 79.6076C1120.66 79.3578 1120.68 79.0937 1120.66 78.8315C1120.27 72.6893 1117.54 66.9306 1113.04 62.7424C1108.53 58.5548 1102.6 56.2573 1096.45 56.3239C1084.1 56.3239 1074.64 65.3341 1072.23 78.6547C1072.18 78.93 1072.2 79.2136 1072.27 79.485C1072.33 79.7563 1072.46 80.0093 1072.64 80.2252C1072.82 80.441 1073.04 80.6145 1073.3 80.7345C1073.55 80.8539 1073.83 80.9158 1074.11 80.9158Z" fill="white" stroke="white" stroke-width="0.620904"/>
<path d="M425.886 195.543H365.215C364.718 195.543 364.243 195.74 363.891 196.091C363.541 196.443 363.344 196.919 363.344 197.416V226.778C363.344 227.274 363.541 227.751 363.891 228.102C364.243 228.453 364.718 228.65 365.215 228.65H418.65C419.149 228.66 419.626 228.865 419.975 229.221C420.325 229.578 420.521 230.058 420.521 230.558V245.01C420.521 245.506 420.324 245.983 419.973 246.334C419.622 246.685 419.147 246.882 418.65 246.882H365.215C364.715 246.892 364.239 247.097 363.889 247.453C363.54 247.81 363.344 248.29 363.344 248.79V296.314C363.344 296.563 363.294 296.81 363.198 297.039C363.102 297.269 362.961 297.477 362.783 297.651C362.606 297.825 362.396 297.963 362.164 298.055C361.934 298.147 361.686 298.192 361.438 298.187H343.79C343.294 298.187 342.819 297.99 342.468 297.639C342.117 297.287 341.92 296.811 341.92 296.314V179.36C341.92 178.863 342.117 178.387 342.468 178.036C342.819 177.684 343.294 177.487 343.79 177.487H425.815C426.315 177.487 426.794 177.683 427.151 178.034C427.507 178.384 427.712 178.86 427.721 179.36V193.741C427.695 194.216 427.492 194.665 427.153 194.998C426.813 195.331 426.361 195.526 425.886 195.543Z" fill="white" stroke="white" stroke-width="0.620904"/>
<path d="M451.686 196.707C448.987 196.587 446.443 195.408 444.607 193.423C442.77 191.439 441.788 188.811 441.875 186.107V185.259C441.764 183.889 441.933 182.51 442.373 181.208C442.813 179.905 443.513 178.706 444.432 177.684C445.35 176.662 446.467 175.838 447.715 175.264C448.962 174.688 450.314 174.375 451.686 174.341H453.169C454.559 174.348 455.933 174.638 457.208 175.195C458.482 175.751 459.629 176.561 460.581 177.577C461.532 178.592 462.266 179.79 462.74 181.099C463.213 182.408 463.416 183.799 463.334 185.188V186.036C463.376 187.392 463.15 188.743 462.668 190.012C462.186 191.28 461.459 192.44 460.527 193.425C459.595 194.411 458.478 195.202 457.239 195.753C456 196.304 454.665 196.604 453.31 196.636L451.686 196.707ZM442.157 296.313V216.988C442.157 216.488 442.353 216.008 442.703 215.651C443.053 215.295 443.528 215.09 444.028 215.08H460.545C461.045 215.09 461.521 215.295 461.87 215.651C462.22 216.008 462.416 216.488 462.416 216.988V296.313C462.416 296.559 462.368 296.802 462.274 297.029C462.18 297.256 462.042 297.463 461.868 297.637C461.694 297.811 461.489 297.948 461.261 298.043C461.035 298.137 460.791 298.185 460.545 298.185H444.028C443.531 298.185 443.056 297.988 442.705 297.637C442.354 297.286 442.157 296.809 442.157 296.313Z" fill="white" stroke="white" stroke-width="0.620904"/>
<path d="M554.572 222.573C561.415 230.089 565.084 239.967 564.808 250.133V296.315C564.808 296.563 564.758 296.81 564.662 297.039C564.566 297.269 564.425 297.477 564.247 297.652C564.07 297.826 563.859 297.963 563.628 298.055C563.398 298.147 563.151 298.192 562.902 298.187H547.478C546.982 298.187 546.506 297.99 546.156 297.639C545.805 297.288 545.607 296.811 545.607 296.315V260.168C545.607 239.463 538.76 229.817 523.619 229.817C509.113 229.817 500.995 240.735 500.995 260.168V296.315C500.995 296.563 500.946 296.81 500.849 297.039C500.753 297.269 500.612 297.477 500.435 297.652C500.258 297.826 500.047 297.963 499.816 298.055C499.585 298.147 499.338 298.192 499.089 298.187H483.665C483.169 298.187 482.694 297.99 482.343 297.639C481.992 297.288 481.795 296.811 481.795 296.315V216.991C481.795 216.49 481.991 216.01 482.341 215.654C482.691 215.297 483.166 215.092 483.665 215.082H499.089C499.594 215.082 500.079 215.284 500.437 215.641C500.794 215.999 500.995 216.485 500.995 216.991V223.068C500.931 223.509 501.027 223.959 501.265 224.336C501.503 224.713 501.867 224.993 502.293 225.125C502.718 225.257 503.177 225.232 503.586 225.056C503.995 224.88 504.328 224.564 504.525 224.163C507.244 220.137 510.933 216.86 515.251 214.637C519.569 212.414 524.377 211.315 529.231 211.443C534.005 211.366 538.741 212.319 543.115 214.24C547.488 216.161 551.396 219.003 554.572 222.573Z" fill="white" stroke="white" stroke-width="0.620904"/>
<path d="M659.781 252.923V296.313C659.781 296.562 659.736 296.808 659.638 297.038C659.54 297.267 659.403 297.475 659.221 297.65C659.045 297.824 658.837 297.961 658.602 298.053C658.374 298.145 658.126 298.19 657.879 298.185H642.455C642.208 298.19 641.962 298.145 641.733 298.053C641.504 297.96 641.296 297.822 641.121 297.648C640.946 297.473 640.809 297.264 640.716 297.035C640.624 296.806 640.579 296.56 640.584 296.313V287.585C640.574 287.208 640.454 286.842 640.238 286.535C640.021 286.226 639.718 285.989 639.367 285.853C639.016 285.717 638.632 285.688 638.264 285.77C637.897 285.852 637.561 286.041 637.302 286.313C632.848 290.939 627.524 294.635 621.635 297.188C615.747 299.741 609.412 301.101 602.995 301.189C599.364 301.324 595.747 300.667 592.396 299.264C589.044 297.86 586.037 295.745 583.583 293.062C579.058 288.181 576.537 281.772 576.524 275.113C576.524 258.682 589.548 248.647 605.148 248.647H638.502C638.767 248.644 639.03 248.585 639.272 248.474C639.514 248.363 639.73 248.203 639.906 248.003C640.083 247.803 640.215 247.569 640.296 247.314C640.376 247.061 640.402 246.793 640.372 246.527C639.137 236.175 632.995 226.635 618.807 226.635C604.619 226.635 597.877 235.609 596.395 239.214C596.222 239.636 595.9 239.981 595.49 240.183C595.081 240.384 594.612 240.429 594.172 240.309L582.066 237.164C581.816 237.095 581.582 236.977 581.379 236.816C581.175 236.655 581.006 236.456 580.881 236.228C580.756 236.001 580.678 235.751 580.651 235.493C580.624 235.235 580.649 234.974 580.724 234.726C585.524 220.239 600.383 211.229 618.595 211.229C643.972 211.229 659.781 227.059 659.781 252.923ZM629.889 277.657C632.451 276.121 634.67 274.074 636.406 271.642C638.143 269.21 639.361 266.446 639.984 263.523C640.03 263.25 640.016 262.97 639.943 262.704C639.871 262.436 639.741 262.188 639.563 261.976C639.385 261.765 639.163 261.594 638.913 261.477C638.662 261.36 638.39 261.298 638.113 261.297H623.078C606.913 261.297 598.83 262.357 595.795 273.311C595.779 273.428 595.779 273.547 595.795 273.664C595.018 280.201 598.265 284.829 608.184 285.041C615.999 284.869 623.574 282.304 629.889 277.692V277.657Z" fill="white" stroke="white" stroke-width="0.620904"/>
<path d="M749.64 222.573C756.487 230.089 760.155 239.967 759.874 250.133V296.315C759.874 296.563 759.829 296.81 759.731 297.039C759.633 297.269 759.497 297.477 759.314 297.651C759.138 297.826 758.93 297.963 758.695 298.055C758.467 298.147 758.22 298.192 757.972 298.187H742.546C742.051 298.187 741.575 297.99 741.223 297.639C740.872 297.288 740.676 296.811 740.676 296.315V260.168C740.676 239.462 733.829 229.817 718.69 229.817C704.182 229.817 696.065 240.735 696.065 260.168V296.315C696.065 296.563 696.013 296.81 695.922 297.039C695.824 297.269 695.68 297.477 695.505 297.651C695.329 297.826 695.114 297.963 694.886 298.055C694.651 298.147 694.41 298.192 694.156 298.187H678.632C678.384 298.193 678.137 298.147 677.909 298.055C677.681 297.962 677.472 297.825 677.297 297.65C677.121 297.474 676.984 297.266 676.893 297.037C676.801 296.807 676.756 296.562 676.756 296.315V216.991C676.756 216.741 676.801 216.494 676.893 216.263C676.984 216.032 677.121 215.821 677.297 215.643C677.466 215.466 677.674 215.325 677.902 215.228C678.137 215.132 678.378 215.082 678.632 215.082H694.052C694.56 215.082 695.042 215.284 695.4 215.641C695.759 215.999 695.961 216.485 695.961 216.991V223.068C695.895 223.509 695.993 223.959 696.228 224.336C696.469 224.713 696.834 224.993 697.257 225.125C697.68 225.256 698.143 225.232 698.547 225.056C698.957 224.88 699.29 224.564 699.485 224.163C702.208 220.137 705.895 216.86 710.214 214.637C714.534 212.414 719.341 211.315 724.194 211.443C728.989 211.35 733.745 212.296 738.136 214.218C742.526 216.139 746.455 218.99 749.64 222.573Z" fill="white" stroke="white" stroke-width="0.620904"/>
<path d="M771.595 256.315C771.595 225.787 788.891 211.229 814.304 211.229C833.326 211.229 846.245 218.685 852.948 233.807C853.059 234.056 853.104 234.325 853.098 234.596C853.091 234.866 853.033 235.132 852.915 235.376C852.798 235.62 852.629 235.836 852.42 236.01C852.218 236.184 851.977 236.313 851.717 236.387L838.623 239.92C838.212 240.026 837.789 239.996 837.398 239.837C837.007 239.678 836.681 239.397 836.466 239.037C834.44 235.481 831.483 232.548 827.913 230.555C824.343 228.562 820.297 227.585 816.206 227.73C798.917 227.73 790.161 237.129 790.161 255.997C790.161 274.865 798.493 284.264 815.359 284.264C825.6 284.264 833.502 278.928 835.411 274.865L836.434 273.028C836.636 272.651 836.955 272.351 837.346 272.178C837.737 272.005 838.173 271.968 838.583 272.073L851.717 275.607C851.977 275.68 852.225 275.809 852.433 275.986C852.648 276.162 852.818 276.382 852.935 276.631C853.052 276.879 853.111 277.15 853.117 277.424C853.117 277.699 853.065 277.971 852.948 278.222C846.245 293.309 833.326 300.764 814.304 300.764C788.891 301.189 771.595 286.878 771.595 256.315Z" fill="white" stroke="white" stroke-width="0.620904"/>
<path d="M884.115 264.018C883.828 264.021 883.548 264.088 883.287 264.216C883.027 264.344 882.805 264.529 882.623 264.756C882.447 264.984 882.33 265.249 882.265 265.531C882.206 265.813 882.212 266.106 882.284 266.385C885.567 278.893 894.316 285.183 908.186 285.183C912.401 285.106 916.524 284.005 920.218 281.973C923.905 279.941 927.045 277.041 929.364 273.523C929.573 273.184 929.886 272.922 930.25 272.775C930.622 272.629 931.026 272.606 931.41 272.71L945.527 276.244C945.8 276.315 946.061 276.445 946.276 276.627C946.491 276.808 946.667 277.036 946.784 277.293C946.901 277.55 946.96 277.83 946.96 278.113C946.954 278.396 946.888 278.675 946.765 278.929C939.703 293.063 925.338 301.154 907.938 301.154C883.834 301.154 866.115 288.964 862.903 263.983C861.425 248.401 864.636 235.716 872.538 225.964C880.447 216.212 891.743 211.194 906.036 211.194C935.579 211.194 950.12 230.769 948.002 262.216C947.963 262.697 947.748 263.147 947.397 263.475C947.038 263.803 946.576 263.984 946.094 263.983L884.115 264.018ZM883.339 250.556H928.022C928.283 250.557 928.544 250.504 928.785 250.399C929.019 250.294 929.234 250.14 929.41 249.947C929.586 249.754 929.723 249.526 929.807 249.278C929.885 249.03 929.918 248.767 929.892 248.507C929.514 242.361 926.791 236.597 922.283 232.408C917.775 228.218 911.834 225.924 905.684 225.999C893.326 225.999 883.867 235.009 881.47 248.33C881.418 248.604 881.424 248.886 881.496 249.156C881.567 249.425 881.698 249.676 881.874 249.889C882.056 250.103 882.278 250.273 882.532 250.388C882.786 250.504 883.059 250.561 883.339 250.556Z" fill="white" stroke="white" stroke-width="0.620904"/>
</svg>
