<svg width="1324" height="326" viewBox="0 0 1324 326" fill="none" xmlns="http://www.w3.org/2000/svg">
<path fill-rule="evenodd" clip-rule="evenodd" d="M245.872 0.941139C244.097 1.39237 234.655 4.25924 224.892 7.31202C191.219 17.8396 0.848354 76.8313 0.545594 76.8313C0.379044 76.8313 0.242188 124.862 0.242188 183.566V290.301L2.23627 294.291C3.57578 296.971 5.19803 299.021 7.17598 300.531C13.0395 305.008 3.44667 304.708 140.971 304.708C278.495 304.708 268.902 305.008 274.766 300.531C276.744 299.021 278.366 296.971 279.705 294.291L281.699 290.301L281.685 190.828C281.671 92.2205 281.659 91.3309 280.359 88.4511C277.809 82.8065 272.684 78.8054 266.228 77.4214L262.979 76.7242V42.0139V7.30362L261.521 5.11006C258.563 0.659037 252.91 -0.846373 245.872 0.941139ZM243.612 49.0729V76.8313L154.043 76.7861C76.002 76.7474 64.8476 76.6241 67.3788 75.8314C94.826 67.2366 242.777 21.3687 243.128 21.3455C243.395 21.3287 243.612 33.8058 243.612 49.0729ZM258.267 98.1085C262.433 100.648 262.333 99.6875 262.333 137.48V171.726H237.954C210.158 171.726 210.397 171.685 207.608 176.958C206.113 179.786 206.108 179.867 206.301 201.214C206.485 221.68 206.553 222.711 207.825 224.414C208.557 225.394 209.958 226.794 210.938 227.526C212.654 228.809 213.628 228.863 237.548 229.04L262.376 229.224L262.193 254.65L262.01 280.075L260.397 281.823C256.949 285.558 264.277 285.342 140.971 285.342C16.6435 285.342 24.8006 285.604 21.3534 281.507L19.6085 279.433V188.138V96.8432L137.905 96.8458C254.093 96.8477 256.237 96.8703 258.267 98.1085ZM262.333 200.13V209.168H243.935H225.537V200.13V191.093H243.935H262.333V200.13Z" fill="white"/>
<path d="M409.247 266.73V89.2302H443.747V236.48H534.247V266.73H409.247ZM604.267 269.23C590.1 269.23 577.85 266.147 567.517 259.98C557.35 253.814 549.433 245.647 543.767 235.48C538.1 225.147 535.267 213.98 535.267 201.98C535.267 189.647 538.017 178.314 543.517 167.98C549.183 157.48 557.183 149.147 567.517 142.98C577.85 136.647 590.183 133.48 604.517 133.48C618.85 133.48 631.1 136.647 641.267 142.98C651.433 149.147 659.183 157.397 664.517 167.73C670.017 177.897 672.767 188.897 672.767 200.73C672.767 205.064 672.517 208.814 672.017 211.98H570.767C571.6 222.147 575.35 230.147 582.017 235.98C588.85 241.814 596.683 244.73 605.517 244.73C612.183 244.73 618.433 243.147 624.267 239.98C630.267 236.647 634.35 232.314 636.517 226.98L665.267 234.98C660.433 244.98 652.683 253.23 642.017 259.73C631.35 266.064 618.767 269.23 604.267 269.23ZM570.017 190.73H638.517C637.517 180.897 633.767 172.98 627.267 166.98C620.933 160.814 613.183 157.73 604.017 157.73C595.017 157.73 587.267 160.814 580.767 166.98C574.433 172.98 570.85 180.897 570.017 190.73ZM807.425 266.73H773.925V193.23C773.925 182.73 772.091 175.064 768.425 170.23C764.758 165.397 759.675 162.98 753.175 162.98C748.675 162.98 744.091 164.147 739.425 166.48C734.925 168.814 730.841 172.064 727.175 176.23C723.508 180.23 720.841 184.897 719.175 190.23V266.73H685.675V135.73H715.925V159.98C720.758 151.814 727.758 145.397 736.925 140.73C746.091 135.897 756.425 133.48 767.925 133.48C776.091 133.48 782.758 134.98 787.925 137.98C793.091 140.814 797.091 144.73 799.925 149.73C802.758 154.564 804.675 160.064 805.675 166.23C806.841 172.397 807.425 178.647 807.425 184.98V266.73ZM821.054 201.23C821.054 188.73 823.554 177.314 828.554 166.98C833.554 156.647 840.47 148.48 849.304 142.48C858.137 136.48 868.22 133.48 879.554 133.48C889.22 133.48 897.887 135.897 905.554 140.73C913.387 145.397 919.47 151.397 923.804 158.73V84.2302H957.304V229.23C957.304 232.897 957.887 235.48 959.054 236.98C960.22 238.314 962.22 239.147 965.054 239.48V266.73C959.054 267.897 954.304 268.48 950.804 268.48C944.804 268.48 939.804 266.98 935.804 263.98C931.97 260.98 929.804 257.064 929.304 252.23L928.804 243.98C923.97 252.147 917.387 258.397 909.054 262.73C900.887 267.064 892.304 269.23 883.304 269.23C871.137 269.23 860.387 266.23 851.054 260.23C841.72 254.064 834.387 245.897 829.054 235.73C823.72 225.397 821.054 213.897 821.054 201.23ZM923.804 218.73V187.48C921.137 180.147 916.554 174.064 910.054 169.23C903.554 164.397 896.887 161.98 890.054 161.98C883.22 161.98 877.22 163.897 872.054 167.73C866.887 171.397 862.887 176.314 860.054 182.48C857.22 188.48 855.804 194.98 855.804 201.98C855.804 209.147 857.387 215.73 860.554 221.73C863.72 227.564 867.97 232.23 873.304 235.73C878.804 239.064 885.054 240.73 892.054 240.73C898.387 240.73 904.637 238.647 910.804 234.48C917.137 230.314 921.47 225.064 923.804 218.73ZM1130.2 266.73V150.23L1084.7 236.98H1065.45L1019.95 150.23V266.73H985.448V89.2302H1022.45L1074.95 190.23L1127.95 89.2302H1164.7V266.73H1130.2ZM1249.56 269.23C1235.39 269.23 1223.14 266.147 1212.81 259.98C1202.64 253.814 1194.73 245.647 1189.06 235.48C1183.39 225.147 1180.56 213.98 1180.56 201.98C1180.56 189.647 1183.31 178.314 1188.81 167.98C1194.48 157.48 1202.48 149.147 1212.81 142.98C1223.14 136.647 1235.48 133.48 1249.81 133.48C1264.14 133.48 1276.39 136.647 1286.56 142.98C1296.73 149.147 1304.48 157.397 1309.81 167.73C1315.31 177.897 1318.06 188.897 1318.06 200.73C1318.06 205.064 1317.81 208.814 1317.31 211.98H1216.06C1216.89 222.147 1220.64 230.147 1227.31 235.98C1234.14 241.814 1241.98 244.73 1250.81 244.73C1257.48 244.73 1263.73 243.147 1269.56 239.98C1275.56 236.647 1279.64 232.314 1281.81 226.98L1310.56 234.98C1305.73 244.98 1297.98 253.23 1287.31 259.73C1276.64 266.064 1264.06 269.23 1249.56 269.23ZM1215.31 190.73H1283.81C1282.81 180.897 1279.06 172.98 1272.56 166.98C1266.23 160.814 1258.48 157.73 1249.31 157.73C1240.31 157.73 1232.56 160.814 1226.06 166.98C1219.73 172.98 1216.14 180.897 1215.31 190.73Z" fill="white"/>
</svg>
