<svg width="696" height="301" viewBox="0 0 696 301" fill="none" xmlns="http://www.w3.org/2000/svg">
<path d="M325.082 86.0225H274.806V228.492H325.082V86.0225Z" fill="white"/>
<path d="M459.408 101.012C454.125 94.9628 447.585 90.1389 440.244 86.8767C432.904 83.6145 424.94 81.9926 416.908 82.1241C407.229 82.0245 397.637 83.9649 388.758 87.819C379.88 91.6731 371.913 97.3543 365.378 104.492C358.863 111.63 353.731 119.915 350.244 128.926C346.468 138.611 344.577 148.928 344.673 159.322C344.541 169.327 346.289 179.268 349.826 188.629C352.99 197.048 357.873 204.718 364.162 211.149C370.452 217.581 378.012 222.634 386.361 225.986C395.27 229.568 404.799 231.358 414.401 231.254C418.684 231.281 422.961 230.955 427.191 230.279C431.009 229.65 434.741 228.576 438.309 227.077C441.966 225.538 445.458 223.634 448.731 221.392C452.537 218.781 456.116 215.855 459.432 212.644V226.265C459.432 236.799 456.608 245.036 450.959 250.977C445.311 256.917 437.21 259.879 426.657 259.864C414.277 259.864 406.316 255.138 402.772 245.686H346.066C347.526 253.396 350.551 260.724 354.956 267.219C359.566 273.941 365.353 279.774 372.04 284.436C379.467 289.594 387.682 293.512 396.365 296.038C415.315 301.306 435.305 301.585 454.395 296.85C462.318 294.842 469.932 291.767 477.026 287.708C483.367 284.065 489.094 279.445 493.994 274.018C498.535 269.049 502.074 263.25 504.416 256.94C506.232 251.52 507.537 245.942 508.316 240.28C509.287 233.191 509.752 226.041 509.708 218.886V86.0687H459.408V101.012ZM459.269 169.462C457.589 173.323 455.231 176.852 452.306 179.881C449.392 182.882 445.892 185.252 442.023 186.842C438.025 188.517 433.73 189.369 429.396 189.348C424.962 189.387 420.565 188.535 416.467 186.842C412.601 185.246 409.102 182.877 406.184 179.881C403.288 176.861 400.981 173.328 399.383 169.462C397.689 165.374 396.837 160.986 396.876 156.561C396.85 152.258 397.753 148 399.522 144.078C401.189 140.292 403.551 136.853 406.486 133.938C409.492 131.049 412.97 128.695 416.769 126.977C420.7 125.205 424.967 124.302 429.28 124.331C433.523 124.329 437.722 125.181 441.628 126.837C445.521 128.46 449.061 130.824 452.05 133.798C454.975 136.775 457.335 140.258 459.014 144.078C460.775 148.102 461.685 152.447 461.685 156.84C461.685 161.232 460.775 165.577 459.014 169.602L459.269 169.462Z" fill="white"/>
<path d="M689.112 126.42C684.932 117.195 678.822 108.974 671.193 102.311C663.196 95.368 653.958 89.9988 643.965 86.4865C633.046 82.6011 621.527 80.6689 609.937 80.7784C598.243 80.6548 586.622 82.6354 575.63 86.6257C565.683 90.1883 556.494 95.5878 548.542 102.543C541.033 109.192 534.98 117.321 530.762 126.42C526.489 135.694 524.31 145.794 524.379 156.004C524.236 166.933 526.411 177.767 530.762 187.793C534.876 197.117 540.883 205.485 548.403 212.366C556.183 219.391 565.301 224.774 575.212 228.191C586.102 231.991 597.568 233.875 609.101 233.76C620.862 233.867 632.555 231.984 643.687 228.191C653.756 224.835 663.052 219.502 671.03 212.505C678.61 205.778 684.711 197.554 688.95 188.35C693.385 178.633 695.612 168.054 695.472 157.373C695.617 146.717 693.447 136.156 689.112 126.42ZM639.811 169.741C638.122 173.597 635.764 177.124 632.847 180.159C629.93 183.156 626.43 185.524 622.564 187.12C614.47 190.461 605.381 190.461 597.287 187.12C593.418 185.53 589.917 183.161 587.004 180.159C584.079 177.13 581.721 173.602 580.04 169.741C578.239 165.583 577.337 161.092 577.394 156.561C577.368 152.258 578.271 148 580.04 144.078C581.745 140.272 584.102 136.793 587.004 133.799C589.924 130.805 593.422 128.436 597.287 126.838C605.381 123.497 614.47 123.497 622.564 126.838C626.426 128.442 629.923 130.81 632.847 133.799C635.759 136.838 638.116 140.364 639.811 144.217C641.575 148.199 642.476 152.508 642.457 156.863C642.495 161.302 641.593 165.698 639.811 169.764V169.741Z" fill="white"/>
<path d="M175.39 79.7343C158.371 79.4949 141.785 85.106 128.41 95.6287C127.413 96.4002 126.188 96.8188 124.928 96.8188C123.667 96.8188 122.443 96.4002 121.446 95.6287C108.045 85.0859 91.4238 79.4735 74.3727 79.7343C33.2415 80.3376 0.745117 114.818 0.745117 155.842V228.469H51.0217V155.053C50.9645 148.919 53.1812 142.98 57.2444 138.383C61.3076 133.786 66.9296 130.855 73.0264 130.156C79.4521 129.534 85.8619 131.487 90.849 135.585C95.836 139.683 98.993 145.591 99.6271 152.013C99.6271 152.787 99.6271 153.56 99.6271 154.334V228.469H150.02V155.053C149.956 148.924 152.164 142.989 156.219 138.392C160.274 133.795 165.888 130.861 171.978 130.156C178.405 129.535 184.815 131.491 189.799 135.595C194.783 139.698 197.933 145.612 198.555 152.037C198.555 152.81 198.555 153.584 198.555 154.357V228.469H248.832V155.842C248.925 114.818 216.428 80.3376 175.39 79.7343Z" fill="white"/>
<path d="M55.5939 0.54051L97.375 24.649C97.7323 24.8514 98.0294 25.1449 98.2361 25.4995C98.4428 25.8542 98.5518 26.2573 98.5518 26.6677C98.5518 27.0782 98.4428 27.4813 98.2361 27.836C98.0294 28.1906 97.7323 28.4841 97.375 28.6865L55.5939 52.795C55.2398 53.0049 54.8363 53.1169 54.4246 53.1194C54.0129 53.122 53.608 53.0151 53.2512 52.8097C52.8945 52.6042 52.5989 52.3076 52.3947 51.9503C52.1904 51.593 52.0849 51.1878 52.089 50.7763V2.53602C52.0891 2.12647 52.1976 1.72423 52.4035 1.37017C52.6094 1.0161 52.9054 0.722834 53.2614 0.520146C53.6174 0.317459 54.0207 0.212576 54.4304 0.216153C54.8401 0.21973 55.2415 0.331638 55.5939 0.54051Z" fill="white"/>
<path d="M155.359 0.540382L197.14 24.6489C197.497 24.8513 197.794 25.1448 198.001 25.4994C198.208 25.854 198.317 26.2572 198.317 26.6676C198.317 27.0781 198.208 27.4812 198.001 27.8358C197.794 28.1905 197.497 28.484 197.14 28.6863L155.359 52.7948C155.005 52.9989 154.604 53.1061 154.196 53.1057C153.788 53.1053 153.387 52.9973 153.034 52.7926C152.68 52.5878 152.388 52.2936 152.184 51.9396C151.981 51.5855 151.875 51.1842 151.877 50.7761V2.53589C151.875 2.1278 151.981 1.7265 152.184 1.37248C152.388 1.01845 152.68 0.724222 153.034 0.519475C153.387 0.314727 153.788 0.206703 154.196 0.2063C154.604 0.205897 155.005 0.313129 155.359 0.517178V0.540382Z" fill="white"/>
</svg>
