<svg width="1555" height="301" viewBox="0 0 1555 301" fill="none" xmlns="http://www.w3.org/2000/svg">
<path fill-rule="evenodd" clip-rule="evenodd" d="M232.576 107.019L211.993 125.016V212.61V300.206L253.159 272.264L294.324 244.322V185.025V125.725L275.81 107.298C265.629 97.1629 256.366 88.9044 255.228 88.9488C254.09 88.991 243.896 97.1228 232.576 107.019ZM140.648 176.448L102.218 204.915V251.39V297.865H142.328H182.438V222.923C182.438 181.704 181.683 147.98 180.758 147.98C179.833 147.98 161.784 160.79 140.648 176.448ZM18.3039 184.172L0.887695 194.651V246.258V297.865H38.8867H76.8857L76.8435 246.672L76.8034 195.479L59.1423 184.396C49.4293 178.299 40.185 173.397 38.6017 173.503C37.0163 173.606 27.8818 178.409 18.3039 184.172Z" fill="white"/>
<path fill-rule="evenodd" clip-rule="evenodd" d="M214.104 0.995834C214.104 1.43071 220.756 6.84346 228.886 13.0246C237.016 19.2058 242.954 24.8655 242.08 25.6023C227.98 37.4896 94.9901 129.088 92.9614 128.309C91.4119 127.716 79.3577 120.498 66.1742 112.272C52.9885 104.045 41.2194 97.3571 40.0161 97.4077C38.8149 97.4605 29.7564 102.001 19.8872 107.501L1.94322 117.501L1.34368 141.474L0.744141 165.449L5.56579 162.314C8.21728 160.59 17.7339 155.158 26.7122 150.241L43.037 141.305L68.4415 156.338L93.8459 171.371L180.646 108.824L267.446 46.2759L280.415 59.1301C287.548 66.1979 294.069 71.9822 294.909 71.9822C295.749 71.9822 296.435 55.8326 296.435 36.0942V0.206299H255.27C232.629 0.206299 214.104 0.560956 214.104 0.995834Z" fill="white"/>
<path d="M372.237 234.533C370.759 234.533 369.429 234.016 368.247 232.982C367.213 231.8 366.695 230.47 366.695 228.992V84.9124C366.695 83.2869 367.213 81.9569 368.247 80.9225C369.429 79.8881 370.759 79.3708 372.237 79.3708H396.176C399.723 79.3708 402.309 80.9964 403.934 84.2474L442.947 154.071L481.959 84.2474C483.584 80.9964 486.17 79.3708 489.717 79.3708H513.435C515.06 79.3708 516.39 79.8881 517.425 80.9225C518.607 81.9569 519.198 83.2869 519.198 84.9124V228.992C519.198 230.617 518.607 231.947 517.425 232.982C516.39 234.016 515.06 234.533 513.435 234.533H487.057C485.432 234.533 484.028 234.016 482.846 232.982C481.811 231.947 481.294 230.617 481.294 228.992V145.869L456.468 192.196C454.547 195.595 451.961 197.294 448.71 197.294H437.183C435.262 197.294 433.711 196.851 432.529 195.964C431.346 195.078 430.312 193.822 429.425 192.196L404.378 145.869V228.992C404.378 230.47 403.86 231.8 402.826 232.982C401.792 234.016 400.462 234.533 398.836 234.533H372.237Z" fill="white"/>
<path d="M616.978 236.75C596.142 236.75 579.739 231.652 567.769 221.455C555.8 211.259 549.445 196.26 548.707 176.458C548.559 172.173 548.485 165.819 548.485 157.395C548.485 148.825 548.559 142.396 548.707 138.111C549.445 118.605 555.874 103.606 567.991 93.1138C580.256 82.4741 596.585 77.1542 616.978 77.1542C637.371 77.1542 653.7 82.4741 665.965 93.1138C678.23 103.606 684.659 118.605 685.25 138.111C685.545 146.682 685.693 153.11 685.693 157.395C685.693 161.533 685.545 167.887 685.25 176.458C684.511 196.26 678.156 211.259 666.187 221.455C654.217 231.652 637.814 236.75 616.978 236.75ZM616.978 204.831C625.106 204.831 631.534 202.393 636.263 197.516C641.139 192.64 643.725 185.177 644.021 175.128C644.316 166.557 644.464 160.499 644.464 156.952C644.464 153.11 644.316 147.051 644.021 138.776C643.725 128.727 641.139 121.265 636.263 116.388C631.386 111.512 624.958 109.073 616.978 109.073C608.998 109.073 602.57 111.512 597.694 116.388C592.965 121.265 590.379 128.727 589.935 138.776C589.788 142.914 589.714 148.972 589.714 156.952C589.714 164.784 589.788 170.843 589.935 175.128C590.379 185.177 592.965 192.64 597.694 197.516C602.422 202.393 608.851 204.831 616.978 204.831Z" fill="white"/>
<path d="M720.253 234.533C718.775 234.533 717.445 234.016 716.263 232.982C715.229 231.8 714.711 230.47 714.711 228.992V84.9124C714.711 83.2869 715.229 81.9569 716.263 80.9225C717.445 79.8881 718.775 79.3708 720.253 79.3708H743.749C747.443 79.3708 749.956 80.7747 751.285 83.5824L805.371 168.7V84.9124C805.371 83.2869 805.888 81.9569 806.922 80.9225C808.105 79.8881 809.435 79.3708 810.912 79.3708H837.512C839.137 79.3708 840.467 79.8881 841.501 80.9225C842.536 81.9569 843.053 83.2869 843.053 84.9124V228.77C843.053 230.396 842.536 231.8 841.501 232.982C840.467 234.016 839.137 234.533 837.512 234.533H813.794C810.543 234.533 808.105 233.13 806.479 230.322L752.394 148.307V228.992C752.394 230.47 751.877 231.8 750.842 232.982C749.808 234.016 748.478 234.533 746.852 234.533H720.253Z" fill="white"/>
<path d="M882.897 234.533C881.419 234.533 880.089 234.016 878.907 232.982C877.872 231.8 877.355 230.47 877.355 228.992V84.9124C877.355 83.2869 877.872 81.9569 878.907 80.9225C880.089 79.8881 881.419 79.3708 882.897 79.3708H986.412C988.038 79.3708 989.368 79.8881 990.402 80.9225C991.437 81.9569 991.954 83.2869 991.954 84.9124V105.748C991.954 107.226 991.437 108.556 990.402 109.738C989.368 110.773 988.038 111.29 986.412 111.29H915.702V141.214H981.536C983.161 141.214 984.491 141.805 985.526 142.988C986.56 144.022 987.077 145.352 987.077 146.977V166.262C987.077 167.74 986.56 169.07 985.526 170.252C984.491 171.286 983.161 171.803 981.536 171.803H915.702V202.614H988.185C989.811 202.614 991.141 203.132 992.175 204.166C993.21 205.2 993.727 206.53 993.727 208.156V228.992C993.727 230.47 993.21 231.8 992.175 232.982C991.141 234.016 989.811 234.533 988.185 234.533H882.897Z" fill="white"/>
<path d="M1067.69 234.533C1066.21 234.533 1064.88 234.016 1063.7 232.982C1062.66 231.8 1062.15 230.47 1062.15 228.992V181.335L1010.72 86.464C1010.28 85.134 1010.06 84.3213 1010.06 84.0257C1010.06 82.8435 1010.5 81.8091 1011.39 80.9225C1012.42 79.8881 1013.6 79.3708 1014.93 79.3708H1042.64C1045.6 79.3708 1048.18 80.9225 1050.4 84.0257L1082.1 141.214L1114.02 84.0257C1115.79 80.9225 1118.38 79.3708 1121.77 79.3708H1149.48C1150.81 79.3708 1151.92 79.8881 1152.81 80.9225C1153.69 81.8091 1154.14 82.8435 1154.14 84.0257C1154.14 84.7646 1153.99 85.5774 1153.69 86.464L1102.27 181.335V228.992C1102.27 230.617 1101.68 231.947 1100.49 232.982C1099.46 234.016 1098.13 234.533 1096.5 234.533H1067.69Z" fill="white"/>
<path d="M1181.99 234.533C1180.51 234.533 1179.18 234.016 1178 232.982C1176.97 231.8 1176.45 230.47 1176.45 228.992V84.9124C1176.45 83.2869 1176.97 81.9569 1178 80.9225C1179.18 79.8881 1180.51 79.3708 1181.99 79.3708H1205.93C1209.48 79.3708 1212.06 80.9964 1213.69 84.2474L1252.7 154.071L1291.71 84.2474C1293.34 80.9964 1295.93 79.3708 1299.47 79.3708H1323.19C1324.81 79.3708 1326.14 79.8881 1327.18 80.9225C1328.36 81.9569 1328.95 83.2869 1328.95 84.9124V228.992C1328.95 230.617 1328.36 231.947 1327.18 232.982C1326.14 234.016 1324.81 234.533 1323.19 234.533H1296.81C1295.19 234.533 1293.78 234.016 1292.6 232.982C1291.57 231.947 1291.05 230.617 1291.05 228.992V145.869L1266.22 192.196C1264.3 195.595 1261.72 197.294 1258.46 197.294H1246.94C1245.02 197.294 1243.47 196.851 1242.28 195.964C1241.1 195.078 1240.07 193.822 1239.18 192.196L1214.13 145.869V228.992C1214.13 230.47 1213.62 231.8 1212.58 232.982C1211.55 234.016 1210.22 234.533 1208.59 234.533H1181.99Z" fill="white"/>
<path d="M1368.88 234.533C1367.4 234.533 1366.07 234.016 1364.89 232.982C1363.86 231.8 1363.34 230.47 1363.34 228.992V84.9124C1363.34 83.2869 1363.86 81.9569 1364.89 80.9225C1366.07 79.8881 1367.4 79.3708 1368.88 79.3708H1398.58C1400.21 79.3708 1401.54 79.8881 1402.57 80.9225C1403.75 81.9569 1404.34 83.2869 1404.34 84.9124V228.992C1404.34 230.617 1403.75 231.947 1402.57 232.982C1401.54 234.016 1400.21 234.533 1398.58 234.533H1368.88Z" fill="white"/>
<path d="M1444.07 234.533C1442.59 234.533 1441.26 234.016 1440.08 232.982C1439.05 231.8 1438.53 230.47 1438.53 228.992V84.9124C1438.53 83.2869 1439.05 81.9569 1440.08 80.9225C1441.26 79.8881 1442.59 79.3708 1444.07 79.3708H1547.59C1549.21 79.3708 1550.54 79.8881 1551.58 80.9225C1552.61 81.9569 1553.13 83.2869 1553.13 84.9124V105.748C1553.13 107.226 1552.61 108.556 1551.58 109.738C1550.54 110.773 1549.21 111.29 1547.59 111.29H1476.88V141.214H1542.71C1544.34 141.214 1545.67 141.805 1546.7 142.988C1547.73 144.022 1548.25 145.352 1548.25 146.977V166.262C1548.25 167.74 1547.73 169.07 1546.7 170.252C1545.67 171.286 1544.34 171.803 1542.71 171.803H1476.88V202.614H1549.36C1550.99 202.614 1552.32 203.132 1553.35 204.166C1554.38 205.2 1554.9 206.53 1554.9 208.156V228.992C1554.9 230.47 1554.38 231.8 1553.35 232.982C1552.32 234.016 1550.99 234.533 1549.36 234.533H1444.07Z" fill="white"/>
</svg>
