<svg width="1541" height="301" viewBox="0 0 1541 301" fill="none" xmlns="http://www.w3.org/2000/svg">
<path fill-rule="evenodd" clip-rule="evenodd" d="M1044.14 67.3756V86.1417H1071.62H1099.09V67.3756V48.6096H1071.62H1044.14V67.3756ZM1133.95 148.472V248.334H1156.48C1177.55 248.334 1179.03 248.283 1179.25 247.552C1179.55 246.523 1183.54 229.124 1183.54 228.814C1183.54 228.683 1184.48 229.85 1185.63 231.408C1192.52 240.774 1202.62 247.378 1214.82 250.488C1219.25 251.619 1220.09 251.685 1230.01 251.685C1241.41 251.685 1245.68 251.087 1252.98 248.464C1279.23 239.039 1292.23 212.609 1291.08 171.036C1290.59 153.284 1288.13 141.692 1282.3 129.688C1274.85 114.345 1263.15 105.082 1246.09 101.023C1239.69 99.4995 1225.33 99.059 1218.84 100.187C1208.21 102.034 1200.53 105.743 1191.63 113.327L1189.35 115.267V81.9385V48.6096H1161.65H1133.95V148.472ZM1319.37 67.3756V86.1417H1346.85H1374.33V67.3756V48.6096H1346.85H1319.37V67.3756ZM438.262 56.0276C437.402 56.1232 434.788 56.4154 432.453 56.6768C415.567 58.569 398.923 64.3342 386.442 72.6145C380.015 76.8784 370.588 86.1144 366.478 92.1736C357.98 104.702 353.223 118.065 350.828 136.138C349.789 143.973 349.789 163.694 350.828 171.529C353.221 189.587 357.956 202.897 366.468 215.493C370.534 221.512 379.973 230.753 386.442 235.049C400.275 244.236 417.216 249.713 437.289 251.488C446.392 252.293 467.211 251.809 475.124 250.608C510.934 245.174 534.673 228.325 546.632 199.855C557.439 174.126 557.677 135.487 547.19 109.227C539.625 90.2836 526.602 76.0433 508.607 67.0352C499.78 62.6167 487.415 58.9305 475.124 57.053C469.888 56.2532 466.5 56.0776 454.347 55.9757C446.36 55.9087 439.122 55.9319 438.262 56.0276ZM671.633 100.23C656.961 102.914 643.919 110.121 635.087 120.425L631.964 124.069L630.531 115.047C629.743 110.085 628.978 105.371 628.83 104.573L628.562 103.12H606.019H583.475V175.727V248.334H610.954H638.433V204.193C638.433 165.805 638.523 159.706 639.124 157.39C641.869 146.814 649.552 140.589 659.858 140.589C666.577 140.589 671.209 143.193 674.085 148.588C676.969 154.001 676.858 151.849 676.858 202.406V248.334H704.561H732.263L732.27 204.658C732.279 156.237 732.209 157.512 735.19 151.838C738.4 145.73 744.332 141.501 750.805 140.706C761.397 139.404 768.55 144.871 770.49 155.748C770.983 158.517 771.107 167.961 771.12 203.764L771.135 248.334H798.632H826.127L825.967 195.498C825.792 138.273 825.899 140.889 823.362 131.785C818.424 114.063 806.199 103.171 787.917 100.206C781.977 99.2426 770.906 99.3369 765.437 100.397C751.234 103.15 738.306 110.644 728.857 121.601L726.599 124.219L725.35 121.824C723.475 118.228 721.66 115.715 718.661 112.564C712.361 105.945 704.62 102.057 694.114 100.235C689.223 99.386 676.263 99.3838 671.633 100.23ZM947.849 100.256C932.609 102.938 916.83 112.019 908.399 122.96C907.849 123.673 907.331 124.176 907.246 124.077C907.161 123.978 906.443 119.675 905.651 114.514C904.858 109.353 904.105 104.679 903.976 104.126L903.741 103.12H881.226H858.71V175.727V248.334H886.189H913.668V204.607C913.668 176.899 913.834 159.999 914.121 158.474C914.739 155.199 917.176 150.249 919.407 147.741C924.12 142.442 931.695 139.766 939.309 140.709C946.392 141.586 951.001 145.616 953.555 153.163L954.538 156.067L954.676 202.201L954.813 248.334H982.292H1009.77L1009.61 195.722C1009.43 138.747 1009.53 141.317 1007 132.215C1001.99 114.237 989.552 103.27 970.713 100.214C965.503 99.3695 952.753 99.3923 947.849 100.256ZM465.207 103.284C480.949 108.034 489.925 120.028 491.861 138.899C492.117 141.39 492.326 148.111 492.326 153.833C492.326 170.858 491.129 178.113 486.915 186.646C484.943 190.639 484.058 191.859 480.761 195.135C476.782 199.09 473.688 201.196 469.189 203.013C464.031 205.096 461.541 205.544 453.9 205.759C447.656 205.936 445.844 205.828 442.06 205.052C427.88 202.145 417.724 191.843 414.133 176.724C411.724 166.579 411.724 141.088 414.133 130.943C416.927 119.179 423.417 110.558 433.088 105.762C439.694 102.486 443.592 101.755 453.453 101.946C460.37 102.079 461.727 102.234 465.207 103.284ZM1401.14 121.437V140.199L1429.96 140.314L1458.78 140.429L1428.4 185.269L1398.01 230.109V239.222V248.334H1469.05H1540.1V229.568V210.802H1508.18H1476.27L1506.83 165.786L1537.39 120.769L1537.4 111.722L1537.41 102.674H1469.28H1401.14V121.437ZM1044.14 175.727V248.334H1071.62H1099.09V175.727V103.12H1071.62H1044.14V175.727ZM1319.37 175.727V248.334H1346.85H1374.33V175.727V103.12H1346.85H1319.37V175.727ZM1219.87 141.319C1227.95 143.423 1233.19 149.322 1235.16 158.525C1236.14 163.082 1236.57 181.23 1235.86 188.009C1234.22 203.689 1227.01 210.802 1212.76 210.802C1198.98 210.802 1190.79 202.13 1188.92 185.557C1187.98 177.292 1188.51 165.299 1190.07 159.195C1192.27 150.586 1198.1 143.83 1205.33 141.52C1208.6 140.475 1216.22 140.369 1219.87 141.319Z" fill="white"/>
<path d="M0.61159 47.1396L0.498547 132.085C0.401143 205.383 0.473079 216.996 1.02132 216.786L45.9601 194.27C36.8671 179.858 31.7592 166.432 29.6864 151.494C26.187 126.271 29.2718 103.225 39.0534 81.5119C40.4539 78.403 42.4744 74.9082 44.9587 71.2115L0.61159 47.1396Z" fill="white"/>
<path d="M41.7179 23.767L0.611328 47.1397L44.9585 71.2116C52.9622 59.3021 65.7794 45.2984 78.1847 35.3631C81.2851 32.8802 84.1255 30.6725 84.4964 30.458C85.0924 30.1122 85.0973 29.6542 84.5361 26.4926C84.1684 24.4216 83.7922 18.173 83.6407 11.6361C83.4973 5.43084 83.2547 0.363116 83.1019 0.374286C82.9495 0.385456 64.3265 10.9119 41.7179 23.767Z" fill="white"/>
<path d="M1.02148 216.786C1.3758 216.65 14.9789 224.208 31.741 233.853C48.2868 243.374 81.1113 262.198 104.683 275.685L147.542 300.206V250.852C145.017 250.858 142.506 250.768 140.017 250.579C108.855 248.21 82.4102 236.059 61.6014 214.546C55.5064 208.245 51.5034 203.055 45.9603 194.27L1.02148 216.786Z" fill="white"/>
<path d="M147.542 300.206L159.436 293.371C165.978 289.612 198.21 271.054 231.063 252.132L290.796 217.727L253.301 184.575C249.352 193.136 244.628 200.499 238.401 207.897C216.324 234.129 180.683 250.77 147.542 250.851V300.206Z" fill="white"/>
<path fill-rule="evenodd" clip-rule="evenodd" d="M146.048 53.107L138.229 53.447L127.506 57.2221C108.721 63.8358 96.3483 68.7253 92.1036 71.2118C87.6253 73.835 85.3175 77.6431 84.9587 83.0022C84.6848 87.0914 86.0717 95.8274 87.6673 100.068L88.7534 102.952L74.0395 109.36L59.3256 115.768L57.5657 118.731L55.8057 121.694L56.6613 127.487C58.4369 139.51 61.0235 148.664 65.8097 159.866C67.332 163.429 72.3689 176.048 77.0023 187.907L85.427 209.47L88.3057 210.36C90.1944 210.943 92.453 211.249 94.8716 211.249C98.5538 211.249 98.5895 211.238 123.085 202.267C136.575 197.328 147.764 193.144 147.95 192.972C148.305 192.64 154.231 148.686 153.956 148.412C153.869 148.324 148.384 148.844 141.768 149.567C121.955 151.731 118.091 151.994 114.455 151.428C110.346 150.789 109.152 150.229 108.49 148.632C106.955 144.926 109.097 140.891 126.28 115.124C134.413 102.929 141.687 91.7708 142.444 90.3285C143.202 88.8858 144.222 87.0052 144.712 86.1491C145.201 85.2925 145.602 84.0406 145.602 83.3668V82.1416L138.117 84.7501C134.001 86.1848 125.004 89.388 118.123 91.8682C111.242 94.3485 105.324 96.4373 104.972 96.5097C104.525 96.6022 103.76 95.0924 102.433 91.5036C101.389 88.6776 100.522 86.0485 100.505 85.6616C100.476 85.0115 103.758 83.1581 139.355 63.7205L143.185 61.6295L148.075 68.0769C150.764 71.6233 153.067 74.5208 153.193 74.5155C153.743 74.4931 159.899 59.6166 159.898 58.3132C159.896 56.6958 158.571 54.2441 157.354 53.6061C155.907 52.8474 153.98 52.7621 146.048 53.107Z" fill="white"/>
<path fill-rule="evenodd" clip-rule="evenodd" d="M192.07 63.3005C190.473 63.733 187.557 64.7964 185.591 65.6636C170.477 72.3332 166.247 74.3219 165.344 75.1816C164.168 76.3022 162.925 82.5102 161.268 95.5383C160.385 102.488 158.908 118.81 159.142 119.044C159.302 119.204 183.341 117.54 190.059 116.904C197.402 116.208 198.151 116.229 199.177 117.157C200.198 118.082 200.974 120.917 200.676 122.636C200.276 124.943 196.582 132.216 192.797 138.147C190.742 141.368 186.499 148.427 183.369 153.834C180.239 159.24 176.38 165.823 174.794 168.464C171.297 174.284 169.596 177.958 168.4 182.275C167.352 186.059 167.259 187.316 168.054 186.982C168.361 186.852 182.587 181.299 199.666 174.642C220.914 166.359 231.456 162.03 233.054 160.931C235.655 159.141 237.898 156.101 238.419 153.658C238.607 152.772 238.735 150.337 238.703 148.248C238.646 144.554 238.511 144.099 233.715 131.493C219.038 92.9133 209.569 70.1233 206.599 66.2298C205.994 65.4362 204.449 64.2638 203.165 63.624C200.333 62.2129 196.502 62.1012 192.07 63.3005Z" fill="white"/>
<path d="M290.816 204.546L290.796 217.727L253.301 184.575C254.313 182.381 255.274 180.109 256.197 177.738C260.47 166.75 262.595 158.8 264.078 148.248C264.856 142.719 264.86 123.41 264.086 118.535C261.617 103.007 256.189 84.6969 250.914 74.1004L292.156 48.3713L292.145 56.1982C292.139 60.5026 291.842 92.6762 291.485 127.695C291.129 162.714 290.828 197.297 290.816 204.546Z" fill="white"/>
<path d="M292.155 48.3715L289.809 46.9905C269.588 35.0825 212.582 1.38543 211.806 0.881876L210.767 0.206299L211.131 3.51984C211.943 10.9204 211.302 19.7542 209.451 26.6753C208.964 28.4961 208.724 30.1185 208.918 30.2802C209.112 30.4419 211.25 31.7364 213.667 33.1572C229.224 42.299 242.16 56.5187 250.913 74.1007L292.155 48.3715Z" fill="white"/>
</svg>
