<svg width="1686" height="301" viewBox="0 0 1686 301" fill="none" xmlns="http://www.w3.org/2000/svg">
<path d="M240.34 28.7927H14.5236C6.8724 28.7927 0.489267 35.2332 0.489267 42.9833V68.4233C0.489267 76.3666 6.8724 82.6353 14.5343 82.6353H240.33C248.174 82.6353 254.375 76.1733 254.557 68.434V43.1658C254.557 35.244 248.174 28.782 240.34 28.782V28.7927ZM240.34 170.398H14.5236C12.675 170.401 10.8454 170.771 9.14099 171.486C7.43655 172.201 5.89111 173.247 4.59425 174.563C1.95403 177.237 0.475294 180.843 0.478521 184.599V210.039C0.478521 217.982 6.86166 224.24 14.5236 224.24H240.319C248.164 224.24 254.364 217.972 254.547 210.05V184.599C254.547 176.667 248.164 170.398 240.33 170.398H240.34ZM141.66 241.029H14.5343C10.8054 241.029 7.22702 242.521 4.60499 245.183C1.96478 247.857 0.48604 251.463 0.489267 255.219V280.659C0.489267 288.603 6.8724 294.861 14.5343 294.861H141.477C149.322 294.861 155.522 288.42 155.522 280.67V255.219C155.569 253.371 155.246 251.532 154.57 249.811C153.895 248.09 152.881 246.522 151.589 245.198C150.297 243.875 148.753 242.823 147.048 242.105C145.342 241.387 143.51 241.017 141.66 241.018V241.029ZM254.557 99.5846H14.5343C10.8054 99.5846 7.22702 101.087 4.60499 103.739C1.96216 106.416 0.48321 110.026 0.489267 113.786V139.226C0.489267 147.158 6.8724 153.427 14.5343 153.427H254.386C262.23 153.427 268.42 146.976 268.42 139.226V113.786C268.451 111.942 268.116 110.11 267.435 108.396C266.754 106.682 265.74 105.12 264.451 103.8C263.162 102.48 261.624 101.427 259.926 100.704C258.228 99.9803 256.403 99.5999 254.557 99.5846Z" fill="white"/>
<path d="M517.384 86.1346C510.447 78.9618 502.137 73.2561 492.947 69.3571C483.706 65.4774 473.785 63.4706 463.761 63.4533C453.992 63.228 444.308 65.3135 435.499 69.5396C429.589 72.3627 424.259 76.3021 419.81 81.154V76.7422C419.775 74.4966 418.936 72.3376 417.446 70.656C416.71 69.7786 415.789 69.0752 414.748 68.5963C413.708 68.1174 412.574 67.875 411.428 67.8866H379.867C378.719 67.8562 377.578 68.0902 376.535 68.5704C375.491 69.0507 374.573 69.7642 373.849 70.656C372.282 72.2905 371.428 74.4794 371.474 76.7422V286.767C371.474 288.978 372.388 291.189 373.839 292.843C374.63 293.624 375.571 294.24 376.604 294.653C377.638 295.066 378.743 295.268 379.856 295.247H411.783C413.975 295.247 415.974 294.324 417.618 292.843C418.478 292.091 419.156 291.153 419.599 290.1C420.042 289.047 420.239 287.907 420.175 286.767V215.031C424.732 220.011 430.567 223.704 436.95 225.915C445.343 229.049 454.101 230.531 463.031 230.531C473.239 230.531 483.276 228.674 492.582 224.627C501.928 220.735 510.371 214.962 517.384 207.667C524.661 200.064 530.365 191.101 534.169 181.293C538.49 170.317 540.597 158.596 540.37 146.804C540.506 134.964 538.402 123.204 534.169 112.144C530.243 102.504 524.546 93.6824 517.373 86.1346H517.384ZM488.574 162.1C486.904 166.554 484.361 170.631 481.095 174.09C477.858 177.566 473.93 180.329 469.563 182.201C465.196 184.074 460.486 185.015 455.734 184.964C450.812 184.964 446.073 184.041 441.7 182.012C437.382 180.153 433.475 177.461 430.201 174.09C426.941 170.591 424.345 166.528 422.54 162.1C418.894 152.605 418.894 142.098 422.54 132.603C424.184 128.18 426.924 124.123 430.201 120.795C433.502 117.41 437.4 114.662 441.7 112.691C446.083 110.626 450.889 109.615 455.734 109.739C460.666 109.739 465.405 110.662 469.962 112.68C474.153 114.72 477.989 117.296 481.277 120.624C484.555 124.123 486.93 127.987 488.757 132.42C492.252 142.017 492.188 152.547 488.574 162.1ZM712.177 67.8758H680.444C679.345 67.8716 678.257 68.0989 677.252 68.5428C676.246 68.9867 675.346 69.6372 674.609 70.452C673.792 71.2798 673.146 72.2606 672.709 73.3382C672.272 74.4158 672.052 75.5689 672.062 76.7315V80.5958C668.071 75.96 663.165 72.1963 657.652 69.5396C649.021 65.3518 639.52 63.2661 629.927 63.4533C609.492 63.4884 589.895 71.5729 575.391 85.9522C567.914 93.5367 561.967 102.487 557.875 112.315C553.322 123.298 551.09 135.102 551.32 146.987C551.125 158.869 553.355 170.666 557.875 181.658C561.947 191.454 567.827 200.397 575.208 208.021C582.26 215.279 590.713 221.03 600.056 224.927C609.399 228.824 619.437 230.785 629.562 230.692C639.233 230.885 648.711 228.856 657.469 224.605C662.939 221.847 668.043 218.165 672.062 213.549V217.789C672.062 220 672.965 222.212 674.609 223.875C676.253 225.346 678.263 226.269 680.444 226.269H712.177C714.407 226.227 716.546 225.377 718.195 223.875C718.985 223.076 719.603 222.124 720.011 221.077C720.42 220.031 720.61 218.912 720.57 217.789V76.7315C720.619 74.4702 719.769 72.2814 718.206 70.6452C717.482 69.7535 716.563 69.0399 715.52 68.5597C714.476 68.0795 713.336 67.8455 712.188 67.8758H712.177ZM669.322 161.918C667.652 166.372 665.109 170.448 661.843 173.908C658.562 177.231 654.739 179.971 650.538 182.012C641.597 186.07 631.195 186.07 622.265 182.012C617.965 180.041 614.067 177.294 610.767 173.908C607.503 170.448 604.964 166.371 603.298 161.918C599.833 152.453 599.833 142.068 603.298 132.603C604.932 128.18 607.489 124.305 610.778 120.795C614.055 117.478 617.881 114.72 622.265 112.691C626.706 110.687 631.523 109.65 636.396 109.65C641.269 109.65 646.086 110.687 650.527 112.691C654.729 114.72 658.565 117.296 661.843 120.613C664.948 124.123 667.495 127.987 669.322 132.42C672.976 142.006 672.976 152.515 669.322 161.918ZM1028.64 142.918C1024.06 138.896 1018.81 135.716 1013.13 133.526C1007.11 131.126 1000.88 129.272 994.529 127.987L970.264 123.2C964.064 122.094 959.69 120.43 957.315 118.402C956.329 117.716 955.518 116.807 954.948 115.75C954.379 114.692 954.067 113.516 954.038 112.315C954.038 109.739 955.499 107.528 958.594 105.682C962.785 103.47 967.352 102.354 972.091 102.73C978.291 102.73 984.492 104.018 990.144 106.411C995.625 108.816 1001.09 111.585 1006.02 114.891C1013.13 119.325 1019.15 118.584 1023.34 113.603L1035.02 100.336C1037.2 98.114 1038.48 95.1728 1038.67 92.0384C1038.58 90.4235 1038.13 88.8481 1037.38 87.4173C1036.62 85.9864 1035.57 84.7331 1034.29 83.7409C1029.36 79.5009 1021.52 74.8852 1011.12 70.4628C1000.73 66.0403 987.587 63.6358 972.091 63.6358C962.633 63.5092 953.214 64.8787 944.184 67.6933C936.464 70.0716 929.235 73.8165 922.842 78.7495C917.083 83.2536 912.408 88.9905 909.162 95.5378C906.07 101.921 904.451 108.916 904.423 116.008C904.423 129.104 908.432 139.795 916.276 147.717C924.121 155.649 934.523 160.812 947.472 163.388L972.639 168.927C978.12 169.85 983.578 171.503 988.694 173.908C991.423 175.014 993.25 177.772 993.25 180.907C993.25 183.676 991.788 186.252 988.694 188.474C985.588 190.685 980.484 192.156 973.918 192.156C967.034 192.273 960.221 190.757 954.038 187.734C948.176 184.908 942.719 181.313 937.811 177.042C935.659 175.233 933.178 173.856 930.504 172.985C927.592 172.062 924.121 172.985 920.295 176.119L906.433 186.628C904.546 187.986 903.083 189.85 902.212 192.004C901.341 194.158 901.098 196.514 901.511 198.8C902.231 203.416 906.067 208.01 913.181 213.367C930.666 225.157 951.364 231.275 972.456 230.885C982.274 231.012 992.055 229.644 1001.46 226.827C1009.53 224.391 1017.11 220.586 1023.89 215.578C1029.9 210.962 1035.02 205.058 1038.48 198.242C1041.82 191.537 1043.56 184.155 1043.58 176.667C1043.74 169.936 1042.37 163.258 1039.58 157.13C1036.82 151.775 1033.11 146.963 1028.64 142.929V142.918ZM1167.25 181.282C1166.54 180.023 1165.54 178.949 1164.34 178.147C1163.13 177.345 1161.76 176.838 1160.32 176.667C1157.41 176.667 1154.48 177.59 1152.11 179.243C1148.24 181.78 1143.78 183.247 1139.16 183.494C1137.7 183.494 1136.06 183.311 1134.6 182.935C1133.02 182.618 1131.57 181.85 1130.41 180.724C1128.96 179.368 1127.78 177.742 1126.94 175.937C1125.91 173.231 1125.42 170.351 1125.48 167.457V109.922H1166.7C1169.11 109.864 1171.4 108.871 1173.08 107.152C1173.94 106.384 1174.63 105.445 1175.1 104.398C1175.57 103.35 1175.82 102.215 1175.82 101.066V76.7422C1175.84 75.5628 1175.6 74.3937 1175.13 73.3127C1174.66 72.2317 1173.96 71.2638 1173.08 70.4735C1171.43 68.8435 1169.21 67.9197 1166.88 67.8973H1125.66V28.6102C1125.73 27.4422 1125.54 26.2739 1125.09 25.1898C1124.65 24.1057 1123.98 23.1328 1123.12 22.3415C1121.53 20.8439 1119.45 19.9903 1117.27 19.9478H1085.17C1082.87 19.903 1080.64 20.7626 1078.97 22.3415C1077.27 23.9909 1076.29 26.2433 1076.24 28.6102V67.8973H1057.99C1056.85 67.8657 1055.71 68.098 1054.66 68.5763C1053.62 69.0547 1052.7 69.7662 1051.98 70.656C1050.49 72.3376 1049.65 74.4966 1049.61 76.7422V101.077C1049.61 103.288 1050.52 105.51 1051.98 107.163C1052.67 108.086 1053.59 108.822 1054.64 109.306C1055.69 109.789 1056.84 110.004 1057.99 109.932H1076.24V178.341C1076.06 186.462 1077.68 194.522 1080.98 201.946C1083.92 208.012 1088.08 213.409 1093.2 217.8C1098.3 222.04 1104.32 224.992 1110.52 226.838C1116.96 228.834 1123.67 229.83 1130.41 229.79C1139.28 229.772 1148.08 228.337 1156.49 225.539C1164.29 222.94 1171.36 218.517 1177.1 212.637C1178.85 210.845 1179.91 208.502 1180.11 206.011C1180.31 203.52 1179.63 201.038 1178.19 198.994L1167.25 181.282ZM1341.07 67.8758H1309.33C1308.23 67.8716 1307.15 68.0989 1306.14 68.5428C1305.14 68.9867 1304.24 69.6372 1303.5 70.452C1302.68 71.2786 1302.03 72.2589 1301.59 73.3366C1301.15 74.4143 1300.93 75.5681 1300.94 76.7315V80.5958C1296.95 75.9571 1292.05 72.1928 1286.53 69.5396C1277.85 65.3323 1268.28 63.2462 1258.63 63.4533C1248.54 63.454 1238.54 65.4413 1229.22 69.3017C1219.89 73.1621 1211.42 78.82 1204.28 85.9522C1196.75 93.4901 1190.79 102.452 1186.76 112.315C1182.23 123.235 1179.99 134.972 1180.2 146.793C1180.01 158.676 1182.24 170.473 1186.76 181.465C1190.78 191.233 1196.8 200.271 1204.1 207.828C1211.13 215.075 1219.55 220.834 1228.86 224.762C1238.16 228.69 1248.17 230.706 1258.27 230.692C1267.9 230.871 1277.44 228.852 1286.16 224.788C1291.65 222.029 1296.75 218.347 1300.76 213.732V217.789C1300.78 220.043 1301.66 222.19 1303.23 223.768C1304.79 225.352 1306.92 226.251 1309.15 226.269H1341.07C1343.28 226.272 1345.4 225.402 1346.97 223.847C1348.55 222.293 1349.44 220.181 1349.46 217.972V76.7422C1349.48 75.6217 1349.29 74.5074 1348.88 73.4631C1348.47 72.4188 1347.86 71.465 1347.08 70.656C1346.36 69.7636 1345.44 69.0496 1344.4 68.5693C1343.36 68.089 1342.21 67.8554 1341.07 67.8866V67.8758ZM1298.21 161.918C1296.54 166.37 1294 170.446 1290.73 173.908C1287.45 177.232 1283.62 179.972 1279.42 182.012C1274.98 184.098 1270.1 185.109 1265.2 184.964C1260.27 184.964 1255.53 183.859 1251.15 182.012C1246.85 180.041 1242.96 177.293 1239.66 173.908C1236.39 170.446 1233.85 166.37 1232.18 161.918C1228.72 152.452 1228.72 142.069 1232.18 132.603C1233.85 128.206 1236.4 124.191 1239.66 120.795C1242.94 117.478 1246.77 114.72 1251.15 112.691C1255.56 110.692 1260.36 109.684 1265.2 109.739C1270.12 109.739 1274.86 110.662 1279.42 112.68C1283.62 114.72 1287.44 117.296 1290.73 120.624C1294.01 124.123 1296.57 127.987 1298.21 132.42C1302.04 141.882 1302.04 152.456 1298.21 161.918ZM1515.26 179.254L1497.01 165.235C1493.55 162.476 1490.26 161.735 1487.35 162.841C1484.79 163.941 1482.48 165.577 1480.6 167.639C1476.61 172.466 1471.94 176.689 1466.74 180.177C1461.27 183.311 1455.24 184.792 1449.04 184.417C1441.91 184.497 1434.94 182.338 1429.11 178.245C1423.24 174.128 1418.8 168.296 1416.4 161.553C1414.74 156.936 1413.88 152.073 1413.85 147.169C1413.85 142.188 1414.57 137.208 1416.4 132.42C1418.04 127.987 1420.42 123.94 1423.69 120.613C1426.98 117.296 1430.81 114.527 1435 112.68C1439.46 110.628 1444.31 109.563 1449.22 109.557C1455.42 109.334 1461.56 110.867 1466.92 113.979C1472.17 117.413 1476.85 121.643 1480.79 126.517C1482.6 128.545 1484.79 130.198 1487.35 131.315C1490.26 132.42 1493.55 131.68 1496.83 128.91L1515.08 115.085C1517.26 113.603 1519.08 111.392 1519.82 108.816C1520.33 107.437 1520.53 105.96 1520.41 104.494C1520.28 103.027 1519.83 101.606 1519.08 100.336C1512.05 89.362 1502.4 80.3008 1490.99 73.9621C1478.96 67.1459 1464.55 63.6358 1448.49 63.6358C1437.18 63.6389 1425.97 65.8296 1415.48 70.0871C1405.47 74.171 1396.35 80.1898 1388.67 87.7984C1380.96 95.3365 1374.88 104.37 1370.8 114.344C1362.22 135.452 1362.22 159.069 1370.8 180.177C1374.99 190.127 1381.01 199.165 1388.67 206.54C1404.64 222.165 1426.14 230.848 1448.49 230.692C1464.55 230.692 1478.96 227.192 1490.99 220.365C1502.49 214.019 1512.21 204.892 1519.27 193.82C1520.01 192.583 1520.46 191.193 1520.59 189.755C1520.72 188.318 1520.51 186.87 1520 185.522C1519.13 182.979 1517.47 180.782 1515.26 179.254ZM1684.14 212.068L1633.99 138.496L1676.86 81.8946C1677.86 80.6031 1678.54 79.0961 1678.86 77.4935C1679.17 75.891 1679.11 74.237 1678.67 72.6633C1677.94 70.4628 1675.94 68.0583 1670.66 68.0583H1636.73C1634.78 68.1134 1632.85 68.551 1631.07 69.3464C1628.97 70.3999 1627.25 72.076 1626.15 74.1446L1591.86 122.094H1583.65V8.68761C1583.67 7.56771 1583.48 6.45374 1583.07 5.4094C1582.67 4.36507 1582.06 3.41086 1581.28 2.60134C1580.49 1.82353 1579.55 1.21132 1578.51 0.800358C1577.48 0.389396 1576.38 0.187904 1575.27 0.207618H1543.52C1541.29 0.250325 1539.15 1.10101 1537.5 2.60134C1536.66 3.36527 1535.99 4.30715 1535.55 5.35942C1535.11 6.41169 1534.91 7.54827 1534.96 8.68761V217.789C1534.96 220.183 1535.86 222.405 1537.5 223.875C1538.3 224.654 1539.24 225.267 1540.27 225.678C1541.3 226.089 1542.41 226.29 1543.52 226.269H1575.27C1577.5 226.227 1579.63 225.376 1581.28 223.875C1582.06 223.066 1582.67 222.112 1583.07 221.067C1583.48 220.023 1583.67 218.909 1583.65 217.789V162.476H1592.77L1630.16 219.818C1632.35 223.875 1636.55 226.452 1641.11 226.452H1676.68C1682.14 226.452 1684.33 223.875 1685.24 221.664C1685.88 220.102 1686.12 218.403 1685.93 216.725C1685.73 215.048 1685.12 213.445 1684.14 212.068ZM892.57 67.8758H857.001C855.686 67.7989 854.369 68.0065 853.141 68.4845C851.914 68.9624 850.804 69.6995 849.887 70.6452C848.279 72.2801 847.146 74.3208 846.61 76.549L820.336 174.273H813.963L785.884 76.549C785.349 74.4831 784.418 72.5403 783.144 70.8277C782.369 69.8893 781.393 69.1369 780.289 68.6259C779.184 68.115 777.978 67.8586 776.761 67.8758H739.912C735.184 67.8758 732.261 69.3571 730.983 72.4915C730.069 75.2502 730.069 78.3953 730.983 81.154L776.03 218.53C776.761 220.559 777.857 222.587 779.501 224.058C781.328 225.722 783.692 226.634 786.239 226.452H805.216L803.572 230.885L799.381 243.605C798.091 247.469 795.727 250.979 792.45 253.555C789.418 255.883 785.688 257.119 781.865 257.066C778.587 257.066 775.31 256.325 772.387 255.026C769.392 253.728 766.572 252.058 763.994 250.056C761.651 248.386 758.846 247.485 755.967 247.48H755.602C753.952 247.562 752.35 248.061 750.946 248.93C749.542 249.799 748.382 251.01 747.574 252.45L736.27 269.045C731.713 276.237 734.26 280.852 737.183 283.429C743.214 288.993 750.366 293.206 758.159 295.784C766.79 298.728 775.85 300.222 784.971 300.206C801.197 300.206 814.877 295.784 825.268 286.939C836.12 277.421 844.03 265.011 848.071 251.162L900.243 81.154C901.339 78.2021 901.522 75.0677 900.426 72.1158C899.512 70.0871 897.503 67.8758 892.581 67.8758H892.57Z" fill="white"/>
</svg>
