<svg width="1987" height="301" viewBox="0 0 1987 301" fill="none" xmlns="http://www.w3.org/2000/svg">
<path d="M420.198 201.195C424.811 206.796 429.808 210.75 435.19 213.056C440.681 215.363 446.612 216.516 452.982 216.516C459.132 216.516 464.679 215.363 469.621 213.056C474.564 210.75 478.737 207.235 482.142 202.513C485.656 197.79 488.347 191.859 490.214 184.72C492.081 177.472 493.015 168.96 493.015 159.185C493.015 149.3 492.191 140.953 490.544 134.144C489.006 127.224 486.755 121.623 483.789 117.34C480.824 113.056 477.199 109.926 472.916 107.949C468.743 105.972 463.965 104.984 458.583 104.984C450.126 104.984 442.933 106.796 437.002 110.42C431.071 113.935 425.47 118.932 420.198 125.412V201.195ZM418.056 99.0531C424.975 91.2552 432.828 84.94 441.615 80.1075C450.401 75.2749 460.725 72.8587 472.587 72.8587C481.812 72.8587 490.214 74.7807 497.793 78.6248C505.481 82.4688 512.07 88.0701 517.562 95.4287C523.163 102.677 527.447 111.684 530.412 122.447C533.487 133.1 535.025 145.346 535.025 159.185C535.025 171.815 533.322 183.512 529.918 194.275C526.513 205.039 521.626 214.374 515.255 222.282C508.995 230.19 501.362 236.395 492.356 240.898C483.46 245.291 473.465 247.488 462.372 247.488C452.927 247.488 444.855 246.06 438.155 243.205C431.455 240.239 425.47 236.176 420.198 231.014V300.206H379.506V75.9888H404.382C409.654 75.9888 413.114 78.46 414.761 83.4023L418.056 99.0531Z" fill="white"/>
<path d="M641.568 73.3529C654.089 73.3529 665.456 75.3848 675.67 79.4485C685.994 83.5122 694.781 89.2782 702.03 96.7467C709.388 104.215 715.044 113.331 718.998 124.094C722.952 134.858 724.929 146.884 724.929 160.173C724.929 173.573 722.952 185.654 718.998 196.417C715.044 207.18 709.388 216.351 702.03 223.93C694.781 231.508 685.994 237.329 675.67 241.392C665.456 245.456 654.089 247.488 641.568 247.488C628.938 247.488 617.461 245.456 607.137 241.392C596.813 237.329 587.971 231.508 580.613 223.93C573.364 216.351 567.708 207.18 563.644 196.417C559.69 185.654 557.713 173.573 557.713 160.173C557.713 146.884 559.69 134.858 563.644 124.094C567.708 113.331 573.364 104.215 580.613 96.7467C587.971 89.2782 596.813 83.5122 607.137 79.4485C617.461 75.3848 628.938 73.3529 641.568 73.3529ZM641.568 216.187C655.626 216.187 666.005 211.464 672.705 202.018C679.514 192.573 682.919 178.735 682.919 160.503C682.919 142.271 679.514 128.378 672.705 118.822C666.005 109.267 655.626 104.49 641.568 104.49C627.29 104.49 616.692 109.322 609.773 118.987C602.963 128.542 599.558 142.381 599.558 160.503C599.558 178.625 602.963 192.463 609.773 202.018C616.692 211.464 627.29 216.187 641.568 216.187Z" fill="white"/>
<path d="M994.428 75.9888L940.721 245.017H908.102C904.368 245.017 901.787 242.601 900.359 237.768L870.046 140.075C869.057 136.78 868.124 133.54 867.245 130.355C866.476 127.06 865.817 123.765 865.268 120.47C864.609 123.765 863.841 127.115 862.962 130.519C862.193 133.814 861.314 137.109 860.326 140.404L829.519 237.768C828.201 242.601 825.29 245.017 820.787 245.017H789.486L735.944 75.9888H768.398C771.364 75.9888 773.89 76.7027 775.977 78.1305C778.063 79.5583 779.436 81.3705 780.095 83.5671L804.313 173.847C805.521 178.789 806.564 183.622 807.443 188.345C808.431 193.067 809.255 197.79 809.914 202.513C811.122 197.79 812.385 193.067 813.703 188.345C815.131 183.622 816.614 178.789 818.151 173.847L846.158 83.2376C846.817 81.041 848.08 79.2288 849.947 77.801C851.924 76.3732 854.285 75.6594 857.031 75.6594H874.988C877.844 75.6594 880.26 76.3732 882.237 77.801C884.324 79.2288 885.697 81.041 886.356 83.2376L913.539 173.847C914.966 178.789 916.284 183.677 917.492 188.509C918.81 193.232 920.073 197.955 921.281 202.677C922.709 193.342 924.741 183.732 927.377 173.847L952.253 83.5671C953.022 81.3705 954.395 79.5583 956.372 78.1305C958.349 76.7027 960.71 75.9888 963.456 75.9888H994.428Z" fill="white"/>
<path d="M1123.57 141.063C1123.57 135.791 1122.8 130.849 1121.26 126.236C1119.84 121.513 1117.64 117.395 1114.67 113.88C1111.71 110.366 1107.92 107.62 1103.31 105.643C1098.8 103.556 1093.53 102.513 1087.49 102.513C1075.74 102.513 1066.46 105.863 1059.65 112.562C1052.95 119.262 1048.67 128.762 1046.8 141.063H1123.57ZM1045.98 165.61C1046.63 174.286 1048.17 181.81 1050.59 188.18C1053 194.44 1056.19 199.657 1060.14 203.831C1064.1 207.894 1068.76 210.97 1074.15 213.056C1079.64 215.033 1085.68 216.022 1092.27 216.022C1098.86 216.022 1104.51 215.253 1109.24 213.715C1114.07 212.178 1118.24 210.475 1121.76 208.608C1125.38 206.741 1128.51 205.039 1131.15 203.501C1133.89 201.964 1136.53 201.195 1139.06 201.195C1142.46 201.195 1144.99 202.458 1146.63 204.984L1158.33 219.811C1153.83 225.083 1148.78 229.531 1143.17 233.155C1137.57 236.67 1131.7 239.525 1125.55 241.722C1119.51 243.809 1113.3 245.291 1106.93 246.17C1100.67 247.049 1094.57 247.488 1088.64 247.488C1076.89 247.488 1065.96 245.566 1055.86 241.722C1045.76 237.768 1036.97 232.002 1029.5 224.424C1022.03 216.736 1016.16 207.29 1011.87 196.088C1007.59 184.775 1005.45 171.705 1005.45 156.878C1005.45 145.346 1007.32 134.528 1011.05 124.424C1014.78 114.21 1020.11 105.368 1027.03 97.8999C1034.06 90.3216 1042.57 84.3359 1052.56 79.9427C1062.67 75.5495 1074.04 73.3529 1086.67 73.3529C1097.32 73.3529 1107.15 75.0553 1116.16 78.46C1125.16 81.8647 1132.91 86.862 1139.39 93.4518C1145.87 99.9317 1150.92 107.949 1154.54 117.504C1158.28 126.95 1160.14 137.768 1160.14 149.959C1160.14 156.11 1159.48 160.283 1158.17 162.48C1156.85 164.567 1154.32 165.61 1150.59 165.61H1045.98Z" fill="white"/>
<path d="M1229.07 105.313C1234.34 95.209 1240.6 87.3013 1247.85 81.5902C1255.1 75.7692 1263.66 72.8587 1273.55 72.8587C1281.34 72.8587 1287.6 74.5611 1292.33 77.9658L1289.69 108.444C1289.14 110.42 1288.32 111.848 1287.22 112.727C1286.23 113.496 1284.86 113.88 1283.1 113.88C1281.45 113.88 1278.98 113.606 1275.69 113.056C1272.5 112.507 1269.37 112.233 1266.3 112.233C1261.79 112.233 1257.79 112.892 1254.27 114.21C1250.76 115.528 1247.57 117.45 1244.72 119.976C1241.97 122.392 1239.5 125.357 1237.3 128.872C1235.22 132.386 1233.24 136.395 1231.37 140.898V245.017H1190.68V75.9888H1214.57C1218.74 75.9888 1221.65 76.7576 1223.3 78.2953C1224.95 79.723 1226.05 82.359 1226.59 86.203L1229.07 105.313Z" fill="white"/>
<path d="M1429.86 111.738C1428.65 113.276 1427.44 114.484 1426.23 115.363C1425.13 116.241 1423.49 116.681 1421.29 116.681C1419.2 116.681 1417.17 116.077 1415.19 114.869C1413.22 113.551 1410.86 112.123 1408.11 110.585C1405.36 108.938 1402.07 107.51 1398.22 106.302C1394.49 104.984 1389.82 104.325 1384.22 104.325C1377.08 104.325 1370.82 105.643 1365.44 108.279C1360.06 110.805 1355.56 114.484 1351.93 119.317C1348.42 124.149 1345.78 130.025 1344.02 136.944C1342.27 143.754 1341.39 151.497 1341.39 160.173C1341.39 169.179 1342.32 177.197 1344.19 184.226C1346.17 191.255 1348.97 197.186 1352.59 202.018C1356.22 206.741 1360.61 210.366 1365.77 212.892C1370.93 215.308 1376.75 216.516 1383.23 216.516C1389.71 216.516 1394.93 215.747 1398.88 214.21C1402.95 212.562 1406.35 210.805 1409.1 208.938C1411.84 206.961 1414.21 205.204 1416.18 203.666C1418.27 202.018 1420.58 201.195 1423.1 201.195C1426.4 201.195 1428.87 202.458 1430.51 204.984L1442.21 219.811C1437.71 225.083 1432.82 229.531 1427.55 233.155C1422.28 236.67 1416.79 239.525 1411.08 241.722C1405.47 243.809 1399.65 245.291 1393.61 246.17C1387.68 247.049 1381.75 247.488 1375.82 247.488C1365.39 247.488 1355.56 245.566 1346.33 241.722C1337.1 237.768 1329.03 232.057 1322.11 224.589C1315.19 217.12 1309.7 208.004 1305.64 197.241C1301.68 186.368 1299.71 174.012 1299.71 160.173C1299.71 147.763 1301.46 136.285 1304.98 125.742C1308.6 115.088 1313.88 105.917 1320.79 98.2294C1327.71 90.4314 1336.28 84.3359 1346.5 79.9427C1356.71 75.5495 1368.46 73.3529 1381.75 73.3529C1394.38 73.3529 1405.42 75.3848 1414.86 79.4485C1424.42 83.5122 1432.99 89.3332 1440.56 96.9114L1429.86 111.738Z" fill="white"/>
<path d="M1613.36 75.9888V245.017H1588.48C1583.1 245.017 1579.69 242.546 1578.27 237.603L1575.46 224.094C1568.55 231.123 1560.91 236.835 1552.56 241.228C1544.22 245.511 1534.39 247.653 1523.08 247.653C1513.85 247.653 1505.67 246.115 1498.53 243.04C1491.5 239.855 1485.57 235.407 1480.74 229.696C1475.9 223.984 1472.22 217.23 1469.7 209.432C1467.28 201.524 1466.07 192.848 1466.07 183.402V75.9888H1506.77V183.402C1506.77 193.726 1509.13 201.744 1513.85 207.455C1518.68 213.056 1525.88 215.857 1535.43 215.857C1542.46 215.857 1549.05 214.319 1555.2 211.244C1561.35 208.059 1567.17 203.721 1572.66 198.229V75.9888H1613.36Z" fill="white"/>
<path d="M1694.39 201.195C1699.01 206.796 1704 210.75 1709.39 213.056C1714.88 215.363 1720.64 216.516 1726.68 216.516C1732.94 216.516 1738.55 215.418 1743.49 213.221C1748.54 210.915 1752.82 207.4 1756.34 202.677C1759.85 197.845 1762.54 191.749 1764.41 184.391C1766.28 176.922 1767.21 168.026 1767.21 157.702C1767.21 139.141 1764.14 125.742 1757.99 117.504C1751.84 109.157 1742.99 104.984 1731.46 104.984C1723.66 104.984 1716.85 106.796 1711.03 110.42C1705.21 113.935 1699.67 118.932 1694.39 125.412V201.195ZM1694.39 96.7467C1701.2 89.6077 1708.73 83.9515 1716.96 79.778C1725.31 75.4946 1734.81 73.3529 1745.47 73.3529C1755.24 73.3529 1764.03 75.2749 1771.82 79.119C1779.73 82.963 1786.43 88.5094 1791.92 95.7582C1797.52 102.897 1801.81 111.574 1804.77 121.788C1807.74 132.002 1809.22 143.479 1809.22 156.219C1809.22 169.948 1807.52 182.414 1804.11 193.617C1800.71 204.819 1795.82 214.429 1789.45 222.447C1783.19 230.355 1775.61 236.505 1766.72 240.898C1757.82 245.291 1747.94 247.488 1737.06 247.488C1731.79 247.488 1727.01 246.939 1722.73 245.841C1718.45 244.852 1714.49 243.424 1710.87 241.557C1707.24 239.69 1703.89 237.439 1700.82 234.803C1697.85 232.057 1695 229.037 1692.25 225.742L1690.44 237.109C1689.78 239.965 1688.63 241.997 1686.98 243.205C1685.44 244.413 1683.3 245.017 1680.56 245.017H1653.7V0.206299H1694.39V96.7467Z" fill="white"/>
<path d="M1949.55 141.063C1949.55 135.791 1948.78 130.849 1947.24 126.236C1945.81 121.513 1943.61 117.395 1940.65 113.88C1937.68 110.366 1933.89 107.62 1929.28 105.643C1924.78 103.556 1919.51 102.513 1913.47 102.513C1901.71 102.513 1892.43 105.863 1885.62 112.562C1878.92 119.262 1874.64 128.762 1872.77 141.063H1949.55ZM1871.95 165.61C1872.61 174.286 1874.15 181.81 1876.56 188.18C1878.98 194.44 1882.16 199.657 1886.12 203.831C1890.07 207.894 1894.74 210.97 1900.12 213.056C1905.61 215.033 1911.65 216.022 1918.24 216.022C1924.83 216.022 1930.49 215.253 1935.21 213.715C1940.05 212.178 1944.22 210.475 1947.73 208.608C1951.36 206.741 1954.49 205.039 1957.12 203.501C1959.87 201.964 1962.51 201.195 1965.03 201.195C1968.44 201.195 1970.96 202.458 1972.61 204.984L1984.31 219.811C1979.8 225.083 1974.75 229.531 1969.15 233.155C1963.55 236.67 1957.67 239.525 1951.52 241.722C1945.48 243.809 1939.28 245.291 1932.91 246.17C1926.65 247.049 1920.55 247.488 1914.62 247.488C1902.87 247.488 1891.94 245.566 1881.84 241.722C1871.73 237.768 1862.94 232.002 1855.48 224.424C1848.01 216.736 1842.13 207.29 1837.85 196.088C1833.57 184.775 1831.42 171.705 1831.42 156.878C1831.42 145.346 1833.29 134.528 1837.02 124.424C1840.76 114.21 1846.09 105.368 1853.01 97.8999C1860.03 90.3216 1868.55 84.3359 1878.54 79.9427C1888.64 75.5495 1900.01 73.3529 1912.64 73.3529C1923.3 73.3529 1933.13 75.0553 1942.13 78.46C1951.14 81.8647 1958.88 86.862 1965.36 93.4518C1971.84 99.9317 1976.89 107.949 1980.52 117.504C1984.25 126.95 1986.12 137.768 1986.12 149.959C1986.12 156.11 1985.46 160.283 1984.14 162.48C1982.82 164.567 1980.3 165.61 1976.56 165.61H1871.95Z" fill="white"/>
<path fill-rule="evenodd" clip-rule="evenodd" d="M81.6942 24.4988C-0.685226 57.2443 -0.704193 56.8684 85.488 94.1139C85.488 94.1139 135.107 121.984 149.983 121.984C164.86 121.984 215.943 96.381 215.943 96.381C282.961 70.3684 293.421 64.638 290.025 55.7823C287.851 50.1089 161.513 -0.0176973 149.983 0.217746C145.81 0.30129 115.08 11.2304 81.6942 24.4988ZM1.8225 92.3975C0.801959 95.0633 0.426369 132.142 0.995445 174.791L2.02358 252.335L60.8281 276.18C93.1705 289.292 123.901 299.637 129.117 299.166L138.602 298.308V218.561V138.814L76.0034 113.333C41.5743 99.3165 11.216 87.7798 8.54518 87.7C5.87053 87.6165 2.84684 89.7317 1.8225 92.3975ZM231.551 113.284L168.952 138.814V218.561V298.308L178.437 299.166C183.654 299.637 214.384 289.292 246.726 276.176L305.531 252.332V170.941C305.531 101.527 307.172 89.0895 302.32 88.3224C292.829 89.6167 265.98 99.2405 231.551 113.284Z" fill="white"/>
</svg>
