<svg width="1075" height="301" viewBox="0 0 1075 301" fill="none" xmlns="http://www.w3.org/2000/svg">
<path d="M322.982 63.5507H324.482H351.463C381.538 63.5507 390.84 64.7133 402.201 70.0073M322.982 63.5507L401.568 71.3675M322.982 63.5507V65.0507V233.141V234.641H324.482H335.724H337.224V233.141V165.229L322.982 63.5507ZM402.201 70.0073C402.201 70.0075 402.202 70.0077 402.202 70.0079L401.568 71.3675M402.201 70.0073C402.2 70.0072 402.2 70.0071 402.2 70.007L401.568 71.3675M402.201 70.0073C411.467 74.3096 417.63 80.1069 421.653 88.3769L421.654 88.3782C428.916 103.343 429.033 122.455 421.868 137.224L421.865 137.232C420.046 140.927 416.674 145.108 412.817 148.801C408.956 152.498 404.487 155.823 400.385 157.735M401.568 71.3675C410.562 75.543 416.45 81.1103 420.305 89.0331C427.371 103.594 427.478 122.223 420.519 136.569C417.093 143.529 407.564 152.736 399.748 156.376M400.385 157.735C400.386 157.734 400.387 157.733 400.388 157.733L399.748 156.376M400.385 157.735C400.384 157.735 400.383 157.736 400.382 157.736L399.748 156.376M400.385 157.735C394.636 160.446 390.244 162.082 384.203 163.089C378.221 164.086 370.651 164.461 358.563 164.728C358.563 164.728 358.562 164.728 358.562 164.728L358.529 163.228C382.725 162.693 388.4 161.729 399.748 156.376M679.719 143.525V143.523L680.041 53.8037L680.046 52.3944L681.453 52.3116L692.373 51.6693L693.98 51.5748L693.961 53.1841L693.533 90.1194L679.719 143.525ZM679.719 143.525L679.505 233.138L679.502 234.641H681.005H692.247H693.747V233.141V193.206C693.747 156.611 693.973 152.557 695.842 145.182L695.843 145.181C698.3 135.455 702.429 128.722 708.57 124.385C714.736 120.029 723.138 117.941 734.43 117.941C742.704 117.941 748.681 119.156 753.197 121.47C757.68 123.767 760.853 127.213 763.411 131.931C763.975 132.973 764.492 134.575 764.937 136.678C765.378 138.759 765.73 141.237 766.008 143.971C766.563 149.439 766.81 155.84 766.891 161.963C766.972 168.082 766.887 173.897 766.781 178.184C766.728 180.327 766.67 182.086 766.626 183.31C766.603 183.921 766.584 184.399 766.571 184.723C766.564 184.885 766.559 185.008 766.555 185.091L766.551 185.185L766.55 185.208L766.55 185.213L766.55 185.215C766.55 185.215 766.55 185.215 768.048 185.284M679.719 143.525L768.048 185.284M768.048 185.284L766.55 185.215L766.548 185.254L766.548 185.294L766.869 233.151L766.879 234.641H768.369H779.504H781.021L781.004 233.125L780.469 184.213C780.469 184.21 780.469 184.208 780.469 184.205C780.469 178.854 780.485 174.185 780.5 170.053C780.569 150.449 780.595 142.895 778.626 131.706L778.605 131.585L778.564 131.469C775.27 122.081 770.354 115.209 763.242 110.717C756.157 106.241 747.062 104.235 735.608 104.235C718.808 104.235 702.866 110.877 695.111 121.329L695.104 121.338L695.098 121.346C694.554 122.103 694.02 122.813 693.528 123.443C693.487 121.636 693.457 119.207 693.439 116.285C693.399 109.591 693.426 100.339 693.533 90.1211L768.048 185.284ZM448.92 205.821L448.923 205.832C450.797 214.595 454.571 221.615 460.347 226.815C466.114 232.007 473.768 235.286 483.238 236.764C493.713 238.418 509.102 236.228 519.2 231.728L519.207 231.725C522.734 230.132 527.593 226.582 531.118 222.948C531.119 222.946 531.121 222.945 531.122 222.944L534.723 219.276L534.981 221.336C535.072 222.069 535.158 222.761 535.238 223.412C535.507 225.592 535.721 227.322 535.93 228.673C536.195 230.38 536.482 231.722 536.995 232.675C537.273 233.191 537.64 233.64 538.137 233.976C538.627 234.309 539.153 234.47 539.655 234.554C540.34 234.668 541.208 234.658 542.103 234.647C542.365 234.644 542.63 234.641 542.893 234.641H547.711H549.211V233.141V108.947V107.447H547.711H535.934H534.434V108.947V149.096C534.434 170.429 534.325 182.181 533.637 189.82C532.958 197.348 531.727 200.787 529.445 205.506C526.88 210.736 523.449 214.66 518.828 217.534C514.182 220.423 508.252 222.303 500.622 223.303L500.621 223.303C484.584 225.413 471.766 221.008 466.658 212.659L466.654 212.652C465.423 210.661 464.521 209.002 463.827 206.903C463.128 204.791 462.617 202.167 462.255 198.247C461.527 190.37 461.418 177.554 461.418 153.7V108.947V107.447H459.918H449.212H447.712V108.947V154.449C447.712 169.229 447.819 181.1 448.02 189.735C448.121 194.052 448.245 197.569 448.392 200.241C448.536 202.875 448.707 204.785 448.92 205.821ZM567.623 228.644V229.726L568.649 230.067L575.394 232.316C581.632 234.395 590.416 236.124 600.001 237.201C602.938 237.54 607.77 237.421 612.801 237.032C617.859 236.641 623.248 235.966 627.339 235.147C641.567 232.302 653.071 224.031 656.623 213.604L656.624 213.601C657.926 209.751 658.498 204.832 658.416 200.192C658.334 195.58 657.601 191.02 656.126 187.953L656.123 187.945L656.119 187.938C651.009 177.604 642.191 172.083 615.596 161.83C603.219 157.008 595.7 153.361 591.158 149.6C588.918 147.745 587.437 145.887 586.457 143.873C585.474 141.854 584.957 139.598 584.752 136.891C584.498 133.015 585.047 130.274 586.521 128.005C588.02 125.698 590.604 123.679 594.846 121.531C603.288 117.389 612.236 116.746 621.333 117.764C629.562 118.685 637.808 120.951 645.853 123.161C646.735 123.403 647.615 123.645 648.491 123.884L649.525 124.166L650.127 123.28L655.801 114.929L656.797 113.464L655.187 112.723L654.56 114.086C655.187 112.723 655.187 112.723 655.187 112.723L655.186 112.723L655.184 112.722L655.177 112.719L655.152 112.707L655.056 112.663C654.972 112.626 654.849 112.57 654.69 112.5C654.372 112.359 653.91 112.157 653.326 111.909C652.16 111.414 650.507 110.736 648.556 110.005C644.67 108.548 639.544 106.853 634.706 105.973C626.378 104.395 617.306 103.989 609.021 104.641C600.763 105.291 593.157 107.002 587.822 109.751C581.665 112.831 577.23 116.507 574.444 121.218C571.654 125.935 570.614 131.524 570.944 138.249L570.945 138.256C571.389 146.478 573.648 152.589 579.735 158.079C585.689 163.448 595.242 168.161 610.009 173.939C623.286 179.186 631.696 183.243 636.917 187.262C642.02 191.19 644.007 195.024 644.501 199.973C644.84 204.604 643.867 208.613 641.757 211.923C639.641 215.242 636.32 217.956 631.81 219.877L631.805 219.879C624.752 222.917 614.99 224.196 604.752 223.72C594.53 223.245 583.986 221.028 575.408 217.21L575.395 217.204L569.721 214.742L567.623 213.832V216.118V228.644ZM357.428 152.093L357.421 152.093L337.224 152.591V76.0088L357.953 76.5071C357.954 76.5071 357.955 76.5072 357.956 76.5072C369.91 76.8288 377.081 77.2032 382.456 78.1319C387.754 79.0469 391.317 80.5024 396.033 83.0697C408.072 89.6464 413.833 103.168 411.326 120.723C410.121 128.943 407.66 135 403.544 139.582C399.424 144.168 393.509 147.428 385.108 149.792C380.6 151.02 373.176 151.772 357.428 152.093Z" fill="white" stroke="white" stroke-width="3"/>
<path d="M870.438 236.665L870.418 236.662C850.776 234.058 838.136 228.374 825.976 216.105C801.358 191.483 796.914 149.323 806.871 117.603C811.431 102.73 816.58 93.8409 826.616 83.6956L826.622 83.6898L826.622 83.6899C836.983 73.3292 848.147 66.9778 862.235 63.5923L862.241 63.5908C868.071 62.2158 876.467 61.4903 884.974 61.4095C893.485 61.3287 902.234 61.8922 908.789 63.1476C913.038 63.9107 918.074 65.2116 922.278 66.5229C924.383 67.1793 926.3 67.8448 927.819 68.4549C928.554 68.75 929.212 69.0384 929.759 69.3127C929.621 68.9312 929.503 68.6036 929.404 68.3319C929.306 68.0626 929.228 67.8495 929.171 67.6937C929.142 67.6158 929.119 67.5536 929.101 67.5066L929.08 67.4504L929.078 67.4434C928.974 67.2049 928.857 66.9027 928.795 66.5791C928.728 66.2325 928.702 65.7428 928.931 65.2354C929.393 64.2114 930.478 63.9417 931.129 63.8275C931.916 63.6895 933.003 63.6411 934.422 63.6394C935.864 63.6377 937.739 63.6853 940.148 63.7656C940.149 63.7657 940.149 63.7657 940.15 63.7657L950.532 64.0868L951.557 64.1185L951.899 65.0851L965.174 102.555L870.438 236.665ZM870.438 236.665L870.458 236.667C885.676 238.269 900.661 236.786 915.59 233.427L915.601 233.424L915.613 233.422L924.927 231.173L926.075 230.896V229.715C926.075 229.47 926.079 228.966 926.084 228.269L926.084 228.264C926.101 226.127 926.13 222.253 926.099 218.911C926.084 217.242 926.053 215.686 925.997 214.54C925.969 213.973 925.934 213.472 925.886 213.096C925.863 212.92 925.83 212.706 925.773 212.51C925.748 212.423 925.692 212.242 925.576 212.052C925.513 211.949 925.111 211.299 924.254 211.299C924.104 211.299 923.954 211.325 923.928 211.329L923.925 211.33C923.86 211.34 923.784 211.354 923.703 211.37C923.539 211.401 923.318 211.446 923.052 211.502C922.518 211.614 921.775 211.776 920.875 211.978C919.076 212.38 916.635 212.944 913.955 213.587C907.281 215.11 898.072 216.093 889.392 216.399C880.665 216.706 872.693 216.32 868.426 215.202L868.418 215.2C846.873 209.673 833.97 192.761 828.635 172.576C823.291 152.36 825.613 129.056 834.381 111.215C841.062 97.6451 852.206 87.8714 866.035 83.5043L866.038 83.5033C884.44 77.6483 905.425 82.104 922.896 89.8685L924.327 90.5045L924.9 89.0473L931.151 73.1736C931.711 74.7315 932.375 76.5795 933.132 78.6894C935.591 85.5401 939.035 95.1492 943.121 106.549L943.151 106.632C947.558 118.927 952.709 133.297 958.174 148.532C973.812 192.126 987.077 229.14 987.605 230.725L987.61 230.74L987.616 230.755L988.686 233.753L989.054 234.784L990.149 234.747L1009.53 234.105L1010.54 234.071L1010.89 233.113L1032.62 172.623L870.438 236.665ZM999.572 205.04C1000.24 202.814 1001.07 199.84 1001.92 196.574L1001.93 196.561L1001.93 196.547C1003.87 189.64 1012.46 163.898 1021.13 139.493C1025.65 126.762 1030.38 113.359 1034.29 102.264L1034.29 102.263C1037.88 92.0968 1040.78 83.8619 1042.22 79.86C1042.22 79.858 1042.22 79.856 1042.22 79.8541L1047.57 64.5556L1047.92 63.5507H1048.98H1069.86H1071.99L1071.27 65.5581L1062.92 88.791L1062.92 88.8C1058.21 101.642 1044.61 139.323 1032.62 172.622L999.572 205.04ZM999.572 205.04C999.219 203.717 998.824 202.152 998.413 200.473C996.453 191.343 989.22 170.097 965.175 102.557L999.572 205.04Z" fill="white" stroke="white" stroke-width="3"/>
<path d="M143.703 299.787C143.703 299.554 142.305 299.274 140.58 299.088C138.809 298.948 136.573 298.715 135.547 298.622C134.522 298.482 131.819 298.156 129.489 297.876C127.205 297.597 124.689 297.177 123.897 296.944C123.151 296.711 120.728 296.199 118.537 295.779C108.145 293.822 86.8477 286.412 86.8477 284.781C86.8477 284.408 92.0671 276.998 108.098 254.536C111.5 249.782 114.716 245.309 115.275 244.516C115.834 243.771 118.957 239.344 122.266 234.73C125.574 230.116 129.023 225.223 130.002 223.918L131.726 221.448H166.771C197.668 221.448 201.863 221.355 202.795 220.703C203.82 220.003 203.82 219.957 203.82 204.718C203.82 196.329 203.96 181.277 204.146 171.257V148.282H299.821V158.115C299.821 181.163 289.186 207.564 277.592 226.854C273.631 233.425 269.716 239.39 268.318 241.021C267.945 241.394 266.64 242.979 265.428 244.516C254.104 258.451 239.797 270.567 224.092 279.468C217.987 282.917 206.29 288.556 205.218 288.556C204.938 288.556 204.379 288.742 203.913 288.975C200.977 290.606 187.975 294.521 181.684 295.733C179.4 296.152 176.884 296.711 176.091 296.944C174.088 297.503 166.678 298.435 159.221 299.088C157.357 299.274 155.819 299.601 155.819 299.787C155.819 300.02 153.116 300.206 149.761 300.206C146.452 300.206 143.703 300.02 143.703 299.787ZM153.722 297.41C153.862 297.177 155.26 296.944 156.751 296.944C167.284 296.944 186.158 293.03 200.092 287.95C213.14 283.243 227.68 275.274 238.492 266.979C245.902 261.293 247.02 260.315 253.685 253.604C261.654 245.635 262.493 244.703 269.157 235.476L272.326 231.095L270.042 228.718C268.784 227.413 266.827 225.363 265.708 224.198C257.413 215.297 242.686 203.18 229.684 194.559C219.665 187.894 207.735 180.904 206.383 180.904C206.243 180.904 206.15 189.712 206.15 200.477C206.15 217.161 206.057 220.283 205.451 221.448C205.032 222.24 204.659 222.893 204.612 222.939C204.566 223.033 188.488 223.172 168.868 223.312L133.264 223.545L126.553 232.866C122.918 237.992 119.516 242.699 119.097 243.351C118.677 244.004 117.419 245.775 116.3 247.313C115.182 248.85 113.97 250.528 113.597 251.041C113.225 251.553 110.382 255.561 107.26 259.895C101.993 267.258 100.642 269.169 96.308 275.274C95.4225 276.579 93.605 279.049 92.3467 280.773C91.0419 282.497 90.0632 283.989 90.1564 284.082C90.4827 284.315 98.6381 287.53 102.459 288.929C107.586 290.793 115.648 293.03 120.401 293.915C122.592 294.334 125.807 294.987 127.532 295.36C129.256 295.733 134.009 296.245 138.017 296.525C142.025 296.804 145.66 297.224 146.033 297.41C147.011 297.969 153.396 297.969 153.722 297.41Z" fill="white"/>
<path d="M144.635 298.808C144.262 298.622 140.627 298.202 136.619 297.923C132.611 297.643 127.858 297.131 126.134 296.758C124.409 296.385 121.194 295.733 119.004 295.313C114.297 294.428 108.238 292.75 102.46 290.793C97.147 288.929 88.1527 285.34 87.6401 284.828C87.407 284.641 88.6187 282.591 90.2964 280.261C91.9741 277.977 94.1178 275.041 94.9566 273.829C95.8421 272.571 97.38 270.381 98.4052 268.983C99.3839 267.585 102.739 262.878 105.862 258.497C108.984 254.163 111.827 250.155 112.2 249.643C112.572 249.13 113.784 247.452 114.903 245.914C116.021 244.377 117.279 242.606 117.699 241.953C118.118 241.301 121.52 236.594 125.155 231.468L131.866 222.147L167.47 221.914C187.09 221.774 203.168 221.635 203.214 221.541C203.261 221.495 203.634 220.842 204.053 220.05C204.659 218.885 204.752 215.623 204.752 197.914V177.129L206.29 178.294C207.082 178.9 209.273 180.112 211.043 180.997C217.521 184.12 232.807 193.953 241.801 200.757C251.727 208.213 261.234 216.508 267.106 222.8C268.225 223.965 270.415 226.248 271.953 227.879L274.749 230.815L273.491 232.773C271.72 235.429 264.543 245.076 262.772 247.08C260.349 249.876 248.885 261.247 246.694 263.064C228.892 277.604 212.022 286.598 191.004 292.75C180.519 295.826 165.746 298.342 158.15 298.342C156.658 298.342 155.26 298.575 155.12 298.808C154.794 299.368 145.614 299.368 144.635 298.808Z" fill="white"/>
<path d="M204.286 139.428L204.379 133.369L204.286 124.795L200.697 121.02C198.693 118.969 194.592 114.682 191.47 111.466C188.394 108.251 179.213 98.6505 171.058 90.1689L156.192 74.6502H147.757C143.096 74.6502 139.042 74.4638 138.762 74.2774C138.296 73.9978 128.51 59.4578 105.069 24.1797C100.362 17.0495 96.5872 11.1776 96.6804 11.0844C97.0066 10.7582 107.492 7.26302 111.127 6.23776C118.118 4.28046 125.527 2.92898 136.992 1.4377C147.99 0.0396284 148.922 -0.00697409 154.654 0.505653C170.173 1.85713 182.615 4.14065 194.546 7.91545C217.148 15.0456 239.144 28.4672 255.642 45.1509C274.05 63.7453 286.259 84.996 293.762 111.466C296.845 122.158 297.46 128.415 298.423 139.428C266.956 139.428 204.286 139.428 204.286 139.428ZM296.559 139.428C296.559 139.428 295.347 129.408 294.788 125.68C294.042 121.02 291.479 111.093 289.335 104.709C276.613 66.5414 250.096 36.11 214.352 18.5874C205.497 14.3 200.744 12.3427 193.334 10.0126C183.081 6.79699 184.573 6.84359 176.557 9.49994C162.017 14.3466 145.706 21.337 134.149 27.6283C126.972 31.5429 117.139 37.4614 117.139 37.8343C117.139 37.9741 122.312 45.8499 128.696 55.3102L140.207 72.5531L149.015 72.6463C157.59 72.7395 157.869 72.7861 158.848 73.8114C159.407 74.4172 166.118 81.4076 173.808 89.33C181.45 97.2991 191.889 108.111 196.969 113.424L206.15 123.07V131.645V139.428H296.559Z" fill="white"/>
<path d="M71.8882 276.579C69.5115 275.134 65.2241 272.245 62.3813 270.148C57.3949 266.466 49.0996 259.709 49.0996 259.383C49.0996 259.289 49.8452 259.196 50.7307 259.196C52.1288 259.196 52.3618 259.336 52.3618 260.315C52.3618 261.293 52.6414 261.48 53.8997 261.619C55.0181 261.713 55.4375 261.992 55.5307 262.831C55.6706 263.577 55.9968 263.856 56.8356 263.856C57.6279 263.856 57.9541 264.089 57.9541 264.788C57.9541 265.487 58.2803 265.721 59.1191 265.721C59.8648 265.721 60.2842 266 60.2842 266.42C60.2842 266.792 60.7036 267.119 61.2163 267.119C61.9153 267.119 62.1483 267.445 62.1483 268.284C62.1483 269.309 62.3347 269.449 63.7328 269.449C64.6648 269.449 65.6901 269.868 66.4357 270.521C67.0416 271.08 68.1134 271.825 68.8125 272.198C69.5115 272.571 70.0707 273.037 70.0707 273.27C70.0707 273.457 70.3969 273.643 70.7698 273.643C71.1426 273.643 71.4688 273.876 71.4688 274.109C71.4688 274.389 71.8882 274.575 72.4009 274.575C72.8669 274.575 73.4727 274.855 73.6591 275.181C73.8455 275.507 74.5912 276.02 75.3368 276.299C76.4087 276.812 76.5951 276.765 76.5951 276.206C76.5951 275.833 76.9213 275.507 77.2941 275.507C77.6669 275.507 77.9932 275.088 77.9932 274.575C77.9932 274.062 78.3194 273.643 78.6922 273.643C79.065 273.643 79.3912 273.224 79.3912 272.711C79.3912 272.198 79.6242 271.779 79.8573 271.779C80.1369 271.779 80.3233 271.453 80.3233 271.08C80.3233 270.707 80.5563 270.381 80.7893 270.381C81.0689 270.381 81.2553 270.055 81.2553 269.682C81.2553 269.309 81.5815 268.983 81.9544 268.983C82.3272 268.983 82.6534 268.563 82.6534 268.051C82.6534 267.538 82.8864 267.119 83.1194 267.119C83.399 267.119 83.5855 266.792 83.5855 266.42C83.5855 266.047 83.9117 265.721 84.2845 265.721C84.6573 265.721 84.9835 265.301 84.9835 264.788C84.9835 264.276 85.2165 263.856 85.4496 263.856C85.7292 263.856 85.9156 263.53 85.9156 263.157C85.9156 262.738 86.2418 262.319 86.6146 262.179C86.9874 261.992 87.3137 261.619 87.3137 261.247C87.3137 260.874 87.5467 260.594 87.7797 260.594C88.0593 260.594 88.2457 260.268 88.2457 259.895C88.2457 259.522 88.5719 259.196 88.9447 259.196C89.3176 259.196 89.6438 258.777 89.6438 258.264C89.6438 257.565 89.97 257.332 90.8088 257.332C91.8341 257.332 91.9739 257.146 91.9739 255.701C91.9739 254.816 92.2069 254.07 92.4399 254.07C92.7195 254.07 92.906 253.744 92.906 253.371C92.906 252.998 93.2322 252.672 93.605 252.672C93.9778 252.672 94.304 252.252 94.304 251.74C94.304 251.041 94.6302 250.808 95.4691 250.808C96.4943 250.808 96.6342 250.621 96.6342 249.177C96.6342 248.291 96.8672 247.546 97.1002 247.546C97.3798 247.546 97.5662 247.219 97.5662 246.846C97.5662 246.474 97.8924 246.147 98.2652 246.147C98.6381 246.147 98.9643 245.728 98.9643 245.215C98.9643 244.703 99.2905 244.283 99.6633 244.283C100.036 244.283 100.362 243.864 100.362 243.351C100.362 242.839 100.595 242.419 100.828 242.419C101.108 242.419 101.294 242.093 101.294 241.72C101.294 241.347 101.527 241.021 101.76 241.021C102.04 241.021 102.226 240.695 102.226 240.322C102.226 239.949 102.553 239.623 102.925 239.623C103.298 239.623 103.625 239.204 103.625 238.691C103.625 238.178 103.858 237.759 104.091 237.759C104.37 237.759 104.557 237.433 104.557 237.06C104.557 236.641 104.883 236.221 105.256 236.081C105.628 235.895 105.955 235.522 105.955 235.149C105.955 234.776 106.188 234.497 106.421 234.497C106.7 234.497 106.887 234.171 106.887 233.798C106.887 233.332 107.353 233.099 108.285 233.099H109.729L108.378 235.103C103.298 242.419 76.9679 279.049 76.6883 279.142C76.4553 279.189 74.3116 278.07 71.8882 276.579Z" fill="white"/>
<path d="M110.615 229.65C110.615 228.718 110.848 227.972 111.081 227.972C111.361 227.972 111.547 227.693 111.547 227.32C111.547 226.994 112.06 226.155 112.712 225.456C113.365 224.757 113.877 224.011 113.877 223.732C113.877 223.499 114.204 223.312 114.576 223.312C114.949 223.312 115.275 222.986 115.275 222.613C115.275 222.194 115.742 221.914 116.487 221.914C117.279 221.914 117.559 222.101 117.326 222.52C116.254 224.198 111.454 230.769 111.081 231.002C110.802 231.188 110.615 230.582 110.615 229.65Z" fill="white"/>
<path d="M99.8963 222.38C99.8963 221.774 99.5701 221.448 98.9643 221.448C98.2186 221.448 98.0322 221.122 98.0322 219.817C98.0322 217.767 99.0109 217.673 99.7565 219.631C100.129 220.516 100.828 221.215 101.714 221.588C103.671 222.334 103.578 223.312 101.527 223.312C100.223 223.312 99.8963 223.126 99.8963 222.38Z" fill="white"/>
<path fill-rule="evenodd" clip-rule="evenodd" d="M74.9638 278.862C73.4725 277.977 70.9559 276.393 66.8084 273.69C61.4957 270.241 51.8956 262.505 46.3499 257.099C34.4196 245.495 25.3321 233.192 17.5029 217.953C14.6602 212.361 10.1397 201.363 9.02126 197.215C8.69507 196.05 8.27558 194.698 8.04257 194.186C7.11052 192.089 3.94164 178.341 2.96294 172.283C2.40373 168.694 1.65804 163.987 1.2852 161.844C0.912473 159.7 0.632812 155.785 0.632812 153.176C0.632812 149.214 0.632812 148.282 0.632812 148.282L2.72993 148.282C18.6012 148.911 99.6631 148.282 99.6631 148.282C99.7563 148.329 99.57 166.457 99.7098 185.378L99.7146 185.962C99.9893 219.172 99.9948 219.822 100.921 220.656C101.76 221.355 102.925 221.448 109.962 221.448C114.436 221.448 118.068 221.475 118.071 221.448C118.071 221.635 117.279 223.219 116.347 224.477C114.809 226.528 112.479 229.743 104.789 240.555C104.106 241.54 102.925 243.182 101.67 244.927L101.654 244.949C100.775 246.171 99.8612 247.441 99.0573 248.571C98.3598 249.551 97.6032 250.607 96.876 251.623L96.8285 251.689L96.8251 251.694C95.531 253.501 94.3367 255.169 93.7446 256.027C92.8126 257.379 89.6436 261.806 86.7543 265.814C83.8649 269.868 80.4629 274.622 79.158 276.439C77.8998 278.21 76.7347 279.701 76.5949 279.655C76.4602 279.655 75.8056 279.308 75.0488 278.908L75.0457 278.906L74.9638 278.862ZM78.0396 274.249C79.1114 272.758 80.1833 271.499 80.4163 271.406C80.6028 271.313 80.7891 271.033 80.7891 270.754C80.7891 270.148 86.0086 262.924 86.4746 262.924C86.6611 262.924 86.8475 262.598 86.8475 262.225C86.8475 261.853 87.0805 261.526 87.3135 261.526C87.5931 261.526 87.7795 261.293 87.7795 261.014C87.7795 260.361 93.931 251.74 94.397 251.74C94.5835 251.74 94.7699 251.507 94.7699 251.227C94.7699 250.621 100.782 242.279 101.341 242.046C101.574 241.953 101.76 241.627 101.76 241.394C101.76 240.835 105.442 235.755 106.048 235.522C106.234 235.429 106.421 235.149 106.421 234.87C106.421 234.171 111.593 227.04 112.106 227.04C112.292 227.04 112.479 226.714 112.479 226.341C112.479 225.969 112.619 225.642 112.852 225.642C113.038 225.642 113.411 225.13 113.737 224.477L114.25 223.312H107.306C100.502 223.312 100.269 223.266 99.1971 222.147L98.0321 221.029V197.914C98.0321 182.533 97.933 176.7 97.6235 175.24L95.7019 175.778C93.7912 176.337 88.6182 178.154 84.191 179.786C63.4529 187.475 44.5323 197.308 23.8409 211.056C20.8294 213.073 19.2728 214.207 18.6958 214.89C18.8021 215.286 18.9728 215.797 19.1813 216.36C19.957 217.51 21.1001 219.939 21.4778 221.251C21.5413 221.336 21.5993 221.403 21.6506 221.448C21.7099 221.507 22.0794 222.082 22.6176 222.942C22.7615 223.04 22.8716 223.213 22.9364 223.453C23.29 224.021 23.6938 224.675 24.1178 225.366C24.3288 225.553 24.5214 225.862 24.6433 226.225C24.9031 226.65 25.1658 227.082 25.4253 227.51C25.636 227.538 25.7982 227.758 25.7982 228.019C25.7982 228.062 25.8057 228.109 25.8197 228.161C25.9906 228.444 26.1585 228.723 26.3216 228.994C26.3782 229.06 26.4371 229.124 26.4972 229.184C26.6918 229.403 26.8735 229.749 27.0029 230.135C27.4859 230.949 27.8845 231.633 28.1283 232.074C28.2629 232.326 28.4095 232.572 28.5487 232.79C29.0897 232.972 29.4714 233.472 29.7511 234.377C30.0675 234.788 30.4757 235.325 30.9257 235.922C31.1138 235.993 31.2715 236.204 31.3454 236.479C31.6644 236.903 31.9956 237.345 32.3234 237.784C32.5889 237.842 32.7885 237.996 32.7885 238.178C32.7885 238.365 33.5341 239.344 34.4196 240.276C35.1789 241.111 35.7835 242.069 35.9815 242.749C36.3513 243.18 36.827 243.717 37.3826 244.333C37.5958 244.4 37.7303 244.543 37.8107 244.805C38.6327 245.71 39.5956 246.751 40.631 247.855C40.733 247.931 40.8186 248.022 40.8887 248.13C42.2432 249.571 43.7093 251.108 45.1382 252.579C50.9169 258.59 56.3228 263.251 63.7792 268.75C67.6472 271.592 75.3367 276.765 75.9425 276.905C75.989 276.905 76.9211 275.693 78.0396 274.249Z" fill="white"/>
<path d="M0.632812 140.36C1.09884 134.301 3.15087 126.384 4.12802 119.762C4.87366 114.868 8.74167 102.192 11.631 94.9224C19.134 76.2814 29.3866 60.5297 43.2275 46.316C52.781 36.5294 62.3812 28.8866 73.4259 22.3157C78.5988 19.2399 85.4028 15.6981 85.5892 15.9777C85.6824 16.0709 89.9232 22.4089 95.0495 30.0517C100.129 37.6479 108.844 50.65 114.436 58.9452C119.982 67.1939 124.409 74.091 124.269 74.2775C124.176 74.5105 119.003 74.6503 112.758 74.6503C102.366 74.6503 101.387 74.7435 100.688 75.4891C99.9428 76.2814 99.8962 79.2173 99.8962 108.064C99.8962 134.861 99.8961 140.36 99.8961 140.36H0.632812ZM98.0321 106.34C98.0321 75.2561 98.0321 74.6503 98.9641 73.7182C100.083 72.5998 99.4301 72.6464 111.221 72.7862L120.914 72.8794L118.211 68.7784C116.766 66.4948 114.623 63.2793 113.457 61.6016C112.339 59.9239 109.729 56.0559 107.679 52.9801C105.628 49.9043 103.904 47.2946 103.811 47.2014C103.345 46.5956 88.1057 59.4579 80.1367 67.1939C73.7522 73.4386 63.3598 84.9494 58.3733 91.4272C56.6956 93.6175 54.2257 96.7865 52.9208 98.5574C47.515 105.548 35.7711 124.142 32.0895 131.505C31.3905 132.903 30.4118 134.628 29.9458 135.28L29.0604 136.538L34.7925 136.865C34.5535 136.851 72.4007 137.797 89.0844 137.936L98.0321 138.03V106.34Z" fill="white"/>
<path d="M204.752 139.428V133.043V124.468L195.571 114.822C190.492 109.509 180.053 98.6971 172.41 90.7281C164.72 82.8057 158.01 75.8153 157.45 75.2095C156.518 74.1842 156.145 74.1376 147.664 74.0444L138.809 73.9512L127.252 56.7083C120.867 47.248 115.368 38.9061 115.042 38.2071L114.39 36.9954L120.541 33.2672C134.149 25.0186 145.846 19.2399 160.48 13.4611C169.707 9.82615 182.01 5.67853 183.548 5.67853C186.577 5.67853 201.536 10.5718 209.226 14.067C225.863 21.6632 237.374 29.1196 249.863 40.3508C262.492 51.6752 272.745 64.9103 280.854 80.2891C289.941 97.4855 295.813 116.779 297.491 134.767C297.757 137.567 297.608 136.638 297.957 139.428H204.752Z" fill="white"/>
<path d="M74.2641 277.79C73.0991 277.045 71.8408 276.299 71.468 276.159C69.8835 275.414 62.0077 269.868 56.7882 265.767C50.7765 261.06 38.986 249.503 35.5841 244.982C34.419 243.444 32.6015 241.068 31.5296 239.716C27.8014 235.103 21.7431 225.409 18.2013 218.419L16.0576 214.225L17.0829 213.432C18.3411 212.407 25.9373 207.327 29.7588 204.904C50.2639 191.902 73.5185 180.857 93.4178 174.659C96.4003 173.727 99.0101 172.981 99.1499 172.981C99.2897 172.981 99.4295 183.514 99.4295 196.422C99.4295 196.422 99.01 219.864 100.501 220.889C101.993 221.914 102.132 221.914 109.542 222.007L117.511 222.147L115.088 225.456C113.783 227.273 104.649 240.136 94.7692 253.977C84.8895 267.864 76.7341 279.189 76.5943 279.189C76.4545 279.189 75.4292 278.536 74.2641 277.79Z" fill="white"/>
<path d="M26.7305 138.496C26.7305 138.496 27.1501 136.725 27.6161 135.793C33.4414 124.235 44.9522 105.641 51.5232 97.1592C52.8281 95.3883 55.298 92.2194 56.9757 90.0291C61.9621 83.5513 72.3545 72.0405 78.739 65.7957C87.8265 56.9879 103.299 44.1256 104.184 44.6382C104.417 44.778 106.514 47.7606 108.844 51.2558C117.606 64.3511 122.499 71.6677 123.291 72.8793L124.083 74.1376H113.505C107.679 74.1842 102.553 74.1842 102.133 74.1842C101.667 74.1842 100.875 74.6036 100.363 75.1163C99.4306 76.0483 99.4306 76.6541 99.4306 107.738V139.474C75.1962 139.283 50.9649 138.496 26.7305 138.496Z" fill="white"/>
</svg>
