<svg width="903" height="301" viewBox="0 0 903 301" fill="none" xmlns="http://www.w3.org/2000/svg">
<path d="M130.546 88.4275C143.827 92.4591 155.21 97.6765 164.934 104.317L148.096 138.467C138.61 132.538 128.412 128.032 117.266 124.712C106.12 121.392 95.9219 119.732 86.4357 119.732C76.7124 119.732 69.1235 121.392 63.6689 124.949C58.2144 128.507 55.3685 133.724 55.3685 140.839C55.3685 147.953 58.6887 153.408 65.0919 157.202C71.7322 160.997 82.6413 165.265 97.8191 170.246C112.286 174.514 124.38 178.783 133.867 183.052C143.353 187.321 151.416 193.724 158.293 202.262C165.171 210.799 168.491 222.182 168.491 236.175C168.491 257.044 160.665 272.933 145.013 283.843C129.361 294.752 109.914 299.969 86.4357 299.969C70.3093 299.969 54.6571 297.36 39.2421 292.143C23.827 286.926 11.0207 279.574 0.585938 270.325L16.9496 237.36C26.1986 245.424 37.3448 251.827 50.3883 256.57C63.6689 261.313 76.2381 263.922 88.5701 263.922C99.0049 263.922 107.542 262.024 113.946 258.23C120.349 254.435 123.669 248.744 123.669 240.918C123.669 234.989 121.772 230.246 117.74 226.214C113.708 222.42 108.965 219.337 103.511 216.965C97.8191 214.594 89.7559 211.985 79.084 208.665C64.8547 204.396 53.2342 200.127 44.4595 196.096C35.4476 192.064 27.8587 185.898 21.4555 177.597C15.0523 169.534 11.7322 158.625 11.7322 144.87C11.7322 124.475 19.3211 109.06 34.2618 98.388C49.2025 87.7161 68.1749 82.4987 90.4674 82.4987C103.985 82.4987 117.266 84.3959 130.546 88.4275Z" fill="white"/>
<path d="M372.444 111.431C389.282 130.404 397.582 157.202 397.582 191.827C397.582 195.384 397.345 201.076 396.871 209.139H235.132C238.926 225.74 246.752 238.783 258.373 248.269C270.23 257.756 284.46 262.499 301.298 262.499C312.918 262.499 323.827 260.364 334.262 256.096C344.697 251.827 353.709 245.661 361.535 237.597L385.962 263.684C375.29 275.305 362.483 284.08 347.306 290.246C332.365 296.412 315.764 299.732 297.503 299.732C275.685 299.732 256.713 295.226 240.112 285.977C223.748 276.965 210.942 264.159 201.693 247.795C192.681 231.431 187.938 212.696 187.938 191.59C187.938 170.483 192.444 151.511 201.693 135.147C210.705 118.783 223.511 105.977 240.112 96.4908C256.476 87.2417 275.211 82.4987 296.317 82.4987C330.468 82.7358 355.606 92.4591 372.444 111.431ZM339.242 134.673C328.57 124.712 314.341 119.969 297.029 119.969C280.191 119.969 266.199 124.949 255.053 134.673C243.906 144.633 237.029 158.151 234.183 175.226H356.317C355.843 158.151 349.914 144.633 339.242 134.673Z" fill="white"/>
<path d="M901.771 298.309H855.763V261.787C847.937 274.357 837.74 283.843 825.171 290.483C812.364 297.123 797.661 300.206 780.823 300.206C760.428 300.206 742.641 295.7 727.226 286.451C711.811 277.202 699.953 264.396 691.416 247.795C682.878 231.194 678.609 212.222 678.609 190.641C678.609 169.534 682.878 150.799 691.416 134.436C699.953 118.072 712.048 105.266 727.226 96.2537C742.641 87.2419 760.19 82.4988 780.111 82.4988C797.186 82.4988 812.127 85.8189 824.933 92.6964C837.503 99.3367 847.937 109.06 856.238 121.629V0.206299L902.246 49.0601V208.428V298.309H901.771ZM830.862 242.341C842.957 229.297 849.123 212.696 849.123 192.301C849.123 171.669 842.957 154.831 830.862 141.787C818.767 128.744 802.878 122.104 783.669 122.104C764.459 122.104 748.807 128.744 736.475 141.787C724.143 154.831 717.977 171.669 717.74 192.301C717.977 212.696 724.143 229.534 736.475 242.341C748.807 255.384 764.459 261.787 783.669 261.787C802.878 261.787 818.53 255.384 830.862 242.341Z" fill="white"/>
<path d="M621.693 104.791C635.922 119.495 642.8 139.653 642.8 165.266V298.309H596.555V178.309C596.555 162.183 592.049 149.613 582.8 140.127C573.788 130.878 561.219 126.135 545.092 126.135C528.017 126.372 514.025 131.827 503.116 142.499C492.207 153.171 486.041 167.163 484.381 184.238V298.072L438.136 249.455V165.977C438.136 148.428 473.709 81.5501 554.816 79.1786C579.954 78.7043 607.701 90.0877 621.693 104.791Z" fill="white"/>
</svg>
