<svg width="1083" height="301" viewBox="0 0 1083 301" fill="none" xmlns="http://www.w3.org/2000/svg">
<g opacity="0.9">
<path opacity="0.9" d="M222.584 149.714C222.307 197.048 209.403 233.596 183.872 259.397C158.064 285.474 122.588 298.513 77.4048 298.513H68.7231C58.4236 298.513 50.0578 290.137 50.0578 279.824C50.0578 269.512 58.4236 261.135 68.7231 261.135H82.4557C113.591 261.135 137.583 250.665 154.434 229.685C170.968 208.98 179.531 182.35 180.084 149.753C179.531 117.156 170.968 90.3676 154.434 69.4263C137.583 48.7224 113.631 38.4099 82.4557 38.4099H68.7231C58.4236 38.4099 50.0578 30.0335 50.0578 19.721C50.0183 9.29001 58.3841 0.913635 68.7231 0.913635H77.4048C122.588 0.913635 158.064 13.7944 183.872 39.5953C209.365 65.6727 222.268 102.379 222.584 149.714Z" fill="#3657FF"/>
<path opacity="0.9" d="M19.4361 299.974C29.919 299.974 38.4172 291.377 38.4172 280.772C38.4172 270.166 29.919 261.569 19.4361 261.569C8.95319 261.569 0.455078 270.166 0.455078 280.772C0.455078 291.377 8.95319 299.974 19.4361 299.974Z" fill="#3657FF"/>
</g>
<g opacity="0.9">
<path opacity="0.9" d="M137.705 152.114C137.981 199.449 150.885 235.997 176.417 261.797C202.225 287.875 237.7 300.914 282.884 300.914H291.565C301.865 300.914 310.231 292.538 310.231 282.225C310.231 271.913 301.865 263.536 291.565 263.536H277.833C246.697 263.536 222.704 253.066 205.894 232.085C189.359 211.382 180.796 184.751 180.244 152.154C180.796 119.557 189.359 92.7683 205.894 71.8272C222.744 51.1233 246.697 40.8108 277.833 40.8108H291.565C301.865 40.8108 310.231 32.4344 310.231 22.122C310.231 11.8095 301.865 3.43314 291.565 3.43314H282.884C237.7 3.43314 202.225 16.3138 176.417 42.1147C150.885 68.0736 137.981 104.78 137.705 152.114Z" fill="#3DDC97"/>
<path opacity="0.9" d="M340.929 41.689C351.412 41.689 359.91 33.0918 359.91 22.4865C359.91 11.8812 351.412 3.284 340.929 3.284C330.447 3.284 321.948 11.8812 321.948 22.4865C321.948 33.0918 330.447 41.689 340.929 41.689Z" fill="#3DDC97"/>
</g>
<path d="M368.304 108.79C365.464 110.78 361.724 110.496 359.074 108.269C357.606 107.036 356.044 105.899 354.339 104.808C351.405 102.865 347.854 101.159 343.736 99.6894C339.57 98.2202 335.073 97.5092 330.197 97.5092C321.914 97.5092 315.57 99.3107 311.168 102.96C306.765 106.562 304.588 110.591 304.588 115.046C304.588 120.402 306.765 124.478 311.168 127.322C315.57 130.118 321.108 132.631 327.83 134.858C334.552 137.086 341.748 139.219 349.417 141.352C357.086 143.438 364.28 146.376 371.002 150.12C377.724 153.865 383.263 158.747 387.665 164.813C391.973 170.738 394.15 178.464 394.245 187.943C394.293 193.062 393.583 198.229 391.926 203.111C388.991 211.689 383.831 219.131 376.494 225.387C370.766 230.269 363.808 234.155 355.618 236.952C347.429 239.749 338.34 241.171 328.351 241.171C316.659 241.171 306.623 239.606 298.339 236.431C290.056 233.255 283.097 229.7 277.463 225.814C272.161 222.259 267.475 218.183 263.451 213.538C260.848 210.552 260.611 206.096 262.741 202.778C263.925 200.978 265.676 198.75 268.233 196.19C271.973 192.446 274.907 190.218 277.274 188.939C280.493 187.138 284.375 187.801 286.978 190.408C289.724 193.157 292.754 195.669 296.067 197.944C299.949 200.456 304.541 202.826 309.795 205.007C315.049 207.187 321.204 208.277 328.257 208.277C338.481 208.277 345.961 206.286 350.553 202.304C355.192 198.323 357.511 193.299 357.511 187.232C357.511 182.114 355.334 178.085 350.931 175.146C346.529 172.208 340.991 169.648 334.269 167.42C327.547 165.193 320.351 163.06 312.682 160.927C305.014 158.841 297.819 155.903 291.097 152.159C284.375 148.414 278.836 143.579 274.434 137.607C270.031 131.636 267.854 123.673 267.854 113.624C267.854 107.558 269.369 101.538 272.445 95.5659C275.475 89.5937 279.783 84.3804 285.274 79.7829C290.765 75.2327 297.298 71.5356 304.825 68.7392C312.398 65.9428 320.777 64.5209 330.055 64.5209C339.57 64.5209 347.854 65.8006 354.955 68.36C362.008 70.9195 368.02 73.6685 372.896 76.6074C376.873 79.0247 380.328 81.6789 383.358 84.6174C385.535 86.7504 385.914 90.1629 384.162 92.6747C382.6 94.8549 380.328 97.8414 376.92 101.538C374.363 104.287 371.05 106.847 368.304 108.79Z" fill="#0F0C3D"/>
<path d="M491.905 241.028C483.1 241.028 475.243 239.796 468.284 237.379C461.325 234.962 455.408 232.26 450.532 229.322C444.662 225.909 439.55 221.88 435.148 217.235V299.564C435.148 300.323 434.532 300.891 433.822 300.891H399.881C399.123 300.891 398.556 300.275 398.556 299.564V66.1326C398.556 65.3742 399.171 64.8054 399.881 64.8054H427.053C431.55 64.8054 435.148 68.455 435.148 72.9104V77.7451V84.2386C435.148 85.3756 436.473 85.9921 437.325 85.2339C441.207 81.8214 445.609 78.7404 450.485 75.9909C455.36 73.1948 461.278 70.5405 468.237 68.0759C475.195 65.6112 483.053 64.3789 491.858 64.3789C503.313 64.3789 514.249 66.654 524.616 71.2515C534.983 75.849 544.119 82.0584 552.072 89.9731C559.977 97.8414 566.273 107.226 570.912 118.033C575.551 128.839 577.871 140.404 577.871 152.633C577.871 165.098 575.551 176.711 570.912 187.422C566.273 198.134 559.977 207.424 552.072 215.339C544.119 223.207 534.983 229.463 524.616 234.061C514.296 238.754 503.361 241.028 491.905 241.028ZM488.26 97.4146C481.444 97.4146 474.864 98.8366 468.521 101.728C462.177 104.619 456.497 108.506 451.527 113.483C446.509 118.459 442.579 124.241 439.644 130.925C436.71 137.608 435.242 144.86 435.242 152.68C435.242 160.501 436.71 167.8 439.644 174.483C442.579 181.166 446.556 186.995 451.527 191.925C456.544 196.901 462.177 200.789 468.521 203.68C474.864 206.571 481.444 207.992 488.26 207.992C495.077 207.992 501.657 206.571 508 203.68C514.343 200.789 520.024 196.901 524.994 191.925C530.012 186.948 533.941 181.166 536.876 174.483C539.811 167.8 541.279 160.548 541.279 152.68C541.279 144.86 539.811 137.608 536.876 130.925C533.941 124.241 529.965 118.412 524.994 113.483C519.976 108.506 514.343 104.619 508 101.728C501.657 98.8839 495.077 97.4146 488.26 97.4146Z" fill="#0F0C3D"/>
<path d="M621.563 240.649H587.007C586.438 240.649 585.965 240.175 585.965 239.606V1.95638C585.965 1.38761 586.438 0.913635 587.007 0.913635H621.563C622.131 0.913635 622.604 1.38761 622.604 1.95638V239.606C622.604 240.223 622.131 240.649 621.563 240.649Z" fill="#0F0C3D"/>
<path d="M673.726 161.164C670.365 161.164 667.81 164.387 668.756 167.657C669.845 171.449 671.359 175.146 673.348 178.843C676.377 184.578 680.306 189.602 685.04 193.868C689.774 198.134 695.36 201.546 701.703 204.2C708.047 206.807 714.863 208.135 722.2 208.135C730.721 208.135 738.342 206.713 745.064 203.916C751.789 201.12 757.324 197.992 761.729 194.579C765.421 191.593 768.777 188.323 771.856 184.815C773.796 182.635 777.204 182.588 779.242 184.625L785.683 191.072L795.713 201.12C797.653 203.063 797.706 206.192 795.856 208.229C791.121 213.538 785.586 218.372 779.286 222.733C772.71 227.378 764.665 231.596 755.144 235.388C745.632 239.18 734.65 241.076 722.2 241.076C709.751 241.076 698.058 238.706 687.076 234.014C676.093 229.321 666.389 222.828 658.011 214.58C649.584 206.333 642.957 196.807 638.081 185.953C633.206 175.099 630.744 163.487 630.744 151.021C630.744 139.029 633.111 127.749 637.892 117.274C642.673 106.799 649.064 97.6517 657.111 89.9259C665.159 82.1529 674.626 75.9909 685.466 71.3935C696.307 66.7959 707.952 64.5209 720.402 64.5209C732.851 64.5209 744.307 66.5589 754.815 70.5877C765.324 74.6165 774.365 80.3042 782.08 87.5559C789.751 94.8549 795.766 103.434 800.02 113.387C804.282 123.341 806.417 134.195 806.417 145.949C806.417 148.509 806.275 150.831 806.035 152.87C805.796 154.955 805.563 156.803 805.279 158.415C805.039 160.263 804.807 161.164 804.567 161.164C802.297 161.164 801.631 161.164 801.631 161.164H673.726ZM720.306 95.6132C706.39 95.6132 695.076 99.0264 686.271 105.804C679.644 110.923 674.673 116.99 671.407 124.004C669.845 127.322 672.449 131.162 676.141 131.162H763.481C767.174 131.162 769.586 127.37 768.215 123.957C765.369 116.99 760.687 110.923 754.156 105.804C745.491 98.9784 734.224 95.6132 720.306 95.6132Z" fill="#0F0C3D"/>
<path d="M816.641 161.164C816.641 161.164 815.982 161.164 813.705 161.164C813.473 161.164 813.233 160.263 813.001 158.415C812.761 156.803 812.521 154.955 812.237 152.87C812.005 150.784 811.862 148.461 811.862 145.949C811.862 134.147 813.99 123.293 818.252 113.387C822.514 103.434 828.476 94.8549 836.192 87.5559C843.862 80.2569 852.948 74.6165 863.457 70.5877C873.967 66.5589 885.427 64.5209 897.876 64.5209C910.326 64.5209 921.966 66.7959 932.812 71.3935C943.651 75.9909 953.119 82.1529 961.164 89.9259C969.209 97.6989 975.606 106.799 980.385 117.274C985.164 127.749 987.531 138.982 987.531 151.021C987.531 163.487 985.119 175.146 980.198 185.953C975.321 196.76 968.692 206.333 960.265 214.58C951.838 222.828 942.138 229.321 931.202 234.014C920.221 238.706 908.528 241.076 896.079 241.076C883.622 241.076 872.641 239.18 863.128 235.388C853.615 231.596 845.562 227.378 838.986 222.733C832.641 218.372 827.151 213.538 822.417 208.229C820.574 206.192 820.619 203.063 822.559 201.12L832.596 191.072L839.031 184.625C841.113 182.54 844.521 182.588 846.416 184.815C849.495 188.323 852.858 191.593 856.551 194.579C860.948 197.992 866.491 201.12 873.21 203.916C879.937 206.713 887.554 208.135 896.079 208.135C903.412 208.135 910.228 206.807 916.573 204.2C922.917 201.594 928.453 198.134 933.232 193.868C938.018 189.602 941.898 184.625 944.925 178.843C946.872 175.193 948.385 171.449 949.516 167.657C950.468 164.435 947.913 161.164 944.55 161.164H816.641ZM863.982 105.804C857.45 110.923 852.761 116.99 849.922 123.957C848.499 127.37 850.963 131.162 854.656 131.162H941.996C945.689 131.162 948.288 127.322 946.73 124.004C943.411 116.99 938.49 110.923 931.861 105.804C923.06 99.0264 911.741 95.6132 897.824 95.6132C883.907 95.6132 872.641 98.9784 863.982 105.804Z" fill="#0F0C3D"/>
<path d="M1017.87 2.90494H1034.58C1039.08 2.90494 1042.68 6.55453 1042.68 11.0099V41.6759V50.3951C1042.68 54.8978 1041.33 64.7584 1056.95 64.7584H1071.13C1075.62 64.7584 1079.22 68.408 1079.22 72.8633V89.5944C1079.22 94.0974 1075.58 97.6997 1071.13 97.6997H1050.77C1046.27 97.6997 1042.68 101.349 1042.68 105.804V186.238C1042.68 192.636 1044.76 197.85 1048.88 201.878C1053.04 205.907 1058.25 207.946 1064.59 207.946C1069.23 207.946 1073.4 207.377 1077.04 206.192C1078.98 205.718 1080.92 205.149 1082.92 204.438V208.372V231.028C1082.92 234.914 1080.21 238.28 1076.43 238.991C1076.14 239.038 1075.86 239.086 1075.62 239.133C1070.27 240.365 1064.17 240.982 1057.31 240.982C1040.74 240.982 1028.05 236.526 1019.25 227.568C1010.44 218.61 1006.09 205.196 1006.09 187.28V105.899C1006.09 101.396 1002.44 97.7942 997.988 97.7942H981.276C976.782 97.7942 973.187 94.1447 973.187 89.6897V72.9581C973.187 68.4554 976.827 64.8532 981.276 64.8532H991.456C997.044 64.8532 1001.54 62.9099 1004.8 59.0708C1008.12 55.1842 1009.73 49.4017 1009.73 41.6759V11.0573C1009.78 6.55453 1013.42 2.90494 1017.87 2.90494Z" fill="#0F0C3D"/>
</svg>
