<svg width="877" height="301" viewBox="0 0 877 301" fill="none" xmlns="http://www.w3.org/2000/svg">
<path fill-rule="evenodd" clip-rule="evenodd" d="M223.726 16.8222C223.726 28.3422 222.931 33.6677 221.139 34.1808C187.897 43.7125 172.016 62.5153 172.068 92.2753C172.084 101.861 173.375 109.584 175.887 115.115C181.008 126.384 195.863 139.015 211.711 145.576C218.888 148.547 232.208 154.005 241.312 157.706C260.911 165.672 269.243 172.984 269.243 182.211C269.243 204.467 225.894 207.192 182.141 187.686C179.473 186.496 177.577 189.661 172.314 204.109C168.728 213.953 165.795 222.734 165.795 223.626C165.795 226.309 194.013 235.905 209.361 238.441L223.726 240.812V259.131V277.448H244.415H265.105V258.221V238.996L274.933 236.372C287.003 233.153 302.038 223.748 307.993 215.695C315.284 205.833 319.602 189.69 318.306 177.138C315.215 147.19 298.041 130.799 251.226 113.126C243.023 110.031 233.247 105.436 229.502 102.918C218.547 95.5546 219.008 81.3718 230.398 75.4835C239.055 71.0063 269.177 72.6635 286.829 78.587C293.657 80.8794 299.814 82.1022 300.509 81.3077C301.206 80.5111 303.342 73.3442 305.255 65.3787C307.167 57.4132 309.186 49.3794 309.739 47.5235C311.019 43.2263 300.592 38.9249 280.105 35.3001L265.105 32.6477V16.427V0.206299H244.415H223.726V16.8222ZM658.208 3.50009C627.799 8.46768 631.312 3.05526 631.312 44.9497C631.312 77.7242 630.977 81.2104 627.942 80.0456C598.299 68.6704 561.399 77.507 544.376 100.057C524.793 125.997 521.03 172.282 535.912 204.14C545.727 225.152 562.928 238.514 587.671 244.344C602.051 247.733 645.42 246.037 665.967 241.278L680.967 237.806V119.006C680.967 25.2325 680.423 0.249747 678.381 0.417333C676.959 0.533195 667.881 1.9194 658.208 3.50009ZM768.513 78.438C745.359 86.6415 730.196 101.706 721.101 125.542C711.375 151.038 714.066 187.568 727.324 209.983C736.672 225.786 753.424 238.541 772.461 244.348C782.64 247.452 808.084 247.441 819.644 244.33C850.44 236.037 870.524 211.437 875.452 175.969C881.32 133.746 864.013 96.6697 831.451 81.7132C814.593 73.9711 785.413 72.4504 768.513 78.438ZM350.446 136.241C351.203 182.327 352.072 195.779 354.85 204.426C359.895 220.108 369.753 231.858 383.971 239.128C394.804 244.669 398.52 245.418 418.587 246.105C440.142 246.844 465.186 244.431 483.898 239.815L492.691 237.647V158.236V78.827H468.898H445.105V142.15V205.472L428.764 204.73C410.115 203.884 405.07 200.896 401.679 188.689C400.542 184.592 399.606 158.199 399.6 130.034L399.588 78.827H374.545H349.504L350.446 136.241ZM623.313 118.464L631.312 120.862V162.947V205.034H616.726C607.813 205.034 599.81 203.828 596.144 201.932C581.843 194.538 573.983 175.013 576.116 152.178C577.781 134.356 585.19 121.533 596.139 117.529C601.606 115.533 615.07 115.996 623.313 118.464ZM816.673 125.151C823.955 133.574 827.864 145.94 827.864 160.551C827.864 175.162 823.955 187.528 816.673 195.951C810.846 202.692 808.744 203.689 798.795 204.428C784.705 205.473 776.243 200.73 769.566 188.046C762.987 175.549 762.722 145.839 769.078 133.655C775.765 120.839 785.065 115.504 798.795 116.606C808.701 117.403 810.871 118.439 816.673 125.151ZM0.277344 280.551V300.206H77.8636H155.45V280.551V260.896H77.8636H0.277344V280.551Z" fill="white"/>
</svg>
