<svg width="1280" height="301" viewBox="0 0 1280 301" fill="none" xmlns="http://www.w3.org/2000/svg">
<path d="M389.143 68.9883H351.651V86.6305C351.651 99.3104 344.769 108.961 330.431 108.961H323.536V145.616H347.799V204.38C347.799 231.672 365.167 248.479 393.504 248.479C406.732 248.479 413.627 245.449 415.273 244.561V209.838C411.66 210.7 407.965 211.164 404.251 211.223C395.11 211.223 389.09 208.193 389.09 196.858V145.616H415.834V108.961H389.143V68.9883Z" fill="white"/>
<path d="M464.634 161.051C465.457 150.853 474.285 137.898 491.927 137.898C511.763 137.898 518.932 150.578 519.48 161.051H464.634ZM522.51 196.61C518.592 207.357 510.104 214.526 494.943 214.526C478.672 214.526 464.621 203.505 463.798 188.07H559.126C559.719 183.778 559.994 179.448 559.949 175.116C559.949 131.004 533.832 104.821 491.313 104.821C455.754 104.821 422.951 132.936 422.951 177.035C422.951 223.067 456.59 250.085 494.356 250.085C529.078 250.085 550.86 230.236 557.468 206.535L522.51 196.61Z" fill="white"/>
<path d="M567.614 208.193C567.614 229.962 584.982 249.811 615.03 249.811C633.221 249.811 646.449 242.093 653.618 230.51C653.618 239.886 653.344 244.875 653.618 245.945H691.096C690.822 244.574 691.096 235.499 691.096 224.725V157.748C691.096 129.632 674.838 104.821 630.465 104.821C590.219 104.821 572.028 130.729 570.396 150.304L606.777 157.748C607.613 147.549 615.605 137.624 630.217 137.624C643.446 137.624 650.327 144.519 650.327 152.511C650.327 157.199 647.846 160.777 640.416 161.874L608.161 166.836C585.531 170.153 567.614 183.982 567.614 208.193ZM625.229 219.489C613.646 219.489 608.958 212.594 608.958 205.438C608.958 195.787 615.578 191.648 624.393 190.277L650.301 186.137V192.196C650.301 213.429 637.621 219.489 625.229 219.489Z" fill="white"/>
<path d="M749.73 245.945V167.111C749.73 154.718 757.722 143.409 772.334 143.409C787.495 143.409 794.377 153.608 794.377 166.562V245.945H835.786V166.836C835.786 154.718 843.778 143.409 858.665 143.409C873.552 143.409 880.434 153.608 880.434 166.562V245.945H920.915V157.147C920.915 119.93 896.104 104.769 870.196 104.769C851.731 104.769 838.502 110.828 827.742 126.263C820.86 112.761 806.848 104.769 787.26 104.769C772.374 104.769 754.731 112.486 747.836 124.618V108.948H707.942V245.932L749.73 245.945Z" fill="white"/>
<path d="M938.857 210.4C938.857 231.294 956.225 250.085 983.257 250.085C1006.96 250.085 1020.19 237.405 1025.97 228.029C1025.97 237.679 1025.42 242.642 1025.97 245.945H1051.06C1050.51 242.642 1051.06 235.747 1051.06 224.177V157.748C1051.06 131.839 1035.62 109.235 995.937 109.235C967.208 109.235 944.381 126.877 941.626 152.237L966.437 158.022C968.096 142.587 978.294 131.278 996.472 131.278C1016.6 131.278 1025.14 142.038 1025.14 154.992C1025.14 159.68 1022.93 163.807 1014.94 164.917L979.104 170.14C956.225 173.457 938.857 186.685 938.857 210.4ZM986.822 228.382C973.593 228.382 965.314 219.005 965.314 209.081C965.314 197.224 973.593 190.89 984.615 189.232L1025.1 183.173V189.206C1025.14 218.117 1008.04 228.382 986.822 228.382Z" fill="white"/>
<path d="M1091.12 298.323V228.029C1098.29 239.886 1113.73 249.537 1134.12 249.537C1172.99 249.537 1195.86 218.94 1195.86 179.516C1195.86 140.928 1174.64 110.306 1134.95 110.306C1113.45 110.306 1097.74 120.753 1090.55 134.007V113.361H1065.49V298.323H1091.12ZM1169.47 179.49C1169.47 206.783 1154.31 226.358 1130.3 226.358C1106.6 226.358 1090.89 206.77 1090.89 179.49C1090.89 153.033 1106.56 133.184 1130.3 133.184C1154.55 133.21 1169.41 153.06 1169.41 179.516L1169.47 179.49Z" fill="white"/>
<path d="M1251.25 71.4695H1227.53V92.9639C1227.53 104.547 1221.47 113.362 1207.13 113.362H1199.98V136.802H1225.34V209.564C1225.34 233.553 1239.7 247.33 1262.27 247.33C1268.24 247.436 1274.2 246.598 1279.91 244.849V222.793C1276.55 223.5 1273.14 223.872 1269.71 223.903C1256.21 223.903 1251.25 217.83 1251.25 205.712V136.802H1279.97V113.362H1251.25V71.4695Z" fill="white"/>
<path d="M103.225 227.533L109.375 237.444C98.8559 231.375 86.4096 229.571 74.6001 232.404L50.8856 238.006C10.404 247.734 -17.2542 197.603 12.8067 168.417L79.8235 102.928C72.4487 118.056 69.0746 134.821 70.0233 151.624C70.972 168.427 76.212 184.707 85.2428 198.908L103.225 227.533Z" fill="white"/>
<path d="M246.229 214.997L245.851 252.605C245.86 262.973 242.48 273.06 236.228 281.33C229.975 289.6 221.19 295.601 211.212 298.417C201.235 301.234 190.609 300.713 180.955 296.934C171.3 293.155 163.145 286.324 157.731 277.482L119.652 216.629L100.796 186.934C89.7557 169.443 84.9514 148.735 87.1625 128.17C88.1562 119.325 90.4853 110.682 94.0705 102.536C94.2616 106.016 94.8263 109.466 95.755 112.826C98.0685 122.272 102.848 130.935 109.604 137.93C116.361 144.925 124.852 150.002 134.213 152.642L214.863 176.147C223.39 178.72 230.944 183.803 236.539 190.733C242.135 197.663 245.512 206.119 246.229 214.997Z" fill="white"/>
<path d="M246.791 42.858V52.2211L245.668 175.886C245.668 175.838 245.649 175.791 245.614 175.757C245.58 175.722 245.534 175.703 245.485 175.703C238.595 166.678 228.978 160.115 218.062 156.99L140.389 134.543C133.297 132.501 126.869 128.624 121.756 123.302C116.642 117.98 113.025 111.402 111.269 104.233C109.684 98.2839 109.448 92.0556 110.578 86.0032C111.708 79.9508 114.174 74.227 117.798 69.2495C119.264 67.2546 120.884 65.3771 122.643 63.6343L175.295 12.1834C181.256 6.36351 188.809 2.44292 196.999 0.91782C205.189 -0.60728 213.648 0.331669 221.304 3.61586C228.96 6.90005 235.47 12.3818 240.009 19.3673C244.548 26.3528 246.913 34.5279 246.804 42.858H246.791Z" fill="white"/>
</svg>
