<svg width="1836" height="301" viewBox="0 0 1836 301" fill="none" xmlns="http://www.w3.org/2000/svg">
<path fill-rule="evenodd" clip-rule="evenodd" d="M15.5393 15.1278C3.50646 34.0922 -0.742284 48.4513 0.552453 65.7822L1.57693 79.5225L50.2867 97.6607C77.077 107.638 104.301 118.083 110.781 120.872L122.566 125.946L122.585 110.98C122.61 88.0262 128.084 73.2241 141.509 59.8042C148.25 53.066 152.753 46.9498 151.521 46.2084C147.904 44.0346 29.3352 0.206299 27.0694 0.206299C25.9349 0.206299 20.7466 6.91939 15.5393 15.1278ZM149.79 66.1372C141.72 75.7278 133.489 104.006 135.595 114.926C136.236 118.262 140.202 122.704 144.406 124.799C149.23 127.205 152.429 131.867 153.08 137.443C154.764 151.893 163.746 169.328 172.507 175.146C178.214 178.937 186.407 180.476 199.477 180.213C216.293 179.876 219.162 178.815 226.993 170.053C235.462 160.579 236.025 160.422 244.965 165.046C255.493 170.487 256.222 169.761 257.426 152.628C258.472 137.691 267.62 118.645 276.85 112.183C283.333 107.644 282.774 100.73 275.923 100.73C274.053 100.73 247.564 90.8346 217.059 78.7403C186.555 66.6461 160.716 56.7508 159.645 56.7508C158.57 56.7508 154.136 60.9759 149.79 66.1372ZM275.649 123.709C269.235 133.494 264.173 152.619 266.074 159.882C268.393 168.747 356.548 200.298 363.311 194.688C371.331 188.038 377.113 173.952 377.113 161.075V148.859L332.332 132.596C307.7 123.652 285.944 116.358 283.983 116.386C282.022 116.415 278.27 119.71 275.649 123.709ZM140.962 223.629C123.065 244.595 108.424 263.333 108.424 265.271C108.424 267.209 112.667 269.195 117.852 269.691C125.554 270.423 132.157 266.54 153.916 248.487C168.563 236.33 181.646 226.384 182.985 226.384C184.323 226.384 185.417 242.993 185.417 263.295V300.206H199.697C217.21 300.206 217.66 298.994 216.277 255.269C215.124 218.81 211.739 219.388 248.394 249.787C269.345 267.162 284.596 273.53 292.933 268.378C294.234 267.577 280.175 248.971 261.696 227.035L228.096 187.149L200.797 186.329L173.5 185.509L140.962 223.629Z" fill="white"/>
<path d="M462.177 35.7192V156.063C461.469 156.362 460.336 156.661 458.778 156.959C457.362 157.408 455.874 157.632 454.316 157.632C448.084 157.632 444.969 154.868 444.969 149.34V35.7192H405.24C404.815 34.9722 404.39 34.001 403.965 32.8058C403.541 31.4612 403.328 29.9672 403.328 28.3237C403.328 25.7839 403.895 23.8417 405.028 22.497C406.161 21.003 407.79 20.256 409.914 20.256H501.905C502.33 21.003 502.755 22.0488 503.18 23.3934C503.605 24.5887 503.817 25.9333 503.817 27.4273C503.817 29.9672 503.251 31.9841 502.118 33.4781C500.985 34.9722 499.356 35.7192 497.231 35.7192H462.177Z" fill="white"/>
<path d="M529.829 156.063C529.121 156.362 528.059 156.661 526.643 156.959C525.226 157.408 523.668 157.632 521.969 157.632C515.878 157.632 512.833 154.943 512.833 149.564V11.2918C513.542 10.993 514.604 10.6942 516.02 10.3954C517.578 9.9472 519.207 9.7231 520.907 9.7231C526.855 9.7231 529.829 12.4123 529.829 17.7908V58.1296C533.229 56.0379 537.194 54.1704 541.727 52.527C546.401 50.8835 551.641 50.0618 557.448 50.0618C563.397 50.0618 568.779 50.8835 573.594 52.527C578.552 54.1704 582.801 56.7103 586.341 60.1465C589.882 63.4334 592.644 67.6914 594.627 72.9204C596.61 78.0001 597.601 83.9762 597.601 90.8488V156.063C596.893 156.362 595.76 156.661 594.202 156.959C592.786 157.408 591.299 157.632 589.741 157.632C583.65 157.632 580.605 154.943 580.605 149.564V91.297C580.605 82.3328 578.268 75.6844 573.594 71.3517C568.92 67.019 562.759 64.8527 555.111 64.8527C550.154 64.8527 545.48 65.8238 541.089 67.7661C536.84 69.5589 533.087 71.7999 529.829 74.4892V156.063Z" fill="white"/>
<path d="M628.785 115.276C632.609 134.848 644.79 144.634 665.327 144.634C671.275 144.634 676.657 143.588 681.473 141.496C686.289 139.405 690.113 137.164 692.945 134.773C696.345 136.865 698.044 139.703 698.044 143.289C698.044 145.381 697.124 147.398 695.282 149.34C693.583 151.282 691.175 153 688.059 154.494C685.085 155.988 681.544 157.184 677.436 158.08C673.471 158.976 669.151 159.425 664.477 159.425C648.047 159.425 635.017 154.718 625.386 145.306C615.896 135.894 611.152 122.149 611.152 104.071C611.152 95.555 612.285 88.0101 614.551 81.4364C616.959 74.7133 620.216 69.036 624.324 64.4045C628.573 59.773 633.601 56.262 639.408 53.8716C645.215 51.3318 651.517 50.0618 658.316 50.0618C664.689 50.0618 670.567 51.1824 675.949 53.4234C681.331 55.6644 685.935 58.8766 689.759 63.0599C693.724 67.0937 696.77 71.9493 698.894 77.6266C701.16 83.1545 702.293 89.28 702.293 96.0032C702.293 99.29 701.585 101.68 700.169 103.174C698.752 104.519 696.77 105.341 694.22 105.64L628.785 115.276ZM658.103 64.6286C649.464 64.6286 642.311 67.8408 636.646 74.2651C630.98 80.54 628.006 89.5788 627.723 101.382L686.147 92.8657C685.439 84.6486 682.677 77.9254 677.861 72.6963C673.187 67.3178 666.601 64.6286 658.103 64.6286Z" fill="white"/>
<path d="M779.743 145.754C777.335 147.846 774.007 149.639 769.758 151.133C765.651 152.627 760.693 153.374 754.886 153.374C748.655 153.374 742.777 152.477 737.253 150.685C731.729 148.742 726.843 145.754 722.594 141.72C718.487 137.537 715.158 132.159 712.609 125.585C710.201 119.011 708.997 111.018 708.997 101.606C708.997 93.0898 710.201 85.6197 712.609 79.1954C715.017 72.771 718.345 67.3925 722.594 63.0599C726.985 58.7272 732.154 55.515 738.103 53.4234C744.051 51.1824 750.637 50.0618 757.861 50.0618C764.376 50.0618 770.325 50.9582 775.707 52.7511C781.23 54.3945 785.834 56.4861 789.516 59.026C791.641 60.52 793.34 62.2382 794.615 64.1804C796.031 65.9732 796.739 68.2143 796.739 70.9035V160.993C796.739 168.463 795.535 174.738 793.128 179.818C790.862 185.047 787.604 189.23 783.355 192.368C779.248 195.655 774.361 198.045 768.696 199.539C763.03 201.033 756.94 201.78 750.425 201.78C743.202 201.78 737.041 200.959 731.942 199.315C726.985 197.821 723.585 196.476 721.744 195.281C717.495 192.741 715.371 189.529 715.371 185.645C715.371 183.553 715.796 181.76 716.645 180.266C717.637 178.922 718.841 177.876 720.257 177.129C723.231 179.519 727.409 181.686 732.792 183.628C738.174 185.719 744.051 186.765 750.425 186.765C759.914 186.765 767.138 184.599 772.095 180.266C777.194 176.083 779.743 169.285 779.743 159.873V145.754ZM756.799 138.583C762.464 138.583 767.067 137.687 770.608 135.894C774.29 133.951 777.335 131.785 779.743 129.395V71.1276C777.335 69.4842 774.29 68.0649 770.608 66.8696C767.067 65.525 762.818 64.8527 757.861 64.8527C748.23 64.8527 740.511 67.9155 734.704 74.041C729.038 80.1665 726.206 89.28 726.206 101.382C726.206 108.105 726.985 113.857 728.543 118.638C730.101 123.269 732.225 127.079 734.916 130.067C737.749 133.055 741.006 135.221 744.689 136.566C748.513 137.911 752.55 138.583 756.799 138.583Z" fill="white"/>
<path d="M832.454 156.063C831.746 156.362 830.684 156.661 829.268 156.959C827.851 157.408 826.293 157.632 824.594 157.632C818.503 157.632 815.458 154.943 815.458 149.564V73.5928C815.458 70.1565 816.025 67.4672 817.158 65.525C818.433 63.4334 820.486 61.4164 823.319 59.4742C827.001 56.9344 831.959 54.768 838.191 52.9752C844.564 51.033 851.717 50.0618 859.648 50.0618C870.979 50.0618 876.644 53.0499 876.644 59.026C876.644 60.52 876.432 61.9394 876.007 63.284C875.582 64.4792 875.015 65.525 874.307 66.4214C872.891 66.1226 871.05 65.8238 868.783 65.525C866.517 65.2262 864.251 65.0768 861.985 65.0768C855.47 65.0768 849.734 65.8238 844.777 67.3178C839.819 68.6625 835.712 70.3059 832.454 72.2481V156.063Z" fill="white"/>
<path d="M917.85 144.858C923.798 144.858 928.685 144.26 932.509 143.065C936.475 141.72 939.307 140.45 941.007 139.255V106.76L914.663 109.674C907.298 110.421 901.845 112.213 898.304 115.052C894.763 117.741 892.993 121.775 892.993 127.154C892.993 132.831 895.047 137.238 899.154 140.376C903.261 143.364 909.493 144.858 917.85 144.858ZM917.637 50.0618C929.959 50.0618 939.732 52.9752 946.956 58.8019C954.179 64.6286 957.791 73.8169 957.791 86.3667V139.479C957.791 142.766 957.153 145.306 955.878 147.099C954.745 148.742 952.975 150.311 950.567 151.805C947.168 153.897 942.636 155.69 936.97 157.184C931.447 158.827 925.073 159.649 917.85 159.649C904.536 159.649 894.197 156.885 886.832 151.357C879.609 145.829 875.997 137.836 875.997 127.378C875.997 117.517 879.042 110.122 885.132 105.191C891.223 100.112 899.791 96.9743 910.839 95.7791L941.007 92.6416V86.3667C941.007 78.8966 938.882 73.4434 934.633 70.0071C930.384 66.5708 924.648 64.8527 917.425 64.8527C911.476 64.8527 905.882 65.7491 900.641 67.5419C895.401 69.3348 890.727 71.3517 886.619 73.5928C885.486 72.5469 884.424 71.3517 883.433 70.0071C882.583 68.6625 882.158 67.1684 882.158 65.525C882.158 63.4334 882.654 61.7152 883.645 60.3706C884.637 59.026 886.195 57.7561 888.319 56.5609C892.143 54.4692 896.534 52.9005 901.491 51.8547C906.448 50.6594 911.83 50.0618 917.637 50.0618Z" fill="white"/>
<path d="M1059.98 139.479C1059.98 142.467 1059.35 144.783 1058.07 146.427C1056.94 148.07 1055.1 149.713 1052.55 151.357C1049.72 153.299 1045.68 155.092 1040.44 156.735C1035.2 158.528 1029.18 159.425 1022.38 159.425C1014.73 159.425 1007.72 158.379 1001.35 156.287C994.974 154.196 989.451 150.983 984.777 146.651C980.245 142.169 976.704 136.566 974.154 129.843C971.746 122.97 970.543 114.753 970.543 105.191C970.543 95.4803 971.817 87.1884 974.367 80.3159C976.916 73.294 980.315 67.5419 984.564 63.0599C988.955 58.5778 994.054 55.2909 999.861 53.1993C1005.81 51.1077 1012.11 50.0618 1018.77 50.0618C1023.3 50.0618 1027.69 50.6594 1031.94 51.8547C1036.19 53.0499 1039.87 54.5439 1042.99 56.3367V11.2918C1043.7 10.993 1044.76 10.6942 1046.18 10.3954C1047.73 9.9472 1049.29 9.7231 1050.85 9.7231C1056.94 9.7231 1059.98 12.4123 1059.98 17.7908V139.479ZM1042.99 72.4722C1040.16 70.3806 1036.9 68.5878 1033.22 67.0937C1029.53 65.5997 1025.28 64.8527 1020.47 64.8527C1016.08 64.8527 1011.9 65.5997 1007.93 67.0937C1004.11 68.4384 1000.71 70.7541 997.736 74.041C994.762 77.1784 992.354 81.3617 990.513 86.5908C988.813 91.8199 987.964 98.1695 987.964 105.64C987.964 119.385 991.08 129.32 997.311 135.445C1003.54 141.571 1011.83 144.634 1022.17 144.634C1027.13 144.634 1031.16 144.111 1034.28 143.065C1037.54 141.87 1040.44 140.45 1042.99 138.807V72.4722Z" fill="white"/>
<path d="M1097.56 156.063C1096.85 156.362 1095.79 156.661 1094.38 156.959C1092.96 157.408 1091.4 157.632 1089.7 157.632C1083.61 157.632 1080.57 154.943 1080.57 149.564V53.4234C1081.27 53.1246 1082.34 52.8258 1083.75 52.527C1085.31 52.0788 1086.94 51.8547 1088.64 51.8547C1094.59 51.8547 1097.56 54.6186 1097.56 60.1465V156.063ZM1078.02 20.256C1078.02 17.1185 1079.01 14.504 1080.99 12.4124C1083.12 10.1713 1085.81 9.05078 1089.06 9.05078C1092.32 9.05078 1094.94 10.1713 1096.92 12.4124C1098.91 14.504 1099.9 17.1185 1099.9 20.256C1099.9 23.3934 1098.91 26.0827 1096.92 28.3237C1094.94 30.4154 1092.32 31.4612 1089.06 31.4612C1085.81 31.4612 1083.12 30.4154 1080.99 28.3237C1079.01 26.0827 1078.02 23.3934 1078.02 20.256Z" fill="white"/>
<path d="M1130.11 115.276C1133.94 134.848 1146.12 144.634 1166.65 144.634C1172.6 144.634 1177.98 143.588 1182.8 141.496C1187.61 139.405 1191.44 137.164 1194.27 134.773C1197.67 136.865 1199.37 139.703 1199.37 143.289C1199.37 145.381 1198.45 147.398 1196.61 149.34C1194.91 151.282 1192.5 153 1189.39 154.494C1186.41 155.988 1182.87 157.184 1178.76 158.08C1174.8 158.976 1170.48 159.425 1165.8 159.425C1149.37 159.425 1136.34 154.718 1126.71 145.306C1117.22 135.894 1112.48 122.149 1112.48 104.071C1112.48 95.555 1113.61 88.0101 1115.88 81.4364C1118.29 74.7133 1121.54 69.036 1125.65 64.4045C1129.9 59.773 1134.93 56.262 1140.73 53.8716C1146.54 51.3318 1152.84 50.0618 1159.64 50.0618C1166.02 50.0618 1171.89 51.1824 1177.28 53.4234C1182.66 55.6644 1187.26 58.8766 1191.09 63.0599C1195.05 67.0937 1198.1 71.9493 1200.22 77.6266C1202.49 83.1545 1203.62 89.28 1203.62 96.0032C1203.62 99.29 1202.91 101.68 1201.5 103.174C1200.08 104.519 1198.1 105.341 1195.55 105.64L1130.11 115.276ZM1159.43 64.6286C1150.79 64.6286 1143.64 67.8408 1137.97 74.2651C1132.31 80.54 1129.33 89.5788 1129.05 101.382L1187.47 92.8657C1186.77 84.6486 1184 77.9254 1179.19 72.6963C1174.51 67.3178 1167.93 64.6286 1159.43 64.6286Z" fill="white"/>
<path d="M1283.41 89.0559C1283.41 80.6894 1281.14 74.5639 1276.61 70.6794C1272.22 66.7949 1266.27 64.8527 1258.76 64.8527C1253.1 64.8527 1248.07 65.5997 1243.68 67.0937C1239.29 68.5878 1235.53 70.3059 1232.42 72.2481V156.063C1231.71 156.362 1230.65 156.661 1229.23 156.959C1227.82 157.408 1226.26 157.632 1224.56 157.632C1218.47 157.632 1215.42 154.943 1215.42 149.564V73.1445C1215.42 70.0071 1215.99 67.4672 1217.12 65.525C1218.4 63.4334 1220.52 61.4164 1223.5 59.4742C1227.18 57.0838 1232.06 54.9174 1238.15 52.9752C1244.24 51.033 1251.11 50.0618 1258.76 50.0618C1271.65 50.0618 1281.78 53.1246 1289.14 59.2501C1296.65 65.3756 1300.4 75.0121 1300.4 88.1595V156.063C1299.69 156.362 1298.56 156.661 1297 156.959C1295.59 157.408 1294.1 157.632 1292.54 157.632C1286.45 157.632 1283.41 154.943 1283.41 149.564V89.0559Z" fill="white"/>
<path d="M1353.05 159.425C1343.13 159.425 1335.06 157.109 1328.83 152.477C1322.74 147.846 1319.69 140.152 1319.69 129.395V22.9452C1320.4 22.6464 1321.46 22.3476 1322.88 22.0488C1324.44 21.6006 1326.07 21.3765 1327.77 21.3765C1333.72 21.3765 1336.69 24.0658 1336.69 29.4443V55.2162H1371.53C1371.96 55.9632 1372.38 57.0091 1372.81 58.3537C1373.23 59.5489 1373.44 60.8935 1373.44 62.3876C1373.44 67.4672 1371.32 70.0071 1367.07 70.0071H1336.69V128.274C1336.69 134.25 1338.25 138.508 1341.36 141.048C1344.62 143.439 1349.15 144.634 1354.96 144.634C1357.37 144.634 1360.06 144.186 1363.03 143.289C1366.01 142.393 1368.49 141.347 1370.47 140.152C1371.32 141.048 1372.1 142.169 1372.81 143.513C1373.52 144.858 1373.87 146.427 1373.87 148.219C1373.87 151.506 1372.03 154.196 1368.35 156.287C1364.66 158.379 1359.56 159.425 1353.05 159.425Z" fill="white"/>
<path d="M1429.55 50.0618C1436.06 50.0618 1442.15 51.1824 1447.82 53.4234C1453.48 55.6644 1458.37 59.026 1462.48 63.5081C1466.73 67.9902 1469.98 73.6675 1472.25 80.54C1474.66 87.4125 1475.86 95.4803 1475.86 104.743C1475.86 114.156 1474.66 122.298 1472.25 129.171C1469.84 136.043 1466.44 141.72 1462.05 146.202C1457.8 150.685 1452.63 154.046 1446.54 156.287C1440.45 158.379 1433.8 159.425 1426.57 159.425C1419.63 159.425 1413.33 158.528 1407.66 156.735C1402.14 155.092 1397.61 153.15 1394.07 150.909C1391.09 148.966 1389.04 147.099 1387.91 145.306C1386.77 143.364 1386.21 140.824 1386.21 137.687V11.2918C1386.91 10.993 1387.98 10.6942 1389.39 10.3954C1390.95 9.9472 1392.58 9.7231 1394.28 9.7231C1400.23 9.7231 1403.2 12.4123 1403.2 17.7908V57.9055C1406.32 55.8138 1410 54.021 1414.25 52.527C1418.64 50.8835 1423.74 50.0618 1429.55 50.0618ZM1427 64.8527C1422.04 64.8527 1417.51 65.8238 1413.4 67.7661C1409.43 69.5589 1406.04 71.7252 1403.2 74.2651V137.687C1405.33 139.33 1408.37 140.899 1412.34 142.393C1416.45 143.887 1421.19 144.634 1426.57 144.634C1431.39 144.634 1435.71 143.887 1439.53 142.393C1443.5 140.749 1446.9 138.284 1449.73 134.997C1452.56 131.71 1454.76 127.602 1456.32 122.672C1457.87 117.592 1458.65 111.616 1458.65 104.743C1458.65 97.8707 1457.87 91.8946 1456.32 86.8149C1454.76 81.7352 1452.56 77.6266 1449.73 74.4892C1446.9 71.2023 1443.5 68.8119 1439.53 67.3178C1435.71 65.6744 1431.53 64.8527 1427 64.8527Z" fill="white"/>
<path d="M1580.78 104.743C1580.78 113.11 1579.64 120.655 1577.38 127.378C1575.11 134.101 1571.85 139.853 1567.6 144.634C1563.5 149.415 1558.47 153.075 1552.52 155.615C1546.57 158.155 1539.91 159.425 1532.55 159.425C1525.18 159.425 1518.53 158.155 1512.58 155.615C1506.63 153.075 1501.53 149.415 1497.28 144.634C1493.03 139.853 1489.78 134.101 1487.51 127.378C1485.24 120.655 1484.11 113.11 1484.11 104.743C1484.11 96.3767 1485.24 88.8318 1487.51 82.1087C1489.92 75.3856 1493.25 69.6336 1497.49 64.8527C1501.74 60.0718 1506.84 56.4114 1512.79 53.8716C1518.74 51.3318 1525.33 50.0618 1532.55 50.0618C1539.77 50.0618 1546.36 51.3318 1552.31 53.8716C1558.26 56.4114 1563.28 60.0718 1567.39 64.8527C1571.64 69.6336 1574.9 75.3856 1577.16 82.1087C1579.57 88.8318 1580.78 96.3767 1580.78 104.743ZM1532.55 64.8527C1522.92 64.8527 1515.34 68.3637 1509.82 75.3856C1504.29 82.4075 1501.53 92.1934 1501.53 104.743C1501.53 117.442 1504.22 127.303 1509.6 134.325C1515.13 141.197 1522.78 144.634 1532.55 144.634C1542.32 144.634 1549.9 141.123 1555.28 134.101C1560.66 127.079 1563.35 117.293 1563.35 104.743C1563.35 92.1934 1560.59 82.4075 1555.07 75.3856C1549.69 68.3637 1542.18 64.8527 1532.55 64.8527Z" fill="white"/>
<path d="M1685.46 104.743C1685.46 113.11 1684.32 120.655 1682.06 127.378C1679.79 134.101 1676.53 139.853 1672.29 144.634C1668.18 149.415 1663.15 153.075 1657.2 155.615C1651.25 158.155 1644.6 159.425 1637.23 159.425C1629.87 159.425 1623.21 158.155 1617.26 155.615C1611.31 153.075 1606.21 149.415 1601.96 144.634C1597.71 139.853 1594.46 134.101 1592.19 127.378C1589.92 120.655 1588.79 113.11 1588.79 104.743C1588.79 96.3767 1589.92 88.8318 1592.19 82.1087C1594.6 75.3856 1597.93 69.6336 1602.18 64.8527C1606.43 60.0718 1611.52 56.4114 1617.47 53.8716C1623.42 51.3318 1630.01 50.0618 1637.23 50.0618C1644.45 50.0618 1651.04 51.3318 1656.99 53.8716C1662.94 56.4114 1667.97 60.0718 1672.07 64.8527C1676.32 69.6336 1679.58 75.3856 1681.85 82.1087C1684.25 88.8318 1685.46 96.3767 1685.46 104.743ZM1637.23 64.8527C1627.6 64.8527 1620.02 68.3637 1614.5 75.3856C1608.97 82.4075 1606.21 92.1934 1606.21 104.743C1606.21 117.442 1608.9 127.303 1614.29 134.325C1619.81 141.197 1627.46 144.634 1637.23 144.634C1647 144.634 1654.58 141.123 1659.96 134.101C1665.34 127.079 1668.04 117.293 1668.04 104.743C1668.04 92.1934 1665.27 82.4075 1659.75 75.3856C1654.37 68.3637 1646.86 64.8527 1637.23 64.8527Z" fill="white"/>
<path d="M1768.26 128.946C1768.26 138.508 1764.93 145.978 1758.27 151.357C1751.61 156.735 1741.98 159.425 1729.38 159.425C1724 159.425 1719.04 158.902 1714.51 157.856C1709.97 156.959 1706.08 155.764 1702.82 154.27C1699.71 152.627 1697.23 150.834 1695.39 148.892C1693.69 146.8 1692.84 144.708 1692.84 142.617C1692.84 140.824 1693.26 139.106 1694.11 137.462C1695.1 135.819 1696.52 134.4 1698.36 133.204C1702.18 136.192 1706.65 138.882 1711.74 141.272C1716.84 143.513 1722.65 144.634 1729.17 144.634C1743.9 144.634 1751.26 139.405 1751.26 128.946C1751.26 120.431 1746.37 114.903 1736.6 112.363L1718.97 107.432C1710.33 105.042 1704.03 101.606 1700.06 97.1237C1696.09 92.4922 1694.11 86.5908 1694.11 79.4195C1694.11 75.535 1694.82 71.7999 1696.24 68.2143C1697.79 64.6286 1700.13 61.4911 1703.25 58.8019C1706.36 56.1126 1710.19 54.021 1714.72 52.527C1719.39 50.8835 1724.85 50.0618 1731.08 50.0618C1740.99 50.0618 1748.99 51.6306 1755.08 54.768C1761.17 57.7561 1764.22 61.267 1764.22 65.3009C1764.22 67.2431 1763.72 68.9613 1762.73 70.4553C1761.88 71.9493 1760.68 73.0698 1759.12 73.8169C1756.57 72.024 1752.96 70.0818 1748.29 67.9902C1743.61 65.8985 1738.09 64.8527 1731.71 64.8527C1725.34 64.8527 1720.24 66.1226 1716.42 68.6625C1712.74 71.2023 1710.89 74.788 1710.89 79.4195C1710.89 82.8557 1711.96 85.7691 1714.08 88.1595C1716.21 90.55 1719.75 92.3428 1724.7 93.538L1739.36 97.3478C1748.99 99.8876 1756.22 103.697 1761.03 108.777C1765.85 113.707 1768.26 120.431 1768.26 128.946Z" fill="white"/>
<path d="M1814.84 159.425C1804.93 159.425 1796.85 157.109 1790.62 152.477C1784.53 147.846 1781.48 140.152 1781.48 129.395V22.9452C1782.19 22.6464 1783.26 22.3476 1784.67 22.0488C1786.23 21.6006 1787.86 21.3765 1789.56 21.3765C1795.51 21.3765 1798.48 24.0658 1798.48 29.4443V55.2162H1833.32C1833.75 55.9632 1834.17 57.0091 1834.6 58.3537C1835.02 59.5489 1835.23 60.8935 1835.23 62.3876C1835.23 67.4672 1833.11 70.0071 1828.86 70.0071H1798.48V128.274C1798.48 134.25 1800.04 138.508 1803.15 141.048C1806.41 143.439 1810.94 144.634 1816.75 144.634C1819.16 144.634 1821.85 144.186 1824.82 143.289C1827.8 142.393 1830.28 141.347 1832.26 140.152C1833.11 141.048 1833.89 142.169 1834.6 143.513C1835.31 144.858 1835.66 146.427 1835.66 148.219C1835.66 151.506 1833.82 154.196 1830.14 156.287C1826.45 158.379 1821.35 159.425 1814.84 159.425Z" fill="white"/>
<path d="M457.174 248.295C457.174 248.861 456.748 250.845 455.897 254.246C455.045 257.595 454.436 259.346 454.071 259.501C449.63 261.768 442.359 262.901 432.259 262.901C424.228 262.901 417.383 260.403 411.724 255.405C406.127 250.407 403.328 244.456 403.328 237.552C403.328 230.236 406.218 223.976 411.998 218.772C417.778 213.517 424.867 210.889 433.263 210.889C440.442 210.889 447.835 211.533 455.44 212.821C455.319 219.725 455.258 223.435 455.258 223.95C455.258 224.723 454.619 225.109 453.341 225.109C452.733 225.109 452.337 224.981 452.155 224.723C451.972 224.053 451.729 223.383 451.425 222.714C451.181 221.992 450.603 221.091 449.691 220.009C448.839 218.875 447.774 217.922 446.496 217.149C445.279 216.325 443.515 215.629 441.203 215.063C438.952 214.444 436.396 214.135 433.537 214.135C427.574 214.135 422.494 216.376 418.296 220.859C414.097 225.29 411.998 230.313 411.998 235.929C411.998 240.103 412.85 243.941 414.554 247.445C416.257 250.948 418.934 253.859 422.585 256.178C426.296 258.445 430.677 259.578 435.727 259.578C441.751 259.578 446.405 258.084 449.691 255.096C450.542 254.323 451.272 253.318 451.881 252.082C452.55 250.794 453.037 249.737 453.341 248.913C453.706 248.037 453.98 247.599 454.163 247.599C454.528 247.599 454.953 247.651 455.44 247.754C455.988 247.857 456.414 247.96 456.718 248.063L457.174 248.295Z" fill="white"/>
<path d="M485.375 214.831C482.637 214.831 480.508 215.011 478.987 215.372C478.743 215.423 478.53 215.629 478.348 215.99C478.226 216.299 478.104 217.072 477.983 218.308C477.922 219.494 477.891 221.348 477.891 223.873V233.224C477.891 234.718 480.538 235.466 485.831 235.466H488.113C490.242 235.466 492.433 234.564 494.684 232.761C496.996 230.957 498.152 228.562 498.152 225.573C498.152 218.412 493.893 214.831 485.375 214.831ZM486.835 211.43C488.904 211.43 491.003 211.688 493.133 212.203C495.262 212.718 497.361 213.491 499.43 214.522C501.498 215.552 503.202 217.02 504.541 218.927C505.879 220.833 506.548 223.049 506.548 225.573C506.548 227.737 505.575 230.004 503.628 232.374C501.742 234.744 499.156 236.573 495.87 237.861C495.262 238.067 495.079 238.325 495.323 238.634C498.365 244.044 501.864 248.578 505.818 252.236C511.659 257.646 516.405 260.351 520.056 260.351C520.238 260.66 520.329 261.021 520.329 261.433C520.329 261.897 520.238 262.283 520.056 262.592C519.386 262.747 518.565 262.824 517.591 262.824C509.073 262.824 501.681 259.115 495.414 251.695C494.441 250.562 493.315 249.222 492.037 247.676C490.82 246.079 489.908 244.946 489.299 244.276C488.752 243.555 488.083 242.782 487.292 241.957C486.561 241.133 485.892 240.515 485.284 240.103C484.736 239.69 484.128 239.356 483.458 239.098C482.789 238.892 481.664 238.789 480.082 238.789C479.595 238.789 479.23 238.815 478.987 238.866C478.743 238.866 478.5 238.969 478.256 239.175C478.013 239.381 477.891 239.69 477.891 240.103V251.463C477.891 254.915 478.135 257.157 478.621 258.187C478.926 258.857 479.99 259.398 481.816 259.81C483.702 260.222 485.04 260.428 485.831 260.428C486.075 260.428 486.196 260.789 486.196 261.51C486.196 261.974 486.136 262.36 486.014 262.67C479.93 262.412 475.975 262.283 474.149 262.283L463.015 262.67C462.833 262.515 462.741 262.051 462.741 261.278C462.741 260.609 462.833 260.274 463.015 260.274C463.867 260.274 465.053 260.119 466.575 259.81C468.096 259.501 469.008 259.115 469.312 258.651C469.738 258.033 469.951 255.611 469.951 251.386V222.173C469.951 219.133 469.738 216.917 469.312 215.526C469.13 215.114 468.217 214.728 466.575 214.367C464.993 214.006 463.806 213.826 463.015 213.826C462.772 213.826 462.65 213.517 462.65 212.899C462.65 212.229 462.772 211.791 463.015 211.585L473.967 211.739C475.792 211.739 477.952 211.688 480.447 211.585C482.941 211.482 485.071 211.43 486.835 211.43Z" fill="white"/>
<path d="M533.289 211.739C536.027 211.739 540.773 211.636 547.526 211.43C554.28 211.224 559.36 211.121 562.767 211.121C563.011 212.615 563.467 214.599 564.136 217.072C564.867 219.494 565.292 221.013 565.414 221.632C565.11 221.889 564.562 222.018 563.771 222.018C562.98 222.018 562.554 221.838 562.494 221.477C561.581 218.643 560.303 216.84 558.661 216.067C557.018 215.243 554.767 214.831 551.907 214.831H545.792C540.56 214.831 537.883 215.166 537.761 215.835C537.457 217.072 537.305 219.236 537.305 222.327V234.693C537.305 235.002 538.613 235.156 541.229 235.156H546.066C547.77 235.156 548.986 235.156 549.717 235.156C550.508 235.156 551.329 235.053 552.181 234.847C553.033 234.641 553.58 234.512 553.824 234.461C554.067 234.409 554.371 234.074 554.736 233.456C555.162 232.838 555.405 232.4 555.466 232.142C555.527 231.833 555.74 231.086 556.105 229.901C556.166 229.54 556.622 229.36 557.474 229.36C558.204 229.36 558.721 229.489 559.026 229.747V244.353C558.782 244.559 558.295 244.662 557.565 244.662C556.774 244.662 556.288 244.456 556.105 244.044C555.679 242.653 555.314 241.623 555.01 240.953C554.706 240.231 554.462 239.819 554.28 239.716C554.158 239.562 553.915 239.381 553.55 239.175C552.759 238.763 549.534 238.557 543.876 238.557C539.495 238.557 537.305 238.789 537.305 239.252V251.232C537.305 254.581 537.578 256.925 538.126 258.264C538.309 258.78 540.377 259.037 544.332 259.037H548.713C554.371 259.037 558.204 258.599 560.212 257.723C561.125 257.311 562.129 256.41 563.224 255.018C564.38 253.576 565.292 251.876 565.962 249.918C566.083 249.609 566.509 249.454 567.239 249.454C568.395 249.454 569.156 249.609 569.521 249.918C569.217 250.588 568.73 251.669 568.061 253.164C567.452 254.606 566.966 255.791 566.601 256.719C566.235 257.595 565.84 258.625 565.414 259.81C564.988 260.995 564.714 261.974 564.593 262.747C561.49 262.747 556.592 262.695 549.899 262.592C543.206 262.489 537.73 262.438 533.471 262.438L522.428 262.67C522.246 262.515 522.155 262.103 522.155 261.433C522.155 260.763 522.246 260.428 522.428 260.428C523.219 260.428 524.375 260.248 525.897 259.887C527.478 259.527 528.422 259.115 528.726 258.651C529.152 258.033 529.365 255.611 529.365 251.386V222.173C529.365 219.133 529.152 216.917 528.726 215.526C528.543 215.114 527.631 214.728 525.988 214.367C524.406 214.006 523.219 213.826 522.428 213.826C522.185 213.826 522.063 213.517 522.063 212.899C522.063 212.229 522.185 211.791 522.428 211.585C525.592 211.688 529.212 211.739 533.289 211.739Z" fill="white"/>
<path d="M604.84 211.43L623.093 252.236C624.189 254.658 625.071 256.513 625.74 257.801C626.105 258.574 627.048 259.218 628.569 259.733C630.09 260.196 631.216 260.428 631.946 260.428C632.189 260.428 632.311 260.918 632.311 261.897C632.311 262.103 632.25 262.36 632.129 262.67C626.044 262.412 622.698 262.283 622.089 262.283C622.029 262.283 618.5 262.412 611.503 262.67C611.259 262.463 611.138 262.051 611.138 261.433C611.199 260.763 611.351 260.428 611.594 260.428C612.324 260.428 613.237 260.3 614.332 260.042C615.427 259.784 616.066 259.449 616.249 259.037C616.37 258.625 616.431 258.213 616.431 257.801C616.431 257.131 616.309 256.358 616.066 255.482C615.883 254.555 615.701 253.833 615.518 253.318L611.411 243.735C611.229 243.529 611.046 243.426 610.864 243.426C608.491 243.271 606.179 243.194 603.928 243.194C600.764 243.194 596.9 243.323 592.337 243.58L591.881 243.812L587.956 252.314C586.922 254.89 586.405 256.667 586.405 257.646C586.405 258.367 586.648 258.883 587.135 259.192C587.683 259.552 588.565 259.862 589.782 260.119C590.999 260.325 591.881 260.428 592.428 260.428C592.611 260.428 592.702 260.737 592.702 261.356C592.763 261.974 592.733 262.412 592.611 262.67C586.527 262.412 583.393 262.283 583.211 262.283C581.994 262.283 580.929 262.309 580.016 262.36C579.104 262.412 578.069 262.463 576.913 262.515C575.818 262.567 574.754 262.618 573.719 262.67C573.476 262.463 573.354 262.077 573.354 261.51C573.354 260.789 573.476 260.428 573.719 260.428C574.449 260.428 575.392 260.3 576.548 260.042C577.704 259.784 578.495 259.424 578.921 258.96C580.199 257.569 581.629 255.147 583.211 251.695L599.091 217.149C599.212 216.892 599.365 216.479 599.547 215.913C599.79 215.346 599.973 214.934 600.095 214.676C600.216 214.367 600.399 214.006 600.642 213.594C600.886 213.13 601.099 212.796 601.281 212.589C601.464 212.383 601.677 212.152 601.92 211.894C602.224 211.636 602.528 211.456 602.833 211.353C603.198 211.25 603.593 211.198 604.019 211.198L604.84 211.43ZM594.254 239.33C597.418 239.433 599.577 239.484 600.734 239.484C603.411 239.484 606.179 239.407 609.039 239.252L609.312 238.866L601.92 221.786L594.071 239.021C594.071 239.227 594.132 239.33 594.254 239.33Z" fill="white"/>
<path d="M654.215 211.585C658.413 211.688 661.85 211.739 664.527 211.739C667.205 211.739 670.642 211.688 674.84 211.585C679.039 211.482 682.294 211.43 684.606 211.43C686.127 211.43 688.226 211.147 690.903 210.58L692.637 221.632C692.211 221.992 691.481 222.173 690.447 222.173C689.899 222.173 689.595 222.044 689.534 221.786C688.682 218.901 687.617 217.046 686.34 216.222C685.123 215.346 682.78 214.908 679.312 214.908C672.863 214.908 669.517 215.294 669.273 216.067C668.726 217.716 668.452 220.292 668.452 223.796V251.695C668.452 254.684 668.726 257.079 669.273 258.883C669.395 259.243 670.247 259.604 671.829 259.965C673.411 260.274 674.506 260.428 675.114 260.428C675.358 260.428 675.479 260.815 675.479 261.588C675.479 262 675.418 262.36 675.297 262.67C669.212 262.412 665.684 262.283 664.71 262.283C664.406 262.283 660.755 262.412 653.758 262.67C653.515 262.463 653.393 262.077 653.393 261.51C653.393 260.789 653.515 260.428 653.758 260.428C654.549 260.428 655.705 260.274 657.226 259.965C658.808 259.656 659.69 259.295 659.873 258.883C660.299 257.492 660.512 255.199 660.512 252.004V224.028C660.512 219.545 660.238 216.892 659.69 216.067C659.204 215.294 655.918 214.908 649.834 214.908C646.366 214.908 643.993 215.346 642.715 216.222C641.498 217.046 640.464 218.901 639.612 221.786C639.551 222.044 639.247 222.173 638.7 222.173C637.665 222.173 636.935 221.992 636.509 221.632L638.243 210.58C640.92 211.147 643.019 211.43 644.541 211.43C646.853 211.43 650.077 211.482 654.215 211.585Z" fill="white"/>
<path d="M705.597 222.018C705.597 218.824 705.384 216.531 704.958 215.14C704.775 214.728 703.893 214.367 702.311 214.058C700.79 213.697 699.634 213.517 698.843 213.517C698.6 213.517 698.478 213.182 698.478 212.512C698.478 211.894 698.6 211.482 698.843 211.276C705.84 211.533 709.491 211.662 709.795 211.662C710.768 211.662 714.297 211.533 720.381 211.276C720.503 211.585 720.564 211.971 720.564 212.435C720.564 213.156 720.442 213.517 720.199 213.517C719.59 213.517 718.495 213.697 716.913 214.058C715.331 214.419 714.48 214.779 714.358 215.14C713.81 216.943 713.537 219.339 713.537 222.327V251.695C713.537 254.684 713.81 257.079 714.358 258.883C714.48 259.243 715.331 259.604 716.913 259.965C718.495 260.274 719.59 260.428 720.199 260.428C720.442 260.428 720.564 260.815 720.564 261.588C720.564 262 720.503 262.36 720.381 262.67C714.297 262.412 710.768 262.283 709.795 262.283C709.491 262.283 705.84 262.412 698.843 262.67C698.6 262.463 698.478 262.077 698.478 261.51C698.478 260.789 698.6 260.428 698.843 260.428C699.634 260.428 700.79 260.274 702.311 259.965C703.893 259.656 704.775 259.295 704.958 258.883C705.384 257.492 705.597 255.199 705.597 252.004V222.018Z" fill="white"/>
<path d="M774.319 221.941C774.319 218.798 774.106 216.531 773.68 215.14C773.497 214.728 772.433 214.341 770.486 213.981C768.6 213.568 767.261 213.362 766.47 213.362C766.227 213.362 766.105 213.079 766.105 212.512C766.105 211.894 766.227 211.482 766.47 211.276C767.261 211.327 768.843 211.43 771.216 211.585C773.589 211.688 775.597 211.739 777.239 211.739C778.821 211.739 780.799 211.662 783.172 211.507C785.605 211.353 787.035 211.276 787.461 211.276C787.583 211.585 787.643 211.971 787.643 212.435C787.643 213.053 787.522 213.362 787.278 213.362C786.67 213.362 785.331 213.568 783.263 213.981C781.255 214.393 780.19 214.779 780.069 215.14C779.582 216.737 779.338 219.133 779.338 222.327V251.695C779.338 254.89 779.43 258.496 779.612 262.515C779.369 262.721 778.791 262.824 777.878 262.824C776.844 262.824 775.84 262.232 774.866 261.047L739.456 218.54V251.541C739.456 254.941 739.669 257.337 740.095 258.728C740.216 259.089 741.22 259.475 743.106 259.887C745.053 260.248 746.331 260.428 746.939 260.428C747.122 260.428 747.213 260.737 747.213 261.356C747.274 261.974 747.244 262.412 747.122 262.67C741.038 262.412 737.539 262.283 736.627 262.283L726.131 262.67C725.949 262.515 725.857 262.129 725.857 261.51C725.857 260.789 725.949 260.428 726.131 260.428C726.983 260.428 728.352 260.248 730.238 259.887C732.185 259.475 733.25 259.037 733.432 258.574C734.041 257.234 734.345 254.812 734.345 251.309V220.936C734.345 218.412 734.132 216.479 733.706 215.14C733.524 214.728 732.489 214.367 730.603 214.058C728.717 213.697 727.348 213.517 726.496 213.517C726.253 213.517 726.131 213.208 726.131 212.589C726.131 211.92 726.253 211.482 726.496 211.276C731.242 211.379 734.345 211.43 735.805 211.43C738.969 211.43 741.403 211.379 743.106 211.276C745.358 214.779 755.67 227.402 774.045 249.145C774.228 248.269 774.319 247.213 774.319 245.976V221.941Z" fill="white"/>
<path d="M793.849 237.552C793.849 230.236 796.74 223.976 802.52 218.772C808.3 213.517 815.388 210.889 823.784 210.889C828.104 210.889 835.314 212.048 845.414 214.367C845.657 220.241 845.779 223.435 845.779 223.95C845.779 224.723 845.14 225.109 843.862 225.109C843.254 225.109 842.859 224.981 842.676 224.723C841.033 217.664 834.827 214.135 824.058 214.135C817.974 214.135 812.893 216.325 808.817 220.704C804.74 225.084 802.702 230.365 802.702 236.548C802.702 242.267 804.923 247.548 809.364 252.391C813.867 257.182 819.495 259.578 826.248 259.578C831.603 259.578 835.557 259.011 838.113 257.878C838.539 257.723 838.752 257.337 838.752 256.719L838.66 250.381V249.84C838.66 246.491 838.417 244.276 837.93 243.194C837.687 242.679 836.683 242.267 834.919 241.957C833.215 241.648 831.876 241.494 830.903 241.494C830.66 241.494 830.538 241.185 830.538 240.566C830.538 239.897 830.66 239.459 830.903 239.252C838.691 239.51 842.676 239.639 842.859 239.639C843.345 239.639 846.631 239.51 852.715 239.252C852.837 239.562 852.898 239.922 852.898 240.334C852.898 241.107 852.776 241.494 852.533 241.494C852.168 241.494 851.316 241.674 849.977 242.035C848.7 242.344 847.787 242.627 847.239 242.885C846.631 243.246 846.327 244.972 846.327 248.063C846.327 249.145 846.357 250.33 846.418 251.618C846.54 252.854 846.6 253.524 846.6 253.627C846.6 254.555 846.813 255.456 847.239 256.332C847.665 257.208 847.878 257.723 847.878 257.878C847.878 258.29 847.118 258.754 845.597 259.269C845.475 259.321 844.866 259.527 843.771 259.887C842.737 260.196 842.068 260.403 841.763 260.506C841.459 260.609 840.759 260.815 839.664 261.124C838.63 261.382 837.778 261.562 837.109 261.665C836.5 261.768 835.588 261.923 834.371 262.129C833.215 262.335 832.089 262.463 830.994 262.515C829.96 262.618 828.713 262.695 827.252 262.747C825.853 262.85 824.362 262.901 822.78 262.901C814.749 262.901 807.904 260.403 802.246 255.405C796.648 250.407 793.849 244.456 793.849 237.552Z" fill="white"/>
<path d="M881.555 224.569C881.555 220.601 883.35 217.355 886.939 214.831C890.529 212.255 894.697 210.966 899.443 210.966C900.781 210.966 902.028 211.044 903.185 211.198C904.401 211.301 905.375 211.43 906.105 211.585C906.896 211.739 907.991 211.997 909.391 212.358C910.851 212.667 912.128 212.924 913.224 213.13C913.954 215.861 914.319 219.545 914.319 224.182C914.319 224.543 914.015 224.723 913.406 224.723C911.946 224.723 911.155 224.465 911.033 223.95C910.729 221.683 909.421 219.494 907.109 217.381C904.858 215.217 902.089 214.135 898.804 214.135C895.153 214.135 892.567 214.908 891.046 216.454C889.586 217.999 888.856 219.906 888.856 222.173C888.856 223.152 889.069 224.105 889.495 225.032C889.921 225.908 890.347 226.655 890.772 227.273C891.198 227.84 891.959 228.51 893.054 229.283C894.21 230.056 895.032 230.597 895.518 230.906C896.066 231.215 897.1 231.782 898.621 232.606C900.203 233.43 901.207 233.946 901.633 234.152C901.937 234.306 903.002 234.873 904.827 235.852C906.653 236.779 907.9 237.449 908.569 237.861C909.238 238.222 910.273 238.918 911.672 239.948C913.132 240.927 914.167 241.803 914.775 242.576C915.444 243.349 916.053 244.327 916.6 245.513C917.209 246.646 917.513 247.831 917.513 249.068C917.513 253.189 915.596 256.59 911.763 259.269C907.991 261.897 903.55 263.211 898.439 263.211C896.978 263.211 895.427 263.108 893.784 262.901C892.141 262.747 890.772 262.592 889.677 262.438C888.582 262.232 887.183 261.974 885.479 261.665C883.836 261.304 882.68 261.072 882.011 260.969C880.49 254.632 879.729 250.536 879.729 248.681C879.729 248.372 880.216 248.217 881.19 248.217C882.285 248.217 883.045 248.449 883.471 248.913C885.54 256.332 890.59 260.042 898.621 260.042C901.663 260.042 904.249 259.269 906.379 257.723C908.508 256.178 909.573 253.988 909.573 251.154C909.573 250.124 909.391 249.171 909.025 248.295C908.66 247.419 908.265 246.698 907.839 246.131C907.474 245.564 906.774 244.972 905.74 244.353C904.766 243.683 904.006 243.194 903.458 242.885C902.911 242.576 901.907 242.086 900.447 241.416C898.986 240.747 897.982 240.283 897.435 240.025C895.67 239.149 894.423 238.531 893.693 238.171C893.024 237.81 891.868 237.192 890.225 236.316C888.643 235.388 887.487 234.59 886.757 233.92C886.027 233.199 885.175 232.348 884.201 231.37C883.228 230.339 882.528 229.257 882.102 228.124C881.737 226.99 881.555 225.805 881.555 224.569Z" fill="white"/>
<path d="M941.059 211.585C945.258 211.688 948.695 211.739 951.372 211.739C954.049 211.739 957.487 211.688 961.685 211.585C965.883 211.482 969.138 211.43 971.45 211.43C972.971 211.43 975.071 211.147 977.748 210.58L979.482 221.632C979.056 221.992 978.326 222.173 977.291 222.173C976.744 222.173 976.44 222.044 976.379 221.786C975.527 218.901 974.462 217.046 973.184 216.222C971.968 215.346 969.625 214.908 966.157 214.908C959.708 214.908 956.361 215.294 956.118 216.067C955.57 217.716 955.297 220.292 955.297 223.796V251.695C955.297 254.684 955.57 257.079 956.118 258.883C956.24 259.243 957.091 259.604 958.673 259.965C960.255 260.274 961.35 260.428 961.959 260.428C962.202 260.428 962.324 260.815 962.324 261.588C962.324 262 962.263 262.36 962.141 262.67C956.057 262.412 952.528 262.283 951.555 262.283C951.251 262.283 947.6 262.412 940.603 262.67C940.36 262.463 940.238 262.077 940.238 261.51C940.238 260.789 940.36 260.428 940.603 260.428C941.394 260.428 942.55 260.274 944.071 259.965C945.653 259.656 946.535 259.295 946.718 258.883C947.144 257.492 947.357 255.199 947.357 252.004V224.028C947.357 219.545 947.083 216.892 946.535 216.067C946.048 215.294 942.763 214.908 936.679 214.908C933.211 214.908 930.838 215.346 929.56 216.222C928.343 217.046 927.309 218.901 926.457 221.786C926.396 222.044 926.092 222.173 925.544 222.173C924.51 222.173 923.78 221.992 923.354 221.632L925.088 210.58C927.765 211.147 929.864 211.43 931.385 211.43C933.697 211.43 936.922 211.482 941.059 211.585Z" fill="white"/>
<path d="M1008.05 214.831C1005.31 214.831 1003.18 215.011 1001.66 215.372C1001.42 215.423 1001.2 215.629 1001.02 215.99C1000.9 216.299 1000.78 217.072 1000.66 218.308C1000.59 219.494 1000.56 221.348 1000.56 223.873V233.224C1000.56 234.718 1003.21 235.466 1008.5 235.466H1010.79C1012.91 235.466 1015.11 234.564 1017.36 232.761C1019.67 230.957 1020.82 228.562 1020.82 225.573C1020.82 218.412 1016.57 214.831 1008.05 214.831ZM1009.51 211.43C1011.58 211.43 1013.68 211.688 1015.81 212.203C1017.93 212.718 1020.03 213.491 1022.1 214.522C1024.17 215.552 1025.87 217.02 1027.21 218.927C1028.55 220.833 1029.22 223.049 1029.22 225.573C1029.22 227.737 1028.25 230.004 1026.3 232.374C1024.41 234.744 1021.83 236.573 1018.54 237.861C1017.93 238.067 1017.75 238.325 1018 238.634C1021.04 244.044 1024.54 248.578 1028.49 252.236C1034.33 257.646 1039.08 260.351 1042.73 260.351C1042.91 260.66 1043 261.021 1043 261.433C1043 261.897 1042.91 262.283 1042.73 262.592C1042.06 262.747 1041.24 262.824 1040.26 262.824C1031.75 262.824 1024.35 259.115 1018.09 251.695C1017.11 250.562 1015.99 249.222 1014.71 247.676C1013.49 246.079 1012.58 244.946 1011.97 244.276C1011.42 243.555 1010.76 242.782 1009.96 241.957C1009.23 241.133 1008.56 240.515 1007.96 240.103C1007.41 239.69 1006.8 239.356 1006.13 239.098C1005.46 238.892 1004.34 238.789 1002.75 238.789C1002.27 238.789 1001.9 238.815 1001.66 238.866C1001.42 238.866 1001.17 238.969 1000.93 239.175C1000.69 239.381 1000.56 239.69 1000.56 240.103V251.463C1000.56 254.915 1000.81 257.157 1001.29 258.187C1001.6 258.857 1002.66 259.398 1004.49 259.81C1006.37 260.222 1007.71 260.428 1008.5 260.428C1008.75 260.428 1008.87 260.789 1008.87 261.51C1008.87 261.974 1008.81 262.36 1008.69 262.67C1002.6 262.412 998.647 262.283 996.822 262.283L985.688 262.67C985.505 262.515 985.414 262.051 985.414 261.278C985.414 260.609 985.505 260.274 985.688 260.274C986.54 260.274 987.726 260.119 989.247 259.81C990.768 259.501 991.681 259.115 991.985 258.651C992.411 258.033 992.624 255.611 992.624 251.386V222.173C992.624 219.133 992.411 216.917 991.985 215.526C991.802 215.114 990.89 214.728 989.247 214.367C987.665 214.006 986.479 213.826 985.688 213.826C985.444 213.826 985.323 213.517 985.323 212.899C985.323 212.229 985.444 211.791 985.688 211.585L996.639 211.739C998.465 211.739 1000.62 211.688 1003.12 211.585C1005.61 211.482 1007.74 211.43 1009.51 211.43Z" fill="white"/>
<path d="M1073.85 214.135C1068.07 214.135 1063.51 216.273 1060.16 220.55C1056.81 224.826 1055.14 229.772 1055.14 235.388C1055.14 239.51 1055.93 243.4 1057.51 247.058C1059.09 250.716 1061.56 253.782 1064.91 256.255C1068.25 258.677 1072.18 259.887 1076.68 259.887C1080.57 259.887 1083.98 258.831 1086.9 256.719C1089.82 254.555 1091.95 251.901 1093.29 248.758C1094.69 245.564 1095.39 242.164 1095.39 238.557C1095.39 234.435 1094.6 230.571 1093.01 226.964C1091.43 223.306 1088.97 220.266 1085.62 217.845C1082.28 215.372 1078.35 214.135 1073.85 214.135ZM1054.59 255.559C1048.93 250.459 1046.1 244.302 1046.1 237.089C1046.1 229.875 1048.93 223.718 1054.59 218.618C1060.31 213.465 1067.19 210.889 1075.22 210.889C1083.25 210.889 1090.12 213.465 1095.84 218.618C1101.56 223.718 1104.42 229.875 1104.42 237.089C1104.42 244.302 1101.56 250.459 1095.84 255.559C1090.12 260.66 1083.25 263.211 1075.22 263.211C1067.19 263.211 1060.31 260.66 1054.59 255.559Z" fill="white"/>
<path d="M1158.82 221.941C1158.82 218.798 1158.6 216.531 1158.18 215.14C1158 214.728 1156.93 214.341 1154.98 213.981C1153.1 213.568 1151.76 213.362 1150.97 213.362C1150.72 213.362 1150.6 213.079 1150.6 212.512C1150.6 211.894 1150.72 211.482 1150.97 211.276C1151.76 211.327 1153.34 211.43 1155.71 211.585C1158.09 211.688 1160.09 211.739 1161.74 211.739C1163.32 211.739 1165.3 211.662 1167.67 211.507C1170.1 211.353 1171.53 211.276 1171.96 211.276C1172.08 211.585 1172.14 211.971 1172.14 212.435C1172.14 213.053 1172.02 213.362 1171.78 213.362C1171.17 213.362 1169.83 213.568 1167.76 213.981C1165.75 214.393 1164.69 214.779 1164.57 215.14C1164.08 216.737 1163.84 219.133 1163.84 222.327V251.695C1163.84 254.89 1163.93 258.496 1164.11 262.515C1163.87 262.721 1163.29 262.824 1162.38 262.824C1161.34 262.824 1160.34 262.232 1159.36 261.047L1123.95 218.54V251.541C1123.95 254.941 1124.17 257.337 1124.59 258.728C1124.71 259.089 1125.72 259.475 1127.6 259.887C1129.55 260.248 1130.83 260.428 1131.44 260.428C1131.62 260.428 1131.71 260.737 1131.71 261.356C1131.77 261.974 1131.74 262.412 1131.62 262.67C1125.54 262.412 1122.04 262.283 1121.12 262.283L1110.63 262.67C1110.45 262.515 1110.36 262.129 1110.36 261.51C1110.36 260.789 1110.45 260.428 1110.63 260.428C1111.48 260.428 1112.85 260.248 1114.74 259.887C1116.68 259.475 1117.75 259.037 1117.93 258.574C1118.54 257.234 1118.84 254.812 1118.84 251.309V220.936C1118.84 218.412 1118.63 216.479 1118.2 215.14C1118.02 214.728 1116.99 214.367 1115.1 214.058C1113.21 213.697 1111.85 213.517 1110.99 213.517C1110.75 213.517 1110.63 213.208 1110.63 212.589C1110.63 211.92 1110.75 211.482 1110.99 211.276C1115.74 211.379 1118.84 211.43 1120.3 211.43C1123.47 211.43 1125.9 211.379 1127.6 211.276C1129.86 214.779 1140.17 227.402 1158.54 249.145C1158.73 248.269 1158.82 247.213 1158.82 245.976V221.941Z" fill="white"/>
<path d="M1178.35 237.552C1178.35 230.236 1181.24 223.976 1187.02 218.772C1192.8 213.517 1199.89 210.889 1208.28 210.889C1212.6 210.889 1219.81 212.048 1229.91 214.367C1230.16 220.241 1230.28 223.435 1230.28 223.95C1230.28 224.723 1229.64 225.109 1228.36 225.109C1227.75 225.109 1227.36 224.981 1227.17 224.723C1225.53 217.664 1219.33 214.135 1208.56 214.135C1202.47 214.135 1197.39 216.325 1193.31 220.704C1189.24 225.084 1187.2 230.365 1187.2 236.548C1187.2 242.267 1189.42 247.548 1193.86 252.391C1198.36 257.182 1203.99 259.578 1210.75 259.578C1216.1 259.578 1220.06 259.011 1222.61 257.878C1223.04 257.723 1223.25 257.337 1223.25 256.719L1223.16 250.381V249.84C1223.16 246.491 1222.91 244.276 1222.43 243.194C1222.18 242.679 1221.18 242.267 1219.42 241.957C1217.71 241.648 1216.37 241.494 1215.4 241.494C1215.16 241.494 1215.04 241.185 1215.04 240.566C1215.04 239.897 1215.16 239.459 1215.4 239.252C1223.19 239.51 1227.17 239.639 1227.36 239.639C1227.84 239.639 1231.13 239.51 1237.21 239.252C1237.33 239.562 1237.4 239.922 1237.4 240.334C1237.4 241.107 1237.27 241.494 1237.03 241.494C1236.67 241.494 1235.81 241.674 1234.48 242.035C1233.2 242.344 1232.28 242.627 1231.74 242.885C1231.13 243.246 1230.82 244.972 1230.82 248.063C1230.82 249.145 1230.85 250.33 1230.92 251.618C1231.04 252.854 1231.1 253.524 1231.1 253.627C1231.1 254.555 1231.31 255.456 1231.74 256.332C1232.16 257.208 1232.38 257.723 1232.38 257.878C1232.38 258.29 1231.62 258.754 1230.09 259.269C1229.97 259.321 1229.36 259.527 1228.27 259.887C1227.23 260.196 1226.57 260.403 1226.26 260.506C1225.96 260.609 1225.26 260.815 1224.16 261.124C1223.13 261.382 1222.28 261.562 1221.61 261.665C1221 261.768 1220.09 261.923 1218.87 262.129C1217.71 262.335 1216.59 262.463 1215.49 262.515C1214.46 262.618 1213.21 262.695 1211.75 262.747C1210.35 262.85 1208.86 262.901 1207.28 262.901C1199.25 262.901 1192.4 260.403 1186.74 255.405C1181.15 250.407 1178.35 244.456 1178.35 237.552Z" fill="white"/>
<path d="M1253.46 211.739C1256.2 211.739 1260.94 211.636 1267.7 211.43C1274.45 211.224 1279.53 211.121 1282.94 211.121C1283.18 212.615 1283.64 214.599 1284.31 217.072C1285.04 219.494 1285.46 221.013 1285.58 221.632C1285.28 221.889 1284.73 222.018 1283.94 222.018C1283.15 222.018 1282.72 221.838 1282.66 221.477C1281.75 218.643 1280.47 216.84 1278.83 216.067C1277.19 215.243 1274.94 214.831 1272.08 214.831H1265.96C1260.73 214.831 1258.05 215.166 1257.93 215.835C1257.63 217.072 1257.47 219.236 1257.47 222.327V234.693C1257.47 235.002 1258.78 235.156 1261.4 235.156H1266.24C1267.94 235.156 1269.16 235.156 1269.89 235.156C1270.68 235.156 1271.5 235.053 1272.35 234.847C1273.2 234.641 1273.75 234.512 1273.99 234.461C1274.24 234.409 1274.54 234.074 1274.91 233.456C1275.33 232.838 1275.57 232.4 1275.64 232.142C1275.7 231.833 1275.91 231.086 1276.27 229.901C1276.34 229.54 1276.79 229.36 1277.64 229.36C1278.37 229.36 1278.89 229.489 1279.19 229.747V244.353C1278.95 244.559 1278.46 244.662 1277.73 244.662C1276.94 244.662 1276.46 244.456 1276.27 244.044C1275.85 242.653 1275.48 241.623 1275.18 240.953C1274.87 240.231 1274.63 239.819 1274.45 239.716C1274.33 239.562 1274.08 239.381 1273.72 239.175C1272.93 238.763 1269.7 238.557 1264.04 238.557C1259.66 238.557 1257.47 238.789 1257.47 239.252V251.232C1257.47 254.581 1257.75 256.925 1258.3 258.264C1258.48 258.78 1260.55 259.037 1264.5 259.037H1268.88C1274.54 259.037 1278.37 258.599 1280.38 257.723C1281.29 257.311 1282.3 256.41 1283.39 255.018C1284.55 253.576 1285.46 251.876 1286.13 249.918C1286.25 249.609 1286.68 249.454 1287.41 249.454C1288.56 249.454 1289.33 249.609 1289.69 249.918C1289.39 250.588 1288.9 251.669 1288.23 253.164C1287.62 254.606 1287.13 255.791 1286.77 256.719C1286.4 257.595 1286.01 258.625 1285.58 259.81C1285.16 260.995 1284.88 261.974 1284.76 262.747C1281.66 262.747 1276.76 262.695 1270.07 262.592C1263.38 262.489 1257.9 262.438 1253.64 262.438L1242.6 262.67C1242.42 262.515 1242.32 262.103 1242.32 261.433C1242.32 260.763 1242.42 260.428 1242.6 260.428C1243.39 260.428 1244.54 260.248 1246.07 259.887C1247.65 259.527 1248.59 259.115 1248.89 258.651C1249.32 258.033 1249.53 255.611 1249.53 251.386V222.173C1249.53 219.133 1249.32 216.917 1248.89 215.526C1248.71 215.114 1247.8 214.728 1246.16 214.367C1244.58 214.006 1243.39 213.826 1242.6 213.826C1242.35 213.826 1242.23 213.517 1242.23 212.899C1242.23 212.229 1242.35 211.791 1242.6 211.585C1245.76 211.688 1249.38 211.739 1253.46 211.739Z" fill="white"/>
<path d="M1317.89 214.831C1315.15 214.831 1313.02 215.011 1311.5 215.372C1311.26 215.423 1311.05 215.629 1310.86 215.99C1310.74 216.299 1310.62 217.072 1310.5 218.308C1310.44 219.494 1310.41 221.348 1310.41 223.873V233.224C1310.41 234.718 1313.05 235.466 1318.35 235.466H1320.63C1322.76 235.466 1324.95 234.564 1327.2 232.761C1329.51 230.957 1330.67 228.562 1330.67 225.573C1330.67 218.412 1326.41 214.831 1317.89 214.831ZM1319.35 211.43C1321.42 211.43 1323.52 211.688 1325.65 212.203C1327.78 212.718 1329.88 213.491 1331.95 214.522C1334.01 215.552 1335.72 217.02 1337.06 218.927C1338.4 220.833 1339.06 223.049 1339.06 225.573C1339.06 227.737 1338.09 230.004 1336.14 232.374C1334.26 234.744 1331.67 236.573 1328.39 237.861C1327.78 238.067 1327.6 238.325 1327.84 238.634C1330.88 244.044 1334.38 248.578 1338.33 252.236C1344.18 257.646 1348.92 260.351 1352.57 260.351C1352.75 260.66 1352.85 261.021 1352.85 261.433C1352.85 261.897 1352.75 262.283 1352.57 262.592C1351.9 262.747 1351.08 262.824 1350.11 262.824C1341.59 262.824 1334.2 259.115 1327.93 251.695C1326.96 250.562 1325.83 249.222 1324.55 247.676C1323.34 246.079 1322.42 244.946 1321.82 244.276C1321.27 243.555 1320.6 242.782 1319.81 241.957C1319.08 241.133 1318.41 240.515 1317.8 240.103C1317.25 239.69 1316.64 239.356 1315.97 239.098C1315.31 238.892 1314.18 238.789 1312.6 238.789C1312.11 238.789 1311.75 238.815 1311.5 238.866C1311.26 238.866 1311.02 238.969 1310.77 239.175C1310.53 239.381 1310.41 239.69 1310.41 240.103V251.463C1310.41 254.915 1310.65 257.157 1311.14 258.187C1311.44 258.857 1312.51 259.398 1314.33 259.81C1316.22 260.222 1317.56 260.428 1318.35 260.428C1318.59 260.428 1318.71 260.789 1318.71 261.51C1318.71 261.974 1318.65 262.36 1318.53 262.67C1312.45 262.412 1308.49 262.283 1306.67 262.283L1295.53 262.67C1295.35 262.515 1295.26 262.051 1295.26 261.278C1295.26 260.609 1295.35 260.274 1295.53 260.274C1296.38 260.274 1297.57 260.119 1299.09 259.81C1300.61 259.501 1301.52 259.115 1301.83 258.651C1302.25 258.033 1302.47 255.611 1302.47 251.386V222.173C1302.47 219.133 1302.25 216.917 1301.83 215.526C1301.65 215.114 1300.73 214.728 1299.09 214.367C1297.51 214.006 1296.32 213.826 1295.53 213.826C1295.29 213.826 1295.17 213.517 1295.17 212.899C1295.17 212.229 1295.29 211.791 1295.53 211.585L1306.48 211.739C1308.31 211.739 1310.47 211.688 1312.96 211.585C1315.46 211.482 1317.59 211.43 1319.35 211.43Z" fill="white"/>
<path d="M1387.53 211.739C1388.74 211.739 1389.93 211.714 1391.09 211.662C1392.24 211.611 1393.49 211.559 1394.83 211.507C1396.17 211.404 1397.26 211.327 1398.11 211.276C1398.23 211.585 1398.3 211.971 1398.3 212.435C1398.3 213.156 1398.17 213.517 1397.93 213.517C1397.32 213.517 1396.23 213.697 1394.64 214.058C1393.06 214.419 1392.21 214.779 1392.09 215.14C1391.54 216.943 1391.27 219.339 1391.27 222.327V251.463C1391.27 254.194 1391.54 256.461 1392.09 258.264C1392.27 258.78 1394.34 259.037 1398.3 259.037H1402.68C1408.33 259.037 1412.17 258.599 1414.18 257.723C1415.09 257.311 1416.09 256.41 1417.19 255.018C1418.34 253.576 1419.26 251.876 1419.92 249.918C1420.05 249.609 1420.47 249.454 1421.2 249.454C1422.36 249.454 1423.12 249.609 1423.48 249.918C1423.18 250.588 1422.69 251.669 1422.02 253.164C1421.42 254.606 1420.93 255.791 1420.56 256.719C1420.2 257.595 1419.8 258.625 1419.38 259.81C1418.95 260.995 1418.68 261.974 1418.56 262.747C1415.39 262.747 1410.43 262.67 1403.68 262.515C1396.99 262.36 1391.57 262.283 1387.43 262.283L1376.39 262.515C1376.21 262.36 1376.12 261.948 1376.12 261.278C1376.12 260.609 1376.21 260.274 1376.39 260.274C1377.24 260.274 1378.43 260.119 1379.95 259.81C1381.47 259.501 1382.38 259.115 1382.69 258.651C1383.11 258.033 1383.33 255.611 1383.33 251.386V222.173C1383.33 218.875 1383.11 216.531 1382.69 215.14C1382.51 214.728 1381.62 214.367 1380.04 214.058C1378.52 213.697 1377.37 213.517 1376.57 213.517C1376.33 213.517 1376.21 213.182 1376.21 212.512C1376.21 211.894 1376.33 211.482 1376.57 211.276C1377.37 211.327 1378.98 211.43 1381.41 211.585C1383.84 211.688 1385.88 211.739 1387.53 211.739Z" fill="white"/>
<path d="M1438.54 211.739C1441.28 211.739 1446.03 211.636 1452.78 211.43C1459.53 211.224 1464.61 211.121 1468.02 211.121C1468.26 212.615 1468.72 214.599 1469.39 217.072C1470.12 219.494 1470.55 221.013 1470.67 221.632C1470.36 221.889 1469.82 222.018 1469.03 222.018C1468.23 222.018 1467.81 221.838 1467.75 221.477C1466.83 218.643 1465.56 216.84 1463.91 216.067C1462.27 215.243 1460.02 214.831 1457.16 214.831H1451.05C1445.81 214.831 1443.14 215.166 1443.01 215.835C1442.71 217.072 1442.56 219.236 1442.56 222.327V234.693C1442.56 235.002 1443.87 235.156 1446.48 235.156H1451.32C1453.02 235.156 1454.24 235.156 1454.97 235.156C1455.76 235.156 1456.58 235.053 1457.43 234.847C1458.29 234.641 1458.83 234.512 1459.08 234.461C1459.32 234.409 1459.62 234.074 1459.99 233.456C1460.42 232.838 1460.66 232.4 1460.72 232.142C1460.78 231.833 1460.99 231.086 1461.36 229.901C1461.42 229.54 1461.88 229.36 1462.73 229.36C1463.46 229.36 1463.98 229.489 1464.28 229.747V244.353C1464.04 244.559 1463.55 244.662 1462.82 244.662C1462.03 244.662 1461.54 244.456 1461.36 244.044C1460.93 242.653 1460.57 241.623 1460.26 240.953C1459.96 240.231 1459.72 239.819 1459.53 239.716C1459.41 239.562 1459.17 239.381 1458.8 239.175C1458.01 238.763 1454.79 238.557 1449.13 238.557C1444.75 238.557 1442.56 238.789 1442.56 239.252V251.232C1442.56 254.581 1442.83 256.925 1443.38 258.264C1443.56 258.78 1445.63 259.037 1449.59 259.037H1453.97C1459.62 259.037 1463.46 258.599 1465.47 257.723C1466.38 257.311 1467.38 256.41 1468.48 255.018C1469.63 253.576 1470.55 251.876 1471.22 249.918C1471.34 249.609 1471.76 249.454 1472.49 249.454C1473.65 249.454 1474.41 249.609 1474.77 249.918C1474.47 250.588 1473.98 251.669 1473.31 253.164C1472.71 254.606 1472.22 255.791 1471.85 256.719C1471.49 257.595 1471.09 258.625 1470.67 259.81C1470.24 260.995 1469.97 261.974 1469.85 262.747C1466.74 262.747 1461.85 262.695 1455.15 262.592C1448.46 262.489 1442.98 262.438 1438.73 262.438L1427.68 262.67C1427.5 262.515 1427.41 262.103 1427.41 261.433C1427.41 260.763 1427.5 260.428 1427.68 260.428C1428.47 260.428 1429.63 260.248 1431.15 259.887C1432.73 259.527 1433.68 259.115 1433.98 258.651C1434.41 258.033 1434.62 255.611 1434.62 251.386V222.173C1434.62 219.133 1434.41 216.917 1433.98 215.526C1433.8 215.114 1432.88 214.728 1431.24 214.367C1429.66 214.006 1428.47 213.826 1427.68 213.826C1427.44 213.826 1427.32 213.517 1427.32 212.899C1427.32 212.229 1427.44 211.791 1427.68 211.585C1430.85 211.688 1434.47 211.739 1438.54 211.739Z" fill="white"/>
<path d="M1510.09 211.43L1528.35 252.236C1529.44 254.658 1530.32 256.513 1530.99 257.801C1531.36 258.574 1532.3 259.218 1533.82 259.733C1535.34 260.196 1536.47 260.428 1537.2 260.428C1537.44 260.428 1537.56 260.918 1537.56 261.897C1537.56 262.103 1537.5 262.36 1537.38 262.67C1531.3 262.412 1527.95 262.283 1527.34 262.283C1527.28 262.283 1523.75 262.412 1516.76 262.67C1516.51 262.463 1516.39 262.051 1516.39 261.433C1516.45 260.763 1516.6 260.428 1516.85 260.428C1517.58 260.428 1518.49 260.3 1519.59 260.042C1520.68 259.784 1521.32 259.449 1521.5 259.037C1521.62 258.625 1521.68 258.213 1521.68 257.801C1521.68 257.131 1521.56 256.358 1521.32 255.482C1521.14 254.555 1520.95 253.833 1520.77 253.318L1516.67 243.735C1516.48 243.529 1516.3 243.426 1516.12 243.426C1513.74 243.271 1511.43 243.194 1509.18 243.194C1506.02 243.194 1502.15 243.323 1497.59 243.58L1497.13 243.812L1493.21 252.314C1492.18 254.89 1491.66 256.667 1491.66 257.646C1491.66 258.367 1491.9 258.883 1492.39 259.192C1492.94 259.552 1493.82 259.862 1495.04 260.119C1496.25 260.325 1497.13 260.428 1497.68 260.428C1497.86 260.428 1497.96 260.737 1497.96 261.356C1498.02 261.974 1497.99 262.412 1497.86 262.67C1491.78 262.412 1488.65 262.283 1488.46 262.283C1487.25 262.283 1486.18 262.309 1485.27 262.36C1484.36 262.412 1483.32 262.463 1482.17 262.515C1481.07 262.567 1480.01 262.618 1478.97 262.67C1478.73 262.463 1478.61 262.077 1478.61 261.51C1478.61 260.789 1478.73 260.428 1478.97 260.428C1479.7 260.428 1480.65 260.3 1481.8 260.042C1482.96 259.784 1483.75 259.424 1484.18 258.96C1485.45 257.569 1486.88 255.147 1488.46 251.695L1504.34 217.149C1504.47 216.892 1504.62 216.479 1504.8 215.913C1505.04 215.346 1505.23 214.934 1505.35 214.676C1505.47 214.367 1505.65 214.006 1505.9 213.594C1506.14 213.13 1506.35 212.796 1506.53 212.589C1506.72 212.383 1506.93 212.152 1507.17 211.894C1507.48 211.636 1507.78 211.456 1508.09 211.353C1508.45 211.25 1508.85 211.198 1509.27 211.198L1510.09 211.43ZM1499.51 239.33C1502.67 239.433 1504.83 239.484 1505.99 239.484C1508.66 239.484 1511.43 239.407 1514.29 239.252L1514.57 238.866L1507.17 221.786L1499.33 239.021C1499.33 239.227 1499.39 239.33 1499.51 239.33Z" fill="white"/>
<path d="M1565.4 214.831C1562.66 214.831 1560.53 215.011 1559.01 215.372C1558.77 215.423 1558.56 215.629 1558.37 215.99C1558.25 216.299 1558.13 217.072 1558.01 218.308C1557.95 219.494 1557.92 221.348 1557.92 223.873V233.224C1557.92 234.718 1560.56 235.466 1565.86 235.466H1568.14C1570.27 235.466 1572.46 234.564 1574.71 232.761C1577.02 230.957 1578.18 228.562 1578.18 225.573C1578.18 218.412 1573.92 214.831 1565.4 214.831ZM1566.86 211.43C1568.93 211.43 1571.03 211.688 1573.16 212.203C1575.29 212.718 1577.39 213.491 1579.46 214.522C1581.52 215.552 1583.23 217.02 1584.57 218.927C1585.9 220.833 1586.57 223.049 1586.57 225.573C1586.57 227.737 1585.6 230.004 1583.65 232.374C1581.77 234.744 1579.18 236.573 1575.9 237.861C1575.29 238.067 1575.11 238.325 1575.35 238.634C1578.39 244.044 1581.89 248.578 1585.84 252.236C1591.68 257.646 1596.43 260.351 1600.08 260.351C1600.26 260.66 1600.35 261.021 1600.35 261.433C1600.35 261.897 1600.26 262.283 1600.08 262.592C1599.41 262.747 1598.59 262.824 1597.62 262.824C1589.1 262.824 1581.71 259.115 1575.44 251.695C1574.47 250.562 1573.34 249.222 1572.06 247.676C1570.85 246.079 1569.93 244.946 1569.33 244.276C1568.78 243.555 1568.11 242.782 1567.32 241.957C1566.59 241.133 1565.92 240.515 1565.31 240.103C1564.76 239.69 1564.15 239.356 1563.48 239.098C1562.81 238.892 1561.69 238.789 1560.11 238.789C1559.62 238.789 1559.26 238.815 1559.01 238.866C1558.77 238.866 1558.53 238.969 1558.28 239.175C1558.04 239.381 1557.92 239.69 1557.92 240.103V251.463C1557.92 254.915 1558.16 257.157 1558.65 258.187C1558.95 258.857 1560.02 259.398 1561.84 259.81C1563.73 260.222 1565.07 260.428 1565.86 260.428C1566.1 260.428 1566.22 260.789 1566.22 261.51C1566.22 261.974 1566.16 262.36 1566.04 262.67C1559.96 262.412 1556 262.283 1554.18 262.283L1543.04 262.67C1542.86 262.515 1542.77 262.051 1542.77 261.278C1542.77 260.609 1542.86 260.274 1543.04 260.274C1543.89 260.274 1545.08 260.119 1546.6 259.81C1548.12 259.501 1549.03 259.115 1549.34 258.651C1549.76 258.033 1549.98 255.611 1549.98 251.386V222.173C1549.98 219.133 1549.76 216.917 1549.34 215.526C1549.16 215.114 1548.24 214.728 1546.6 214.367C1545.02 214.006 1543.83 213.826 1543.04 213.826C1542.8 213.826 1542.68 213.517 1542.68 212.899C1542.68 212.229 1542.8 211.791 1543.04 211.585L1553.99 211.739C1555.82 211.739 1557.98 211.688 1560.47 211.585C1562.97 211.482 1565.1 211.43 1566.86 211.43Z" fill="white"/>
<path d="M1649.73 221.941C1649.73 218.798 1649.52 216.531 1649.09 215.14C1648.91 214.728 1647.84 214.341 1645.9 213.981C1644.01 213.568 1642.67 213.362 1641.88 213.362C1641.64 213.362 1641.52 213.079 1641.52 212.512C1641.52 211.894 1641.64 211.482 1641.88 211.276C1642.67 211.327 1644.25 211.43 1646.63 211.585C1649 211.688 1651.01 211.739 1652.65 211.739C1654.23 211.739 1656.21 211.662 1658.58 211.507C1661.02 211.353 1662.45 211.276 1662.87 211.276C1662.99 211.585 1663.05 211.971 1663.05 212.435C1663.05 213.053 1662.93 213.362 1662.69 213.362C1662.08 213.362 1660.74 213.568 1658.67 213.981C1656.67 214.393 1655.6 214.779 1655.48 215.14C1654.99 216.737 1654.75 219.133 1654.75 222.327V251.695C1654.75 254.89 1654.84 258.496 1655.02 262.515C1654.78 262.721 1654.2 262.824 1653.29 262.824C1652.25 262.824 1651.25 262.232 1650.28 261.047L1614.87 218.54V251.541C1614.87 254.941 1615.08 257.337 1615.5 258.728C1615.63 259.089 1616.63 259.475 1618.52 259.887C1620.46 260.248 1621.74 260.428 1622.35 260.428C1622.53 260.428 1622.62 260.737 1622.62 261.356C1622.68 261.974 1622.65 262.412 1622.53 262.67C1616.45 262.412 1612.95 262.283 1612.04 262.283L1601.54 262.67C1601.36 262.515 1601.27 262.129 1601.27 261.51C1601.27 260.789 1601.36 260.428 1601.54 260.428C1602.39 260.428 1603.76 260.248 1605.65 259.887C1607.6 259.475 1608.66 259.037 1608.84 258.574C1609.45 257.234 1609.76 254.812 1609.76 251.309V220.936C1609.76 218.412 1609.54 216.479 1609.12 215.14C1608.93 214.728 1607.9 214.367 1606.01 214.058C1604.13 213.697 1602.76 213.517 1601.91 213.517C1601.66 213.517 1601.54 213.208 1601.54 212.589C1601.54 211.92 1601.66 211.482 1601.91 211.276C1606.65 211.379 1609.76 211.43 1611.22 211.43C1614.38 211.43 1616.81 211.379 1618.52 211.276C1620.77 214.779 1631.08 227.402 1649.46 249.145C1649.64 248.269 1649.73 247.213 1649.73 245.976V221.941Z" fill="white"/>
<path d="M1679.12 211.739C1681.85 211.739 1686.6 211.636 1693.35 211.43C1700.11 211.224 1705.19 211.121 1708.59 211.121C1708.84 212.615 1709.29 214.599 1709.96 217.072C1710.69 219.494 1711.12 221.013 1711.24 221.632C1710.94 221.889 1710.39 222.018 1709.6 222.018C1708.81 222.018 1708.38 221.838 1708.32 221.477C1707.41 218.643 1706.13 216.84 1704.49 216.067C1702.85 215.243 1700.59 214.831 1697.73 214.831H1691.62C1686.39 214.831 1683.71 215.166 1683.59 215.835C1683.28 217.072 1683.13 219.236 1683.13 222.327V234.693C1683.13 235.002 1684.44 235.156 1687.06 235.156H1691.89C1693.6 235.156 1694.81 235.156 1695.54 235.156C1696.33 235.156 1697.16 235.053 1698.01 234.847C1698.86 234.641 1699.41 234.512 1699.65 234.461C1699.89 234.409 1700.2 234.074 1700.56 233.456C1700.99 232.838 1701.23 232.4 1701.29 232.142C1701.35 231.833 1701.57 231.086 1701.93 229.901C1701.99 229.54 1702.45 229.36 1703.3 229.36C1704.03 229.36 1704.55 229.489 1704.85 229.747V244.353C1704.61 244.559 1704.12 244.662 1703.39 244.662C1702.6 244.662 1702.11 244.456 1701.93 244.044C1701.51 242.653 1701.14 241.623 1700.84 240.953C1700.53 240.231 1700.29 239.819 1700.11 239.716C1699.99 239.562 1699.74 239.381 1699.38 239.175C1698.59 238.763 1695.36 238.557 1689.7 238.557C1685.32 238.557 1683.13 238.789 1683.13 239.252V251.232C1683.13 254.581 1683.41 256.925 1683.95 258.264C1684.14 258.78 1686.2 259.037 1690.16 259.037H1694.54C1700.2 259.037 1704.03 258.599 1706.04 257.723C1706.95 257.311 1707.96 256.41 1709.05 255.018C1710.21 253.576 1711.12 251.876 1711.79 249.918C1711.91 249.609 1712.34 249.454 1713.07 249.454C1714.22 249.454 1714.98 249.609 1715.35 249.918C1715.04 250.588 1714.56 251.669 1713.89 253.164C1713.28 254.606 1712.79 255.791 1712.43 256.719C1712.06 257.595 1711.67 258.625 1711.24 259.81C1710.82 260.995 1710.54 261.974 1710.42 262.747C1707.32 262.747 1702.42 262.695 1695.73 262.592C1689.03 262.489 1683.56 262.438 1679.3 262.438L1668.26 262.67C1668.07 262.515 1667.98 262.103 1667.98 261.433C1667.98 260.763 1668.07 260.428 1668.26 260.428C1669.05 260.428 1670.2 260.248 1671.72 259.887C1673.31 259.527 1674.25 259.115 1674.55 258.651C1674.98 258.033 1675.19 255.611 1675.19 251.386V222.173C1675.19 219.133 1674.98 216.917 1674.55 215.526C1674.37 215.114 1673.46 214.728 1671.82 214.367C1670.23 214.006 1669.05 213.826 1668.26 213.826C1668.01 213.826 1667.89 213.517 1667.89 212.899C1667.89 212.229 1668.01 211.791 1668.26 211.585C1671.42 211.688 1675.04 211.739 1679.12 211.739Z" fill="white"/>
<path d="M1743.55 214.831C1740.81 214.831 1738.68 215.011 1737.16 215.372C1736.92 215.423 1736.7 215.629 1736.52 215.99C1736.4 216.299 1736.28 217.072 1736.16 218.308C1736.1 219.494 1736.07 221.348 1736.07 223.873V233.224C1736.07 234.718 1738.71 235.466 1744.01 235.466H1746.29C1748.42 235.466 1750.61 234.564 1752.86 232.761C1755.17 230.957 1756.33 228.562 1756.33 225.573C1756.33 218.412 1752.07 214.831 1743.55 214.831ZM1745.01 211.43C1747.08 211.43 1749.18 211.688 1751.31 212.203C1753.44 212.718 1755.54 213.491 1757.6 214.522C1759.67 215.552 1761.38 217.02 1762.71 218.927C1764.05 220.833 1764.72 223.049 1764.72 225.573C1764.72 227.737 1763.75 230.004 1761.8 232.374C1759.92 234.744 1757.33 236.573 1754.04 237.861C1753.44 238.067 1753.25 238.325 1753.5 238.634C1756.54 244.044 1760.04 248.578 1763.99 252.236C1769.83 257.646 1774.58 260.351 1778.23 260.351C1778.41 260.66 1778.5 261.021 1778.5 261.433C1778.5 261.897 1778.41 262.283 1778.23 262.592C1777.56 262.747 1776.74 262.824 1775.77 262.824C1767.25 262.824 1759.86 259.115 1753.59 251.695C1752.61 250.562 1751.49 249.222 1750.21 247.676C1748.99 246.079 1748.08 244.946 1747.47 244.276C1746.93 243.555 1746.26 242.782 1745.47 241.957C1744.74 241.133 1744.07 240.515 1743.46 240.103C1742.91 239.69 1742.3 239.356 1741.63 239.098C1740.96 238.892 1739.84 238.789 1738.26 238.789C1737.77 238.789 1737.4 238.815 1737.16 238.866C1736.92 238.866 1736.67 238.969 1736.43 239.175C1736.19 239.381 1736.07 239.69 1736.07 240.103V251.463C1736.07 254.915 1736.31 257.157 1736.8 258.187C1737.1 258.857 1738.16 259.398 1739.99 259.81C1741.88 260.222 1743.21 260.428 1744.01 260.428C1744.25 260.428 1744.37 260.789 1744.37 261.51C1744.37 261.974 1744.31 262.36 1744.19 262.67C1738.1 262.412 1734.15 262.283 1732.32 262.283L1721.19 262.67C1721.01 262.515 1720.92 262.051 1720.92 261.278C1720.92 260.609 1721.01 260.274 1721.19 260.274C1722.04 260.274 1723.23 260.119 1724.75 259.81C1726.27 259.501 1727.18 259.115 1727.49 258.651C1727.91 258.033 1728.13 255.611 1728.13 251.386V222.173C1728.13 219.133 1727.91 216.917 1727.49 215.526C1727.3 215.114 1726.39 214.728 1724.75 214.367C1723.17 214.006 1721.98 213.826 1721.19 213.826C1720.95 213.826 1720.82 213.517 1720.82 212.899C1720.82 212.229 1720.95 211.791 1721.19 211.585L1732.14 211.739C1733.97 211.739 1736.13 211.688 1738.62 211.585C1741.12 211.482 1743.24 211.43 1745.01 211.43Z" fill="white"/>
<path d="M1783.16 224.569C1783.16 220.601 1784.95 217.355 1788.54 214.831C1792.13 212.255 1796.3 210.966 1801.05 210.966C1802.38 210.966 1803.63 211.044 1804.79 211.198C1806 211.301 1806.98 211.43 1807.71 211.585C1808.5 211.739 1809.59 211.997 1810.99 212.358C1812.45 212.667 1813.73 212.924 1814.83 213.13C1815.56 215.861 1815.92 219.545 1815.92 224.182C1815.92 224.543 1815.62 224.723 1815.01 224.723C1813.55 224.723 1812.76 224.465 1812.64 223.95C1812.33 221.683 1811.02 219.494 1808.71 217.381C1806.46 215.217 1803.69 214.135 1800.41 214.135C1796.76 214.135 1794.17 214.908 1792.65 216.454C1791.19 217.999 1790.46 219.906 1790.46 222.173C1790.46 223.152 1790.67 224.105 1791.1 225.032C1791.52 225.908 1791.95 226.655 1792.38 227.273C1792.8 227.84 1793.56 228.51 1794.66 229.283C1795.81 230.056 1796.63 230.597 1797.12 230.906C1797.67 231.215 1798.7 231.782 1800.22 232.606C1801.81 233.43 1802.81 233.946 1803.24 234.152C1803.54 234.306 1804.61 234.873 1806.43 235.852C1808.26 236.779 1809.5 237.449 1810.17 237.861C1810.84 238.222 1811.88 238.918 1813.28 239.948C1814.74 240.927 1815.77 241.803 1816.38 242.576C1817.05 243.349 1817.66 244.327 1818.2 245.513C1818.81 246.646 1819.12 247.831 1819.12 249.068C1819.12 253.189 1817.2 256.59 1813.37 259.269C1809.59 261.897 1805.15 263.211 1800.04 263.211C1798.58 263.211 1797.03 263.108 1795.39 262.901C1793.74 262.747 1792.38 262.592 1791.28 262.438C1790.19 262.232 1788.79 261.974 1787.08 261.665C1785.44 261.304 1784.28 261.072 1783.61 260.969C1782.09 254.632 1781.33 250.536 1781.33 248.681C1781.33 248.372 1781.82 248.217 1782.79 248.217C1783.89 248.217 1784.65 248.449 1785.07 248.913C1787.14 256.332 1792.19 260.042 1800.22 260.042C1803.27 260.042 1805.85 259.269 1807.98 257.723C1810.11 256.178 1811.18 253.988 1811.18 251.154C1811.18 250.124 1810.99 249.171 1810.63 248.295C1810.26 247.419 1809.87 246.698 1809.44 246.131C1809.08 245.564 1808.38 244.972 1807.34 244.353C1806.37 243.683 1805.61 243.194 1805.06 242.885C1804.51 242.576 1803.51 242.086 1802.05 241.416C1800.59 240.747 1799.59 240.283 1799.04 240.025C1797.27 239.149 1796.03 238.531 1795.3 238.171C1794.63 237.81 1793.47 237.192 1791.83 236.316C1790.25 235.388 1789.09 234.59 1788.36 233.92C1787.63 233.199 1786.78 232.348 1785.8 231.37C1784.83 230.339 1784.13 229.257 1783.71 228.124C1783.34 226.99 1783.16 225.805 1783.16 224.569Z" fill="white"/>
</svg>
