<svg width="839" height="301" viewBox="0 0 839 301" fill="none" xmlns="http://www.w3.org/2000/svg">
<path fill-rule="evenodd" clip-rule="evenodd" d="M117.64 3.1614C102.752 9.91977 21.4519 57.1639 12.9623 63.9913C9.65741 66.6496 5.43737 71.8568 3.58613 75.5638C0.251195 82.2426 0.221191 82.8937 0.221191 148.977V215.652L4.11419 223.463C6.25497 227.76 10.8111 233.573 14.2405 236.38C22.1705 242.874 106.262 292.151 117.236 296.734C126.817 300.737 140.158 301.337 150.478 298.232C154.17 297.12 164.234 292.142 172.844 287.169C262.208 235.546 261.78 235.835 268.279 222.601L272.506 213.991L272.425 150.233C272.347 88.7745 272.23 86.2256 269.198 79.5693C262.455 64.7714 258.586 62.002 190.903 23.4935C172.424 12.9802 155.062 3.44193 152.321 2.29578C144.81 -0.842622 125.391 -0.358059 117.64 3.1614ZM180.704 72.6819C202.165 85.219 221.026 97.234 222.616 99.3823C225.207 102.881 225.49 105.766 225.33 126.984C225.232 140.015 224.797 151.253 224.362 151.957C222.662 154.705 218.169 152.678 192.139 137.418C177.303 128.722 164.168 121.222 162.952 120.756C161.028 120.017 160.742 127.365 160.742 177.332C160.742 228.662 160.478 235.049 158.259 237.501C156.091 239.896 153.25 240.245 135.863 240.245C119.761 240.245 115.499 239.793 113.592 237.888C111.533 235.826 111.236 228.364 111.236 178.719C111.236 147.471 110.728 121.611 110.11 121.251C109.492 120.891 103.585 123.624 96.9837 127.325C90.3828 131.026 76.7401 138.633 66.6678 144.232L48.3534 154.411L46.8892 149.696C46.0836 147.103 45.548 135.762 45.7011 124.493C45.9756 104.132 46.0056 103.968 50.4777 98.4777C53.5561 94.6972 64.4565 87.5068 84.9821 75.7153C129.284 50.2645 133.906 47.9362 138.074 48.9818C140.06 49.4814 159.243 60.1463 180.704 72.6819Z" fill="url(#paint0_linear)"/>
<path d="M406.078 107.812V137.041H370.519V185.595C370.519 191.393 371.871 195.58 374.576 198.157C377.44 200.572 381.338 201.78 386.27 201.78C390.088 201.78 393.35 201.378 396.055 200.572C398.759 199.606 401.305 198.237 403.692 196.466L407.987 221.83C404.01 224.568 398.919 226.822 392.714 228.594C386.668 230.204 380.542 231.01 374.337 231.01C360.654 231.01 349.835 228.111 341.88 222.313C334.084 216.355 330.107 206.37 329.948 192.359V137.041H309.423V107.812H329.948V80.7566L370.519 69.4031V107.812H406.078Z" fill="white"/>
<path d="M410.499 228.594V107.812H446.297L447.968 133.901C450.831 125.043 455.207 118.119 461.093 113.126C467.139 107.973 474.856 105.396 484.243 105.396C487.266 105.396 489.812 105.718 491.88 106.362C494.107 106.846 495.857 107.409 497.13 108.053L493.073 141.872C491.482 141.389 489.414 140.906 486.868 140.423C484.482 139.94 481.538 139.698 478.038 139.698C470.719 139.698 464.355 142.033 458.946 146.704C453.695 151.374 451.07 158.379 451.07 167.72V228.594H410.499Z" fill="white"/>
<path d="M548.161 105.396C560.73 105.396 571.708 107.892 581.095 112.885C590.642 117.877 598.04 125.043 603.29 134.384C608.7 143.724 611.404 154.997 611.404 168.203C611.404 181.408 608.7 192.681 603.29 202.022C598.04 211.362 590.642 218.529 581.095 223.521C571.708 228.513 560.73 231.01 548.161 231.01C535.751 231.01 524.773 228.513 515.227 223.521C505.84 218.529 498.442 211.362 493.032 202.022C487.782 192.681 485.157 181.408 485.157 168.203C485.157 154.997 487.782 143.724 493.032 134.384C498.442 125.043 505.84 117.877 515.227 112.885C524.773 107.892 535.751 105.396 548.161 105.396ZM548.161 134.625C541.161 134.625 535.672 137.283 531.694 142.597C527.876 147.75 525.966 156.286 525.966 168.203C525.966 179.959 527.876 188.494 531.694 193.809C535.672 199.123 541.161 201.78 548.161 201.78C555.321 201.78 560.81 199.123 564.628 193.809C568.606 188.494 570.595 179.959 570.595 168.203C570.595 156.286 568.606 147.75 564.628 142.597C560.81 137.283 555.321 134.625 548.161 134.625Z" fill="white"/>
<path d="M689.407 107.812H731.41L688.452 228.594H640.006L597.048 107.812H639.767L664.348 199.848L689.407 107.812Z" fill="white"/>
<path d="M781.47 231.01C761.582 231.01 745.831 225.534 734.216 214.583C722.761 203.632 717.033 188.172 717.033 168.203C717.033 154.997 719.658 143.724 724.909 134.384C730.318 124.882 737.637 117.716 746.865 112.885C756.252 107.892 767.15 105.396 779.56 105.396C792.129 105.396 802.789 107.892 811.54 112.885C820.45 117.716 827.212 124.48 831.826 133.176C836.44 141.711 838.746 151.535 838.746 162.647C838.746 165.707 838.587 168.686 838.269 171.585C838.11 174.322 837.951 176.658 837.792 178.59H756.411C757.525 186.964 760.229 193.003 764.525 196.707C768.821 200.25 774.469 202.022 781.47 202.022C787.515 202.022 792.289 200.814 795.789 198.398C799.448 195.983 802.153 192.601 803.903 188.253L836.36 199.123C834.133 206.048 830.234 211.926 824.666 216.757C819.256 221.428 812.733 224.97 805.096 227.386C797.618 229.802 789.743 231.01 781.47 231.01ZM779.56 134.142C766.673 134.142 759.036 141.631 756.65 156.608H800.323C798.573 141.631 791.652 134.142 779.56 134.142Z" fill="white"/>
<defs>
<linearGradient id="paint0_linear" x1="8.36897" y1="71.9625" x2="260.402" y2="224.982" gradientUnits="userSpaceOnUse">
<stop stop-color="white"/>
<stop offset="1" stop-color="white"/>
</linearGradient>
</defs>
</svg>
