<svg width="1178" height="301" viewBox="0 0 1178 301" fill="none" xmlns="http://www.w3.org/2000/svg">
<path fill-rule="evenodd" clip-rule="evenodd" d="M170.947 1.09464C167.764 1.82305 167.853 1.89768 172.818 2.68958C180.07 3.84568 183.756 6.97429 183.756 11.9741C183.756 20.7562 162.853 35.6397 141.29 42.211C109.831 51.7984 88.6476 44.8005 101.98 29.2254C106.732 23.6732 106.205 23.4115 99.5248 28.0069C91.7417 33.3631 80.3366 44.5009 77.2592 49.7524C70.474 61.3301 76.1042 72.0091 91.8687 77.4622C99.2976 80.0317 117.642 80.0751 130.811 77.5535C177.194 68.6744 217.426 41.0349 217.426 18.0487C217.426 9.06713 213.262 4.68329 201.928 1.73066C195.401 0.0310268 177.229 -0.34214 170.947 1.09464ZM255.513 18.6334C269.017 53.8244 228.458 88.3137 144.486 113.047C115.637 121.544 86.6194 127.549 61.0047 130.322C55.0571 130.966 49.9192 131.493 49.5884 131.493C49.2588 131.493 48.9881 126.695 48.9881 120.831C48.9881 112.663 48.6506 110.252 47.5469 110.528C45.2514 111.102 0.0274408 137.543 0.00293762 138.325C-0.019338 139.076 46.8753 166.02 48.2051 166.02C48.6362 166.02 48.9881 161.854 48.9881 156.762V147.504L57.063 148.947C78.1948 152.723 117.311 151.885 147.151 147.017C214.74 135.99 269.873 107.259 285.944 74.6899C288.547 69.4151 288.97 67.1708 288.988 58.5401C289.004 50.1433 288.566 47.6128 286.285 42.9472C282.66 35.535 272.886 25.922 263.841 20.8732C255.589 16.2688 254.492 15.9736 255.513 18.6334ZM1079.79 68.4684C1061.2 72.1149 1049.97 78.0881 1036.87 91.2841C1026.47 101.765 1019.99 112.941 1016.12 127.038C1013.34 137.191 1013.31 163.646 1016.07 173.816C1022.19 196.337 1036.51 214.551 1055.89 224.461C1069.71 231.524 1077.92 233.379 1095.39 233.384C1113.46 233.388 1120.62 231.87 1134.37 225.117C1154.53 215.215 1169.26 196.945 1175.74 173.816C1177.27 168.351 1177.77 162.618 1177.77 150.427C1177.79 136.608 1177.41 133.071 1175.19 125.924C1166.37 97.6205 1146.57 77.8988 1119.3 70.2828C1108.48 67.2599 1090.22 66.4224 1079.79 68.4684ZM386.509 71.627C386.535 72.3933 403.467 108.103 424.136 150.984L461.718 228.949L469.007 229.274L476.294 229.598L484.189 213.124C488.53 204.062 505.658 168.684 522.25 134.506C538.842 100.327 552.417 71.8665 552.417 71.2606C552.417 70.5846 547.875 70.2816 540.641 70.4754L528.865 70.7917L516.824 95.8518C510.2 109.635 496.774 137.553 486.987 157.892L469.191 194.872L439.905 133.945C423.798 100.436 410.135 72.3933 409.542 71.627C408.811 70.6803 404.95 70.2348 397.466 70.2348C389.382 70.2348 386.476 70.6046 386.509 71.627ZM572.094 70.9777C571.685 71.3854 571.351 107.221 571.351 150.613V229.505H637.621H703.891V219.481V209.457H648.759H593.627V182.17V154.882H624.813H655.999V144.858V134.834H624.813H593.627V113.115V91.3967H645.418H697.208V80.8157V70.2348H635.023C600.82 70.2348 572.502 70.569 572.094 70.9777ZM729.508 149.792V229.505H740.646H751.784V195.517V161.528L781.449 161.825L811.114 162.122L830.221 195.535L849.326 228.949L861.256 229.265C867.817 229.439 873.186 229.285 873.186 228.924C873.186 228.562 864.665 213.287 854.252 194.978C843.838 176.67 835.317 161.478 835.317 161.22C835.317 160.961 838.318 159.656 841.984 158.318C854.977 153.581 864.838 143.199 868.901 129.979C870.809 123.772 871.149 120.427 870.715 112.144C869.665 92.0616 860.19 79.8144 840.606 73.2287C834.009 71.01 830.94 70.8675 781.577 70.4832L729.508 70.0789V149.792ZM872.072 80.8157V91.3967H904.929H937.785V160.451V229.505H948.923H960.061V160.451V91.3967H992.917H1025.77V80.8157V70.2348H948.923H872.072V80.8157ZM320.855 88.3338C315.774 101.684 307.322 114.535 295.22 127.308C260.469 163.991 202.815 192.057 143.338 201.242C127.868 203.631 94.701 203.932 81.8446 201.8C70.669 199.947 57.0797 195.707 48.5671 191.417L42.0192 188.12L42.7999 191.271C44.8192 199.429 50.8893 209.17 59.1012 217.429C73.802 232.214 94.6264 240.464 123.879 243.091C163.88 246.684 211.223 235.251 251.233 212.338C303.732 182.271 331.147 145.453 328.113 109.085C327.453 101.166 323.651 85.8278 322.349 85.8278C322.053 85.8278 321.38 86.956 320.855 88.3338ZM1111.02 89.7594C1130.42 94.7414 1145.28 108.575 1152.15 128.046C1155.07 136.325 1156.31 149.698 1155.01 159.081C1151.6 183.874 1138.53 201.426 1117.48 209.485C1109.33 212.607 1090.92 213.759 1081.62 211.728C1065.17 208.135 1050.1 196.313 1043.05 181.448C1024.95 143.346 1042.89 98.7899 1079.94 89.8218C1088.71 87.7 1102.89 87.6722 1111.02 89.7594ZM833.212 93.1108C842.111 96.2505 847.047 102.704 848.224 112.741C849.528 123.853 845.277 132.433 836.012 137.389C831.56 139.77 830.192 139.856 791.601 140.189L751.784 140.531V115.964V91.3967H790.069C821.683 91.3967 829.201 91.6951 833.212 93.1108ZM341.077 179.587C327.448 184.531 316.295 188.964 316.295 189.438C316.295 189.914 319.563 192.953 323.557 196.194C327.551 199.434 330.655 202.617 330.455 203.266C329.832 205.291 306.299 223.752 293.463 232.287C235.062 271.115 171.669 285.031 110.246 272.507C103.201 271.071 97.2772 270.031 97.0811 270.197C96.4251 270.754 106.242 277.045 115.815 282.205C128.884 289.249 143.349 294.637 157.098 297.583C173.471 301.091 199.373 301.079 216.055 297.555C261.34 287.989 302.408 261.978 332.746 223.647C336.508 218.893 340.056 214.165 340.629 213.142C341.525 211.54 342.802 212.254 349.737 218.238C354.174 222.066 358.177 224.789 358.634 224.288C359.09 223.788 361.308 212.893 363.563 200.076C365.818 187.259 367.946 175.356 368.292 173.624C368.741 171.375 368.484 170.493 367.39 170.537C366.548 170.571 354.706 174.644 341.077 179.587Z" fill="white"/>
</svg>
