<svg width="1200" height="994" viewBox="0 0 1200 994" fill="none" xmlns="http://www.w3.org/2000/svg">
<path d="M961.622 618.973C961.715 602.543 971.195 592.779 985.601 592.779C1000.01 592.779 1008.56 602.355 1008.46 618.316V701.217H1053.91V609.303C1054.01 576.818 1034.39 555.13 1004.37 555.13C983.277 555.13 967.291 565.927 960.971 583.484H959.391V555.13H916.174V701.217H961.622V618.973Z" fill="white"/>
<path d="M830.609 701.217C874.774 701.217 901.565 671.816 901.565 628.22C901.565 584.532 874.774 555.13 830.609 555.13C786.444 555.13 759.652 584.532 759.652 628.22C759.652 671.816 786.444 701.217 830.609 701.217ZM830.883 667.207C814.333 667.207 805.189 651.354 805.189 627.943C805.189 604.44 814.333 588.495 830.883 588.495C846.885 588.495 856.029 604.44 856.029 627.943C856.029 651.354 846.885 667.207 830.883 667.207Z" fill="white"/>
<path d="M661.565 701.217H707.106V622.966C707.106 605.796 719.213 594.256 735.51 594.256C740.912 594.256 749.014 595.194 753.391 596.695V556.819C749.573 555.787 744.823 555.13 740.632 555.13C724.987 555.13 712.507 564.325 707.292 583.372H705.802V555.13H661.565V701.217Z" fill="white"/>
<path d="M646.948 555.109H618.865V525.913L573.827 525.913V555.109H555.13V588.475H573.827V659.6C573.551 688.227 592.156 702.587 623.931 701.114C634.799 700.562 642.628 698.353 646.956 697.064L640.141 664.571C638.207 665.031 633.694 665.952 630.286 665.952C623.01 665.952 618.865 663.006 618.865 654.63V588.475H646.956L646.948 555.109Z" fill="white"/>
<path d="M540.522 525.913L496.696 525.913V701.217H540.522V525.913Z" fill="white"/>
<path d="M411.13 701.217C455.295 701.217 482.087 671.816 482.087 628.22C482.087 584.532 455.295 555.13 411.13 555.13C366.965 555.13 340.174 584.532 340.174 628.22C340.174 671.816 366.965 701.217 411.13 701.217ZM411.405 667.207C394.854 667.207 385.71 651.354 385.71 627.943C385.71 604.44 394.854 588.495 411.405 588.495C427.406 588.495 436.55 604.44 436.55 627.943C436.55 651.354 427.406 667.207 411.405 667.207Z" fill="white"/>
<path d="M146.087 555.13L230.971 701.217H285.6L336 555.13H293.989L259.329 655.304H257.229L199.01 555.13H146.087Z" fill="white"/>
<path d="M681.878 759.652H697.044V772.174H681.878V810.692C681.878 817.339 685.223 818.796 689.392 818.796C691.454 818.796 693.332 818.386 694.249 818.158L697.044 831.042C695.257 831.634 692.004 832.544 687.285 832.681C674.823 833.045 665.201 826.581 665.292 813.423V772.174H655.304V759.652H665.292V745.043H681.878V759.652Z" fill="white"/>
<path d="M793.175 745.09H776.479V832.742H793.175V745.09Z" fill="white"/>
<path fill-rule="evenodd" clip-rule="evenodd" d="M727.592 832.696C738.979 832.696 745.784 827.495 748.903 821.557H749.47V832.696H765.913V783.954C765.913 765.267 750.273 759.652 736.428 759.652C721.166 759.652 709.447 766.28 705.667 779.167L721.638 781.376C723.339 776.544 728.159 772.401 736.522 772.401C744.461 772.401 748.808 776.36 748.808 783.31V783.586C748.808 788.091 744.246 788.56 733.032 789.712L730.852 789.937C716.771 791.41 703.304 795.506 703.304 811.431C703.304 825.331 713.747 832.696 727.592 832.696ZM732.034 820.453C724.898 820.453 719.795 817.277 719.795 811.155C719.795 804.758 725.513 802.088 733.167 801.03L733.928 800.929C738.601 800.311 746.753 799.233 748.855 797.578V805.908C748.855 813.779 742.334 820.453 732.034 820.453Z" fill="white"/>
<path d="M628.174 832.696H644.87V759.652H628.174V832.696Z" fill="white"/>
<path fill-rule="evenodd" clip-rule="evenodd" d="M523.511 821.557C520.393 827.495 513.588 832.696 502.2 832.696C488.356 832.696 477.913 825.331 477.913 811.431C477.913 795.506 491.38 791.41 505.461 789.937L507.642 789.712C518.854 788.56 523.417 788.091 523.417 783.586V783.31C523.417 776.36 519.069 772.401 511.131 772.401C502.768 772.401 497.948 776.544 496.247 781.376L480.276 779.167C484.056 766.28 495.774 759.652 511.037 759.652C524.881 759.652 540.522 765.267 540.522 783.954V832.696H524.078V821.557H523.511ZM494.404 811.155C494.404 817.277 499.507 820.453 506.642 820.453C516.943 820.453 523.464 813.779 523.464 805.908V797.578C521.362 799.233 513.211 800.311 508.538 800.929L507.776 801.03C500.121 802.088 494.404 804.758 494.404 811.155Z" fill="white"/>
<path d="M437.926 832.696C455.262 832.696 466.311 822.149 467.478 807.135H451.938C450.546 814.734 445.201 819.109 438.06 819.109C427.91 819.109 421.353 810.405 421.353 795.944C421.353 781.666 428.045 773.1 438.06 773.1C445.875 773.1 450.681 778.258 451.938 785.075H467.478C466.356 769.738 454.678 759.652 437.836 759.652C417.625 759.652 404.87 774.62 404.87 796.22C404.87 817.636 417.311 832.696 437.926 832.696Z" fill="white"/>
<path fill-rule="evenodd" clip-rule="evenodd" d="M567.652 820.266V847.304H550.957V759.652H567.353V772.291H568.32C570.853 767.171 576.058 759.652 588.539 759.652C604.889 759.652 617.739 772.476 617.739 796.094C617.739 819.436 605.258 832.675 588.585 832.675C576.426 832.675 570.945 825.432 568.32 820.266H567.652ZM567.307 796.002C567.307 782.255 573.202 773.352 583.933 773.352C595.033 773.352 600.744 782.809 600.744 796.002C600.744 809.287 594.941 818.974 583.933 818.974C573.294 818.974 567.307 809.748 567.307 796.002Z" fill="white"/>
<path d="M628.174 745.043H644.87V753.391H628.174V745.043Z" fill="white"/>
<path fill-rule="evenodd" clip-rule="evenodd" d="M632.678 239.905L608.523 416.752L608.519 416.771L601.599 467.443C601.418 467.467 601.233 467.478 601.044 467.478C600.854 467.478 600.669 467.463 600.488 467.443L593.568 416.771L593.564 416.752L569.409 239.905L558.681 153.381C558.35 150.728 559.748 148.286 562.436 146.963C565.121 145.641 568.281 145.826 570.736 147.446L596.473 164.442C597.844 165.348 599.444 165.799 601.044 165.799C602.644 165.799 604.248 165.348 605.614 164.442L631.351 147.446C633.806 145.826 636.966 145.641 639.651 146.963C642.339 148.286 643.732 150.728 643.406 153.381L632.678 239.905ZM597.694 465.72L510.928 315.754L418.212 155.51C417.013 153.435 417.132 151.152 418.542 149.181C419.953 147.203 422.263 146.092 424.947 146.092H441.67C444.79 146.092 447.457 147.635 448.638 150.134L499.94 258.32L598.84 466.869C598.359 466.572 597.967 466.178 597.694 465.72H597.689H597.694ZM604.393 465.72L691.159 315.754L783.875 155.51C785.074 153.435 784.955 151.152 783.545 149.181C782.134 147.203 779.825 146.092 777.14 146.092H760.417C757.297 146.092 754.63 147.635 753.449 150.134L702.148 258.32L603.247 466.869C603.723 466.572 604.12 466.178 604.393 465.72H604.398H604.393ZM599.338 467.127L517.936 258.317L477.535 154.677C476.737 152.629 477.094 150.558 478.553 148.803C480.012 147.048 482.168 146.092 484.671 146.092H522.904C526.553 146.092 529.617 148.282 530.3 151.379L553.93 258.317L600.131 467.382C599.853 467.32 599.585 467.231 599.333 467.123L599.338 467.127ZM602.754 467.127L684.155 258.317L724.556 154.677C725.354 152.629 724.997 150.558 723.538 148.803C722.079 147.048 719.924 146.092 717.42 146.092H679.188C675.538 146.092 672.475 148.282 671.792 151.379L648.162 258.317L601.96 467.382C602.238 467.32 602.507 467.231 602.758 467.123L602.754 467.127Z" fill="url(#paint0_linear)"/>
<g opacity="0.4">
<path d="M601.044 467.478C600.854 467.478 600.669 467.463 600.488 467.443L593.568 416.771L593.564 416.752L569.409 239.905L558.681 153.381C558.35 150.728 559.748 148.286 562.436 146.963C565.121 145.641 568.281 145.826 570.736 147.446L596.473 164.442C597.844 165.348 599.444 165.799 601.044 165.799V467.478Z" fill="#008282"/>
<path d="M597.694 465.72C597.967 466.178 598.359 466.572 598.84 466.869L448.638 150.134C447.457 147.635 444.79 146.092 441.67 146.092H424.947C422.263 146.092 419.953 147.203 418.542 149.181C417.132 151.152 417.013 153.435 418.212 155.51L597.694 465.72Z" fill="#008282"/>
<path d="M599.337 467.125L599.338 467.127L599.333 467.123L599.337 467.125Z" fill="#008282"/>
<path d="M599.337 467.125C599.587 467.232 599.855 467.32 600.131 467.382L530.3 151.379C529.617 148.282 526.553 146.092 522.904 146.092H484.671C482.168 146.092 480.012 147.048 478.553 148.803C477.094 150.558 476.737 152.629 477.535 154.677L599.337 467.125Z" fill="#008282"/>
</g>
<defs>
<linearGradient id="paint0_linear" x1="601.044" y1="467.478" x2="601.044" y2="146.087" gradientUnits="userSpaceOnUse">
<stop stop-color="#008282"/>
<stop offset="1" stop-color="#37AD00"/>
</linearGradient>
</defs>
</svg>
