<svg width="504" height="121" viewBox="0 0 504 121" fill="none" xmlns="http://www.w3.org/2000/svg">
<path d="M469.008 34.7819C469.043 28.6473 472.583 25.0016 477.961 25.0016C483.34 25.0016 486.533 28.5772 486.498 34.5365V65.49H503.468V31.1713C503.502 19.0423 496.18 10.9446 484.971 10.9446C477.094 10.9446 471.125 14.9759 468.765 21.5312H468.176V10.9446H452.039V65.49H469.008V34.7819Z" fill="white"/>
<path d="M420.091 65.49C436.581 65.49 446.584 54.5121 446.584 38.2345C446.584 21.9225 436.581 10.9446 420.091 10.9446C403.601 10.9446 393.597 21.9225 393.597 38.2345C393.597 54.5121 403.601 65.49 420.091 65.49ZM420.193 52.7914C414.014 52.7914 410.599 46.8723 410.599 38.1313C410.599 29.3558 414.014 23.4023 420.193 23.4023C426.168 23.4023 429.582 29.3558 429.582 38.1313C429.582 46.8723 426.168 52.7914 420.193 52.7914Z" fill="white"/>
<path d="M356.974 65.49H373.977V36.273C373.977 29.8621 378.498 25.5531 384.583 25.5531C386.6 25.5531 389.625 25.9034 391.259 26.4639V11.5752C389.834 11.1898 388.06 10.9446 386.496 10.9446C380.654 10.9446 375.994 14.3777 374.047 21.4893H373.491V10.9446H356.974V65.49Z" fill="white"/>
<path d="M351.516 10.9366H341.031V0.0356445L324.214 0.0356502V10.9366H317.233V23.3949H324.214V49.9513C324.111 60.6401 331.058 66.0017 342.922 65.4518C346.98 65.2456 349.903 64.4207 351.519 63.9395L348.974 51.8073C348.252 51.9791 346.567 52.3228 345.295 52.3228C342.578 52.3228 341.031 51.223 341.031 48.0954V23.3949H351.519L351.516 10.9366Z" fill="white"/>
<path d="M311.779 0.0356445L295.415 0.0357038V65.4902H311.779V0.0356445Z" fill="white"/>
<path d="M263.467 65.49C279.957 65.49 289.961 54.5121 289.961 38.2345C289.961 21.9225 279.957 10.9446 263.467 10.9446C246.977 10.9446 236.974 21.9225 236.974 38.2345C236.974 54.5121 246.977 65.49 263.467 65.49ZM263.57 52.7914C257.39 52.7914 253.976 46.8723 253.976 38.1313C253.976 29.3558 257.39 23.4023 263.57 23.4023C269.544 23.4023 272.958 29.3558 272.958 38.1313C272.958 46.8723 269.544 52.7914 263.57 52.7914Z" fill="white"/>
<path d="M164.506 10.9446L196.2 65.49H216.597L235.415 10.9446H219.729L206.788 48.3472H206.004L184.266 10.9446H164.506Z" fill="white"/>
<path d="M322.48 87.3083H328.142V91.9836H322.48V106.365C322.48 108.847 323.729 109.391 325.286 109.391C326.055 109.391 326.757 109.238 327.099 109.153L328.142 113.964C327.475 114.185 326.261 114.525 324.499 114.576C319.846 114.712 316.253 112.298 316.287 107.385V91.9836H312.558V87.3083H316.287V81.8538H322.48V87.3083Z" fill="white"/>
<path d="M364.036 81.8712H357.802V114.598H364.036V81.8712Z" fill="white"/>
<path fill-rule="evenodd" clip-rule="evenodd" d="M339.548 114.581C343.8 114.581 346.341 112.639 347.505 110.422H347.717V114.581H353.857V96.382C353.857 89.4049 348.017 87.3083 342.848 87.3083C337.149 87.3083 332.774 89.783 331.362 94.5948L337.325 95.4197C337.961 93.6152 339.76 92.0686 342.883 92.0686C345.847 92.0686 347.47 93.5465 347.47 96.1414V96.2445C347.47 97.9267 345.767 98.1017 341.58 98.532L340.766 98.6161C335.508 99.166 330.48 100.695 330.48 106.642C330.48 111.831 334.379 114.581 339.548 114.581ZM341.207 110.01C338.543 110.01 336.637 108.824 336.637 106.538C336.637 104.15 338.772 103.153 341.63 102.758L341.914 102.72C343.659 102.489 346.703 102.087 347.488 101.469V104.579C347.488 107.518 345.053 110.01 341.207 110.01Z" fill="white"/>
<path d="M302.428 114.581H308.662V87.3083H302.428V114.581Z" fill="white"/>
<path fill-rule="evenodd" clip-rule="evenodd" d="M263.349 110.422C262.185 112.639 259.645 114.581 255.393 114.581C250.223 114.581 246.324 111.831 246.324 106.642C246.324 100.695 251.352 99.166 256.61 98.6161L257.424 98.532C261.611 98.1017 263.314 97.9267 263.314 96.2446V96.1414C263.314 93.5465 261.691 92.0686 258.727 92.0686C255.604 92.0686 253.805 93.6152 253.17 95.4197L247.206 94.5948C248.618 89.783 252.993 87.3083 258.692 87.3083C263.861 87.3083 269.701 89.4049 269.701 96.382V114.581H263.561V110.422H263.349ZM252.482 106.538C252.482 108.824 254.387 110.01 257.051 110.01C260.897 110.01 263.332 107.518 263.332 104.579V101.469C262.547 102.087 259.504 102.489 257.759 102.72L257.474 102.758C254.616 103.153 252.482 104.15 252.482 106.538Z" fill="white"/>
<path d="M231.394 114.581C237.867 114.581 241.992 110.643 242.428 105.037H236.626C236.106 107.875 234.11 109.508 231.444 109.508C227.654 109.508 225.206 106.258 225.206 100.859C225.206 95.528 227.705 92.3295 231.444 92.3295C234.362 92.3295 236.156 94.2555 236.626 96.8005H242.428C242.009 91.0742 237.649 87.3083 231.36 87.3083C223.814 87.3083 219.052 92.897 219.052 100.962C219.052 108.958 223.697 114.581 231.394 114.581Z" fill="white"/>
<path fill-rule="evenodd" clip-rule="evenodd" d="M279.831 109.94V120.036H273.597V87.3083H279.719V92.0276H280.08C281.026 90.1158 282.969 87.3083 287.629 87.3083C293.734 87.3083 298.532 92.0965 298.532 100.915C298.532 109.63 293.872 114.573 287.647 114.573C283.107 114.573 281.06 111.869 280.08 109.94H279.831ZM279.702 100.88C279.702 95.7479 281.903 92.4237 285.91 92.4237C290.054 92.4237 292.187 95.9545 292.187 100.88C292.187 105.841 290.02 109.458 285.91 109.458C281.937 109.458 279.702 106.013 279.702 100.88Z" fill="white"/>
<path d="M302.428 81.8538H308.662V84.9706H302.428V81.8538Z" fill="white"/>
<path fill-rule="evenodd" clip-rule="evenodd" d="M81.2525 35.0651L72.2339 101.096L72.2322 101.103L69.6484 120.023C69.581 120.031 69.5118 120.036 69.4411 120.036C69.3703 120.036 69.3012 120.03 69.2337 120.023L66.6499 101.103L66.6483 101.096L57.6296 35.0651L53.6239 2.75908C53.5005 1.76837 54.0222 0.856865 55.0261 0.362951C56.0283 -0.130963 57.2083 -0.0618438 58.125 0.542949L67.7344 6.88896C68.2463 7.22735 68.8437 7.39583 69.4411 7.39583C70.0385 7.39583 70.6375 7.22735 71.1477 6.88896L80.7571 0.542949C81.6738 -0.0618438 82.8538 -0.130963 83.8561 0.362951C84.86 0.856865 85.38 1.76837 85.2582 2.75908L81.2525 35.0651ZM68.1903 119.379L35.794 63.3853L1.17598 3.55395C0.728338 2.77924 0.772773 1.92677 1.29941 1.19094C1.82604 0.45223 2.68841 0.037515 3.69066 0.037515H9.93458C11.0998 0.037515 12.0954 0.613508 12.5365 1.54662L31.6912 41.941L68.6182 119.808C68.4388 119.697 68.2924 119.55 68.1903 119.379H68.1887H68.1903ZM70.6918 119.379L103.088 63.3853L137.706 3.55395C138.154 2.77924 138.109 1.92677 137.583 1.19094C137.056 0.45223 136.194 0.037515 135.191 0.037515H128.948C127.782 0.037515 126.787 0.613508 126.346 1.54662L107.191 41.941L70.2639 119.808C70.4417 119.697 70.5898 119.55 70.6918 119.379H70.6935H70.6918ZM68.8042 119.905L38.4107 41.9396L23.3259 3.24292C23.028 2.47829 23.1614 1.70502 23.7061 1.04982C24.2508 0.394631 25.0556 0.037515 25.9904 0.037515H40.2655C41.6281 0.037515 42.7719 0.855425 43.027 2.01173L51.8498 41.9396L69.1004 120C68.9967 119.977 68.8963 119.943 68.8025 119.903L68.8042 119.905ZM70.0796 119.905L100.473 41.9396L115.558 3.24292C115.856 2.47829 115.722 1.70502 115.178 1.04982C114.633 0.394631 113.828 0.037515 112.893 0.037515H98.6183C97.2556 0.037515 96.1118 0.855425 95.8568 2.01173L87.034 41.9396L69.7834 120C69.8871 119.977 69.9874 119.943 70.0813 119.903L70.0796 119.905Z" fill="url(#paint0_linear)"/>
<g opacity="0.4">
<path d="M69.4411 120.036C69.3703 120.036 69.3012 120.03 69.2337 120.023L66.6499 101.103L66.6483 101.096L57.6296 35.0651L53.6239 2.75908C53.5005 1.76837 54.0222 0.856865 55.0261 0.362951C56.0283 -0.130963 57.2083 -0.0618438 58.125 0.542949L67.7344 6.88896C68.2463 7.22735 68.8437 7.39583 69.4411 7.39583V120.036Z" fill="#008282"/>
<path d="M68.1903 119.379C68.2924 119.55 68.4388 119.697 68.6182 119.808L12.5365 1.54662C12.0954 0.613508 11.0998 0.037515 9.93458 0.037515H3.69066C2.68841 0.037515 1.82604 0.45223 1.29941 1.19094C0.772773 1.92677 0.728338 2.77924 1.17598 3.55395L68.1903 119.379Z" fill="#008282"/>
<path d="M68.8038 119.904L68.8042 119.905L68.8025 119.903L68.8038 119.904Z" fill="#008282"/>
<path d="M68.8038 119.904C68.8972 119.944 68.9972 119.977 69.1004 120L43.027 2.01173C42.7719 0.855425 41.6281 0.037515 40.2655 0.037515H25.9904C25.0556 0.037515 24.2508 0.394631 23.7061 1.04982C23.1614 1.70502 23.028 2.47829 23.3259 3.24292L68.8038 119.904Z" fill="#008282"/>
</g>
<defs>
<linearGradient id="paint0_linear" x1="69.4411" y1="120.036" x2="69.4411" y2="0.0356446" gradientUnits="userSpaceOnUse">
<stop stop-color="#008282"/>
<stop offset="1" stop-color="#37AD00"/>
</linearGradient>
</defs>
</svg>
