<svg width="1651" height="394" viewBox="0 0 1651 394" fill="none" xmlns="http://www.w3.org/2000/svg">
<path d="M1537.06 114.084C1537.17 93.9421 1548.79 81.972 1566.45 81.972C1584.11 81.972 1594.59 93.7119 1594.48 113.278V214.909H1650.2V102.229C1650.31 62.4055 1626.27 35.8181 1589.47 35.8181C1563.6 35.8181 1544.01 49.0542 1536.26 70.5774H1534.32V35.8181H1481.34V214.909H1537.06V114.084Z" fill="#222220"/>
<path d="M1376.44 214.909C1430.59 214.909 1463.43 178.865 1463.43 125.42C1463.43 71.8622 1430.59 35.8181 1376.44 35.8181C1322.3 35.8181 1289.46 71.8622 1289.46 125.42C1289.46 178.865 1322.3 214.909 1376.44 214.909ZM1376.78 173.215C1356.49 173.215 1345.28 153.781 1345.28 125.081C1345.28 96.2683 1356.49 76.7208 1376.78 76.7208C1396.4 76.7208 1407.61 96.2683 1407.61 125.081C1407.61 153.781 1396.4 173.215 1376.78 173.215Z" fill="#222220"/>
<path d="M1169.21 214.909H1225.04V118.98C1225.04 97.9305 1239.88 83.7827 1259.86 83.7827C1266.48 83.7827 1276.41 84.9329 1281.78 86.7733V37.8885C1277.1 36.6233 1271.28 35.8181 1266.14 35.8181C1246.96 35.8181 1231.66 47.0904 1225.27 70.44H1223.44V35.8181H1169.21V214.909Z" fill="#222220"/>
<path d="M1151.29 35.7916H1116.86V0L1061.65 1.8743e-05V35.7916H1038.73V76.6963H1061.65V163.89C1061.31 198.985 1084.12 216.588 1123.07 214.783C1136.4 214.106 1145.99 211.398 1151.3 209.818L1142.95 169.983C1140.57 170.548 1135.04 171.676 1130.86 171.676C1121.94 171.676 1116.86 168.065 1116.86 157.796V76.6963H1151.3L1151.29 35.7916Z" fill="#222220"/>
<path d="M1020.82 0L967.092 0.000194505V214.909H1020.82V0Z" fill="#222220"/>
<path d="M862.197 214.909C916.34 214.909 949.184 178.865 949.184 125.42C949.184 71.8623 916.34 35.8181 862.197 35.8181C808.054 35.8181 775.21 71.8623 775.21 125.42C775.21 178.865 808.054 214.909 862.197 214.909ZM862.533 173.215C842.244 173.215 831.034 153.781 831.034 125.081C831.034 96.2684 842.244 76.7208 862.533 76.7208C882.15 76.7208 893.36 96.2684 893.36 125.081C893.36 153.781 882.15 173.215 862.533 173.215Z" fill="#222220"/>
<path d="M537.274 35.8181L641.335 214.909H708.305L770.092 35.8181H718.589L676.1 158.623H673.525L602.154 35.8181H537.274Z" fill="#222220"/>
<path d="M1055.95 286.545H1074.55V301.896H1055.95V349.116C1055.95 357.264 1060.05 359.05 1065.17 359.05C1067.69 359.05 1070 358.548 1071.12 358.269L1074.55 374.064C1072.35 374.789 1068.37 375.905 1062.58 376.073C1047.3 376.519 1035.51 368.594 1035.62 352.465V301.896H1023.38V286.545H1035.62V268.636H1055.95V286.545Z" fill="#222220"/>
<path d="M1192.39 268.693H1171.93V376.148H1192.39V268.693Z" fill="#222220"/>
<path fill-rule="evenodd" clip-rule="evenodd" d="M1111.99 376.091C1125.96 376.091 1134.3 369.715 1138.12 362.436H1138.82V376.091H1158.97V316.337C1158.97 293.429 1139.8 286.545 1122.83 286.545C1104.12 286.545 1089.75 294.67 1085.12 310.469L1104.7 313.177C1106.78 307.253 1112.69 302.175 1122.94 302.175C1132.67 302.175 1138 307.027 1138 315.547V315.886C1138 321.409 1132.41 321.984 1118.66 323.396L1115.99 323.672C1098.73 325.478 1082.22 330.5 1082.22 350.023C1082.22 367.063 1095.02 376.091 1111.99 376.091ZM1117.44 361.082C1108.69 361.082 1102.44 357.188 1102.44 349.684C1102.44 341.841 1109.45 338.568 1118.83 337.271L1119.76 337.147C1125.49 336.389 1135.49 335.068 1138.06 333.039V343.252C1138.06 352.9 1130.07 361.082 1117.44 361.082Z" fill="#222220"/>
<path d="M990.117 376.091H1010.58V286.545H990.117V376.091Z" fill="#222220"/>
<path fill-rule="evenodd" clip-rule="evenodd" d="M861.808 362.436C857.985 369.715 849.644 376.091 835.683 376.091C818.711 376.091 805.909 367.063 805.909 350.023C805.909 330.5 822.418 325.478 839.68 323.672L842.354 323.396C856.099 321.984 861.692 321.409 861.692 315.886V315.547C861.692 307.027 856.363 302.175 846.631 302.175C836.378 302.175 830.47 307.253 828.384 313.177L808.805 310.469C813.439 294.67 827.805 286.545 846.516 286.545C863.488 286.545 882.662 293.429 882.662 316.337V376.091H862.503V362.436H861.808ZM826.125 349.684C826.125 357.188 832.381 361.082 841.128 361.082C853.756 361.082 861.75 352.9 861.75 343.252V333.039C859.174 335.068 849.181 336.389 843.452 337.147L842.519 337.271C833.134 338.568 826.125 341.841 826.125 349.684Z" fill="#222220"/>
<path d="M756.887 376.091C778.14 376.091 791.685 363.161 793.117 344.755H774.066C772.359 354.071 765.807 359.435 757.053 359.435C744.609 359.435 736.57 348.764 736.57 331.036C736.57 313.533 744.774 303.031 757.053 303.031C766.633 303.031 772.524 309.355 774.066 317.711H793.117C791.74 298.91 777.425 286.545 756.777 286.545C732 286.545 716.363 304.895 716.363 331.374C716.363 357.628 731.615 376.091 756.887 376.091Z" fill="#222220"/>
<path fill-rule="evenodd" clip-rule="evenodd" d="M915.922 360.853V394H895.454V286.545H915.555V302.04H916.74C919.846 295.763 926.226 286.545 941.527 286.545C961.571 286.545 977.324 302.266 977.324 331.22C977.324 359.835 962.023 376.065 941.584 376.065C926.678 376.065 919.959 367.187 916.74 360.853H915.922ZM915.498 331.107C915.498 314.255 922.725 303.341 935.881 303.341C949.488 303.341 956.49 314.934 956.49 331.107C956.49 347.394 949.375 359.269 935.881 359.269C922.838 359.269 915.498 347.959 915.498 331.107Z" fill="#222220"/>
<path d="M990.117 268.636H1010.58V278.87H990.117V268.636Z" fill="#222220"/>
<path fill-rule="evenodd" clip-rule="evenodd" d="M263.924 115.013L234.313 331.813L234.307 331.837L225.824 393.957C225.602 393.986 225.375 394 225.143 394C224.911 394 224.684 393.981 224.462 393.957L215.979 331.837L215.973 331.813L186.362 115.013L173.21 8.94196C172.805 5.68913 174.518 2.69634 177.814 1.07466C181.104 -0.547028 184.979 -0.320087 187.988 1.66565L219.539 22.5017C221.22 23.6128 223.181 24.1659 225.143 24.1659C227.104 24.1659 229.071 23.6128 230.746 22.5017L262.297 1.66565C265.307 -0.320087 269.181 -0.547028 272.472 1.07466C275.768 2.69634 277.476 5.68913 277.076 8.94196L263.924 115.013ZM221.036 391.844L114.668 207.998L1.00585 11.5518C-0.463906 9.00815 -0.318011 6.20921 1.41111 3.79323C3.14023 1.36779 5.97166 0.0061413 9.26239 0.0061413H29.7633C33.5889 0.0061413 36.858 1.89732 38.3062 4.96103L101.197 137.589L222.441 393.253C221.852 392.889 221.371 392.407 221.036 391.844H221.031H221.036ZM229.25 391.844L335.617 207.998L449.28 11.5518C450.75 9.00815 450.604 6.20921 448.875 3.79323C447.146 1.36779 444.314 0.0061413 441.023 0.0061413H420.522C416.697 0.0061413 413.428 1.89732 411.98 4.96103L349.088 137.589L227.845 393.253C228.428 392.889 228.915 392.407 229.25 391.844H229.255H229.25ZM223.052 393.57L123.26 137.585L73.7315 10.5305C72.7535 8.02001 73.1912 5.4811 74.9797 3.32989C76.7683 1.17867 79.4106 0.0061413 82.4798 0.0061413H129.35C133.824 0.0061413 137.579 2.69161 138.417 6.48815L167.385 137.585L224.024 393.882C223.684 393.806 223.354 393.697 223.046 393.565L223.052 393.57ZM227.239 393.57L327.031 137.585L376.56 10.5305C377.538 8.02001 377.1 5.4811 375.311 3.32989C373.523 1.17867 370.881 0.0061413 367.811 0.0061413H320.941C316.467 0.0061413 312.712 2.69161 311.874 6.48815L282.906 137.585L226.267 393.882C226.607 393.806 226.937 393.697 227.245 393.565L227.239 393.57Z" fill="url(#paint0_linear)"/>
<g opacity="0.4">
<path d="M225.143 394C224.911 394 224.684 393.981 224.462 393.957L215.979 331.837L215.973 331.813L186.362 115.013L173.21 8.94196C172.805 5.68913 174.518 2.69634 177.814 1.07466C181.104 -0.547028 184.979 -0.320087 187.988 1.66565L219.539 22.5017C221.22 23.6128 223.181 24.1659 225.143 24.1659V394Z" fill="#008282"/>
<path d="M221.036 391.844C221.371 392.407 221.852 392.889 222.441 393.253L38.3062 4.96103C36.858 1.89732 33.5889 0.00614132 29.7633 0.00614132H9.26239C5.97166 0.00614132 3.14023 1.36779 1.41111 3.79323C-0.318011 6.20921 -0.463906 9.00815 1.00585 11.5518L221.036 391.844Z" fill="#008282"/>
<path d="M223.051 393.567L223.052 393.57L223.046 393.565L223.051 393.567Z" fill="#008282"/>
<path d="M223.051 393.567C223.357 393.698 223.685 393.806 224.024 393.882L138.417 6.48815C137.579 2.69161 133.824 0.00614132 129.35 0.00614132H82.4798C79.4106 0.00614132 76.7683 1.17867 74.9797 3.32989C73.1912 5.4811 72.7535 8.02001 73.7315 10.5305L223.051 393.567Z" fill="#008282"/>
</g>
<defs>
<linearGradient id="paint0_linear" x1="225.143" y1="394" x2="225.143" y2="3.61008e-07" gradientUnits="userSpaceOnUse">
<stop stop-color="#008282"/>
<stop offset="1" stop-color="#37AD00"/>
</linearGradient>
</defs>
</svg>
