<svg width="886" height="734" viewBox="0 0 886 734" fill="none" xmlns="http://www.w3.org/2000/svg">
<path d="M709.997 457.008C710.066 444.878 717.065 437.668 727.702 437.668C738.338 437.668 744.651 444.739 744.583 456.523V517.732H778.139V449.869C778.207 425.884 763.728 409.871 741.563 409.871C725.986 409.871 714.183 417.843 709.517 430.806H708.35V409.871H676.441V517.732H709.997V457.008Z" fill="#222220"/>
<path d="M613.266 517.732C645.874 517.732 665.656 496.024 665.656 463.836C665.656 431.58 645.874 409.871 613.266 409.871C580.658 409.871 560.876 431.58 560.876 463.836C560.876 496.024 580.658 517.732 613.266 517.732ZM613.469 492.621C601.249 492.621 594.498 480.917 594.498 463.632C594.498 446.279 601.249 434.506 613.469 434.506C625.283 434.506 632.034 446.279 632.034 463.632C632.034 480.917 625.283 492.621 613.469 492.621Z" fill="#222220"/>
<path d="M488.456 517.732H522.08V459.957C522.08 447.28 531.019 438.759 543.052 438.759C547.04 438.759 553.022 439.452 556.254 440.56V411.118C553.435 410.356 549.928 409.871 546.834 409.871C535.282 409.871 526.068 416.66 522.217 430.723H521.117V409.871H488.456V517.732Z" fill="#222220"/>
<path d="M477.664 409.855H456.929V388.299L423.676 388.299V409.855H409.871V434.491H423.676V487.005C423.472 508.141 437.208 518.744 460.669 517.656C468.693 517.248 474.473 515.617 477.67 514.666L472.637 490.675C471.209 491.015 467.877 491.694 465.361 491.694C459.989 491.694 456.929 489.52 456.929 483.335V434.491H477.67L477.664 409.855Z" fill="#222220"/>
<path d="M399.085 388.299L366.727 388.299V517.732H399.085V388.299Z" fill="#222220"/>
<path d="M303.551 517.732C336.16 517.732 355.941 496.024 355.941 463.836C355.941 431.58 336.16 409.871 303.551 409.871C270.943 409.871 251.162 431.58 251.162 463.836C251.162 496.024 270.943 517.732 303.551 517.732ZM303.754 492.621C291.534 492.621 284.783 480.917 284.783 463.632C284.783 446.279 291.534 434.506 303.754 434.506C315.568 434.506 322.32 446.279 322.32 463.632C322.32 480.917 315.568 492.621 303.754 492.621Z" fill="#222220"/>
<path d="M107.861 409.871L170.534 517.732H210.868L248.08 409.871H217.062L191.471 483.833H189.92L146.936 409.871H107.861Z" fill="#222220"/>
<path d="M503.453 560.876H514.65V570.122H503.453V598.561C503.453 603.468 505.923 604.544 509.001 604.544C510.523 604.544 511.91 604.241 512.587 604.073L514.65 613.586C513.331 614.023 510.929 614.695 507.445 614.796C498.244 615.065 491.14 610.292 491.207 600.578V570.122H483.833V560.876H491.207V550.09H503.453V560.876Z" fill="#222220"/>
<path d="M585.628 550.125H573.301V614.841H585.628V550.125Z" fill="#222220"/>
<path fill-rule="evenodd" clip-rule="evenodd" d="M537.205 614.807C545.613 614.807 550.637 610.967 552.94 606.583H553.358V614.807H565.499V578.819C565.499 565.022 553.951 560.876 543.729 560.876C532.461 560.876 523.808 565.77 521.017 575.285L532.809 576.916C534.066 573.348 537.624 570.29 543.799 570.29C549.66 570.29 552.87 573.212 552.87 578.343V578.547C552.87 581.874 549.502 582.22 541.222 583.071L539.612 583.237C529.216 584.324 519.273 587.349 519.273 599.107C519.273 609.37 526.983 614.807 537.205 614.807ZM540.485 605.767C535.217 605.767 531.449 603.423 531.449 598.903C531.449 594.179 535.67 592.208 541.322 591.427L541.884 591.352C545.334 590.896 551.353 590.1 552.905 588.878V595.029C552.905 600.84 548.09 605.767 540.485 605.767Z" fill="#222220"/>
<path d="M463.802 614.807H476.129V560.876H463.802V614.807Z" fill="#222220"/>
<path fill-rule="evenodd" clip-rule="evenodd" d="M386.526 606.583C384.223 610.967 379.199 614.807 370.791 614.807C360.569 614.807 352.859 609.37 352.859 599.107C352.859 587.349 362.802 584.324 373.199 583.237L374.809 583.071C383.087 582.22 386.456 581.874 386.456 578.547V578.343C386.456 573.212 383.246 570.29 377.385 570.29C371.21 570.29 367.651 573.348 366.396 576.916L354.604 575.285C357.394 565.77 366.047 560.876 377.315 560.876C387.537 560.876 399.085 565.022 399.085 578.819V614.807H386.944V606.583H386.526ZM365.035 598.903C365.035 603.423 368.803 605.767 374.071 605.767C381.676 605.767 386.491 600.84 386.491 595.029V588.878C384.939 590.1 378.921 590.896 375.471 591.352L374.908 591.427C369.256 592.208 365.035 594.179 365.035 598.903Z" fill="#222220"/>
<path d="M323.335 614.807C336.135 614.807 344.293 607.02 345.155 595.935H333.681C332.653 601.545 328.707 604.776 323.435 604.776C315.94 604.776 311.099 598.349 311.099 587.672C311.099 577.13 316.04 570.806 323.435 570.806C329.204 570.806 332.753 574.614 333.681 579.647H345.155C344.326 568.323 335.704 560.876 323.269 560.876C308.346 560.876 298.929 571.928 298.929 587.876C298.929 603.688 308.114 614.807 323.335 614.807Z" fill="#222220"/>
<path fill-rule="evenodd" clip-rule="evenodd" d="M419.117 605.63V625.593H406.79V560.876H418.896V570.209H419.61C421.48 566.428 425.323 560.876 434.538 560.876C446.61 560.876 456.097 570.345 456.097 587.783C456.097 605.017 446.882 614.791 434.572 614.791C425.595 614.791 421.548 609.444 419.61 605.63H419.117ZM418.861 587.715C418.861 577.565 423.214 570.992 431.137 570.992C439.333 570.992 443.549 577.974 443.549 587.715C443.549 597.524 439.265 604.676 431.137 604.676C423.282 604.676 418.861 597.864 418.861 587.715Z" fill="#222220"/>
<path d="M463.802 550.09H476.129V556.254H463.802V550.09Z" fill="#222220"/>
<path fill-rule="evenodd" clip-rule="evenodd" d="M467.127 177.13L449.293 307.702L449.29 307.716L444.18 345.129C444.047 345.146 443.91 345.155 443.77 345.155C443.63 345.155 443.494 345.143 443.36 345.129L438.251 307.716L438.248 307.702L420.414 177.13L412.493 113.246C412.249 111.287 413.28 109.485 415.265 108.508C417.247 107.531 419.581 107.668 421.393 108.864L440.396 121.413C441.408 122.082 442.589 122.415 443.77 122.415C444.952 122.415 446.136 122.082 447.145 121.413L466.147 108.864C467.96 107.668 470.293 107.531 472.275 108.508C474.26 109.485 475.289 111.287 475.048 113.246L467.127 177.13ZM441.297 343.856L377.235 233.131L308.78 114.818C307.894 113.286 307.982 111.6 309.024 110.145C310.065 108.685 311.77 107.865 313.752 107.865H326.099C328.403 107.865 330.372 109.004 331.244 110.849L369.122 190.727L442.143 344.705C441.788 344.486 441.499 344.195 441.297 343.856H441.294H441.297ZM446.244 343.856L510.306 233.131L578.761 114.818C579.646 113.286 579.558 111.6 578.517 110.145C577.476 108.685 575.77 107.865 573.788 107.865H561.441C559.137 107.865 557.168 109.004 556.296 110.849L518.419 190.727L445.398 344.705C445.749 344.486 446.042 344.195 446.244 343.856H446.247H446.244ZM442.511 344.896L382.409 190.724L352.58 114.203C351.991 112.691 352.255 111.162 353.332 109.866C354.409 108.571 356 107.865 357.849 107.865H386.077C388.772 107.865 391.034 109.482 391.538 111.768L408.985 190.724L443.097 345.084C442.892 345.038 442.693 344.972 442.508 344.893L442.511 344.896ZM445.033 344.896L505.135 190.724L534.964 114.203C535.553 112.691 535.289 111.162 534.212 109.866C533.135 108.571 531.544 107.865 529.695 107.865H501.467C498.772 107.865 496.51 109.482 496.006 111.768L478.559 190.724L444.447 345.084C444.652 345.038 444.851 344.972 445.036 344.893L445.033 344.896Z" fill="url(#paint0_linear)"/>
<g opacity="0.4">
<path d="M443.77 345.155C443.63 345.155 443.494 345.143 443.36 345.129L438.251 307.716L438.248 307.702L420.414 177.13L412.493 113.246C412.249 111.287 413.28 109.485 415.265 108.508C417.247 107.531 419.581 107.668 421.393 108.864L440.396 121.413C441.408 122.082 442.589 122.415 443.77 122.415V345.155Z" fill="#008282"/>
<path d="M441.297 343.856C441.499 344.195 441.788 344.486 442.143 344.705L331.244 110.849C330.372 109.004 328.403 107.865 326.099 107.865H313.752C311.77 107.865 310.065 108.685 309.024 110.145C307.982 111.6 307.894 113.286 308.78 114.818L441.297 343.856Z" fill="#008282"/>
<path d="M442.51 344.894L442.511 344.896L442.508 344.893L442.51 344.894Z" fill="#008282"/>
<path d="M442.51 344.894C442.695 344.973 442.893 345.038 443.097 345.084L391.538 111.768C391.034 109.482 388.772 107.865 386.077 107.865H357.849C356 107.865 354.409 108.571 353.332 109.866C352.255 111.162 351.991 112.691 352.58 114.203L442.51 344.894Z" fill="#008282"/>
</g>
<defs>
<linearGradient id="paint0_linear" x1="443.77" y1="345.155" x2="443.77" y2="107.861" gradientUnits="userSpaceOnUse">
<stop stop-color="#008282"/>
<stop offset="1" stop-color="#37AD00"/>
</linearGradient>
</defs>
</svg>
